<svg xmlns="http://www.w3.org/2000/svg" viewBox="0 0 128.93 85.34"><defs><style>.cls-1,.cls-5{fill:#664848;}.cls-2,.cls-5{font-size:12px;font-family:CalifornianFB-Bold, Californian FB;font-weight:700;}.cls-2,.cls-3,.cls-4{fill:#124559;}.cls-4{stroke:#664848;stroke-miterlimit:10;stroke-width:0.25px;}</style></defs><title>small</title><g id="Layer_2" data-name="Layer 2"><g id="BUILDINGS"><g id="small"><g id="coffee_roaster"><rect id="building_bg" class="cls-1" width="128.93" height="85.34"/><text class="cls-2" transform="translate(15.41 20.05)">Coffee Roaster</text><g id="building"><path class="cls-3" d="M58.13,61.13A.13.13,0,0,1,58,61c.1-.55.21-1.28.29-2.14a27,27,0,0,0,0-4.89c-.14-1.51-.26-1.34-.37-2.81-.16-2.09.1-2.24-.08-3.81-.21-1.93-.59-1.73-.78-3.7-.15-1.56,0-2.11-.35-3.25s-.73-1-.81-1.78a7.61,7.61,0,0,1,.75-3.36,1.36,1.36,0,0,0,.16-.59.45.45,0,0,0,0-.31.18.18,0,0,0-.07,0c-.15,0-.2.15-.24.28-.14.44-.27.89-.4,1.33a14.4,14.4,0,0,0-.48,2.35c0,.11,0,.26-.11.29s-.17-.11-.23-.19l-.35-.52c-.1-.16-.13,0-.21.24a3.64,3.64,0,0,0-.13,1,5.51,5.51,0,0,0,0,.7,6.66,6.66,0,0,0,.06.79c.08.54.2.8.13.86s0,0-.3-.19a2.28,2.28,0,0,1-.56-.59c-.15-.27-.14-.44-.2-.44s-.23.59-.24,1.17a6.94,6.94,0,0,0,.16,1.28c.22,1.53.26,1.74.31,2s.08.31.11.46,0,.21-.15.19a.55.55,0,0,1-.26-.14,4.63,4.63,0,0,1-1.11-1.51,13.55,13.55,0,0,1-1.3-4.38c0-.31,0-.62,0-.93V38c0-.12-.06-.16-.17-.09a2.19,2.19,0,0,0-.65,1c-.09.17-.17.35-.27.52s-.14.1-.2,0a1.07,1.07,0,0,1-.14-.5,3.69,3.69,0,0,1,.5-2.18c.41-.71.82-1.42,1.26-2.1a2.66,2.66,0,0,1,.83-.81c.37-.22.68-.53,1-.78.09-.06.18-.15.12-.29a.2.2,0,0,0-.27-.12,1.33,1.33,0,0,0-.76.5,15.12,15.12,0,0,0-1.4,1.75c0,.05-.06.14-.14.11s-.11-.11-.12-.2,0-.35,0-.53,0-.15-.06-.17-.09,0-.12.1a7.23,7.23,0,0,0-.47.92,9.51,9.51,0,0,0-.75,1.76c0,.16-.08.33-.11.49a2.81,2.81,0,0,1-.1.31.18.18,0,0,1-.17.11c-.08,0-.09-.09-.11-.16a6.19,6.19,0,0,1-.19-1.36,10.86,10.86,0,0,1,.54-4.1c.06-.15.12-.3.17-.44s.08-.13.05-.18-.12,0-.17,0a1.65,1.65,0,0,0-.63.52c-.1.1-.2.28-.32.2s0-.29,0-.43a5.37,5.37,0,0,1,3.69-4.11,4.94,4.94,0,0,1,1.48-.12,2.34,2.34,0,0,1,1,.49,4.73,4.73,0,0,0,.68.33c.09,0,.18,0,.23-.06s0-.21,0-.31a1,1,0,0,0-.32-.28,7.7,7.7,0,0,0-1.3-.61.75.75,0,0,1-.13-.06.18.18,0,0,1,0-.32.93.93,0,0,1,.55-.16,1.14,1.14,0,0,0,.5-.14c.12-.08.13-.17,0-.29a.9.9,0,0,0-.38-.21c-.58-.2-1.16-.35-1.75-.51a1.43,1.43,0,0,0-.79.09,2,2,0,0,1-.49.1.22.22,0,0,1-.21-.11.27.27,0,0,1,.06-.26,2.57,2.57,0,0,1,.84-.74,6.5,6.5,0,0,1,1.3-.63,2.85,2.85,0,0,1,3,.93c.22.23.41.5.62.75a4.07,4.07,0,0,1,.58,1.57c0,.15,0,.37.19.39s.19-.17.27-.29a1.73,1.73,0,0,0,.14-.31,5.65,5.65,0,0,1,1.35-2,3.87,3.87,0,0,1,1.2-.64c.13-.06.27-.09.4-.14a1,1,0,0,1,1.1.2,2.5,2.5,0,0,1,.46.51.26.26,0,0,1,0,.28c0,.11-.12.11-.21.11a2.61,2.61,0,0,0-.88,0h0c-.09,0-.23.06-.22.16s.15.07.23.08a2,2,0,0,1,1,.34,9,9,0,0,1,1.66,1.37.81.81,0,0,1,.21.3c.07.18,0,.26-.12.25s-.5-.07-.75-.09a6,6,0,0,0-2.79.3,3.87,3.87,0,0,0-1.63,1.23s-.07.08,0,.13.09.05.14,0c.32-.14.63-.3.94-.43a4.83,4.83,0,0,1,1.85-.45,3.81,3.81,0,0,1,1.71.38,11.67,11.67,0,0,1,1.68.88,3.42,3.42,0,0,1,1.43,2.15,1.15,1.15,0,0,1,0,.37c0,.18-.1.23-.22.14a.53.53,0,0,1-.12-.14,3.16,3.16,0,0,0-1.37-1.11c.24.47.53.87.78,1.32a4,4,0,0,1,.53,2.11,9.72,9.72,0,0,1-.15,2.09,2.8,2.8,0,0,1-.22.57c-.39.71-.61.87-.68.43s-.1-.89-.18-1.32a5.59,5.59,0,0,0-.72-2.08,7.86,7.86,0,0,0-1-1c-.07-.08-.11,0-.12.07s0,.2-.06.3c-.07.26-.23.31-.39.12-.45-.49-.9-1-1.34-1.5a1.56,1.56,0,0,0-.68-.41s-.11,0-.14.05,0,.11,0,.15l.29.29a6.49,6.49,0,0,1,1.54,2.14,6.15,6.15,0,0,1,.43,2.39,8.88,8.88,0,0,1-1,4.36,1.14,1.14,0,0,1-.51.51c-.18.09-.25,0-.24-.21a2.09,2.09,0,0,1,.07-.36,6.17,6.17,0,0,0,.33-2A5.13,5.13,0,0,0,61.25,37a6.47,6.47,0,0,0-.57-1.07.59.59,0,0,0-.06.28,2.19,2.19,0,0,1-.39,1h0a3.57,3.57,0,0,1-.35-.83c-.12-.44-.23-.87-.39-1.29a5.39,5.39,0,0,0-.87-1.38c-.06-.07-.1-.1-.13-.09s-.09.14-.09.17a1.69,1.69,0,0,0,.25,1A7.67,7.67,0,0,1,59,38.3c-.07,1.64-.57,1.47-.62,2.9-.05,1.19.3,1.26.77,3.93.22,1.23.14,1.17.41,2.64.2,1.12.32,1.59.5,2.7.11.76.16,1.23.24,1.92.31,2.66.47,4.1.8,5.62a25.57,25.57,0,0,0,.8,2.87.15.15,0,0,1-.1.2Z"/><path class="cls-3" d="M111.14,62.48c.12-.62.27-1.49.37-2.55a29,29,0,0,0,0-5.42c-.16-1.67-.29-1.48-.42-3.11-.19-2.32.11-2.48-.09-4.23-.25-2.13-.69-1.91-.91-4.09-.15-1.45-.39-2.8-.41-3.61a3.61,3.61,0,0,0,0-.6,2.11,2.11,0,0,0-.09-.38,3.83,3.83,0,0,1-.51-3.18c0-.16.07-.32.11-.49a.74.74,0,0,1-.23-.42c0-.14,0-.28.07-.18a1.63,1.63,0,0,1-.1.29c-.07.15-.15.29-.22.43a2.51,2.51,0,0,0-.41,2.48c-.12,0-.19-.11-.26-.21s-.27-.37-.4-.56-.16,0-.24.26a3.74,3.74,0,0,0-.16,1.06c0,.28,0,.49,0,.78a7.8,7.8,0,0,0,.08.87c.09.6.23.89.15,1s-.06,0-.35-.21a2.47,2.47,0,0,1-.65-.65c-.17-.3-.16-.49-.23-.49s-.27.66-.28,1.3a9.25,9.25,0,0,0,.19,1.42c.26,1.69.3,1.93.36,2.18s.09.34.12.52,0,.23-.17.2a.69.69,0,0,1-.32-.16,5,5,0,0,1-1.17-1.5,14.68,14.68,0,0,1-1.59-5,8.85,8.85,0,0,1,0-1,1.93,1.93,0,0,0,0-.24c.22-.13-.58-.13-.44.11a1.5,1.5,0,0,0-.19.25,5.7,5.7,0,0,0-.32.6,5.45,5.45,0,0,1-.31.58c-.08.14-.15.11-.23,0a1.16,1.16,0,0,1-.15-.55,3.89,3.89,0,0,1,0-1l.06-.31c1-1.68.17-3.52,2.56-4.44-2.39,0-4,2.76-3.33,4.33a.19.19,0,0,1-.19.13c-.09,0-.1-.1-.12-.17s-.07-.25-.1-.37l-.06-.38a5.55,5.55,0,0,1-.07-2.16c0-.16,0-.31,0-.46a11.25,11.25,0,0,1,.59-2.69c.06-.17.13-.33.2-.49a1.62,1.62,0,0,0-.88.4c-.1.11-.23.31-.36.22s0-.32,0-.48a6.09,6.09,0,0,1,4.27-4.55,4.1,4.1,0,0,1,.64,0c.84-.62.88-.88.85-1-.1-.32-1.07-.25-1.67-.12a5.19,5.19,0,0,0-1.3.5c-.92.46-1.25.84-1.38.72s-.07-.45.55-1.73a11.86,11.86,0,0,1,1.34-.73,10.1,10.1,0,0,1,2.71-.83,3.38,3.38,0,0,1,.93.12c1,.27,1.26.86,1.73.71s.46-1,1.1-1.22a1.2,1.2,0,0,1,1,.18c.59.39.53,1,.92,1.13s.32-.23,1.17-.78c0,0,.58-.34,1.38-.7.15-.07.32-.1.47-.17a1.24,1.24,0,0,1,1.27.23,2.6,2.6,0,0,1,.28.26,13.52,13.52,0,0,1,1,1.23,6.19,6.19,0,0,0-1.15-.53.83.83,0,0,0-1,.46c0,.29.54.79,3.26,1.72a1.16,1.16,0,0,1,.24.34c.08.19,0,.29-.15.27l-.42,0a8,8,0,0,0-2.37-.52,8.91,8.91,0,0,0-1.17,0,12.13,12.13,0,0,0-1,.86l-.3.32c-.31.36-.48.56-.44.71s.07.15.38.18l.27-.12.28-.11.69-.25.35-.1a7.39,7.39,0,0,0,2.42,0l.33.11.32.13a12.61,12.61,0,0,1,1.94,1,3.75,3.75,0,0,1,1.64,2.37,1.44,1.44,0,0,1,0,.41c0,.2-.12.26-.26.16a.51.51,0,0,1-.13-.16,3.75,3.75,0,0,0-1.58-1.23c.26.52.6,1,.89,1.46a4.45,4.45,0,0,1,.62,2.35,9.88,9.88,0,0,1-.18,2.31,2.2,2.2,0,0,1-.26.63c-.44.79-.7,1-.78.49s-.11-1-.21-1.47a5.77,5.77,0,0,0-.83-2.31,8.69,8.69,0,0,0-1.2-1.15c.35-.4-.48.55-.66.55a3.45,3.45,0,0,0-.26-.28l-.26-.27c-4.88-.37-.1.55-.29.45l.18.28a5,5,0,0,1,.31.61,6.58,6.58,0,0,1,.5,2.65A9.53,9.53,0,0,1,116,40.43a1.38,1.38,0,0,1-.58.57c-.21.1-.29,0-.28-.23a1.86,1.86,0,0,1,.08-.41,6.62,6.62,0,0,0,.38-2.21,5.68,5.68,0,0,0-.64-2.41,3.19,3.19,0,0,0-.44-.62c-.16-.18-.29-.3-.29-.25a1.89,1.89,0,0,1-.09.36,4.38,4.38,0,0,1-.38.79,1.6,1.6,0,0,1-.22-.44l-.19-.49c.08-.14.11-.27-.55-.12-.17.05-.31.14-.18.34s0,.34,0,.5c-.06.83-.29,1.64-.35,2.33,0,.14-.09.28-.14.45s-.12.34-.18.53a4.85,4.85,0,0,0-.25,1.27,3.94,3.94,0,0,0,0,.71c.09.77.43,1.31.87,3.65.25,1.36.16,1.29.46,2.92.24,1.24.38,1.76.58,3,.13.83.19,1.35.28,2.12a62.71,62.71,0,0,0,.93,6.24,29,29,0,0,0,1,3.39Z"/><path class="cls-3" d="M102.73,34.28l-37.67.11a.47.47,0,0,0-.48.48V62.16a.48.48,0,0,0,.48.49h37.67a.49.49,0,0,0,.48-.49V34.76A.48.48,0,0,0,102.73,34.28Z"/><path class="cls-4" d="M95.38,28.17a53,53,0,0,0-9.59-.45c-.4,0-2.22-.27-2.72-.3-1.71-.1-7.4.55-8.54.61-.19,0-3.83.56-4.84.77-2.18.48-1.85.72-3.18.92a2.72,2.72,0,0,0-1.49.6,1.86,1.86,0,0,0-.38.44,22.74,22.74,0,0,0-1.11,2.83c-.39,1.13-.75,2.27-1.06,3.42a4.78,4.78,0,0,0-.37,2l.15-.08c-.3.16,0,2.07,1,1.22-.36,2.22.57,1.52,1.54.62s1.79-1.64,1.59-.24c-.1.53-.08.77,0,.81s.65-1.85,1.19-1.8c.35,0,.51.9.7.88s.11-2,.38-2,.57,1.87,1.24,1.65l.49-.13c-.17-.82-.18-1.25,0-1.3s.31.14.6.53c.44-.72.65-.91.8-.92s.1.43.36.17c0,.77,0,1,.12,1s.26-.29.73-.8c.19-.21.36-.38.47-.48.22.45.81.1,1.14.34.68-.75.3,1,.88.44.75-.91.55.37,1,.07.34,0,.75-.13,1,.09.9-1.32.67,0,1,0,0,.86.58.11,1-.15.32,0,.43.36.92-.14.71-1.06.66-.33.84-.12.36-.53.19.21.78-.86.19-.11.43-.33.19.56,0,.22.07.51.19.59.19-.11.66-.84.74-.7.36-.12.44.42.73.5.48-.77.69-.91.44,0-.42,1.34-.1.94.24.54,1-1.56.13,1.17.86.15.09.53.58.14,1,0,.1.53,1-.87,1-.05.46-.35.85-.54,1-.06,0,.64.73-.27,1-.08.88-1.35.33.63,1-.11-.28,1.36,1-1,1-.14.33-.31.89-1.12.73-.26.08.33.17.64.61.12.21.57.75.4,1.29.28.89-1.37.25.87.77.34.71-.89,1-1.05.9-.2s.53,1,1.35.33c-.21,1.12.92-.88.94-.31.5-.55.82-.68.42.8.43.26,1.1-.56,1.4-.51s.65-.07,1.38-.63c.19.27.92-.66,1,0a1.93,1.93,0,0,1,.9.48,2.86,2.86,0,0,0,1.86.35c1.63-.45-3-9.86-3.87-10.5a1.71,1.71,0,0,0-.82-.45C99.59,28.88,96.16,28.28,95.38,28.17Z"/></g><g id="coffee_beans"><path class="cls-3" d="M23.29,51.85a3.07,3.07,0,0,0,.31.63A5.16,5.16,0,0,0,28,54.77a8.62,8.62,0,0,0,.88,0q.45-.06.87-.15l.84-.17.73-.3c.23-.13.46-.25.7-.36l.72-.34c2.44-1.5,6-2.06,5.69-5.67a4.18,4.18,0,0,0,0-.71,4,4,0,0,0-.18-.68A3.59,3.59,0,0,0,37,44.69a5.84,5.84,0,0,0-.64-.41,6.37,6.37,0,0,0-2.09-.7,5.85,5.85,0,0,0-.72-.07c-2.07.26-4.67.45-6.59,1.63a8.46,8.46,0,0,0-.77.44c-1.77,1.09-3.25,2.71-3.06,5a3.49,3.49,0,0,0,0,.65A3.68,3.68,0,0,0,23.29,51.85Zm6.14-3.67a5.36,5.36,0,0,1,1.44-.11h.71c.63,0,1.27,0,1.89,0L34.1,48a13.79,13.79,0,0,0,2.42-.71A3.71,3.71,0,0,1,33.26,49h-.49a2.84,2.84,0,0,0-.5.06H30.75a6.45,6.45,0,0,0-.76,0c-1.91.14-2.76,2-4.54,2.68a4.08,4.08,0,0,0-.45.49,5.06,5.06,0,0,1,.24-.46,8.62,8.62,0,0,1,3.66-3.42C29.06,48.28,29.26,48.24,29.43,48.18Z"/><path class="cls-3" d="M30.53,25.7A4.77,4.77,0,0,0,28,24a4.34,4.34,0,0,0-.52-.09,3,3,0,0,0-.52,0,5.9,5.9,0,0,0-.59.06,7.2,7.2,0,0,0-.78.16l-.76.27-.72.3-.61.37-.58.43-.6.4c-1.39,1.19-3.34,2.07-4.12,3.54a2.67,2.67,0,0,0-.26.66A4.31,4.31,0,0,0,22.2,34.5c.22,0,.44,0,.65-.06l1.24-.39c.22-.06.43-.13.65-.21a31.54,31.54,0,0,0,3.34-2,12.41,12.41,0,0,0,1.41-1.2c.36-.36.64-.78,1-1.17a2.39,2.39,0,0,0,.67-1.32A4.07,4.07,0,0,0,31,27.05a5.66,5.66,0,0,0-.31-1.14A2.12,2.12,0,0,0,30.53,25.7Zm-4.64,4.07c-.24.07-.43.14-.63.21a2.35,2.35,0,0,1-.64.12l-.64.13c-.55.11-1.12.22-1.67.35l-.55.16c-.46.22-1.37.59-2,.84.08-.7,1-1.07,1.5-1.51a2.7,2.7,0,0,1,.53-.22,2.14,2.14,0,0,1,.56-.11,3.43,3.43,0,0,0,.44-.09,3.52,3.52,0,0,0,.43-.13l.68-.13c.23,0,.45-.07.68-.12l.66-.16a2.76,2.76,0,0,0,.59-.22,4.91,4.91,0,0,0,1.35-1.07l.41-.45c.49-.5,1-1,1.47-1.57a18.61,18.61,0,0,1-1,2l-.39.45-.31.33-.33.32a2,2,0,0,0-.7.65Z"/><path class="cls-3" d="M38.62,33.69a4.34,4.34,0,0,0-.62.16A4.5,4.5,0,0,0,35.18,37c-.06.23-.11.47-.15.7l0,.71c0,.24,0,.46,0,.69s.08.41.13.61a6.13,6.13,0,0,1,.18.61c.06.2.12.41.17.61.88,2.13.71,5.06,4,5.25a4.5,4.5,0,0,0,.63.07,4.72,4.72,0,0,0,.64,0,3.68,3.68,0,0,0,1.71-.79A4.08,4.08,0,0,0,42.9,45a5.34,5.34,0,0,0,1-1.56,4.11,4.11,0,0,0,.19-.56c.15-1.67.46-3.75-.23-5.43-.07-.22-.15-.45-.24-.67a4.51,4.51,0,0,0-3.85-3.08,3.68,3.68,0,0,0-.58,0A3.9,3.9,0,0,0,38.62,33.69ZM40.73,39a3.82,3.82,0,0,1-.17,1.15c0,.19-.08.38-.12.57-.11.49-.23,1-.31,1.49,0,.17-.05.34-.06.51a9.58,9.58,0,0,0,.18,2A2.7,2.7,0,0,1,39.34,42c0-.13.06-.26.08-.39a1.75,1.75,0,0,0,0-.4l.15-.6c0-.2.09-.4.14-.6s.08-.4.1-.6c.23-1.54-1.24-2.45-1.54-3.95A2,2,0,0,0,38,35a3.9,3.9,0,0,1,.36.25,6.49,6.49,0,0,1,2.35,3.35C40.7,38.73,40.71,38.89,40.73,39Z"/><path class="cls-3" d="M27,33.16a2.53,2.53,0,0,0-.31.42,3.77,3.77,0,0,0,0,3.64c.1.19.2.38.31.57l.39.52c.13.17.26.33.4.48l.43.38c.16.1.32.22.47.33l.47.36c1.79,1.08,3.37,3.25,5.6,1.8a2.69,2.69,0,0,0,.84-.6,2.76,2.76,0,0,0,.66-1.4,3.31,3.31,0,0,0,0-.55,5,5,0,0,0-.24-1.61,4,4,0,0,0-.2-.48,12.44,12.44,0,0,0-3.27-3.75,6.49,6.49,0,0,0-.55-.36,4,4,0,0,0-4.28-.31,2.14,2.14,0,0,0-.41.25A3.38,3.38,0,0,0,27,33.16Zm4.25,3c.12.14.24.3.36.46a5.75,5.75,0,0,1,.5.78c.11.23.18.48.3.71a3.4,3.4,0,0,0,1.09,1.14,5.66,5.66,0,0,1,.54.43c.11.11.36.58.47.62A6.77,6.77,0,0,1,32,38.45a3.11,3.11,0,0,1-.29-.33c-.08-.12-.15-.24-.22-.37a8.62,8.62,0,0,0-3.2-2.88L28,34.72l-.23-.18a2.06,2.06,0,0,0-.47-.13h.39l.32,0,.31.05a5.24,5.24,0,0,1,1.81.65A4,4,0,0,1,31.24,36.12Z"/><path class="cls-3" d="M42.42,28.62a2.26,2.26,0,0,0-.15-.39c-1-2-1.76-1.48-2.45-1.57l-.52,0-.51,0-.5.06-.44.14-.43.17-.44.15c-1.5.75-3.64.88-3.62,3a2,2,0,0,0,0,.42,2,2,0,0,0,.06.41,2.18,2.18,0,0,0,.66,1,2.33,2.33,0,0,0,.35.27,3.82,3.82,0,0,0,1.19.53l.41.08a10.12,10.12,0,0,0,3.94-.6l.47-.21a3.22,3.22,0,0,0,2.06-2.76,2.41,2.41,0,0,0,0-.38A2.38,2.38,0,0,0,42.42,28.62Zm-3.78,1.81a3.45,3.45,0,0,1-.85,0l-.42,0c-.36,0-.73-.07-1.1-.08H35.9a7.59,7.59,0,0,0-1.45.28,2.19,2.19,0,0,1,2-.82l.29,0H37l.44,0,.44,0,.44,0c1.13,0,1.72-1,2.8-1.33a1.45,1.45,0,0,0,.29-.26l-.16.26A5.11,5.11,0,0,1,39,30.36Z"/><path class="cls-3" d="M21.38,49.5a1.84,1.84,0,0,0,.17-.38c.65-2.16-.23-2.29-.67-2.83a4.32,4.32,0,0,0-.34-.39c-.13-.12-.27-.23-.4-.33l-.4-.31-.41-.21-.43-.17-.42-.2c-1.6-.51-3.22-1.9-4.7-.36a2,2,0,0,0-.3.28,2.08,2.08,0,0,0-.24.34A2.19,2.19,0,0,0,13,46.15a2.32,2.32,0,0,0,.06.44,3.73,3.73,0,0,0,.48,1.2,3,3,0,0,0,.25.34A9.85,9.85,0,0,0,17,50.45l.49.17a3.19,3.19,0,0,0,3.39-.54,1.72,1.72,0,0,0,.27-.27A1.69,1.69,0,0,0,21.38,49.5Zm-4-1.34a3.05,3.05,0,0,1-.6-.59l-.28-.32c-.24-.27-.48-.56-.74-.82l-.26-.26a8.78,8.78,0,0,0-1.24-.81,2.21,2.21,0,0,1,2,.8,2,2,0,0,0,.19.22,1.34,1.34,0,0,0,.21.2c.1.11.2.22.29.34l.29.34.3.32c.79.8,1.94.48,2.93,1a2.6,2.6,0,0,0,.39,0l-.3.07a5,5,0,0,1-2.92-.32Z"/><path class="cls-3" d="M14.51,43a2.14,2.14,0,0,0,.44,0c2.38-.19,2.16-1.11,2.53-1.75.09-.16.17-.32.25-.49s.11-.35.17-.52.1-.34.14-.51,0-.32.05-.48,0-.33,0-.49,0-.33,0-.5c-.11-1.76.63-3.9-1.46-4.76a2.32,2.32,0,0,0-.39-.18,2.09,2.09,0,0,0-.43-.11,2.25,2.25,0,0,0-1.29.22,2.3,2.3,0,0,0-.4.23,4.29,4.29,0,0,0-1,.94,3,3,0,0,0-.24.38,10.24,10.24,0,0,0-1,4.08,5,5,0,0,0,0,.55,3.37,3.37,0,0,0,1.85,3.12,2.48,2.48,0,0,0,.37.17A2.23,2.23,0,0,0,14.51,43Zm-.23-4.43a3.35,3.35,0,0,1,.36-.82l.2-.4c.18-.34.36-.69.53-1l.15-.36a8.14,8.14,0,0,0,.31-1.53,2.29,2.29,0,0,1,0,2.28l-.14.27a2.49,2.49,0,0,0-.11.29l-.22.42c-.08.13-.15.27-.22.41a3.36,3.36,0,0,0-.2.43c-.48,1.08.28,2.08.15,3.26a2.24,2.24,0,0,0,.14.39,3.15,3.15,0,0,1-.19-.27,5.37,5.37,0,0,1-.81-3C14.23,38.84,14.26,38.72,14.28,38.61Z"/><path class="cls-3" d="M20.39,33.76a2.84,2.84,0,0,0-.49.17,3.79,3.79,0,0,0-2.06,3c0,.22-.05.43-.07.65l0,.64.06.63.15.55c.07.18.14.36.2.55l.18.56c.87,1.9.95,4.57,3.62,4.64a2.92,2.92,0,0,0,.51,0,3.09,3.09,0,0,0,.52-.07,2.67,2.67,0,0,0,1.33-.78,3,3,0,0,0,.35-.43,4.56,4.56,0,0,0,.7-1.46,4.7,4.7,0,0,0,.12-.51A12.46,12.46,0,0,0,25,37c-.08-.21-.16-.41-.25-.6a4,4,0,0,0-3.36-2.68,2.57,2.57,0,0,0-.48,0A1.89,1.89,0,0,0,20.39,33.76Zm2.12,4.8a4.09,4.09,0,0,1-.05,1l-.06.53c0,.45-.11.91-.14,1.37,0,.16,0,.31,0,.46a9.2,9.2,0,0,0,.3,1.83,2.72,2.72,0,0,1-.95-2.53c0-.12,0-.23,0-.35a2.29,2.29,0,0,0,0-.37c0-.19.05-.37.08-.56s.05-.36.07-.55,0-.37,0-.55c.07-1.4-1.19-2.19-1.55-3.55A2.83,2.83,0,0,0,20,35a3.62,3.62,0,0,1,.32.22,6.34,6.34,0,0,1,2.16,3C22.46,38.28,22.48,38.43,22.51,38.56Z"/></g><g id="rings"><circle class="cls-1" cx="24.67" cy="63.14" r="15.3"/><circle class="cls-1" cx="64.47" cy="63.14" r="15.3"/></g><polygon class="cls-3" points="116.35 20.01 115.14 18.17 113.9 19.99 113.25 17.89 111.55 19.28 111.52 17.08 109.5 17.94 110.09 15.82 107.9 16.08 109.07 14.21 106.9 13.84 108.54 12.38 106.56 11.41 108.56 10.47 106.93 8.98 109.11 8.64 107.97 6.76 110.15 7.04 109.58 4.92 111.6 5.8 111.66 3.6 113.34 5.02 114.02 2.93 115.23 4.76 116.47 2.94 117.12 5.05 118.82 3.65 118.85 5.85 120.87 4.99 120.28 7.11 122.47 6.86 121.3 8.72 123.47 9.1 121.83 10.56 123.8 11.53 121.81 12.47 123.44 13.95 121.26 14.29 122.4 16.18 120.22 15.89 120.78 18.02 118.77 17.13 118.71 19.33 117.03 17.91 116.35 20.01"/><text class="cls-5" transform="translate(112.24 14.92)">3</text></g></g></g></g></svg>