<svg xmlns="http://www.w3.org/2000/svg" viewBox="0 0 128.93 177.74"><defs><style>.cls-1,.cls-4{fill:#ddbc95;}.cls-2,.cls-4{font-size:12px;font-family:CalifornianFB-Bold, Californian FB;font-weight:700;}.cls-2,.cls-3{fill:#124559;}.cls-5{fill:#215d70;}</style></defs><title>customs_house</title><g id="Layer_2" data-name="Layer 2"><g id="BUILDINGS"><g id="customs_house"><rect id="small_sugar_mill_bg" class="cls-1" width="128.93" height="177.74"/><text class="cls-2" transform="translate(18.11 20.05)">Customs House</text><g id="point"><polygon class="cls-3" points="117.95 20.01 116.74 18.17 115.5 19.99 114.86 17.89 113.15 19.28 113.13 17.08 111.1 17.94 111.69 15.82 109.5 16.08 110.67 14.21 108.5 13.84 110.15 12.38 108.17 11.41 110.16 10.47 108.53 8.98 110.71 8.64 109.57 6.76 111.75 7.04 111.19 4.92 113.2 5.8 113.26 3.6 114.94 5.02 115.62 2.93 116.83 4.76 118.07 2.94 118.72 5.05 120.42 3.65 120.45 5.85 122.47 4.99 121.88 7.11 124.07 6.86 122.9 8.72 125.07 9.1 123.43 10.56 125.41 11.53 123.42 12.47 125.04 13.95 122.86 14.29 124 16.18 121.82 15.89 122.39 18.02 120.37 17.13 120.31 19.33 118.63 17.91 117.95 20.01"/><text class="cls-4" transform="translate(113.44 14.92)">4</text></g><g id="building"><rect class="cls-5" x="16.43" y="84.27" width="94.2" height="16.8"/><rect class="cls-5" x="26.11" y="53.63" width="76.8" height="16.8"/><path class="cls-3" d="M108,65.47V52.27h1.86V43.73H98.1v6.4H87L65.5,37.67,40.23,50.13H30.77v-6.4H19v8.54h2v13.2H9.3V70.4h2.4v32.8h7.67V93.53a5.93,5.93,0,1,1,11.86,0v9.67h3.5V93.53a5.93,5.93,0,0,1,11.86,0v9.67h3.5V93.53a5.93,5.93,0,1,1,11.86,0v9.67h3.5V93.53a5.93,5.93,0,1,1,11.86,0v9.67h3.5V93.53a5.93,5.93,0,1,1,11.86,0v9.67h3.5V93.53a5.93,5.93,0,1,1,11.86,0v9.67h9.2V70.4h2.4V65.47Zm-68.13-.06h-9V61.29a4.72,4.72,0,0,1,4.51-4.91,4.72,4.72,0,0,1,4.5,4.91Zm11.66,0h-9V61.29a4.52,4.52,0,1,1,9,0Zm11.77,0h-9V61.18a4.52,4.52,0,1,1,9,0Zm11.66,0h-9V61.18a4.52,4.52,0,1,1,9,0Zm11.66,0h-9V61.18a4.52,4.52,0,1,1,9,0Zm11.66,0h-9V61.18a4.52,4.52,0,1,1,9,0Z"/></g></g></g></g></svg>