<svg xmlns="http://www.w3.org/2000/svg" viewBox="0 0 128.93 85.34"><defs><style>.cls-1,.cls-5,.cls-7{fill:#68829e;}.cls-2,.cls-7{font-size:12px;}.cls-2,.cls-3,.cls-4,.cls-6{fill:#124559;}.cls-2,.cls-6,.cls-7{font-family:CalifornianFB-Bold, Californian FB;font-weight:700;}.cls-4{stroke:#68829e;stroke-width:0.25px;}.cls-4,.cls-5{stroke-miterlimit:10;}.cls-5{stroke:#124559;}.cls-6{font-size:16px;}</style></defs><title>large_indigo_plant</title><g id="Layer_2" data-name="Layer 2"><g id="BUILDINGS"><g id="large_indigo_plant"><rect id="building_bg" class="cls-1" width="128.93" height="85.34"/><text class="cls-2" transform="translate(10.97 20.05)">Large Indigo Plant</text><g id="building"><path class="cls-3" d="M58.13,61.13A.13.13,0,0,1,58,61c.1-.55.21-1.27.29-2.13a26.85,26.85,0,0,0,0-4.88c-.14-1.51-.26-1.33-.37-2.8-.16-2.08.1-2.23-.08-3.8-.21-1.92-.59-1.73-.78-3.69-.15-1.55,0-2.1-.35-3.24s-.73-1-.81-1.78a7.6,7.6,0,0,1,.75-3.35,1.36,1.36,0,0,0,.16-.59.45.45,0,0,0,0-.31l-.07,0c-.15,0-.2.15-.24.28-.14.44-.27.88-.4,1.32a14.19,14.19,0,0,0-.48,2.35c0,.1,0,.25-.11.28s-.17-.11-.23-.19l-.35-.51c-.1-.17-.13,0-.21.24a3.52,3.52,0,0,0-.13.95,5.51,5.51,0,0,0,0,.7,6.33,6.33,0,0,0,.06.78c.08.54.2.81.13.86s0,0-.3-.19a2.27,2.27,0,0,1-.56-.58c-.15-.27-.14-.44-.2-.44s-.23.59-.24,1.16a6.85,6.85,0,0,0,.16,1.28c.22,1.52.26,1.74.31,2s.08.31.11.47,0,.2-.15.18a.53.53,0,0,1-.26-.13,4.63,4.63,0,0,1-1.11-1.51,13.5,13.5,0,0,1-1.3-4.37c0-.3,0-.62,0-.92v-.22c0-.13-.06-.16-.17-.09a2.1,2.1,0,0,0-.65.95c-.09.18-.17.35-.27.52s-.14.1-.2,0a1,1,0,0,1-.14-.49,3.72,3.72,0,0,1,.5-2.19c.41-.7.82-1.41,1.26-2.09a2.63,2.63,0,0,1,.83-.8c.37-.22.68-.53,1-.78.09-.07.18-.16.12-.29a.2.2,0,0,0-.27-.12,1.33,1.33,0,0,0-.76.5A15,15,0,0,0,51.11,35c0,.05-.06.14-.14.12a.23.23,0,0,1-.12-.21c0-.17,0-.35,0-.52s0-.15-.06-.18-.09.06-.12.11a6.5,6.5,0,0,0-.47.91A9.51,9.51,0,0,0,49.44,37c0,.16-.08.32-.11.48a2.26,2.26,0,0,1-.1.31.19.19,0,0,1-.17.12c-.08,0-.09-.09-.11-.16a6.19,6.19,0,0,1-.19-1.36,10.83,10.83,0,0,1,.54-4.09c.06-.15.12-.29.17-.44s.08-.12.05-.18-.12,0-.17,0a1.54,1.54,0,0,0-.63.51c-.1.1-.2.28-.32.2s0-.29,0-.43a5.36,5.36,0,0,1,3.69-4.1,4.94,4.94,0,0,1,1.48-.12,2.58,2.58,0,0,1,1,.49,4.73,4.73,0,0,0,.68.33c.09,0,.18,0,.23-.06a.26.26,0,0,0,0-.3,1,1,0,0,0-.32-.29,7,7,0,0,0-1.3-.6.75.75,0,0,1-.13-.06.19.19,0,0,1,0-.33,1,1,0,0,1,.55-.16,1,1,0,0,0,.5-.13c.12-.08.13-.17,0-.29a.8.8,0,0,0-.38-.21c-.58-.21-1.16-.35-1.75-.51a1.43,1.43,0,0,0-.79.09,2.66,2.66,0,0,1-.49.1.22.22,0,0,1-.21-.11.27.27,0,0,1,.06-.26,2.57,2.57,0,0,1,.84-.74,6,6,0,0,1,1.3-.62,2.83,2.83,0,0,1,3,.92c.22.23.41.5.62.75a4,4,0,0,1,.58,1.57c0,.15,0,.36.19.39s.19-.18.27-.3a1.38,1.38,0,0,0,.14-.3,5.57,5.57,0,0,1,1.35-2,3.84,3.84,0,0,1,1.2-.63c.13-.07.27-.09.4-.15a1,1,0,0,1,1.1.21,2.44,2.44,0,0,1,.46.5.26.26,0,0,1,0,.28c0,.11-.12.11-.21.11a2.61,2.61,0,0,0-.88,0h0c-.09,0-.23.06-.22.16s.15.07.23.08a2,2,0,0,1,1,.34,8.52,8.52,0,0,1,1.66,1.36,1,1,0,0,1,.21.31c.07.17,0,.25-.12.24s-.5-.07-.75-.09a6,6,0,0,0-2.79.3,3.87,3.87,0,0,0-1.63,1.23s-.07.08,0,.13.09.05.14,0c.32-.14.63-.3.94-.43a4.83,4.83,0,0,1,1.85-.45,3.81,3.81,0,0,1,1.71.38,11.67,11.67,0,0,1,1.68.88A3.37,3.37,0,0,1,66.94,32a1.15,1.15,0,0,1,0,.37c0,.18-.1.23-.22.14a.53.53,0,0,1-.12-.14,3.16,3.16,0,0,0-1.37-1.11c.24.47.53.87.78,1.32a4,4,0,0,1,.53,2.11,9.63,9.63,0,0,1-.15,2.08,2.51,2.51,0,0,1-.22.56c-.39.72-.61.87-.68.44s-.1-.89-.18-1.32a5.66,5.66,0,0,0-.72-2.08,8.51,8.51,0,0,0-1-1c-.07-.07-.11,0-.12.08s0,.2-.06.3c-.07.25-.23.3-.39.12-.45-.5-.9-1-1.34-1.5a1.56,1.56,0,0,0-.68-.41.1.1,0,0,0-.14,0c0,.06,0,.11,0,.15a4,4,0,0,0,.29.29,6.55,6.55,0,0,1,1.54,2.13,6.17,6.17,0,0,1,.43,2.38,8.79,8.79,0,0,1-1,4.35,1.17,1.17,0,0,1-.51.52c-.18.08-.25,0-.24-.22a2.29,2.29,0,0,1,.07-.36,6.06,6.06,0,0,0,.33-2,5.13,5.13,0,0,0-.56-2.16A6.47,6.47,0,0,0,60.68,36a.59.59,0,0,0-.06.28,2.12,2.12,0,0,1-.39,1h0a3.24,3.24,0,0,1-.35-.83c-.12-.43-.23-.86-.39-1.27a5.39,5.39,0,0,0-.87-1.38c-.06-.07-.1-.1-.13-.09s-.09.13-.09.17a1.68,1.68,0,0,0,.25.94A7.67,7.67,0,0,1,59,38.37c-.07,1.63-.57,1.46-.62,2.89-.05,1.19.3,1.25.77,3.92.22,1.22.14,1.16.41,2.63.2,1.11.32,1.58.5,2.69.11.75.16,1.22.24,1.91.31,2.66.47,4.09.8,5.61a24.94,24.94,0,0,0,.8,2.86c0,.09,0,.2-.1.2Z"/><path class="cls-3" d="M111.14,62.48c.12-.63.27-1.5.37-2.56a29.42,29.42,0,0,0,0-5.46c-.16-1.69-.29-1.49-.42-3.14-.19-2.32.11-2.49-.09-4.25-.25-2.15-.69-1.93-.91-4.12-.15-1.46-.39-2.81-.41-3.63a3.61,3.61,0,0,0,0-.6,1.93,1.93,0,0,0-.09-.38,3.9,3.9,0,0,1-.51-3.21c0-.16.07-.32.11-.49a.74.74,0,0,1-.23-.42c0-.14,0-.29.07-.18a2,2,0,0,1-.1.29c-.07.15-.15.29-.22.43a2.55,2.55,0,0,0-.41,2.5c-.12,0-.19-.12-.26-.21l-.4-.57c-.12-.19-.16,0-.24.27a3.74,3.74,0,0,0-.16,1.06c0,.29,0,.49,0,.78a7.77,7.77,0,0,0,.08.88c.09.61.23.9.15,1s-.06,0-.35-.21a2.64,2.64,0,0,1-.65-.66c-.17-.3-.16-.49-.23-.49s-.27.66-.28,1.3a9.36,9.36,0,0,0,.19,1.44c.26,1.7.3,1.94.36,2.19s.09.35.12.52,0,.23-.17.21a.71.71,0,0,1-.32-.17,5,5,0,0,1-1.17-1.5A15,15,0,0,1,103.38,38a8.85,8.85,0,0,1,0-1,2.09,2.09,0,0,0,0-.25c.22-.13-.58-.13-.44.11a1.57,1.57,0,0,0-.19.26,5.7,5.7,0,0,0-.32.6,4.63,4.63,0,0,1-.31.58c-.08.14-.15.11-.23,0a1.16,1.16,0,0,1-.15-.55,4,4,0,0,1,0-1l.06-.31c1-1.69.17-3.54,2.56-4.47-2.39,0-4,2.78-3.33,4.36a.19.19,0,0,1-.19.13c-.09,0-.1-.1-.12-.17s-.07-.25-.1-.38l-.06-.38a5.6,5.6,0,0,1-.07-2.17c0-.16,0-.31,0-.47a11.44,11.44,0,0,1,.59-2.7c.06-.17.13-.33.2-.49a1.62,1.62,0,0,0-.88.4c-.1.12-.23.31-.36.22s0-.32,0-.48a6.12,6.12,0,0,1,4.27-4.58,4.1,4.1,0,0,1,.64,0c.84-.63.88-.88.85-1-.1-.32-1.07-.25-1.67-.12a5.19,5.19,0,0,0-1.3.5c-.92.46-1.25.85-1.38.73s-.07-.45.55-1.74a11.86,11.86,0,0,1,1.34-.74,10.1,10.1,0,0,1,2.71-.83,3,3,0,0,1,.93.12c1,.27,1.26.86,1.73.72s.46-1,1.1-1.23a1.2,1.2,0,0,1,1,.18c.59.39.53,1,.92,1.14s.32-.23,1.17-.79c0,0,.58-.34,1.38-.71.15-.07.32-.1.47-.16a1.22,1.22,0,0,1,1.27.23,2.6,2.6,0,0,1,.28.26,13.52,13.52,0,0,1,1,1.23,7.9,7.9,0,0,0-1.15-.53.84.84,0,0,0-1,.47c0,.29.54.79,3.26,1.73a1.16,1.16,0,0,1,.24.34c.08.19,0,.29-.15.27l-.42-.05a8,8,0,0,0-2.37-.51,7.46,7.46,0,0,0-1.17,0,12.13,12.13,0,0,0-1,.86l-.3.32c-.31.36-.48.57-.44.72s.07.15.38.18l.27-.12.28-.11c.23-.09.46-.18.69-.25l.35-.1a7.71,7.71,0,0,0,2.42,0l.33.11.32.14a12.61,12.61,0,0,1,1.94,1,3.79,3.79,0,0,1,1.64,2.39,1.49,1.49,0,0,1,0,.42c0,.2-.12.25-.26.15a.51.51,0,0,1-.13-.16,3.85,3.85,0,0,0-1.58-1.24c.26.53.6,1,.89,1.48a4.46,4.46,0,0,1,.62,2.36,10.09,10.09,0,0,1-.18,2.33,2.47,2.47,0,0,1-.26.63c-.44.8-.7,1-.78.49s-.11-1-.21-1.48a5.82,5.82,0,0,0-.83-2.32,8.84,8.84,0,0,0-1.2-1.17c.35-.39-.48.56-.66.56l-.26-.28-.26-.27c-4.88-.38-.1.55-.29.45l.18.28c.11.2.22.4.31.61a6.71,6.71,0,0,1,.5,2.67A9.65,9.65,0,0,1,116,40.29a1.38,1.38,0,0,1-.58.57c-.21.1-.29,0-.28-.24a1.77,1.77,0,0,1,.08-.4,6.74,6.74,0,0,0,.38-2.23,5.73,5.73,0,0,0-.64-2.42,3.26,3.26,0,0,0-.44-.63c-.16-.18-.29-.3-.29-.25a1.72,1.72,0,0,1-.09.36,3.72,3.72,0,0,1-.38.79s-.13-.21-.22-.44l-.19-.49c.08-.14.11-.27-.55-.12-.17.05-.31.15-.18.34s0,.34,0,.51c-.06.84-.29,1.65-.35,2.35l-.14.44q-.09.24-.18.54a4.86,4.86,0,0,0-.25,1.28,4,4,0,0,0,0,.71c.09.78.43,1.32.87,3.67.25,1.37.16,1.3.46,2.94.24,1.25.38,1.77.58,3,.13.84.19,1.36.28,2.14.36,3,.55,4.57.93,6.27a29.18,29.18,0,0,0,1,3.42Z"/><path class="cls-3" d="M102.73,34.28l-37.67.11a.47.47,0,0,0-.48.48V62.16a.48.48,0,0,0,.48.49h37.67a.49.49,0,0,0,.48-.49V34.76A.48.48,0,0,0,102.73,34.28Z"/><path class="cls-4" d="M95.38,28.17a53,53,0,0,0-9.59-.45c-.4,0-2.22-.27-2.72-.3-1.71-.1-7.4.55-8.54.61-.19,0-3.83.56-4.84.77-2.18.48-1.85.72-3.18.92a2.72,2.72,0,0,0-1.49.6,1.86,1.86,0,0,0-.38.44,22.74,22.74,0,0,0-1.11,2.83c-.39,1.13-.75,2.27-1.06,3.42a4.78,4.78,0,0,0-.37,2l.15-.08c-.3.16,0,2.07,1,1.22-.36,2.22.57,1.52,1.54.62s1.79-1.64,1.59-.24c-.1.53-.08.77,0,.81s.65-1.85,1.19-1.8c.35,0,.51.9.7.88s.11-2,.38-2,.57,1.87,1.24,1.65l.49-.13c-.17-.82-.18-1.25,0-1.3s.31.14.6.53c.44-.72.65-.91.8-.92s.1.43.36.17c0,.77,0,1,.12,1s.26-.29.73-.8c.19-.21.36-.38.47-.48.22.45.81.1,1.14.34.68-.75.3,1,.88.44.75-.91.55.37,1,.07.34,0,.75-.13,1,.09.9-1.32.67,0,1,0,0,.86.58.11,1-.15.32,0,.43.36.92-.14.71-1.06.66-.33.84-.12.36-.53.19.21.78-.86.19-.11.43-.33.19.56,0,.22.07.51.19.59.19-.11.66-.84.74-.7.36-.12.44.42.73.5.48-.77.69-.91.44,0-.42,1.34-.1.94.24.54,1-1.56.13,1.17.86.15.09.53.58.14,1,0,.1.53,1-.87,1-.05.46-.35.85-.54,1-.06,0,.64.73-.27,1-.08.88-1.35.33.63,1-.11-.28,1.36,1-1,1-.14.33-.31.89-1.12.73-.26.08.33.17.64.61.12.21.57.75.4,1.29.28.89-1.37.25.87.77.34.71-.89,1-1.05.9-.2s.53,1,1.35.33c-.21,1.12.92-.88.94-.31.5-.55.82-.68.42.8.43.26,1.1-.56,1.4-.51s.65-.07,1.38-.63c.19.27.92-.66,1,0a1.93,1.93,0,0,1,.9.48,2.86,2.86,0,0,0,1.86.35c1.63-.45-3-9.86-3.87-10.5a1.71,1.71,0,0,0-.82-.45C99.59,28.88,96.16,28.28,95.38,28.17Z"/></g><g id="indigos"><g id="indigo_flower"><path class="cls-3" d="M31,63.71s-.86-3.08-5.05-3.84C26.47,62.79,31,63.71,31,63.71Z"/><path class="cls-3" d="M30.41,62.63s1.08-3.27-3.1-4A5.82,5.82,0,0,0,30.41,62.63Z"/><path class="cls-3" d="M30.94,63.49S33.25,63.15,36,60C33.06,59.81,30.94,63.49,30.94,63.49Z"/><path class="cls-3" d="M30.61,61.53s.76-3.51-2.6-7C27,57.44,30.61,61.53,30.61,61.53Z"/><path class="cls-3" d="M34,56.18s-4.43,1.93-2.83,7.38C34.59,62,34,56.18,34,56.18Z"/><path class="cls-3" d="M32.11,54.16a7,7,0,0,0-1.51,6.48C32.92,59,32.11,54.16,32.11,54.16Z"/><path class="cls-3" d="M30.36,63.13c0-.15,0-.33-.05-.51l-.06-.55L30.13,61c-.09-.74-.17-1.48-.25-2.23,0-.38-.07-.75-.09-1.14,0-.19,0-.39,0-.63l0-.53c0-.7,0-1.44-.08-2.17L29.53,52c0-.38-.06-.76-.07-1.15l0-1.12c-.05-1.48-.13-3-.27-4.45s-.34-3-.56-4.42c-.12-.73-.25-1.48-.34-2.22L28,36.45c-.1-.74-.22-1.45-.33-2.21s-.18-1.49-.24-2.24c-.11-1.5-.17-3-.17-4.49a.07.07,0,0,1,.07-.07.07.07,0,0,1,.07.06c.2,1.49.37,3,.58,4.44.1.74.2,1.47.33,2.2l.21,1.1c.07.37.13.75.17,1.12.08.75.14,1.5.21,2.23s.21,1.46.34,2.2c.25,1.48.47,3,.64,4.45s.31,3,.4,4.48l.07,1.12c0,.36.07.72.11,1.09.09.73.22,1.47.32,2.22A16.94,16.94,0,0,1,31,56.44c0,.19,0,.39,0,.59s0,.31,0,.49c0,.35.06.72.1,1.09l.24,2.22L31.44,62l0,.56c0,.19,0,.38,0,.61a.58.58,0,0,1-1.16,0Z"/><path class="cls-3" d="M29,41.93s.77-.65.75-.74-.15-.12-.06-.33a1,1,0,0,1,.42-.37,3,3,0,0,1,.11-1,6.22,6.22,0,0,1,.47-.56c.09-.1.58-1,.72-1,.31.12.17,1.08.19,1.26s.39-.48.68-.46,1-.1,1,.35a3,3,0,0,1-.54,1.48,3.79,3.79,0,0,1-1.49.36c-.25,0-.29.18-.44.26s-.7.34-.8.25-.83.75-.83.75Z"/><path class="cls-3" d="M29.9,48.24l.51-.66s.07-.55.18-.63-.42-1.18-.25-1.54a3.08,3.08,0,0,1,1.17-1.12.57.57,0,0,1,.55.29c.08.17.17-.15.22-.14s.43.25.38.52.27-.22.44-.16.9.47.91.72a1.55,1.55,0,0,1-.32.87,1.51,1.51,0,0,1-.71.46c-.17,0-.5.46-.95.4s-1.09.68-1.26.65-.87.82-.87.82Z"/><path class="cls-3" d="M28.43,35.74l.49-.56s.06-.67.17-.73-.4-1-.24-1.29.92-1,1.13-.93c.39.15.28.57.36.71s0-.22.21-.25.57-.13.53.1.25-.18.41-.14.87.4.88.6a1.14,1.14,0,0,1-.31.73c-.16.16-.45.47-.61.47s-.62.68-1.05.63-1.09.47-1.25.44-.72.4-.72.4Z"/><path class="cls-3" d="M29.05,41.43a2,2,0,0,1-.67-1.14.55.55,0,0,0-.55-.53l.15-.19s-.28-.49-.47-.53-.33-1.21-.5-1.33-.17-.56-.29-.48-.25.77-.31.77a1.61,1.61,0,0,0-.56.22c-.11.1-.23-.39-.54-.31s-.71.06-.71.51A3,3,0,0,0,25,39.75a1.69,1.69,0,0,0,1,.44,2.2,2.2,0,0,1,1,.25c.09.06.44.58.64.56a7.52,7.52,0,0,1,1.49.86Z"/><path class="cls-3" d="M29.32,46A5.24,5.24,0,0,1,29,44.92c0-.16.16-1.87-.12-2s-1.09-.3-1.22,0-.54-.48-.85,0-.34.86-.29,1-.55.33-.51.71a1.07,1.07,0,0,0,.41.73,6,6,0,0,0,1.27.46c.25,0,.38.59.64.66s1.2.45,1.2.45Z"/><path class="cls-3" d="M30,53.42s-.63-.12-.8-.48a2.89,2.89,0,0,0-.33-.71,2.73,2.73,0,0,0-1-.83c-.07,0-.19-.7-.31-.8s0-.37-.19-.54-.45-.69-.74-.53-.19.31-.14.76-.09.28-.4.17l0,0c-.34-.09-.6-.61-.74-.25l0,0c-.29-.14-.41-.24-.61-.12l0,0s0,0,0,0c-.16.19.2.4.31.62a.14.14,0,0,0,0,.06c-.17.2-.35.09-.51,0a1.42,1.42,0,0,0-.13-.12s-.13-.06-.13,0a.42.42,0,0,1,0,.07,4,4,0,0,0,.06.66l0,0a1.39,1.39,0,0,0,.21.21l0,0a2.89,2.89,0,0,0,1,.76,9.86,9.86,0,0,0,1.74.19c.4,0,1.09.65,1.21.68s1,.62,1.41.59S30,53.42,30,53.42Z"/><path class="cls-3" d="M28.34,36.35s-.5-.1-.64-.39a2.71,2.71,0,0,0-.26-.57,2.23,2.23,0,0,0-.82-.66c-.06,0-.15-.57-.25-.65s0-.3-.15-.43-.3-.41-.53-.29-.44-.32-.74-.21.08.61-.13.69c-.51.2-.59-.39-.86-.14s-.61.64-.2,1.07.15,1.16,1.23,1.08c.72-.05.83-.18,1.14-.18s.88.53,1,.55.8.5,1.14.48S28.34,36.35,28.34,36.35Z"/><path class="cls-3" d="M30.55,53.67s.48-.29.53-.34.21-.15.22-.25-.13-.19-.05-.38l.51-1.19a2.39,2.39,0,0,1,.12-.22c.16-.23.42-.27.61-.47a.64.64,0,0,0,.1-.13l0-.11.07-.41c0-.11.05-.34.15-.41s.15.07.29.05.2-.21.31-.11.05.37,0,.47a.71.71,0,0,0,.1.43c.06.08.16.13.22.21s.23.11.45,0a1.17,1.17,0,0,1,.58-.1c.37.06.85.17.89.34a1.84,1.84,0,0,1-.53,1.09c-.23.1-.51.7-.89.68a5,5,0,0,0-1.26,0,7.27,7.27,0,0,1-.77.28c-.18.06-.54.46-.69.31s-1,1.05-1,1.05Z"/><path class="cls-3" d="M27.86,32.44c.08-.13.43-.77.43-.77a.55.55,0,0,1-.08-.48,2.22,2.22,0,0,1,.39-.72c.14-.14.18-.92.43-1s.76-.41.63-.14.18-.16.23,0a1.22,1.22,0,0,1,.07.89,2.46,2.46,0,0,1-.77.82c-.11,0-.43.78-.56.71s-.77.93-.77.93Z"/><path class="cls-3" d="M27.46,31.16l-.29-.52c0-.05-.08-.17-.13-.21s-.5-.08-.62-.34c0,0,0-.05,0-.06s0,0-.05,0-.1-.09-.16-.2,0,0-.12-.2a1.21,1.21,0,0,0-.1-.16,1.06,1.06,0,0,0-.21-.16.85.85,0,0,1-.25-.26.89.89,0,0,1-.11-.49.53.53,0,0,1,.05-.33.47.47,0,0,1,.09-.1v0c0-.15.08-.23.16-.11s0-.23.13-.19a1.13,1.13,0,0,1,.86.51,2.23,2.23,0,0,1,.19.67,2.48,2.48,0,0,0,.2.67c0,.1.1.18.14.28s0,.29,0,.44a3,3,0,0,0,.15.38c.07.18.15.35.23.52Z"/><path class="cls-3" d="M27.4,29.1c0-.14-.17-.86-.17-.86a.59.59,0,0,1-.37-.32,2.37,2.37,0,0,1-.16-.81.39.39,0,0,0,0-.13l0-.08-.05-.1-.05-.09a.55.55,0,0,1-.07-.68l0-.05a.14.14,0,0,1,0-.09.08.08,0,0,1,0-.05c-.08-.29.18-.29.47-.24h.1l0,0a.59.59,0,0,1,.19-.05.2.2,0,0,1,.14,0,.24.24,0,0,1,.06.08c-.3.41.22.67.13,1.2a.4.4,0,0,1-.1.12l0,.11a.39.39,0,0,0,0,.06c-.07.1.16.88,0,.91s0,1.2,0,1.2Z"/></g><g id="indigo_flower-2" data-name="indigo_flower"><path class="cls-3" d="M26.43,62.89s-2.52-3.42-6-4.06C20.87,61.29,26.43,62.89,26.43,62.89Z"/><path class="cls-3" d="M24.18,61.15s.91-2.76-2.61-3.4A4.92,4.92,0,0,0,24.18,61.15Z"/><path class="cls-3" d="M24.63,61.87s.92.67,3.26-2A3.15,3.15,0,0,0,24.63,61.87Z"/><path class="cls-3" d="M24.35,60.22a6.94,6.94,0,0,0-2.19-5.9C21.29,56.78,24.35,60.22,24.35,60.22Z"/><path class="cls-3" d="M27.24,55.72s-3.73,1.62-2.38,6.21C27.7,60.63,27.24,55.72,27.24,55.72Z"/><path class="cls-3" d="M25.62,54a5.92,5.92,0,0,0-1.27,5.46C26.3,58.05,25.62,54,25.62,54Z"/><path class="cls-3" d="M24.14,61.57c0-.12,0-.28,0-.43l-.05-.46-.11-.94c-.07-.62-.14-1.25-.2-1.88,0-.31-.06-.63-.08-1a4.73,4.73,0,0,1,0-.54c0-.14,0-.29,0-.44,0-.59,0-1.21-.06-1.83l-.17-1.88c0-.32-.05-.64-.05-1l0-.94c-.05-1.26-.11-2.5-.23-3.75s-.28-2.49-.47-3.72c-.1-.62-.22-1.25-.29-1.88l-.24-1.87c-.08-.62-.18-1.21-.27-1.85s-.15-1.26-.2-1.89q-.14-1.89-.15-3.78a.06.06,0,0,1,.06-.06.06.06,0,0,1,.06.05c.17,1.25.31,2.5.49,3.74.08.62.17,1.24.28,1.85l.18.93c.05.31.1.62.13.94.08.63.12,1.26.18,1.88s.18,1.23.29,1.85c.21,1.24.4,2.49.54,3.75s.26,2.51.34,3.77l.06.94c0,.31.05.61.09.92.08.62.18,1.24.27,1.87a15.06,15.06,0,0,1,.17,1.92c0,.17,0,.34,0,.51s0,.25,0,.4.05.61.09.92l.2,1.87.1.94,0,.48c0,.16,0,.32,0,.51a.5.5,0,0,1-.48.5.49.49,0,0,1-.5-.46Z"/><path class="cls-3" d="M23,43.72s.66-.54.64-.62-.13-.1-.05-.28a1,1,0,0,1,.35-.32,2.52,2.52,0,0,1,.09-.8,4.86,4.86,0,0,1,.4-.47c.08-.09.49-.88.6-.84.27.1.15.92.17,1.07s.32-.41.57-.39.83-.09.82.29a2.35,2.35,0,0,1-.45,1.24,3.15,3.15,0,0,1-1.25.31c-.21,0-.25.15-.38.22s-.58.28-.67.21-.7.63-.7.63Z"/><path class="cls-3" d="M23.75,49l.43-.57s.06-.46.16-.52-.36-1-.22-1.3.79-.93,1-.94a.48.48,0,0,1,.46.24c.07.15.15-.13.18-.12s.37.21.33.44.22-.18.36-.14.76.4.77.61a1.19,1.19,0,0,1-.86,1.13c-.15,0-.42.38-.81.33s-.91.57-1.05.54-.74.69-.74.69Z"/><path class="cls-3" d="M22.51,38.51l.42-.47s.05-.57.14-.62-.34-.83-.2-1.08.77-.85.95-.79.24.48.3.6,0-.18.18-.21.48-.11.45.08.21-.15.35-.11.72.33.73.5a1,1,0,0,1-.26.62c-.13.13-.37.39-.51.39s-.52.57-.89.53-.91.4-1.05.37-.61.34-.61.34Z"/><path class="cls-3" d="M23,43.3a1.61,1.61,0,0,1-.57-1,.46.46,0,0,0-.46-.45l.13-.16s-.24-.41-.4-.44c-.43-.1-.14-.71-.42-1.13a.42.42,0,0,0-.25-.2.45.45,0,0,0-.35.09.55.55,0,0,0-.23.26c0,.11,0,.23-.14.29h0c-.09,0-.19-.34-.43-.27s-.6,0-.6.42a1.53,1.53,0,0,0,.35,1.12c.16.16.18.1.51.38s.28.3.4.33c.3.08.5-.23.76-.12.09,0,.09.1.21.22s.36.18.67.32c.06,0,1,.73.91.65h0Z"/><path class="cls-3" d="M23.26,47.14a4.62,4.62,0,0,1-.31-.91c0-.13.14-1.57-.1-1.64s-.92-.25-1,0-.45-.41-.71,0-.29.72-.25.8-.46.29-.42.6a.85.85,0,0,0,.34.61,4.84,4.84,0,0,0,1.07.4c.21,0,.32.49.54.55s1,.38,1,.38Z"/><path class="cls-3" d="M23.82,53.39s-.53-.1-.67-.4a3.08,3.08,0,0,0-.28-.6A2.22,2.22,0,0,0,22,51.7c-.05,0-.16-.6-.26-.68s0-.31-.16-.45-.37-.58-.62-.45a.26.26,0,0,0-.16.32c0,.06,0,.11,0,.19a2.16,2.16,0,0,1-.24.37c-.14.19-.25.33-.41.35s-.15-.06-.29-.06c-.3,0-.67.41-.58.7a.39.39,0,0,0,.18.2l.14.12a1.2,1.2,0,0,0,.21.13s0,0,.09,0a.5.5,0,0,0,.35.18.88.88,0,0,0,.39-.17l0,0a1,1,0,0,1,.21.08.21.21,0,0,1,.11.14h.54c.33,0,.91.55,1,.58s.83.53,1.19.5S23.82,53.39,23.82,53.39Z"/><path class="cls-3" d="M22.44,39s-.42-.08-.54-.33,0-.18-.22-.47a1.73,1.73,0,0,0-.69-.56s-.13-.48-.21-.55,0-.25-.13-.37-.2-.25-.34-.26a.26.26,0,0,0-.11,0c-.22.08-.23.23-.36.28s-.4-.16-.51-.07,0,.19-.09.22-.21-.21-.38-.2a.14.14,0,0,0-.11,0c-.23.21-.51.54-.16.9s.12,1,1,.91c.61,0,.69-.15,1-.15s.74.44.82.47.66.42,1,.39a.18.18,0,0,0,.14-.06C22.55,39.17,22.45,39,22.44,39Z"/><path class="cls-3" d="M24.3,53.6a5.2,5.2,0,0,1,.45-.28c.06,0,.17-.13.18-.21s-.11-.16,0-.32l.43-1a1.14,1.14,0,0,1,.1-.19c.13-.19.35-.23.51-.39A.87.87,0,0,0,26,51.1a.36.36,0,0,0,0-.1l.07-.34c0-.09,0-.29.12-.34s.13,0,.25,0,.16-.18.26-.1,0,.31,0,.4a.51.51,0,0,0,.08.36c0,.07.13.11.19.18s.19.09.38,0a1.14,1.14,0,0,1,.48-.09c.32.06.72.15.75.3a1.59,1.59,0,0,1-.44.91c-.2.09-.43.59-.75.58a4,4,0,0,0-1.06,0c-.17.08-.5.19-.65.24s-.46.38-.58.26-.87.88-.87.88Z"/><path class="cls-3" d="M22,35.73l.36-.65a.48.48,0,0,1-.07-.4,1.94,1.94,0,0,1,.33-.61c.33-.33.14-.69.36-.88a.66.66,0,0,1,.3-.15.13.13,0,0,1,.12,0c.06,0,0,.09.09.11s.1,0,.18,0a.23.23,0,0,1,.15.11c.13.2,0,.55-.06.6a2,2,0,0,1-.25.46c-.15.16-.27.08-.39.22s-.06.24-.18.39a.68.68,0,0,1-.3.21,1.47,1.47,0,0,0-.64.79Z"/><path class="cls-3" d="M21.7,34.65c-.08-.15-.16-.29-.25-.43a1.14,1.14,0,0,0-.1-.19c-.17-.12-.43-.06-.53-.28a.05.05,0,0,0,0,0s0,0,0,0-.08-.08-.14-.17,0,0-.1-.16-.07-.12-.09-.14a.58.58,0,0,0-.17-.14.55.55,0,0,1-.21-.21c-.1-.15,0-.22-.1-.42s-.09-.15-.08-.22a.27.27,0,0,1,.13-.16c.05,0,.08,0,.08,0s0,0,0-.1.05-.1.09-.1,0,0,.07,0,0-.05.07-.06,0,0,0,0a2.07,2.07,0,0,1,.25,0c.1,0,.17.1.36.32s.3.33.33.38a2.2,2.2,0,0,1,.14.53,3.39,3.39,0,0,1,.09.56,1.46,1.46,0,0,0,0,.37l.12.32.2.44Z"/><path class="cls-3" d="M21.64,32.92c0-.13-.14-.73-.14-.73a.45.45,0,0,1-.3-.27,1.84,1.84,0,0,1-.14-.68.89.89,0,0,0,0-.11l0-.07L21,31l0-.08a.44.44,0,0,1-.07-.57l0,0a.22.22,0,0,1,0-.08s0,0,0,0c-.06-.25.16-.25.4-.2h.08l0,0a.41.41,0,0,1,.16,0,.12.12,0,0,1,.12,0,.15.15,0,0,1,.05.06c.13.08.17.15.18.21s0,.13,0,.27a.54.54,0,0,0,0,.19.48.48,0,0,1-.08.39l-.06.06s0,.06,0,.08,0,.05,0,.06.14.74,0,.76,0,1,0,1Z"/></g><g id="indigo_flower-3" data-name="indigo_flower"><path class="cls-3" d="M33.13,60.94s-.52-2.28,2.3-2.92A3.37,3.37,0,0,1,33.13,60.94Z"/><path class="cls-3" d="M33.49,60S32.22,57.44,35,56.8C34.66,59.26,33.49,60,33.49,60Z"/><path class="cls-3" d="M33.14,60.76s-.75.66-2.62-2C32.52,58.61,33.14,60.76,33.14,60.76Z"/><path class="cls-3" d="M33.36,59.1a8.1,8.1,0,0,1,1.75-5.9C35.81,55.66,33.36,59.1,33.36,59.1Z"/><path class="cls-3" d="M31,54.6s3,1.63,1.91,6.22C30.67,59.52,31,54.6,31,54.6Z"/><path class="cls-3" d="M32.34,52.9a6.94,6.94,0,0,1,1,5.46C31.8,56.93,32.34,52.9,32.34,52.9Z"/><path class="cls-3" d="M33.53,60.45a3.46,3.46,0,0,1,0-.43l0-.46.08-.93c.06-.63.12-1.25.17-1.88,0-.32,0-.63.06-1,0-.16,0-.33,0-.53s0-.3,0-.45c0-.59,0-1.21.05-1.83l.13-1.88c0-.31,0-.64.05-1l0-.94c0-1.25.09-2.5.18-3.75s.23-2.48.39-3.72c.07-.62.16-1.25.22-1.88L35.13,38c.07-.63.15-1.22.22-1.86s.13-1.26.16-1.89c.08-1.26.12-2.51.12-3.77,0,0,0-.07-.05-.07s0,0,0,.06c-.14,1.24-.25,2.49-.39,3.73-.07.62-.14,1.24-.23,1.85l-.14.93c-.05.31-.08.63-.11.94-.06.63-.1,1.26-.15,1.88s-.13,1.23-.22,1.85c-.17,1.25-.32,2.5-.44,3.75s-.2,2.52-.27,3.77l-.05,1c0,.3,0,.6-.07.91-.06.62-.15,1.24-.22,1.87a17.37,17.37,0,0,0-.13,1.93c0,.16,0,.33,0,.5s0,.25,0,.41,0,.61-.07.92l-.16,1.87-.08.94,0,.47c0,.16,0,.32,0,.51a.46.46,0,0,0,.39.5.44.44,0,0,0,.4-.46Z"/><path class="cls-3" d="M34.45,42.61a3.77,3.77,0,0,1-.51-.63c0-.08.1-.1,0-.27a.76.76,0,0,0-.28-.32,3.11,3.11,0,0,0-.07-.8c-.17-.28-.26-.39-.32-.48s-.39-.87-.48-.83-.12.91-.13,1.06-.27-.41-.46-.39-.67-.09-.67.29a3,3,0,0,0,.37,1.25,2.22,2.22,0,0,0,1,.3c.17,0,.2.15.3.22s.47.29.54.22.56.62.56.62Z"/><path class="cls-3" d="M33.84,47.92l-.35-.56s0-.47-.12-.53.28-1,.17-1.3a2.39,2.39,0,0,0-.79-.94.37.37,0,0,0-.37.24c-.06.15-.12-.12-.15-.11s-.29.21-.26.43-.18-.18-.29-.13-.61.39-.62.6a1.56,1.56,0,0,0,.22.74c.11.16.36.39.48.39s.33.38.64.33.73.58.85.55.59.69.59.69Z"/><path class="cls-3" d="M34.83,37.39l-.33-.47a2.31,2.31,0,0,0-.12-.62c-.07,0,.27-.83.16-1.08s-.61-.85-.76-.78-.19.47-.24.6,0-.19-.14-.22-.39-.1-.36.09-.17-.16-.28-.12-.58.33-.59.51a1.12,1.12,0,0,0,.21.61c.11.14.3.39.41.39s.42.57.71.54.73.39.84.37.49.33.49.33Z"/><path class="cls-3" d="M34.41,42.18a1.81,1.81,0,0,0,.45-1c0-.44.37-.44.37-.44l-.1-.17.11-.21c.09-.15.16-.15.21-.23s-.08-.37,0-.63.16-.22.33-.33a.74.74,0,0,1,.41-.18c.08,0,.25,0,.31.07s-.05.31,0,.38h0c.08,0,.16-.33.35-.27s.48,0,.48.43a3,3,0,0,1-.28,1.11c-.09.12-.47.41-.69.38a1.12,1.12,0,0,0-.64.21c-.06,0-.29.49-.44.47s-1,.72-1,.72Z"/><path class="cls-3" d="M34.23,46a4.91,4.91,0,0,0,.25-.9c0-.13-.11-1.58.08-1.65s.73-.25.82,0,.36-.41.57,0a1.37,1.37,0,0,1,.2.81c0,.08.37.28.34.59a.92.92,0,0,1-.27.62,3.76,3.76,0,0,1-.86.39c-.17,0-.25.5-.43.55a8.36,8.36,0,0,0-.81.38Z"/><path class="cls-3" d="M33.79,52.28s.42-.1.53-.41a3.72,3.72,0,0,1,.22-.59,1.89,1.89,0,0,1,.69-.7c.05,0,.13-.59.21-.68s0-.31.13-.45.3-.58.5-.45.12.26.09.64.06.24.27.14h0c.23-.08.4-.51.5-.22h0c.2-.11.28-.2.41-.1l0,0s0,0,0,0c.1.16-.14.34-.21.52,0,0,0,0,0,0,.11.17.23.08.34,0l.08-.1.1,0V50a2.78,2.78,0,0,1,0,.56l0,0a.61.61,0,0,1-.14.17l0,0a1.92,1.92,0,0,1-.7.64,5.59,5.59,0,0,1-1.17.16c-.27,0-.74.55-.82.58s-.66.52-1,.49S33.79,52.28,33.79,52.28Z"/><path class="cls-3" d="M34.89,37.9s.34-.08.43-.32a2.07,2.07,0,0,1,.18-.48,1.55,1.55,0,0,1,.55-.56s.1-.48.17-.55,0-.25.1-.36.2-.34.36-.24.29-.27.49-.18-.05.51.09.58c.35.17.4-.33.58-.12a.67.67,0,0,1,.14.91c-.28.36-.11,1-.83.91-.49-.05-.56-.16-.77-.16s-.59.45-.66.47-.53.42-.77.4S34.89,37.9,34.89,37.9Z"/><path class="cls-3" d="M33.4,52.49s-.33-.25-.36-.28a.44.44,0,0,1-.15-.22c0-.13.09-.16,0-.32l-.34-1a1.54,1.54,0,0,0-.08-.19c-.11-.19-.28-.23-.41-.39A.41.41,0,0,1,32,50s0-.06,0-.1L32,49.54c0-.09,0-.29-.1-.34s-.1.06-.2,0-.13-.18-.21-.1,0,.32,0,.4a.7.7,0,0,1-.06.36c-.05.07-.11.12-.16.18s-.15.09-.3,0a.67.67,0,0,0-.39-.08c-.25,0-.57.15-.6.29a1.64,1.64,0,0,0,.36.91c.15.09.34.59.6.58a2.81,2.81,0,0,1,.84,0,4,4,0,0,0,.53.24c.12,0,.36.38.46.26s.7.88.7.88Z"/><path class="cls-3" d="M35.21,34.62,34.92,34a.55.55,0,0,0,0-.4,1.93,1.93,0,0,0-.26-.61c-.09-.12-.12-.77-.29-.88s-.51-.35-.42-.12-.12-.13-.16,0a1.21,1.21,0,0,0,0,.75,1.83,1.83,0,0,0,.51.69c.08,0,.29.66.38.6s.52.78.52.78Z"/><path class="cls-3" d="M35.48,33.54c.06-.15.13-.3.2-.44a.75.75,0,0,1,.08-.18c.13-.13.34-.07.42-.29l0-.05h0s.06-.07.1-.17a1,1,0,0,0,.08-.16,1.38,1.38,0,0,0,.07-.14c0-.07.09-.08.14-.13a.84.84,0,0,0,.17-.22,1,1,0,0,0,.08-.42.53.53,0,0,0,0-.27.18.18,0,0,0-.06-.08v0c0-.12-.05-.19-.1-.09s0-.2-.09-.16-.46.13-.58.43a2.08,2.08,0,0,0-.13.56,2.63,2.63,0,0,1-.13.57,2.29,2.29,0,0,0-.1.23c0,.13,0,.24,0,.37s-.06.21-.09.32-.11.3-.16.44Z"/><path class="cls-3" d="M35.52,31.8l.12-.73a.38.38,0,0,0,.24-.27,1.88,1.88,0,0,0,.11-.67A.52.52,0,0,1,36,30a.24.24,0,0,0,0-.08.25.25,0,0,0,0-.07l0-.08a.54.54,0,0,0,0-.57s0,0,0,0v-.08s0,0,0,0c.05-.24-.13-.24-.32-.2h-.1a.27.27,0,0,0-.13-.05.12.12,0,0,0-.09,0l0,.06c.2.35-.14.57-.09,1a.36.36,0,0,0,.07.1.29.29,0,0,1,0,.09s0,0,0,0-.11.74,0,.77a4.25,4.25,0,0,1,0,1Z"/></g><g id="indigo_flower-4" data-name="indigo_flower"><path class="cls-3" d="M26.43,62.89a4.55,4.55,0,0,1,3.4-3.23C29.45,62.12,26.43,62.89,26.43,62.89Z"/><path class="cls-3" d="M26.79,62s.37-4.6,3.19-5.24C29.6,59.2,26.79,62,26.79,62Z"/><path class="cls-3" d="M26.44,62.71s-.75.66-2.62-2C25.82,60.56,26.44,62.71,26.44,62.71Z"/><path class="cls-3" d="M26.66,61.05A12.62,12.62,0,0,1,29,54.44C29.73,56.9,26.66,61.05,26.66,61.05Z"/><path class="cls-3" d="M24.34,56.55s3,1.63,1.91,6.22C24,61.47,24.34,56.55,24.34,56.55Z"/><path class="cls-3" d="M25.64,54.85a6.92,6.92,0,0,1,1,5.45C25.1,58.88,25.64,54.85,25.64,54.85Z"/><path class="cls-3" d="M26.83,62.4a3.46,3.46,0,0,1,0-.43l0-.46.08-.93c.06-.63.12-1.25.17-1.88,0-.32,0-.63.06-1,0-.16,0-.33,0-.54s0-.29,0-.44c0-.59,0-1.21.05-1.83l.13-1.88c0-.31,0-.64.05-1l0-.94c0-1.25.09-2.5.18-3.75s.23-2.48.39-3.72c.07-.62.16-1.25.22-1.88l.19-1.87c.07-.62.15-1.21.22-1.85s.13-1.26.16-1.89q.12-1.89.12-3.78a.06.06,0,0,0-.05-.06s0,0,0,.06c-.14,1.24-.25,2.49-.39,3.73-.07.62-.14,1.24-.23,1.85l-.14.93c0,.31-.08.63-.11.94-.06.63-.1,1.26-.15,1.88s-.13,1.23-.22,1.85c-.17,1.25-.32,2.49-.44,3.75s-.2,2.51-.27,3.77l-.05,1c0,.3,0,.6-.07.91-.06.62-.15,1.24-.22,1.87a17.37,17.37,0,0,0-.13,1.93c0,.16,0,.33,0,.5s0,.25,0,.41,0,.61-.07.92l-.16,1.86-.08.95,0,.47c0,.16,0,.32,0,.51a.46.46,0,0,0,.39.5.44.44,0,0,0,.4-.46Z"/><path class="cls-3" d="M27.75,44.55s-.52-.54-.51-.62.1-.1,0-.28a.78.78,0,0,0-.28-.31,3.18,3.18,0,0,0-.07-.81c-.17-.27-.26-.38-.32-.47s-.39-.88-.48-.83-.12.91-.13,1.06-.27-.41-.46-.39-.67-.09-.67.29a3,3,0,0,0,.37,1.25,2.22,2.22,0,0,0,1,.3c.17,0,.2.15.3.22s.47.29.54.21.56.63.56.63Z"/><path class="cls-3" d="M27.14,49.87l-.35-.56s0-.47-.12-.53.28-1,.17-1.3a2.39,2.39,0,0,0-.79-.94.37.37,0,0,0-.37.24c-.06.15-.12-.12-.15-.11a.5.5,0,0,0-.26.43c0,.23-.18-.18-.29-.14s-.61.4-.62.61a1.56,1.56,0,0,0,.22.74c.11.16.36.39.48.39s.33.38.64.33.73.57.85.55.59.69.59.69Z"/><path class="cls-3" d="M28.13,39.34l-.33-.47a2.24,2.24,0,0,0-.12-.62c-.07,0,.27-.83.16-1.08s-.61-.85-.76-.78-.19.47-.24.59,0-.18-.14-.21-.39-.1-.36.08-.17-.15-.28-.11-.58.33-.59.51a1.12,1.12,0,0,0,.21.61c.11.13.3.39.41.39s.42.57.71.54.73.39.84.37.49.33.49.33Z"/><path class="cls-3" d="M27.71,44.13a1.81,1.81,0,0,0,.45-1c0-.44.37-.44.37-.44l-.1-.17s.19-.41.32-.44.22-1,.34-1.12.11-.47.19-.4.17.64.21.64a1.11,1.11,0,0,1,.38.19c.07.08.16-.33.36-.26s.48,0,.48.43a3,3,0,0,1-.28,1.11c-.09.12-.47.41-.69.38a1.12,1.12,0,0,0-.64.21c-.06,0-.29.49-.44.47s-1,.72-1,.72Z"/><path class="cls-3" d="M27.53,48a4.91,4.91,0,0,0,.25-.9c0-.13-.11-1.58.08-1.65s.73-.25.82,0,.36-.41.57,0a1.37,1.37,0,0,1,.2.81c0,.08.37.28.34.59a.92.92,0,0,1-.27.62,3.76,3.76,0,0,1-.86.39c-.17,0-.25.5-.43.55a8.36,8.36,0,0,0-.81.38Z"/><path class="cls-3" d="M27.09,54.23s.42-.1.53-.41a3.72,3.72,0,0,1,.22-.59,1.89,1.89,0,0,1,.69-.7s.13-.59.21-.68,0-.31.13-.45.3-.58.5-.45.12.26.09.64.06.24.27.14h0c.23-.08.41-.52.5-.22h0c.2-.11.28-.21.41-.1l0,0s0,0,0,0-.14.34-.21.52c0,0,0,0,0,.05s.23.07.34,0l.08-.1.1,0v.06a2.69,2.69,0,0,1,0,.55l0,.05a.61.61,0,0,1-.14.17l0,0a1.92,1.92,0,0,1-.7.64,5.59,5.59,0,0,1-1.17.16c-.27,0-.74.55-.82.58s-.66.52-.95.49S27.09,54.23,27.09,54.23Z"/><path class="cls-3" d="M28.19,39.85s.34-.08.43-.32a2.07,2.07,0,0,1,.18-.48,1.55,1.55,0,0,1,.55-.56s.1-.48.17-.55,0-.25.1-.36.2-.35.36-.24.29-.27.49-.18,0,.51.1.58c.34.17.39-.33.57-.12a.66.66,0,0,1,.14.9c-.28.36-.11,1-.83.91-.49,0-.56-.15-.77-.15s-.59.44-.66.47-.53.42-.77.4S28.19,39.85,28.19,39.85Z"/><path class="cls-3" d="M26.7,54.43s-.33-.24-.36-.28a.37.37,0,0,1-.15-.21c0-.13.09-.16,0-.32l-.34-1a1.54,1.54,0,0,0-.08-.19c-.11-.19-.28-.23-.41-.39l-.07-.11s0-.06,0-.1l-.05-.34c0-.09,0-.29-.1-.34s-.1.06-.2,0-.12-.18-.21-.1,0,.31,0,.4a.7.7,0,0,1-.06.36c-.05.07-.11.11-.16.18s-.15.09-.3,0a.67.67,0,0,0-.39-.08c-.25.05-.57.15-.6.29a1.64,1.64,0,0,0,.36.91c.15.09.34.59.6.58a2.81,2.81,0,0,1,.84,0,4,4,0,0,0,.53.24c.12,0,.36.38.46.26s.7.88.7.88Z"/><path class="cls-3" d="M28.51,36.56c-.05-.1-.29-.65-.29-.65a.55.55,0,0,0,.05-.4A1.93,1.93,0,0,0,28,34.9c-.09-.12-.12-.77-.29-.88s-.51-.35-.42-.12-.12-.13-.16,0a1.21,1.21,0,0,0,0,.75,2,2,0,0,0,.51.69c.08,0,.29.66.39.59s.51.79.51.79Z"/><path class="cls-3" d="M28.78,35.49c.06-.15.13-.3.2-.44a.75.75,0,0,1,.08-.18c.13-.13.34-.07.42-.29l0,0h0s.06-.07.1-.17a1,1,0,0,0,.08-.16l.07-.14c.05-.07.09-.08.14-.13a.84.84,0,0,0,.17-.22,1,1,0,0,0,.08-.42.53.53,0,0,0,0-.27.35.35,0,0,0-.06-.09v0c0-.12,0-.2-.1-.09s0-.2-.09-.16a.73.73,0,0,0-.58.43,2.08,2.08,0,0,0-.13.56,2.63,2.63,0,0,1-.13.57,1.6,1.6,0,0,0-.1.23c0,.12,0,.24,0,.37s-.06.21-.09.32-.11.29-.16.44Z"/><path class="cls-3" d="M28.82,33.75l.12-.73a.38.38,0,0,0,.24-.27,1.91,1.91,0,0,0,.11-.67.52.52,0,0,1,0-.11.24.24,0,0,0,0-.08.2.2,0,0,0,0-.08l0-.07a.54.54,0,0,0,.05-.57s0,0,0-.05V31s0,0,0,0c0-.24-.13-.24-.32-.2H29l0,0a.38.38,0,0,0-.13,0,.09.09,0,0,0-.09,0l0,.06c.2.35-.14.57-.09,1a.36.36,0,0,0,.07.1.29.29,0,0,1,0,.09s0,0,0,.05-.11.74,0,.77a4.25,4.25,0,0,1,0,1Z"/></g></g><g id="rings"><circle class="cls-5" cx="24.67" cy="63.14" r="15.3"/><circle class="cls-5" cx="64.47" cy="63.14" r="15.3"/><circle class="cls-5" cx="104.27" cy="63.14" r="15.3"/></g><text class="cls-6" transform="translate(20.74 67.62)">3</text><polygon class="cls-3" points="117.62 20.01 116.41 18.17 115.17 19.99 114.52 17.89 112.82 19.28 112.79 17.08 110.77 17.94 111.36 15.82 109.17 16.08 110.34 14.21 108.17 13.84 109.81 12.38 107.83 11.41 109.83 10.47 108.2 8.98 110.38 8.64 109.23 6.76 111.42 7.04 110.85 4.92 112.87 5.8 112.93 3.6 114.61 5.02 115.28 2.93 116.5 4.76 117.74 2.94 118.39 5.05 120.09 3.65 120.12 5.85 122.14 4.99 121.55 7.11 123.74 6.86 122.57 8.72 124.74 9.1 123.09 10.56 125.07 11.53 123.08 12.47 124.71 13.95 122.53 14.29 123.67 16.18 121.49 15.89 122.05 18.02 120.04 17.13 119.98 19.33 118.3 17.91 117.62 20.01"/><text class="cls-7" transform="translate(113.32 14.92)">2</text></g></g></g></svg>