<svg xmlns="http://www.w3.org/2000/svg" viewBox="0 0 128.93 85.34"><defs><style>.cls-1,.cls-5{fill:#ddbc95;}.cls-2,.cls-3,.cls-4{fill:#124559;}.cls-3{stroke:#ddbc95;stroke-miterlimit:10;stroke-width:0.25px;}.cls-4,.cls-5{font-size:12px;font-family:CalifornianFB-Bold, Californian FB;font-weight:700;}</style></defs><title>large_market</title><g id="Layer_2" data-name="Layer 2"><g id="BUILDINGS"><g id="large_market"><rect id="small_sugar_mill_bg" class="cls-1" width="128.93" height="85.34"/><g id="building"><path class="cls-2" d="M113,73.49c.06,0,.1-.09.1-.11-.08-.37-.18-.87-.25-1.45a15.12,15.12,0,0,1,0-3.34c.12-1,.22-.91.31-1.91.14-1.43-.08-1.53.07-2.6.18-1.31.51-1.18.67-2.52a6.77,6.77,0,0,1,.3-2.22c.34-.77.62-.68.69-1.21a4.34,4.34,0,0,0-.64-2.29.91.91,0,0,1-.14-.41s0-.15,0-.21l.06,0c.13,0,.17.1.21.19l.33.91a7.4,7.4,0,0,1,.42,1.6c0,.07,0,.17.09.19s.14-.07.19-.13.2-.23.3-.35.12,0,.18.17a1.88,1.88,0,0,1,.12.65c0,.17,0,.3,0,.48a3,3,0,0,1-.06.53c-.06.37-.17.55-.11.59s0,0,.26-.13a1.92,1.92,0,0,0,.48-.4c.13-.18.12-.3.17-.3s.2.4.21.8a4.55,4.55,0,0,1-.14.87,12.23,12.23,0,0,1-.27,1.34l-.09.32c0,.1,0,.14.13.13a.62.62,0,0,0,.22-.1,3.43,3.43,0,0,0,.95-1,8.19,8.19,0,0,0,1.11-3,4.39,4.39,0,0,0,0-.63.76.76,0,0,1,0-.15c0-.08,0-.11.14-.06a1.53,1.53,0,0,1,.56.65,2.74,2.74,0,0,0,.23.36c.06.09.11.07.17,0a.6.6,0,0,0,.11-.34,2.11,2.11,0,0,0-.42-1.49c-.35-.48-.7-1-1.08-1.43a2,2,0,0,0-.71-.55c-.31-.15-.58-.36-.87-.53-.07,0-.15-.11-.1-.2a.19.19,0,0,1,.23-.08,1.17,1.17,0,0,1,.65.34,10.29,10.29,0,0,1,1.19,1.19s.06.09.12.08a.15.15,0,0,0,.11-.14c0-.12,0-.24,0-.36s0-.1,0-.12.07,0,.1.07a3.2,3.2,0,0,1,.4.63,5.58,5.58,0,0,1,.65,1.2l.09.33a.56.56,0,0,0,.09.21.16.16,0,0,0,.14.08c.07,0,.07-.06.09-.11a3.64,3.64,0,0,0,.17-.93,6.27,6.27,0,0,0-.47-2.8c0-.1-.1-.19-.14-.3s-.07-.08,0-.12.1,0,.14,0a1.4,1.4,0,0,1,.54.35c.08.07.17.19.27.14s0-.2,0-.3a4.12,4.12,0,0,0-3.15-2.8,5.34,5.34,0,0,0-1.26-.08A2.51,2.51,0,0,0,116,51a2.92,2.92,0,0,1-.58.23c-.07,0-.15,0-.19,0s0-.15,0-.21a.77.77,0,0,1,.28-.19,7.33,7.33,0,0,1,1.1-.42l.12,0c.11,0,.11-.16,0-.22a.92.92,0,0,0-.46-.11,1.07,1.07,0,0,1-.43-.09c-.1,0-.11-.12,0-.2a.77.77,0,0,1,.32-.14c.49-.14,1-.24,1.49-.35a1.75,1.75,0,0,1,.68.06,2,2,0,0,0,.41.07.2.2,0,0,0,.18-.07c0-.07,0-.13,0-.18a2,2,0,0,0-.71-.5,4.9,4.9,0,0,0-1.12-.43,2.78,2.78,0,0,0-2.55.63,6.38,6.38,0,0,0-.53.51,2.45,2.45,0,0,0-.5,1.07c0,.1,0,.25-.16.27s-.17-.12-.23-.2a1.13,1.13,0,0,1-.12-.21,3.92,3.92,0,0,0-1.16-1.37,3.56,3.56,0,0,0-1-.43l-.35-.1a1,1,0,0,0-.93.14,2.57,2.57,0,0,0-.4.34.17.17,0,0,0,0,.19c0,.08.11.08.19.08a3,3,0,0,1,.74,0h0c.07,0,.19,0,.19.1s-.13,0-.2,0a2.15,2.15,0,0,0-.9.24,7.89,7.89,0,0,0-1.42.93.91.91,0,0,0-.18.21c-.06.12,0,.17.11.17l.64-.07a6.58,6.58,0,0,1,2.38.21,3.42,3.42,0,0,1,1.39.84s.06.06,0,.09-.08,0-.13,0c-.26-.1-.53-.21-.8-.3a5.26,5.26,0,0,0-1.57-.3,3.86,3.86,0,0,0-1.47.26,11.33,11.33,0,0,0-1.43.6,2.35,2.35,0,0,0-1.22,1.46.76.76,0,0,0,0,.26c0,.12.08.15.19.09a.32.32,0,0,0,.1-.1,2.78,2.78,0,0,1,1.17-.75c-.2.32-.45.6-.67.9a2.35,2.35,0,0,0-.45,1.44,5.19,5.19,0,0,0,.13,1.42,1.41,1.41,0,0,0,.19.39c.33.49.52.59.58.3s.08-.61.15-.91a3.25,3.25,0,0,1,.62-1.41,6.74,6.74,0,0,1,.88-.72c.06,0,.1,0,.11.06s0,.13,0,.2.19.21.33.08c.39-.34.77-.67,1.15-1a1.33,1.33,0,0,1,.57-.28.1.1,0,0,1,.13,0,.08.08,0,0,1,0,.1l-.26.21A4.55,4.55,0,0,0,109,55.33a3.54,3.54,0,0,0-.37,1.63,5.07,5.07,0,0,0,.85,3,.92.92,0,0,0,.43.35c.16.06.22,0,.21-.14a1,1,0,0,0-.06-.25,3.57,3.57,0,0,1-.29-1.36,3.24,3.24,0,0,1,.48-1.48,5.82,5.82,0,0,1,.49-.73.38.38,0,0,1,.06.19,1.2,1.2,0,0,0,.33.7h0a2,2,0,0,0,.29-.57,9.21,9.21,0,0,1,.34-.87,3.38,3.38,0,0,1,.74-.94s.08-.07.11-.06.07.09.08.11c.07.27-.22.65-.22.65a4.31,4.31,0,0,0-.35,2.4c.07,1.12.49,1,.54,2,0,.81-.26.86-.67,2.68-.18.83-.11.79-.34,1.79-.17.77-.28,1.09-.43,1.85-.1.51-.14.83-.21,1.3a31.88,31.88,0,0,1-.68,3.84,15.06,15.06,0,0,1-.68,1.95s0,.08.09.14c.23.23.64.05,1.12,0C111.93,73.33,112.51,73.89,113,73.49Z"/><path class="cls-2" d="M100.33,73a14.85,14.85,0,0,1-.32-1.8,17.16,17.16,0,0,1,0-3.85c.13-1.19.25-1.06.36-2.22.15-1.64-.09-1.76.08-3,.2-1.52.58-1.37.77-2.91.12-1,.33-2,.35-2.57a2.21,2.21,0,0,1,0-.42,1.73,1.73,0,0,1,.08-.27,2.36,2.36,0,0,0,.44-2.26c0-.11-.06-.23-.1-.34a.53.53,0,0,0,.2-.3c0-.1,0-.2-.07-.13a2,2,0,0,0,.09.2c.06.11.13.21.19.31.39.58.72,1.09.35,1.76.1,0,.16-.08.22-.15s.23-.26.34-.4.14,0,.21.19a2.27,2.27,0,0,1,.13.75,5,5,0,0,1,0,.55,5.58,5.58,0,0,1-.07.62c-.08.43-.19.64-.12.68s0,0,.29-.15a2,2,0,0,0,.55-.46c.15-.21.15-.35.2-.35s.23.47.24.92a5.09,5.09,0,0,1-.16,1,14.69,14.69,0,0,1-.31,1.55c0,.12-.07.24-.1.37s0,.16.15.14a.59.59,0,0,0,.27-.12,3.61,3.61,0,0,0,1-1.06A9.32,9.32,0,0,0,107,55.73a5.74,5.74,0,0,0,0-.72c0-.06,0-.12,0-.18-.18-.09.5-.09.38.08l.16.18a3.74,3.74,0,0,1,.27.42c.08.14.17.28.26.42s.14.07.2,0a.73.73,0,0,0,.13-.4,2.21,2.21,0,0,0,0-.68l-.06-.22c-.82-1.2-.14-2.5-2.18-3.16,2,0,3.4,2,2.84,3.08a.17.17,0,0,0,.17.09c.08,0,.08-.07.1-.12s.06-.18.08-.26l.06-.27a3.27,3.27,0,0,0,0-1.54,1.66,1.66,0,0,0,0-.32,6.74,6.74,0,0,0-.5-1.91c0-.12-.12-.23-.17-.35a1.53,1.53,0,0,1,.75.28c.09.09.19.23.31.16s0-.23,0-.34a4.77,4.77,0,0,0-3.64-3.23,4.53,4.53,0,0,0-.55,0c-.72-.44-.75-.63-.72-.7.08-.23.91-.17,1.42-.08a5,5,0,0,1,1.11.35c.78.33,1.07.6,1.18.51s.06-.31-.47-1.22a12.3,12.3,0,0,0-1.14-.53,9.92,9.92,0,0,0-2.32-.58,2.9,2.9,0,0,0-.8.08c-.85.19-1.07.61-1.47.51s-.4-.71-.94-.87a1.21,1.21,0,0,0-.85.13c-.5.28-.45.73-.78.8s-.27-.16-1-.55a12.8,12.8,0,0,0-1.18-.5c-.13,0-.27-.07-.4-.12a1.22,1.22,0,0,0-1.08.16,1.1,1.1,0,0,0-.24.19,7.92,7.92,0,0,0-.85.87l.19,0c.46-.07.6-.2.86-.23s.74.08.76.21-.2.24-1.16.49c-.52.2-1.7.68-1.83,1,0,0-.06.13,0,.16s.23-.08.29-.11a2.88,2.88,0,0,1,1.14-.37,10.18,10.18,0,0,1,1.09,0,9.18,9.18,0,0,1,1,.11c.38.26.66.47.84.61,0,0,.1.08.25.23s.41.4.38.5-.06.11-.33.13l-.23-.08-.23-.08-.59-.18-.31-.07a8.15,8.15,0,0,1-2.06,0l-.28.07-.27.1a12.09,12.09,0,0,0-1.66.69A2.75,2.75,0,0,0,91.49,50a1.42,1.42,0,0,0,0,.29c0,.14.1.18.22.11a.43.43,0,0,0,.12-.11,3.18,3.18,0,0,1,1.35-.88c-.23.38-.52.7-.77,1a2.73,2.73,0,0,0-.52,1.67A6,6,0,0,0,92,53.79a1.57,1.57,0,0,0,.22.45c.37.56.6.69.67.34s.09-.7.17-1a4,4,0,0,1,.71-1.64,8.24,8.24,0,0,1,1-.82c-.3-.28.41.39.56.39l.22-.19.22-.2c4.17-.26.09.39.25.32l-.15.2c-.09.14-.18.28-.26.43a4,4,0,0,0-.43,1.89,5.86,5.86,0,0,0,1,3.43,1.09,1.09,0,0,0,.5.4c.18.07.25,0,.24-.16a1,1,0,0,0-.08-.29,4.28,4.28,0,0,1-.32-1.57A3.6,3.6,0,0,1,97.1,54a2.16,2.16,0,0,1,.37-.44c.14-.13.25-.22.26-.18a.68.68,0,0,0,.07.26,2.94,2.94,0,0,0,.32.55s.11-.15.19-.31a3.06,3.06,0,0,0,.16-.35c-.06-.09-.09-.19.48-.08.14,0,.26.1.15.24a2.17,2.17,0,0,0,0,.36c0,.59.25,1.16.3,1.65a3.32,3.32,0,0,0,.12.32c0,.11.09.24.15.38a3,3,0,0,1,.21.9,2.35,2.35,0,0,1,0,.5c-.08.55-.38.93-.75,2.59-.21,1-.13.92-.39,2.08-.2.88-.33,1.25-.5,2.13-.11.59-.16,1-.24,1.51a35.38,35.38,0,0,1-.79,4.42A16.35,16.35,0,0,1,96.36,73Z"/><path class="cls-2" d="M86.8,53.6,108.53,63a.31.31,0,0,1,.32.31v11a.31.31,0,0,1-.32.31H86.8a.32.32,0,0,1-.33-.31V53.92A.32.32,0,0,1,86.8,53.6Z"/><path class="cls-3" d="M89.28,53.35c.17.09.36.19.54.3a2.54,2.54,0,0,0,1,.36,11.69,11.69,0,0,0,1.32-.08,9.48,9.48,0,0,1,1.83.19,1.91,1.91,0,0,1,.82.28,3.2,3.2,0,0,1,.43.47,5.39,5.39,0,0,0,1.47,1c.28.16.7.42,1.23.75a5.06,5.06,0,0,1,1.4.37,4.86,4.86,0,0,1,.91.46c.13.08.26.14.38.22s.19.23.28.28a9.08,9.08,0,0,0,1.36.6c1,.34,1.14.21,2,.54a6.39,6.39,0,0,1,1.87,1,5.11,5.11,0,0,0,.65.47c.3.17.49.24.67.33.52.24.43.36,1.23.92a13.93,13.93,0,0,0,1.32.86.55.55,0,0,1,.17.11.46.46,0,0,1,.09.15,1.75,1.75,0,0,1-.18,1.67l-.07-.08c.14.17-.47,1.25-.88.47-.34,1.41-.7.76-1,0s-.63-1.44-.85-.55c-.08.34-.14.49-.2.48s.08-1.27-.24-1.37-.52.4-.62.34.43-1.21.28-1.3-.79,1-1.12.67l-.24-.21c.3-.44.41-.7.34-.76s-.21,0-.47.16c-.08-.54-.16-.71-.23-.76s-.17.24-.26,0c-.16.47-.25.55-.3.55s-.08-.24-.22-.67a3.6,3.6,0,0,0-.15-.4c-.24.2-.49-.15-.74-.09-.2-.63-.41.5-.61,0-.2-.73-.41.08-.61-.22-.2-.07-.39-.27-.58-.19-.2-1-.38-.19-.57-.23-.18.53-.36-.08-.53-.35-.17-.1-.33.11-.49-.31-.15-.82-.3-.37-.45-.29-.08-.41-.16.08-.24-.72-.08-.11-.16-.3-.24.29-.08.12-.17.29-.25.3s-.17-.67-.26-.6c-.17-.17-.35.13-.54.11-.08-.59-.17-.72-.26-.09-.08.91-.17.59-.26.26-.19-1.18-.37.67-.53-.13-.19.3-.37-.06-.55-.23-.19.29-.37-.78-.55-.29-.18-.32-.35-.53-.53-.28s-.35-.34-.53-.29c-.17-1-.34.29-.51-.31-.18.89-.34-.88-.51-.32-.12-.27-.24-.9-.36-.34-.12.17-.25.33-.38-.09-.25.29-.52.05-.8-.16-.18-1-.36.45-.52,0-.19-.72-.31-.88-.47-.35s-.54.44-.85-.15c-.16.72-.31-.76-.46-.42-.16-.46-.31-.62-.44.36-.31,0-.5-.61-.68-.66s-.35-.21-.63-.73c-.17.11-.37-.63-.57-.25a1.17,1.17,0,0,0-.64,0,1.72,1.72,0,0,1-1.15-.27c-.82-.68.22-1.18.88-1.34A3.74,3.74,0,0,1,89.28,53.35Z"/><g id="fence"><path class="cls-2" d="M84.81,74.72H85a1.41,1.41,0,0,1,0-.29.13.13,0,0,0,0-.06.08.08,0,0,0,0,0A1.06,1.06,0,0,1,85,74v-.14a2.23,2.23,0,0,0,0-.64v-.13c0-.41,0-.8,0-1.11a.49.49,0,0,1,0-.12,10.84,10.84,0,0,0,0-1.14v-.09a7.32,7.32,0,0,0,0-1.15v-.09a8.43,8.43,0,0,0,0-1.25.08.08,0,0,0,0,0l0,0a.47.47,0,0,0-.21-.09l-.16,0a.19.19,0,0,0-.21,0,.43.43,0,0,0,0,.07.19.19,0,0,1,0,.08s0,0,0,.07,0,.11,0,.15c0,.27,0,.92,0,.8v.29c0-.17,0,.48,0,.81v.37a8.19,8.19,0,0,1,0,.93v.11a2.12,2.12,0,0,1-.05.47,1,1,0,0,1,0,.12c0,.24,0,.41.06.56v.08c0,.29,0,.58,0,.87a2.4,2.4,0,0,0,0,.28,2.06,2.06,0,0,0,0,.26.14.14,0,0,1,0,.06.22.22,0,0,1,0,.08v.23A2.08,2.08,0,0,1,84.81,74.72Z"/><path class="cls-2" d="M80.88,74.71H81l0-.38a2.34,2.34,0,0,1,0-.26c0-.25,0-.5,0-.75,0-.74.09-1.48.07-2.21a1.56,1.56,0,0,1,0-.43,1.48,1.48,0,0,0,.07-.42.37.37,0,0,0,0-.11A.5.5,0,0,0,81,70a1.23,1.23,0,0,1,0-.63,3.25,3.25,0,0,0,0-.54,3.86,3.86,0,0,0,0-.68.3.3,0,0,0,0-.08.24.24,0,0,0-.12-.07s-.08,0-.11,0l0,0a.09.09,0,0,0-.06,0c-.06,0-.16,0-.2.08a.42.42,0,0,0-.06.19,4.35,4.35,0,0,0,0,.51v.31s0,.12,0,.08v.29c0-.17,0,.48,0,.81v.37a5.73,5.73,0,0,1,0,.93,5.13,5.13,0,0,1,0,1,2.51,2.51,0,0,0,0,.27c0,.1,0,.21,0,.31s0,.41,0,.61a2.44,2.44,0,0,1,0,.27c0,.1,0,.2,0,.3s0,.27,0,.42A2.26,2.26,0,0,0,80.88,74.71Z"/><path class="cls-2" d="M77.46,74.66a.13.13,0,0,0,.06-.07.81.81,0,0,0,0-.38,3.09,3.09,0,0,1,0-.68s.12-.33,0-.29a.57.57,0,0,1,0-.13c0-.21,0-.41,0-.62s0-.49,0-.74c0-.08,0-.16,0-.26a1.55,1.55,0,0,0,0-.22c0-.17,0-.35,0-.53,0-.35-.06-.69-.08-1s.09-.67.09-1c0-.13,0-.44-.12-.49h0a.88.88,0,0,0-.43,0c-.18.11-.1.33-.07.49s0,.24,0,.35,0,.13,0,.09v.29c0-.17,0,.48,0,.81v.37a1,1,0,0,0,0,.17,1,1,0,0,1,0,.34s0,.11,0,.14a1.61,1.61,0,0,0,0,.31c0,.23,0,.24.07.47a8.15,8.15,0,0,1,0,1.1.81.81,0,0,1,0,.31.85.85,0,0,0,0,.32,6,6,0,0,0,0,.74s0,0,0,.06,0,0,.05,0A.58.58,0,0,0,77.46,74.66Z"/><path class="cls-2" d="M76.26,70.88c0,.14,0,.2,0,.23s.14,0,.39.06a1.42,1.42,0,0,0,.36,0h.08l.09,0h.23a5.76,5.76,0,0,0,1,0l.22,0,.31,0,.16,0h.14a2.28,2.28,0,0,1,.4,0,2.75,2.75,0,0,1,.34,0h.58c.8.05,1,.06,1.68.08h.1a2.47,2.47,0,0,1,.58,0,2.57,2.57,0,0,1,.66.11h.85l1.3.09c.57,0,.45,0,.67,0s.26,0,.31,0,0-.14,0-.47V71.1A.58.58,0,0,0,86.6,71l-.16,0c.1,0,0,0-.08,0a1.76,1.76,0,0,1-.23,0c-.2,0-.35,0-.61,0a1.74,1.74,0,0,1-.67-.1h-.4a2.78,2.78,0,0,1-.7,0c-.32,0-.45-.09-.61,0a.5.5,0,0,1-.2,0c-.07,0-.1,0-.19,0a.59.59,0,0,0-.2,0,2.91,2.91,0,0,1-.64,0c-.25,0-.5-.08-.82-.1h-.17l-.36,0-.16,0a5.85,5.85,0,0,0-.69,0c-.17,0-.42,0-.73,0l-.66,0-.95,0H77c-.47,0-.71,0-.76.06S76.2,70.77,76.26,70.88Z"/></g></g><text class="cls-4" transform="translate(23.63 20.05)">Large Market</text><g id="point"><polygon class="cls-2" points="117.95 20.01 116.74 18.17 115.5 19.99 114.86 17.89 113.15 19.28 113.13 17.08 111.1 17.94 111.69 15.82 109.5 16.08 110.67 14.21 108.5 13.84 110.15 12.38 108.17 11.41 110.16 10.47 108.53 8.98 110.71 8.64 109.57 6.76 111.75 7.04 111.19 4.92 113.2 5.8 113.26 3.6 114.94 5.02 115.62 2.93 116.83 4.76 118.07 2.94 118.72 5.05 120.42 3.65 120.45 5.85 122.47 4.99 121.88 7.11 124.07 6.86 122.9 8.72 125.07 9.1 123.43 10.56 125.41 11.53 123.42 12.47 125.04 13.95 122.86 14.29 124 16.18 121.82 15.89 122.39 18.02 120.37 17.13 120.31 19.33 118.63 17.91 117.95 20.01"/><text class="cls-5" transform="translate(113.65 14.92)">2</text></g></g></g></g></svg>