<svg xmlns="http://www.w3.org/2000/svg" viewBox="0 0 128.93 85.34"><defs><style>.cls-1,.cls-5{fill:#dddfd4;}.cls-2,.cls-5{font-size:12px;font-family:CalifornianFB-Bold, Californian FB;font-weight:700;}.cls-2,.cls-3,.cls-4{fill:#124559;}.cls-4{stroke:#dddfd4;stroke-miterlimit:10;stroke-width:0.25px;}</style></defs><title>large_sugar_mill</title><g id="Layer_2" data-name="Layer 2"><g id="BUILDINGS"><g id="large_sugar_mill"><rect id="building_bg" class="cls-1" width="128.93" height="85.34"/><text class="cls-2" transform="translate(16.21 20.05)">Large Sugar Mill</text><g id="building"><path class="cls-3" d="M58.13,61.13A.13.13,0,0,1,58,61c.1-.54.21-1.26.29-2.11a26.2,26.2,0,0,0,0-4.82c-.14-1.49-.26-1.32-.37-2.77-.16-2.06.1-2.21-.08-3.76-.21-1.9-.59-1.71-.78-3.65-.15-1.54,0-2.08-.35-3.21s-.73-1-.81-1.75a7.45,7.45,0,0,1,.75-3.32,1.36,1.36,0,0,0,.16-.59.42.42,0,0,0,0-.3.1.1,0,0,0-.07,0c-.15,0-.2.14-.24.27-.14.44-.27.87-.4,1.31a14.05,14.05,0,0,0-.48,2.32c0,.1,0,.25-.11.28s-.17-.1-.23-.19-.23-.33-.35-.5-.13,0-.21.23a3.52,3.52,0,0,0-.13,1,5.35,5.35,0,0,0,0,.69,6.33,6.33,0,0,0,.06.78c.08.53.2.79.13.84s0,0-.3-.18a2.27,2.27,0,0,1-.56-.58c-.15-.27-.14-.44-.2-.44s-.23.59-.24,1.15a6.7,6.7,0,0,0,.16,1.27c.22,1.51.26,1.72.31,1.94s.08.31.11.46,0,.2-.15.18a.53.53,0,0,1-.26-.13,4.65,4.65,0,0,1-1.11-1.49,13.27,13.27,0,0,1-1.3-4.33c0-.3,0-.6,0-.91v-.22c0-.12-.06-.15-.17-.08a2.07,2.07,0,0,0-.65.94c-.09.17-.17.35-.27.51s-.14.1-.2,0a1,1,0,0,1-.14-.49,3.65,3.65,0,0,1,.5-2.16c.41-.7.82-1.39,1.26-2.06a2.63,2.63,0,0,1,.83-.8c.37-.22.68-.52,1-.77.09-.06.18-.15.12-.29a.22.22,0,0,0-.27-.12,1.38,1.38,0,0,0-.76.5,15.66,15.66,0,0,0-1.4,1.72s-.06.14-.14.12a.23.23,0,0,1-.12-.2c0-.18,0-.35,0-.52s0-.16-.06-.18-.09.06-.12.1a7.1,7.1,0,0,0-.47.91,9.32,9.32,0,0,0-.75,1.74c0,.16-.08.32-.11.48a2.64,2.64,0,0,1-.1.3.19.19,0,0,1-.17.12C49,38.11,49,38,49,38a6.1,6.1,0,0,1-.19-1.35,10.6,10.6,0,0,1,.54-4c.06-.15.12-.29.17-.44s.08-.12.05-.17-.12,0-.17,0a1.71,1.71,0,0,0-.63.51c-.1.1-.2.28-.32.2s0-.29,0-.43a5.33,5.33,0,0,1,3.69-4,4.94,4.94,0,0,1,1.48-.12,2.56,2.56,0,0,1,1,.48,4.73,4.73,0,0,0,.68.33c.09,0,.18,0,.23-.06a.26.26,0,0,0,0-.3,1,1,0,0,0-.32-.28,7,7,0,0,0-1.3-.6.75.75,0,0,1-.13-.06.18.18,0,0,1,0-.32,1,1,0,0,1,.55-.16,1,1,0,0,0,.5-.13c.12-.08.13-.17,0-.29a.9.9,0,0,0-.38-.21c-.58-.2-1.16-.34-1.75-.5a1.43,1.43,0,0,0-.79.09,2.66,2.66,0,0,1-.49.1.22.22,0,0,1-.21-.11.27.27,0,0,1,.06-.26,2.51,2.51,0,0,1,.84-.72,6,6,0,0,1,1.3-.62,2.84,2.84,0,0,1,3,.91c.22.23.41.49.62.74a4,4,0,0,1,.58,1.55c0,.15,0,.36.19.39s.19-.17.27-.3a1.38,1.38,0,0,0,.14-.3,5.53,5.53,0,0,1,1.35-2,3.84,3.84,0,0,1,1.2-.63c.13-.06.27-.09.4-.15a1.07,1.07,0,0,1,1.1.21,2.67,2.67,0,0,1,.46.49.27.27,0,0,1,0,.28c0,.12-.12.12-.21.11a3.25,3.25,0,0,0-.88,0l0,0c-.09,0-.23.06-.22.15s.15.07.23.08a2,2,0,0,1,1,.34,8.47,8.47,0,0,1,1.66,1.35.81.81,0,0,1,.21.3c.07.17,0,.25-.12.24s-.5-.07-.75-.09a6,6,0,0,0-2.79.3,3.9,3.9,0,0,0-1.63,1.21s-.07.08,0,.13.09.05.14,0c.32-.14.63-.3.94-.43A5,5,0,0,1,62.12,29a3.81,3.81,0,0,1,1.71.38,10.69,10.69,0,0,1,1.68.87,3.33,3.33,0,0,1,1.43,2.11,1.15,1.15,0,0,1,0,.37c0,.17-.1.23-.22.13a.37.37,0,0,1-.12-.13,3.21,3.21,0,0,0-1.37-1.1c.24.47.53.87.78,1.3A4,4,0,0,1,66.56,35a9.44,9.44,0,0,1-.15,2.06,2.51,2.51,0,0,1-.22.56c-.39.71-.61.86-.68.43s-.1-.88-.18-1.31a5.57,5.57,0,0,0-.72-2,8.43,8.43,0,0,0-1-1c-.07-.07-.11,0-.12.08s0,.2-.06.29c-.07.26-.23.3-.39.12-.45-.49-.9-1-1.34-1.48a1.56,1.56,0,0,0-.68-.41.1.1,0,0,0-.14,0,.12.12,0,0,0,0,.15l.29.29a6.47,6.47,0,0,1,1.54,2.11,6,6,0,0,1,.43,2.35,8.6,8.6,0,0,1-1,4.3,1.1,1.1,0,0,1-.51.51c-.18.09-.25,0-.24-.21a2,2,0,0,1,.07-.35,6,6,0,0,0,.33-2,5.08,5.08,0,0,0-.56-2.14,6.71,6.71,0,0,0-.57-1,.57.57,0,0,0-.06.28,2.12,2.12,0,0,1-.39,1h0a3.49,3.49,0,0,1-.35-.82c-.12-.43-.23-.85-.39-1.27a5.27,5.27,0,0,0-.87-1.36c-.06-.07-.1-.1-.13-.09s-.09.13-.09.17a1.68,1.68,0,0,0,.25.94A7.46,7.46,0,0,1,59,38.61c-.07,1.62-.57,1.45-.62,2.86-.05,1.18.3,1.24.77,3.88.22,1.21.14,1.15.41,2.6.2,1.11.32,1.57.5,2.67.11.74.16,1.2.24,1.89.31,2.63.47,4,.8,5.55a25.36,25.36,0,0,0,.8,2.83c0,.09,0,.19-.1.19Z"/><path class="cls-3" d="M111.14,62.48c.12-.62.27-1.49.37-2.55a29,29,0,0,0,0-5.42c-.16-1.67-.29-1.48-.42-3.11-.19-2.32.11-2.48-.09-4.23-.25-2.13-.69-1.91-.91-4.09-.15-1.45-.39-2.8-.41-3.61a3.61,3.61,0,0,0,0-.6,2.11,2.11,0,0,0-.09-.38,3.83,3.83,0,0,1-.51-3.18c0-.16.07-.32.11-.49a.74.74,0,0,1-.23-.42c0-.14,0-.28.07-.18a1.63,1.63,0,0,1-.1.29c-.07.15-.15.29-.22.43a2.51,2.51,0,0,0-.41,2.48c-.12,0-.19-.11-.26-.21s-.27-.37-.4-.56-.16,0-.24.26a3.74,3.74,0,0,0-.16,1.06c0,.28,0,.49,0,.78a7.8,7.8,0,0,0,.08.87c.09.6.23.89.15,1s-.06,0-.35-.21a2.47,2.47,0,0,1-.65-.65c-.17-.3-.16-.49-.23-.49s-.27.66-.28,1.3a9.25,9.25,0,0,0,.19,1.42c.26,1.69.3,1.93.36,2.18s.09.34.12.52,0,.23-.17.2a.69.69,0,0,1-.32-.16,5,5,0,0,1-1.17-1.5,14.68,14.68,0,0,1-1.59-5,8.85,8.85,0,0,1,0-1,1.93,1.93,0,0,0,0-.24c.22-.13-.58-.13-.44.11a1.5,1.5,0,0,0-.19.25,5.7,5.7,0,0,0-.32.6,5.45,5.45,0,0,1-.31.58c-.08.14-.15.11-.23,0a1.16,1.16,0,0,1-.15-.55,3.89,3.89,0,0,1,0-1l.06-.31c1-1.68.17-3.52,2.56-4.44-2.39,0-4,2.76-3.33,4.33a.19.19,0,0,1-.19.13c-.09,0-.1-.1-.12-.17s-.07-.25-.1-.37l-.06-.38a5.55,5.55,0,0,1-.07-2.16c0-.16,0-.31,0-.46a11.25,11.25,0,0,1,.59-2.69c.06-.17.13-.33.2-.49a1.62,1.62,0,0,0-.88.4c-.1.11-.23.31-.36.22s0-.32,0-.48a6.09,6.09,0,0,1,4.27-4.55,4.1,4.1,0,0,1,.64,0c.84-.62.88-.88.85-1-.1-.32-1.07-.25-1.67-.12a5.19,5.19,0,0,0-1.3.5c-.92.46-1.25.84-1.38.72s-.07-.45.55-1.73a11.86,11.86,0,0,1,1.34-.73,10.1,10.1,0,0,1,2.71-.83,3.38,3.38,0,0,1,.93.12c1,.27,1.26.86,1.73.71s.46-1,1.1-1.22a1.2,1.2,0,0,1,1,.18c.59.39.53,1,.92,1.13s.32-.23,1.17-.78c0,0,.58-.34,1.38-.7.15-.07.32-.1.47-.17a1.24,1.24,0,0,1,1.27.23,2.6,2.6,0,0,1,.28.26,13.52,13.52,0,0,1,1,1.23,6.19,6.19,0,0,0-1.15-.53.83.83,0,0,0-1,.46c0,.29.54.79,3.26,1.72a1.16,1.16,0,0,1,.24.34c.08.19,0,.29-.15.27l-.42,0a8,8,0,0,0-2.37-.52,8.91,8.91,0,0,0-1.17,0,12.13,12.13,0,0,0-1,.86l-.3.32c-.31.36-.48.56-.44.71s.07.15.38.18l.27-.12.28-.11.69-.25.35-.1a7.39,7.39,0,0,0,2.42,0l.33.11.32.13a12.61,12.61,0,0,1,1.94,1,3.75,3.75,0,0,1,1.64,2.37,1.44,1.44,0,0,1,0,.41c0,.2-.12.26-.26.16a.51.51,0,0,1-.13-.16,3.75,3.75,0,0,0-1.58-1.23c.26.52.6,1,.89,1.46a4.45,4.45,0,0,1,.62,2.35,9.88,9.88,0,0,1-.18,2.31,2.2,2.2,0,0,1-.26.63c-.44.79-.7,1-.78.49s-.11-1-.21-1.47a5.77,5.77,0,0,0-.83-2.31,8.69,8.69,0,0,0-1.2-1.15c.35-.4-.48.55-.66.55a3.45,3.45,0,0,0-.26-.28l-.26-.27c-4.88-.37-.1.55-.29.45l.18.28a5,5,0,0,1,.31.61,6.58,6.58,0,0,1,.5,2.65A9.53,9.53,0,0,1,116,40.43a1.38,1.38,0,0,1-.58.57c-.21.1-.29,0-.28-.23a1.86,1.86,0,0,1,.08-.41,6.62,6.62,0,0,0,.38-2.21,5.68,5.68,0,0,0-.64-2.41,3.19,3.19,0,0,0-.44-.62c-.16-.18-.29-.3-.29-.25a1.89,1.89,0,0,1-.09.36,4.38,4.38,0,0,1-.38.79,1.6,1.6,0,0,1-.22-.44l-.19-.49c.08-.14.11-.27-.55-.12-.17.05-.31.14-.18.34s0,.34,0,.5c-.06.83-.29,1.64-.35,2.33,0,.14-.09.28-.14.45s-.12.34-.18.53a4.85,4.85,0,0,0-.25,1.27,3.94,3.94,0,0,0,0,.71c.09.77.43,1.31.87,3.65.25,1.36.16,1.29.46,2.92.24,1.24.38,1.76.58,3,.13.83.19,1.35.28,2.12a62.71,62.71,0,0,0,.93,6.24,29,29,0,0,0,1,3.39Z"/><path class="cls-3" d="M102.73,34.28l-37.67.11a.47.47,0,0,0-.48.48V62.16a.48.48,0,0,0,.48.49h37.67a.49.49,0,0,0,.48-.49V34.76A.48.48,0,0,0,102.73,34.28Z"/><path class="cls-4" d="M95.38,28.17a53,53,0,0,0-9.59-.45c-.4,0-2.22-.27-2.72-.3-1.71-.1-7.4.55-8.54.61-.19,0-3.83.56-4.84.77-2.18.48-1.85.72-3.18.92a2.72,2.72,0,0,0-1.49.6,1.86,1.86,0,0,0-.38.44,22.74,22.74,0,0,0-1.11,2.83c-.39,1.13-.75,2.27-1.06,3.42a4.78,4.78,0,0,0-.37,2l.15-.08c-.3.16,0,2.07,1,1.22-.36,2.22.57,1.52,1.54.62s1.79-1.64,1.59-.24c-.1.53-.08.77,0,.81s.65-1.85,1.19-1.8c.35,0,.51.9.7.88s.11-2,.38-2,.57,1.87,1.24,1.65l.49-.13c-.17-.82-.18-1.25,0-1.3s.31.14.6.53c.44-.72.65-.91.8-.92s.1.43.36.17c0,.77,0,1,.12,1s.26-.29.73-.8c.19-.21.36-.38.47-.48.22.45.81.1,1.14.34.68-.75.3,1,.88.44.75-.91.55.37,1,.07.34,0,.75-.13,1,.09.9-1.32.67,0,1,0,0,.86.58.11,1-.15.32,0,.43.36.92-.14.71-1.06.66-.33.84-.12.36-.53.19.21.78-.86.19-.11.43-.33.19.56,0,.22.07.51.19.59.19-.11.66-.84.74-.7.36-.12.44.42.73.5.48-.77.69-.91.44,0-.42,1.34-.1.94.24.54,1-1.56.13,1.17.86.15.09.53.58.14,1,0,.1.53,1-.87,1-.05.46-.35.85-.54,1-.06,0,.64.73-.27,1-.08.88-1.35.33.63,1-.11-.28,1.36,1-1,1-.14.33-.31.89-1.12.73-.26.08.33.17.64.61.12.21.57.75.4,1.29.28.89-1.37.25.87.77.34.71-.89,1-1.05.9-.2s.53,1,1.35.33c-.21,1.12.92-.88.94-.31.5-.55.82-.68.42.8.43.26,1.1-.56,1.4-.51s.65-.07,1.38-.63c.19.27.92-.66,1,0a1.93,1.93,0,0,1,.9.48,2.86,2.86,0,0,0,1.86.35c1.63-.45-3-9.86-3.87-10.5a1.71,1.71,0,0,0-.82-.45C99.59,28.88,96.16,28.28,95.38,28.17Z"/></g><g id="sugar_sacks"><g id="sugar"><path class="cls-3" d="M7.78,38.11c-.59.92.33.65.33.65-.76.42,0,.29-.22,1-.31,1-1.15,1.56-1.15,2.52a3.79,3.79,0,0,1,0,1.3,10.48,10.48,0,0,1-.93,1.91,3.11,3.11,0,0,0-.13,2.16c.1.41.21.76,1.29,1.45,1.83,1.16,4.32,1.17,11.81,1.07a10.92,10.92,0,0,0,3.71-.61c1.09-.39,1.75.29,2.75-1.34.46-.75-.09-2.5-.95-4-1.52-2.68-.56-3.85-.87-4.46-.16-.33-.6-.49-.55-.72s.3-.21.29-.33-.55-.25-.54-.3.47.07.56-.08-.21-.49-.28-.56c-.68-.7-4.54.53-6.43.72A13.68,13.68,0,0,1,12,38a8.86,8.86,0,0,0-3.35-.15A1.92,1.92,0,0,0,7.78,38.11Z"/><path class="cls-3" d="M12,37.81a13.42,13.42,0,0,0,4.53.51c1.64-.17,4.76-1.11,6-.9a4.44,4.44,0,0,0-1.78-1.1c-.45-.11-.57-.48-1.1-.66s-1,.53-1.69.33-.83-.75-1.2-.93S16.08,33.9,15,33.93a21.91,21.91,0,0,1-2.41,1.23,12.48,12.48,0,0,0-2,1.2,7.66,7.66,0,0,0-1.94,1.3A9.79,9.79,0,0,1,12,37.81Z"/></g><g id="sugar-2" data-name="sugar"><path class="cls-3" d="M31.39,36.85c-.59.92.33.65.33.65-.76.42,0,.29-.22,1-.31,1-1.14,1.55-1.14,2.51,0,.53.16.79,0,1.3a9.8,9.8,0,0,1-.92,1.91,3.12,3.12,0,0,0-.14,2.16c.11.41.21.76,1.3,1.45C32.42,49,34.92,49,42.41,48.94a11,11,0,0,0,3.71-.61c1.08-.39,1.75.29,2.75-1.34.46-.75-.1-2.5-.95-4-1.52-2.68-.57-3.85-.87-4.46-.16-.33-.61-.49-.55-.72s.3-.21.29-.33-.55-.25-.54-.3.47.08.56-.08-.21-.49-.28-.56c-.68-.7-4.55.53-6.43.72a13.64,13.64,0,0,1-4.53-.51,8.93,8.93,0,0,0-3.36-.15A2,2,0,0,0,31.39,36.85Z"/><path class="cls-3" d="M35.57,36.55a13.38,13.38,0,0,0,4.53.51c1.63-.17,4.76-1.11,6-.9a4.51,4.51,0,0,0-1.78-1.1c-.45-.11-.58-.48-1.1-.66s-1,.53-1.69.33-.83-.75-1.21-.93-.63-1.15-1.68-1.13a19.73,19.73,0,0,1-2.42,1.23,12.72,12.72,0,0,0-2,1.2,7.49,7.49,0,0,0-1.94,1.3A9.79,9.79,0,0,1,35.57,36.55Z"/></g><g id="sugar-3" data-name="sugar"><path class="cls-4" d="M17.49,37.79c-.72,1.13.4.79.4.79-.93.52,0,.36-.26,1.28-.38,1.25-1.41,1.91-1.41,3.08,0,.65.2,1,0,1.6a12.2,12.2,0,0,1-1.14,2.33,3.84,3.84,0,0,0-.16,2.64c.13.5.26.94,1.59,1.78,2.23,1.43,5.29,1.44,14.46,1.31a13.07,13.07,0,0,0,4.55-.75c1.33-.48,2.15.37,3.37-1.63.57-.92-.12-3.07-1.16-4.92-1.86-3.28-.7-4.72-1.07-5.46-.2-.41-.74-.61-.67-.88s.37-.26.35-.41-.67-.31-.66-.37.58.1.69-.09-.26-.6-.35-.69c-.83-.86-5.57.65-7.88.88a16.47,16.47,0,0,1-5.54-.63,11.29,11.29,0,0,0-4.11-.18A2.48,2.48,0,0,0,17.49,37.79Z"/><path class="cls-4" d="M22.61,37.42a16.47,16.47,0,0,0,5.54.63c2-.21,5.84-1.36,7.36-1.11a5.62,5.62,0,0,0-2.18-1.34c-.56-.14-.71-.58-1.36-.8s-1.23.64-2.06.39-1-.92-1.48-1.13-.77-1.42-2.06-1.39a26.1,26.1,0,0,1-3,1.51,15.86,15.86,0,0,0-2.5,1.46,9.43,9.43,0,0,0-2.37,1.6A12.27,12.27,0,0,1,22.61,37.42Z"/></g></g><g id="rings"><circle class="cls-1" cx="24.67" cy="63.14" r="15.3"/><circle class="cls-1" cx="64.47" cy="63.14" r="15.3"/><circle class="cls-1" cx="104.27" cy="63.14" r="15.3"/></g><polygon class="cls-3" points="116.64 20.01 115.43 18.17 114.19 19.99 113.54 17.89 111.84 19.28 111.81 17.08 109.78 17.94 110.38 15.82 108.19 16.08 109.36 14.21 107.19 13.84 108.83 12.38 106.85 11.41 108.84 10.47 107.22 8.98 109.39 8.64 108.25 6.76 110.44 7.04 109.87 4.92 111.89 5.8 111.94 3.6 113.63 5.02 114.3 2.93 115.52 4.76 116.76 2.94 117.4 5.05 119.11 3.65 119.13 5.85 121.16 4.99 120.57 7.11 122.75 6.86 121.59 8.72 123.76 9.1 122.11 10.56 124.09 11.53 122.1 12.47 123.72 13.95 121.55 14.29 122.69 16.18 120.51 15.89 121.07 18.02 119.06 17.13 119 19.33 117.32 17.91 116.64 20.01"/><text class="cls-5" transform="translate(112.33 14.92)">2</text></g></g></g></svg>