<svg xmlns="http://www.w3.org/2000/svg" viewBox="0 0 329.41 278.9"><defs><style>.cls-1{fill:#664848;}.cls-2{fill:#1c8daf;}.cls-3{fill:#5cc8e5;}.cls-4{fill:#25667f;}.cls-5{fill:#513a3a;}</style></defs><title>MayorShip</title><g id="Layer_2" data-name="Layer 2"><g id="CAPTAIN_MAYYOR_SHIPS" data-name="CAPTAIN+MAYYOR_SHIPS"><g id="ship"><polygon class="cls-1" points="145.44 225.94 145.44 0 139.21 225.94 145.44 225.94"/><polygon class="cls-1" points="210.55 216.28 210.55 33.97 205.42 216.28 210.55 216.28"/><polygon class="cls-1" points="57.19 199.51 57.19 85.19 53.46 199.51 57.19 199.51"/><path class="cls-1" d="M85,37a.85.85,0,0,0,.84.84c18-.1,30.75,5.12,57.6,9.56,13.91,2.3,29.74.61,45,.7.28,0,7-1.33.22-1.7a411.68,411.68,0,0,1-42.53-.68c-15.42-.91-39-9.43-60.48-10.26C85.09,35.38,85,36.25,85,37Z"/><path class="cls-2" d="M325.36,190.61l-114.81-136s24.11,60.67,25.26,117.5c7.17-13.3,53.29,4.05,53.29,4.05l-.37-9.24L293.84,178Z"/><path class="cls-3" d="M182.79,45.87C205.65,49.06,203,158,201.33,185.3c-4.19-2-23.06-1.92-23.06-1.92L175,176,168.79,184s-35.4-9.38-87.07,2.18C111.05,124,91.46,34,91.46,34S115,36.41,182.79,45.87Z"/><path class="cls-3" d="M76.11,174.64c-10.38-13.14-50.64,3.9-76.11,5L77.58,94.11C69.23,112,71.18,156.51,76.11,174.64Z"/><path class="cls-3" d="M289.1,176.18,210.55,54.63s16.82,47,22.28,84c5.33,11.06,9.43,20.66,14,28.51C252.71,166.52,289.1,176.18,289.1,176.18Z"/><path class="cls-2" d="M77.58,94.11S75.05,108,73.32,120.52c-2.93,21.23,2.79,54.12,2.79,54.12S46.13,151.37,77.58,94.11Z"/><g id="zaszlo"><polygon class="cls-4" points="129.28 5.91 129.28 13.57 133.35 11.73 132.11 6.08 129.28 5.91"/><path class="cls-2" d="M128,21.57s4.13.6,4.62-2.27,12.28,1.83,12.28,1.83l.45-16.5S125.52,4,129.91,6.31c10.34,5.48-14.58,9.12-12.57,9.47,5.8,1,1.73,3.16-1.15,4.83Z"/><path class="cls-3" d="M132.39,9.29l0,10.7a2.43,2.43,0,0,1-1.66,1.36c-1.21.24-7.29-7.35-7.29-7.35S130.76,12.38,132.39,9.29Z"/></g><path class="cls-2" d="M98.11,96.56c.32,28.41-3,61.8-16.13,89.64,51.67-11.56,87.08-2.18,87.08-2.18L175.3,176l3.23,7.41s18.87,0,23.06,1.92c.33-5.43.71-14.11.91-24.54C176.25,166.7,116.85,117.51,98.11,96.56Z"/></g><g id="captainShip"><path class="cls-1" d="M329.11,189.14l-74.4,9.61-57.81,7.09L190,207c-2.86,1.71-2.92,5.91-8.6,9.59-12.37,8-31.37,6.83-73.57,5.63-16.77-.48-29.31-17.93-31.52-21.53l-.66-11.07-59.87-8.45v5.93l2.89,1.32v28a1.8,1.8,0,0,0,1.41,1.75l11,2.4,5.22,1.14,7.26,34.92c0,5.58,3.18,10.47,8.45,14.18a45.65,45.65,0,0,0,27.31,7.78l98.82.37c35.72.36,53.95-14.26,61.06-37.38,1.31-4.26,2.2-6.12,4.42-14.48.19-.74,5-.35,6.2-3.38,2.35-5.78.09-12.14,3.7-13.63,7.24-3,5.95-2.64,11.56-4.46,3-1,1.38-2.43,2.26-2.42,6.54.09,62.15-12.76,62.15-12.76Z"/><path class="cls-1" d="M34.39,221.87l-4.36-1a2.33,2.33,0,0,0-.38,0h-.5c-.71,0-1.25.41-1.15.85L29.53,228c0,.21-1.75,1.1-2,1.26,0,0,.34,2.63.35,2.81L28,243.55a.56.56,0,0,1-.25.46h0a2.29,2.29,0,0,0-1,1.87l1.53,29.81c0,.4.53.72,1.16.72H49.61c.64,0,1.16-.33,1.16-.74V271.4a.6.6,0,0,0-.28-.48c-5.09-3.68-8.15-8.48-8.17-13.94a.28.28,0,0,0,0-.09l-7.15-34.42A.93.93,0,0,0,34.39,221.87Z"/></g><circle class="cls-3" cx="149.07" cy="108.08" r="44.39"/><path class="cls-5" d="M51.93,270.75a45.65,45.65,0,0,0,27.31,7.78l98.82.37c26.19.27,43-7.53,52.87-20.83,0,0-24.4,12-40.83,13.64-37.17,3.69-92.45-4.8-116.3-12.3-27.6-8.69-36.36-31.86-36.36-31.86l6,29C43.45,262.53,47.14,267.38,51.93,270.75Z"/><path class="cls-5" d="M29.5,276.41H49.61c.64,0,1.16-.33,1.16-.74V271.4a.6.6,0,0,0-.28-.48c-4.75-3.43-8.13-8.25-8.18-14l-5.83-28.06-8.14,46.86C28.36,276.09,28.87,276.41,29.5,276.41Z"/><circle class="cls-5" cx="172.58" cy="238.69" r="5.95"/><circle class="cls-5" cx="193.46" cy="238.69" r="5.95"/></g></g></svg>