<svg xmlns="http://www.w3.org/2000/svg" viewBox="0 0 128.93 85.34"><defs><style>.cls-1,.cls-5{fill:#68829e;}.cls-2,.cls-3,.cls-4{fill:#124559;}.cls-3{stroke:#68829e;stroke-miterlimit:10;stroke-width:0.25px;}.cls-4,.cls-5{font-size:12px;font-family:CalifornianFB-Bold, Californian FB;font-weight:700;}</style></defs><title>small_indigo_plant</title><g id="Layer_2" data-name="Layer 2"><g id="BUILDINGS"><g id="small_indigo_plant"><rect id="small_sugar_mill_bg" class="cls-1" width="128.93" height="85.34"/><g id="building"><path class="cls-2" d="M113,73.49c.06,0,.1-.09.1-.11-.08-.37-.18-.87-.25-1.45a15.12,15.12,0,0,1,0-3.34c.12-1,.22-.91.31-1.91.14-1.43-.08-1.53.07-2.6.18-1.31.51-1.18.67-2.52a6.77,6.77,0,0,1,.3-2.22c.34-.77.62-.68.69-1.21a4.34,4.34,0,0,0-.64-2.29.91.91,0,0,1-.14-.41s0-.15,0-.21l.06,0c.13,0,.17.1.21.19l.33.91a7.4,7.4,0,0,1,.42,1.6c0,.07,0,.17.09.19s.14-.07.19-.13.2-.23.3-.35.12,0,.18.17a1.88,1.88,0,0,1,.12.65c0,.17,0,.3,0,.48a3,3,0,0,1-.06.53c-.06.37-.17.55-.11.59s0,0,.26-.13a1.92,1.92,0,0,0,.48-.4c.13-.18.12-.3.17-.3s.2.4.21.8a4.55,4.55,0,0,1-.14.87,12.23,12.23,0,0,1-.27,1.34l-.09.32c0,.1,0,.14.13.13a.62.62,0,0,0,.22-.1,3.43,3.43,0,0,0,.95-1,8.19,8.19,0,0,0,1.11-3,4.39,4.39,0,0,0,0-.63.76.76,0,0,1,0-.15c0-.08,0-.11.14-.06a1.53,1.53,0,0,1,.56.65,2.74,2.74,0,0,0,.23.36c.06.09.11.07.17,0a.6.6,0,0,0,.11-.34,2.11,2.11,0,0,0-.42-1.49c-.35-.48-.7-1-1.08-1.43a2,2,0,0,0-.71-.55c-.31-.15-.58-.36-.87-.53-.07,0-.15-.11-.1-.2a.19.19,0,0,1,.23-.08,1.17,1.17,0,0,1,.65.34,10.29,10.29,0,0,1,1.19,1.19s.06.09.12.08a.15.15,0,0,0,.11-.14c0-.12,0-.24,0-.36s0-.1,0-.12.07,0,.1.07a3.2,3.2,0,0,1,.4.63,5.58,5.58,0,0,1,.65,1.2l.09.33a.56.56,0,0,0,.09.21.16.16,0,0,0,.14.08c.07,0,.07-.06.09-.11a3.64,3.64,0,0,0,.17-.93,6.27,6.27,0,0,0-.47-2.8c0-.1-.1-.19-.14-.3s-.07-.08,0-.12.1,0,.14,0a1.4,1.4,0,0,1,.54.35c.08.07.17.19.27.14s0-.2,0-.3a4.12,4.12,0,0,0-3.15-2.8,5.34,5.34,0,0,0-1.26-.08A2.51,2.51,0,0,0,116,51a2.92,2.92,0,0,1-.58.23c-.07,0-.15,0-.19,0s0-.15,0-.21a.77.77,0,0,1,.28-.19,7.33,7.33,0,0,1,1.1-.42l.12,0c.11,0,.11-.16,0-.22a.92.92,0,0,0-.46-.11,1.07,1.07,0,0,1-.43-.09c-.1,0-.11-.12,0-.2a.77.77,0,0,1,.32-.14c.49-.14,1-.24,1.49-.35a1.75,1.75,0,0,1,.68.06,2,2,0,0,0,.41.07.2.2,0,0,0,.18-.07c0-.07,0-.13,0-.18a2,2,0,0,0-.71-.5,4.9,4.9,0,0,0-1.12-.43,2.78,2.78,0,0,0-2.55.63,6.38,6.38,0,0,0-.53.51,2.45,2.45,0,0,0-.5,1.07c0,.1,0,.25-.16.27s-.17-.12-.23-.2a1.13,1.13,0,0,1-.12-.21,3.92,3.92,0,0,0-1.16-1.37,3.56,3.56,0,0,0-1-.43l-.35-.1a1,1,0,0,0-.93.14,2.57,2.57,0,0,0-.4.34.17.17,0,0,0,0,.19c0,.08.11.08.19.08a3,3,0,0,1,.74,0h0c.07,0,.19,0,.19.1s-.13,0-.2,0a2.15,2.15,0,0,0-.9.24,7.89,7.89,0,0,0-1.42.93.91.91,0,0,0-.18.21c-.06.12,0,.17.11.17l.64-.07a6.58,6.58,0,0,1,2.38.21,3.42,3.42,0,0,1,1.39.84s.06.06,0,.09-.08,0-.13,0c-.26-.1-.53-.21-.8-.3a5.26,5.26,0,0,0-1.57-.3,3.86,3.86,0,0,0-1.47.26,11.33,11.33,0,0,0-1.43.6,2.35,2.35,0,0,0-1.22,1.46.76.76,0,0,0,0,.26c0,.12.08.15.19.09a.32.32,0,0,0,.1-.1,2.78,2.78,0,0,1,1.17-.75c-.2.32-.45.6-.67.9a2.35,2.35,0,0,0-.45,1.44,5.19,5.19,0,0,0,.13,1.42,1.41,1.41,0,0,0,.19.39c.33.49.52.59.58.3s.08-.61.15-.91a3.25,3.25,0,0,1,.62-1.41,6.74,6.74,0,0,1,.88-.72c.06,0,.1,0,.11.06s0,.13,0,.2.19.21.33.08c.39-.34.77-.67,1.15-1a1.33,1.33,0,0,1,.57-.28.1.1,0,0,1,.13,0,.08.08,0,0,1,0,.1l-.26.21A4.55,4.55,0,0,0,109,55.33a3.54,3.54,0,0,0-.37,1.63,5.07,5.07,0,0,0,.85,3,.92.92,0,0,0,.43.35c.16.06.22,0,.21-.14a1,1,0,0,0-.06-.25,3.57,3.57,0,0,1-.29-1.36,3.24,3.24,0,0,1,.48-1.48,5.82,5.82,0,0,1,.49-.73.38.38,0,0,1,.06.19,1.2,1.2,0,0,0,.33.7h0a2,2,0,0,0,.29-.57,9.21,9.21,0,0,1,.34-.87,3.38,3.38,0,0,1,.74-.94s.08-.07.11-.06.07.09.08.11c.07.27-.22.65-.22.65a4.31,4.31,0,0,0-.35,2.4c.07,1.12.49,1,.54,2,0,.81-.26.86-.67,2.68-.18.83-.11.79-.34,1.79-.17.77-.28,1.09-.43,1.85-.1.51-.14.83-.21,1.3a31.88,31.88,0,0,1-.68,3.84,15.06,15.06,0,0,1-.68,1.95s0,.08.09.14c.23.23.64.05,1.12,0C111.93,73.33,112.51,73.89,113,73.49Z"/><path class="cls-2" d="M100.33,73a14.85,14.85,0,0,1-.32-1.8,17.16,17.16,0,0,1,0-3.85c.13-1.19.25-1.06.36-2.22.15-1.64-.09-1.76.08-3,.2-1.52.58-1.37.77-2.91.12-1,.33-2,.35-2.57a2.21,2.21,0,0,1,0-.42,1.73,1.73,0,0,1,.08-.27,2.36,2.36,0,0,0,.44-2.26c0-.11-.06-.23-.1-.34a.53.53,0,0,0,.2-.3c0-.1,0-.2-.07-.13a2,2,0,0,0,.09.2c.06.11.13.21.19.31.39.58.72,1.09.35,1.76.1,0,.16-.08.22-.15s.23-.26.34-.4.14,0,.21.19a2.27,2.27,0,0,1,.13.75,5,5,0,0,1,0,.55,5.58,5.58,0,0,1-.07.62c-.08.43-.19.64-.12.68s0,0,.29-.15a2,2,0,0,0,.55-.46c.15-.21.15-.35.2-.35s.23.47.24.92a5.09,5.09,0,0,1-.16,1,14.69,14.69,0,0,1-.31,1.55c0,.12-.07.24-.1.37s0,.16.15.14a.59.59,0,0,0,.27-.12,3.61,3.61,0,0,0,1-1.06A9.32,9.32,0,0,0,107,55.73a5.74,5.74,0,0,0,0-.72c0-.06,0-.12,0-.18-.18-.09.5-.09.38.08l.16.18a3.74,3.74,0,0,1,.27.42c.08.14.17.28.26.42s.14.07.2,0a.73.73,0,0,0,.13-.4,2.21,2.21,0,0,0,0-.68l-.06-.22c-.82-1.2-.14-2.5-2.18-3.16,2,0,3.4,2,2.84,3.08a.17.17,0,0,0,.17.09c.08,0,.08-.07.1-.12s.06-.18.08-.26l.06-.27a3.27,3.27,0,0,0,0-1.54,1.66,1.66,0,0,0,0-.32,6.74,6.74,0,0,0-.5-1.91c0-.12-.12-.23-.17-.35a1.53,1.53,0,0,1,.75.28c.09.09.19.23.31.16s0-.23,0-.34a4.77,4.77,0,0,0-3.64-3.23,4.53,4.53,0,0,0-.55,0c-.72-.44-.75-.63-.72-.7.08-.23.91-.17,1.42-.08a5,5,0,0,1,1.11.35c.78.33,1.07.6,1.18.51s.06-.31-.47-1.22a12.3,12.3,0,0,0-1.14-.53,9.92,9.92,0,0,0-2.32-.58,2.9,2.9,0,0,0-.8.08c-.85.19-1.07.61-1.47.51s-.4-.71-.94-.87a1.21,1.21,0,0,0-.85.13c-.5.28-.45.73-.78.8s-.27-.16-1-.55a12.8,12.8,0,0,0-1.18-.5c-.13,0-.27-.07-.4-.12a1.22,1.22,0,0,0-1.08.16,1.1,1.1,0,0,0-.24.19,7.92,7.92,0,0,0-.85.87l.19,0c.46-.07.6-.2.86-.23s.74.08.76.21-.2.24-1.16.49c-.52.2-1.7.68-1.83,1,0,0-.06.13,0,.16s.23-.08.29-.11a2.88,2.88,0,0,1,1.14-.37,10.18,10.18,0,0,1,1.09,0,9.18,9.18,0,0,1,1,.11c.38.26.66.47.84.61,0,0,.1.08.25.23s.41.4.38.5-.06.11-.33.13l-.23-.08-.23-.08-.59-.18-.31-.07a8.15,8.15,0,0,1-2.06,0l-.28.07-.27.1a12.09,12.09,0,0,0-1.66.69A2.75,2.75,0,0,0,91.49,50a1.42,1.42,0,0,0,0,.29c0,.14.1.18.22.11a.43.43,0,0,0,.12-.11,3.18,3.18,0,0,1,1.35-.88c-.23.38-.52.7-.77,1a2.73,2.73,0,0,0-.52,1.67A6,6,0,0,0,92,53.79a1.57,1.57,0,0,0,.22.45c.37.56.6.69.67.34s.09-.7.17-1a4,4,0,0,1,.71-1.64,8.24,8.24,0,0,1,1-.82c-.3-.28.41.39.56.39l.22-.19.22-.2c4.17-.26.09.39.25.32l-.15.2c-.09.14-.18.28-.26.43a4,4,0,0,0-.43,1.89,5.86,5.86,0,0,0,1,3.43,1.09,1.09,0,0,0,.5.4c.18.07.25,0,.24-.16a1,1,0,0,0-.08-.29,4.28,4.28,0,0,1-.32-1.57A3.6,3.6,0,0,1,97.1,54a2.16,2.16,0,0,1,.37-.44c.14-.13.25-.22.26-.18a.68.68,0,0,0,.07.26,2.94,2.94,0,0,0,.32.55s.11-.15.19-.31a3.06,3.06,0,0,0,.16-.35c-.06-.09-.09-.19.48-.08.14,0,.26.1.15.24a2.17,2.17,0,0,0,0,.36c0,.59.25,1.16.3,1.65a3.32,3.32,0,0,0,.12.32c0,.11.09.24.15.38a3,3,0,0,1,.21.9,2.35,2.35,0,0,1,0,.5c-.08.55-.38.93-.75,2.59-.21,1-.13.92-.39,2.08-.2.88-.33,1.25-.5,2.13-.11.59-.16,1-.24,1.51a35.38,35.38,0,0,1-.79,4.42A16.35,16.35,0,0,1,96.36,73Z"/><path class="cls-2" d="M86.8,53.6,108.53,63a.31.31,0,0,1,.32.31v11a.31.31,0,0,1-.32.31H86.8a.32.32,0,0,1-.33-.31V53.92A.32.32,0,0,1,86.8,53.6Z"/><path class="cls-3" d="M89.28,53.35c.17.09.36.19.54.3a2.54,2.54,0,0,0,1,.36,11.69,11.69,0,0,0,1.32-.08,9.48,9.48,0,0,1,1.83.19,1.91,1.91,0,0,1,.82.28,3.2,3.2,0,0,1,.43.47,5.39,5.39,0,0,0,1.47,1c.28.16.7.42,1.23.75a5.06,5.06,0,0,1,1.4.37,4.86,4.86,0,0,1,.91.46c.13.08.26.14.38.22s.19.23.28.28a9.08,9.08,0,0,0,1.36.6c1,.34,1.14.21,2,.54a6.39,6.39,0,0,1,1.87,1,5.11,5.11,0,0,0,.65.47c.3.17.49.24.67.33.52.24.43.36,1.23.92a13.93,13.93,0,0,0,1.32.86.55.55,0,0,1,.17.11.46.46,0,0,1,.09.15,1.75,1.75,0,0,1-.18,1.67l-.07-.08c.14.17-.47,1.25-.88.47-.34,1.41-.7.76-1,0s-.63-1.44-.85-.55c-.08.34-.14.49-.2.48s.08-1.27-.24-1.37-.52.4-.62.34.43-1.21.28-1.3-.79,1-1.12.67l-.24-.21c.3-.44.41-.7.34-.76s-.21,0-.47.16c-.08-.54-.16-.71-.23-.76s-.17.24-.26,0c-.16.47-.25.55-.3.55s-.08-.24-.22-.67a3.6,3.6,0,0,0-.15-.4c-.24.2-.49-.15-.74-.09-.2-.63-.41.5-.61,0-.2-.73-.41.08-.61-.22-.2-.07-.39-.27-.58-.19-.2-1-.38-.19-.57-.23-.18.53-.36-.08-.53-.35-.17-.1-.33.11-.49-.31-.15-.82-.3-.37-.45-.29-.08-.41-.16.08-.24-.72-.08-.11-.16-.3-.24.29-.08.12-.17.29-.25.3s-.17-.67-.26-.6c-.17-.17-.35.13-.54.11-.08-.59-.17-.72-.26-.09-.08.91-.17.59-.26.26-.19-1.18-.37.67-.53-.13-.19.3-.37-.06-.55-.23-.19.29-.37-.78-.55-.29-.18-.32-.35-.53-.53-.28s-.35-.34-.53-.29c-.17-1-.34.29-.51-.31-.18.89-.34-.88-.51-.32-.12-.27-.24-.9-.36-.34-.12.17-.25.33-.38-.09-.25.29-.52.05-.8-.16-.18-1-.36.45-.52,0-.19-.72-.31-.88-.47-.35s-.54.44-.85-.15c-.16.72-.31-.76-.46-.42-.16-.46-.31-.62-.44.36-.31,0-.5-.61-.68-.66s-.35-.21-.63-.73c-.17.11-.37-.63-.57-.25a1.17,1.17,0,0,0-.64,0,1.72,1.72,0,0,1-1.15-.27c-.82-.68.22-1.18.88-1.34A3.74,3.74,0,0,1,89.28,53.35Z"/><g id="fence"><path class="cls-2" d="M84.81,74.72H85a1.41,1.41,0,0,1,0-.29.13.13,0,0,0,0-.06.08.08,0,0,0,0,0A1.06,1.06,0,0,1,85,74v-.14a2.23,2.23,0,0,0,0-.64v-.13c0-.41,0-.8,0-1.11a.49.49,0,0,1,0-.12,10.84,10.84,0,0,0,0-1.14v-.09a7.32,7.32,0,0,0,0-1.15v-.09a8.43,8.43,0,0,0,0-1.25.08.08,0,0,0,0,0l0,0a.47.47,0,0,0-.21-.09l-.16,0a.19.19,0,0,0-.21,0,.43.43,0,0,0,0,.07.19.19,0,0,1,0,.08s0,0,0,.07,0,.11,0,.15c0,.27,0,.92,0,.8v.29c0-.17,0,.48,0,.81v.37a8.19,8.19,0,0,1,0,.93v.11a2.12,2.12,0,0,1-.05.47,1,1,0,0,1,0,.12c0,.24,0,.41.06.56v.08c0,.29,0,.58,0,.87a2.4,2.4,0,0,0,0,.28,2.06,2.06,0,0,0,0,.26.14.14,0,0,1,0,.06.22.22,0,0,1,0,.08v.23A2.08,2.08,0,0,1,84.81,74.72Z"/><path class="cls-2" d="M80.88,74.71H81l0-.38a2.34,2.34,0,0,1,0-.26c0-.25,0-.5,0-.75,0-.74.09-1.48.07-2.21a1.56,1.56,0,0,1,0-.43,1.48,1.48,0,0,0,.07-.42.37.37,0,0,0,0-.11A.5.5,0,0,0,81,70a1.23,1.23,0,0,1,0-.63,3.25,3.25,0,0,0,0-.54,3.86,3.86,0,0,0,0-.68.3.3,0,0,0,0-.08.24.24,0,0,0-.12-.07s-.08,0-.11,0l0,0a.09.09,0,0,0-.06,0c-.06,0-.16,0-.2.08a.42.42,0,0,0-.06.19,4.35,4.35,0,0,0,0,.51v.31s0,.12,0,.08v.29c0-.17,0,.48,0,.81v.37a5.73,5.73,0,0,1,0,.93,5.13,5.13,0,0,1,0,1,2.51,2.51,0,0,0,0,.27c0,.1,0,.21,0,.31s0,.41,0,.61a2.44,2.44,0,0,1,0,.27c0,.1,0,.2,0,.3s0,.27,0,.42A2.26,2.26,0,0,0,80.88,74.71Z"/><path class="cls-2" d="M77.46,74.66a.13.13,0,0,0,.06-.07.81.81,0,0,0,0-.38,3.09,3.09,0,0,1,0-.68s.12-.33,0-.29a.57.57,0,0,1,0-.13c0-.21,0-.41,0-.62s0-.49,0-.74c0-.08,0-.16,0-.26a1.55,1.55,0,0,0,0-.22c0-.17,0-.35,0-.53,0-.35-.06-.69-.08-1s.09-.67.09-1c0-.13,0-.44-.12-.49h0a.88.88,0,0,0-.43,0c-.18.11-.1.33-.07.49s0,.24,0,.35,0,.13,0,.09v.29c0-.17,0,.48,0,.81v.37a1,1,0,0,0,0,.17,1,1,0,0,1,0,.34s0,.11,0,.14a1.61,1.61,0,0,0,0,.31c0,.23,0,.24.07.47a8.15,8.15,0,0,1,0,1.1.81.81,0,0,1,0,.31.85.85,0,0,0,0,.32,6,6,0,0,0,0,.74s0,0,0,.06,0,0,.05,0A.58.58,0,0,0,77.46,74.66Z"/><path class="cls-2" d="M76.26,70.88c0,.14,0,.2,0,.23s.14,0,.39.06a1.42,1.42,0,0,0,.36,0h.08l.09,0h.23a5.76,5.76,0,0,0,1,0l.22,0,.31,0,.16,0h.14a2.28,2.28,0,0,1,.4,0,2.75,2.75,0,0,1,.34,0h.58c.8.05,1,.06,1.68.08h.1a2.47,2.47,0,0,1,.58,0,2.57,2.57,0,0,1,.66.11h.85l1.3.09c.57,0,.45,0,.67,0s.26,0,.31,0,0-.14,0-.47V71.1A.58.58,0,0,0,86.6,71l-.16,0c.1,0,0,0-.08,0a1.76,1.76,0,0,1-.23,0c-.2,0-.35,0-.61,0a1.74,1.74,0,0,1-.67-.1h-.4a2.78,2.78,0,0,1-.7,0c-.32,0-.45-.09-.61,0a.5.5,0,0,1-.2,0c-.07,0-.1,0-.19,0a.59.59,0,0,0-.2,0,2.91,2.91,0,0,1-.64,0c-.25,0-.5-.08-.82-.1h-.17l-.36,0-.16,0a5.85,5.85,0,0,0-.69,0c-.17,0-.42,0-.73,0l-.66,0-.95,0H77c-.47,0-.71,0-.76.06S76.2,70.77,76.26,70.88Z"/></g></g><text class="cls-4" transform="translate(11.06 20.05)">Small Indigo Plant</text><g id="indigos"><g id="indigo_flower"><path class="cls-2" d="M62,63.71s-.86-3.08-5-3.84C57.5,62.79,62,63.71,62,63.71Z"/><path class="cls-2" d="M61.44,62.63s1.08-3.27-3.1-4A5.82,5.82,0,0,0,61.44,62.63Z"/><path class="cls-2" d="M62,63.49s2.31-.34,5.09-3.46C64.09,59.81,62,63.49,62,63.49Z"/><path class="cls-2" d="M61.64,61.53s.76-3.51-2.59-7C58,57.44,61.64,61.53,61.64,61.53Z"/><path class="cls-2" d="M65.07,56.18s-4.43,1.93-2.83,7.38C65.62,62,65.07,56.18,65.07,56.18Z"/><path class="cls-2" d="M63.15,54.16a7,7,0,0,0-1.51,6.48C64,59,63.15,54.16,63.15,54.16Z"/><path class="cls-2" d="M61.39,63.13c0-.15,0-.33,0-.51l-.06-.55L61.16,61c-.09-.74-.17-1.48-.24-2.23,0-.38-.07-.75-.1-1.14,0-.19,0-.39,0-.63s0-.35,0-.53c0-.7,0-1.44-.08-2.17L60.57,52c0-.38-.06-.76-.07-1.15l0-1.12c-.05-1.48-.13-3-.26-4.45s-.34-3-.57-4.42c-.11-.73-.25-1.48-.34-2.22L59,36.45c-.1-.74-.22-1.45-.33-2.21s-.18-1.49-.24-2.24c-.1-1.5-.16-3-.17-4.49a.07.07,0,0,1,.07-.07.07.07,0,0,1,.07.06c.2,1.49.37,3,.58,4.44.1.74.21,1.47.34,2.2l.21,1.1c.06.37.12.75.16,1.12.09.75.14,1.5.21,2.23s.21,1.46.34,2.2c.25,1.48.47,3,.64,4.45s.31,3,.41,4.48l.07,1.12c0,.36.06.72.11,1.09.09.73.21,1.47.31,2.22A16.94,16.94,0,0,1,62,56.44c0,.19,0,.39,0,.59a4.16,4.16,0,0,0,0,.49c0,.35.06.72.1,1.09l.24,2.22L62.47,62l.05.56a5.66,5.66,0,0,1,0,.61.58.58,0,0,1-1.16,0Z"/><path class="cls-2" d="M60,41.93s.78-.65.76-.74-.16-.12-.07-.33a1.07,1.07,0,0,1,.43-.37,3,3,0,0,1,.1-1,6.22,6.22,0,0,1,.47-.56c.1-.1.58-1,.72-1,.32.12.17,1.08.19,1.26s.39-.48.68-.46,1-.1,1,.35a2.9,2.9,0,0,1-.54,1.48,3.79,3.79,0,0,1-1.49.36c-.24,0-.28.18-.44.26s-.7.34-.8.25-.83.75-.83.75Z"/><path class="cls-2" d="M60.93,48.24l.51-.66s.07-.55.18-.63-.42-1.18-.25-1.54a3,3,0,0,1,1.18-1.12.56.56,0,0,1,.54.29c.08.17.17-.15.22-.14s.43.25.39.52.26-.22.43-.16.9.47.91.72a1.55,1.55,0,0,1-.32.87,1.49,1.49,0,0,1-.7.46c-.18,0-.51.46-1,.4s-1.08.68-1.25.65-.88.82-.88.82Z"/><path class="cls-2" d="M59.46,35.74l.49-.56s.07-.67.18-.73-.41-1-.24-1.29.91-1,1.12-.93c.4.15.28.57.36.71s0-.22.21-.25.58-.13.53.1.25-.18.42-.14.86.4.87.6a1.14,1.14,0,0,1-.31.73c-.16.16-.44.47-.61.47s-.61.68-1,.63-1.09.47-1.25.44-.72.4-.72.4Z"/><path class="cls-2" d="M60.09,41.43a1.92,1.92,0,0,1-.68-1.14.55.55,0,0,0-.55-.53l.15-.19s-.27-.49-.47-.53-.33-1.21-.5-1.33-.17-.56-.29-.48-.25.77-.31.77a1.65,1.65,0,0,0-.55.22c-.12.1-.24-.39-.55-.31s-.71.06-.71.51a3.1,3.1,0,0,0,.42,1.33,1.75,1.75,0,0,0,1,.44,2.24,2.24,0,0,1,1,.25c.08.06.43.58.64.56a7.52,7.52,0,0,1,1.49.86Z"/><path class="cls-2" d="M60.35,46A5.24,5.24,0,0,1,60,44.92c0-.16.16-1.87-.12-2s-1.09-.3-1.22,0-.54-.48-.85,0a1.38,1.38,0,0,0-.29,1c0,.1-.55.33-.5.71a1.06,1.06,0,0,0,.4.73,6.16,6.16,0,0,0,1.27.46c.25,0,.38.59.64.66s1.21.45,1.21.45Z"/><path class="cls-2" d="M61,53.42s-.63-.12-.8-.48a2.89,2.89,0,0,0-.33-.71,2.65,2.65,0,0,0-1-.83c-.07,0-.19-.7-.31-.8s0-.37-.19-.54-.45-.69-.74-.53-.19.31-.14.76-.09.28-.4.17l0,0c-.35-.09-.61-.61-.74-.25l0,0c-.29-.14-.41-.24-.6-.12a.1.1,0,0,0-.05,0l0,0c-.15.19.2.4.31.62,0,0,0,0,0,.06-.16.2-.35.09-.51,0l-.12-.12s-.14-.06-.14,0v.07a2.61,2.61,0,0,0,.06.66l0,0a1.45,1.45,0,0,0,.22.21l0,0a2.82,2.82,0,0,0,1,.76,9.65,9.65,0,0,0,1.73.19c.4,0,1.09.65,1.21.68s1,.62,1.41.59S61,53.42,61,53.42Z"/><path class="cls-2" d="M59.37,36.35s-.5-.1-.64-.39a2.71,2.71,0,0,0-.26-.57,2.15,2.15,0,0,0-.82-.66s-.15-.57-.25-.65,0-.3-.15-.43-.3-.41-.53-.29-.44-.32-.74-.21.08.61-.13.69c-.51.2-.58-.39-.86-.14s-.61.64-.19,1.07S55,35.93,56,35.85c.71-.05.82-.18,1.14-.18s.87.53,1,.55.79.5,1.13.48S59.37,36.35,59.37,36.35Z"/><path class="cls-2" d="M61.58,53.67a5.75,5.75,0,0,1,.54-.34c.06,0,.2-.15.21-.25s-.13-.19,0-.38l.52-1.19a1.13,1.13,0,0,1,.11-.22c.16-.23.42-.27.61-.47a.41.41,0,0,0,.1-.13.35.35,0,0,0,0-.11l.08-.41c0-.11,0-.34.14-.41s.16.07.3.05.19-.21.31-.11,0,.37,0,.47a.64.64,0,0,0,.09.43c.06.08.16.13.23.21s.22.11.45,0a1.11,1.11,0,0,1,.57-.1c.37.06.85.17.89.34a1.84,1.84,0,0,1-.53,1.09c-.23.1-.5.7-.89.68a4.94,4.94,0,0,0-1.25,0c-.21.09-.6.23-.78.28s-.54.46-.68.31-1,1.05-1,1.05Z"/><path class="cls-2" d="M58.9,32.44l.42-.77a.56.56,0,0,1-.07-.48,2.21,2.21,0,0,1,.38-.72c.15-.14.18-.92.43-1s.76-.41.63-.14.18-.16.23,0a1.13,1.13,0,0,1,.07.89,2.56,2.56,0,0,1-.76.82c-.12,0-.44.78-.57.71s-.76.93-.76.93Z"/><path class="cls-2" d="M58.5,31.16l-.3-.52c0-.05-.07-.17-.13-.21s-.5-.08-.62-.34c0,0,0-.05,0-.06s0,0,0,0-.09-.09-.16-.2,0,0-.12-.2a1.21,1.21,0,0,0-.1-.16,1.06,1.06,0,0,0-.21-.16.85.85,0,0,1-.25-.26.89.89,0,0,1-.11-.49.53.53,0,0,1,.05-.33.31.31,0,0,1,.1-.1v0c0-.15.08-.23.16-.11s0-.23.13-.19c.36.09.68.16.86.51a2.25,2.25,0,0,1,.2.67,2.15,2.15,0,0,0,.19.67,1.83,1.83,0,0,1,.14.28c.06.15,0,.29,0,.44s.1.25.15.38.15.35.23.52Z"/><path class="cls-2" d="M58.43,29.1c0-.14-.17-.86-.17-.86a.56.56,0,0,1-.36-.32,2.18,2.18,0,0,1-.17-.81.22.22,0,0,0,0-.13.3.3,0,0,0,0-.08.93.93,0,0,0-.05-.1.36.36,0,0,1,0-.09A.54.54,0,0,1,57.5,26l0-.05a.28.28,0,0,1,0-.09s0,0,0-.05c-.07-.29.18-.29.48-.24h.09l.05,0a.49.49,0,0,1,.19-.05.21.21,0,0,1,.14,0,.22.22,0,0,1,0,.08c-.3.41.22.67.13,1.2a.29.29,0,0,1-.1.12l0,.11a.08.08,0,0,1,0,.06c-.07.1.16.88,0,.91s0,1.2,0,1.2Z"/></g><g id="indigo_flower-2" data-name="indigo_flower"><path class="cls-2" d="M57.46,62.89s-2.52-3.42-6-4.06C51.9,61.29,57.46,62.89,57.46,62.89Z"/><path class="cls-2" d="M55.21,61.15s.92-2.76-2.61-3.4A4.92,4.92,0,0,0,55.21,61.15Z"/><path class="cls-2" d="M55.66,61.87s.92.67,3.27-2A3.17,3.17,0,0,0,55.66,61.87Z"/><path class="cls-2" d="M55.38,60.22a7,7,0,0,0-2.18-5.9C52.32,56.78,55.38,60.22,55.38,60.22Z"/><path class="cls-2" d="M58.27,55.72s-3.73,1.62-2.38,6.21C58.73,60.63,58.27,55.72,58.27,55.72Z"/><path class="cls-2" d="M56.65,54a6,6,0,0,0-1.27,5.46C57.33,58.05,56.65,54,56.65,54Z"/><path class="cls-2" d="M55.17,61.57c0-.12,0-.28,0-.43l-.05-.46-.1-.94c-.08-.62-.15-1.25-.21-1.88,0-.31-.06-.63-.08-1a4.73,4.73,0,0,1,0-.54l0-.44c0-.59,0-1.21-.07-1.83l-.16-1.88q0-.48-.06-1l0-.94c0-1.26-.11-2.5-.23-3.75s-.28-2.49-.47-3.72c-.1-.62-.21-1.25-.29-1.88l-.23-1.87c-.08-.62-.19-1.21-.28-1.85s-.15-1.26-.2-1.89q-.13-1.89-.15-3.78a.06.06,0,0,1,.06-.06.06.06,0,0,1,.06.05c.17,1.25.31,2.5.49,3.74.08.62.17,1.24.28,1.85l.18.93c0,.31.1.62.14.94.07.63.11,1.26.18,1.88s.17,1.23.28,1.85c.21,1.24.4,2.49.54,3.75s.26,2.51.34,3.77l.06.94c0,.31.05.61.09.92.08.62.19,1.24.27,1.87a15.06,15.06,0,0,1,.17,1.92c0,.17,0,.34,0,.51s0,.25,0,.4.06.61.09.92l.2,1.87.1.94,0,.48a4,4,0,0,1,0,.51.49.49,0,0,1-1,0Z"/><path class="cls-2" d="M54,43.72s.65-.54.63-.62-.13-.1,0-.28A1,1,0,0,1,55,42.5a2.78,2.78,0,0,1,.08-.8,4.86,4.86,0,0,1,.4-.47c.08-.09.49-.88.6-.84.27.1.15.92.17,1.07s.33-.41.57-.39.84-.09.83.29a2.44,2.44,0,0,1-.46,1.24,3.11,3.11,0,0,1-1.25.31c-.21,0-.24.15-.37.22s-.59.28-.68.21-.7.63-.7.63Z"/><path class="cls-2" d="M54.78,49l.43-.57s.06-.46.16-.52-.36-1-.21-1.3a2.48,2.48,0,0,1,1-.94.46.46,0,0,1,.46.24c.07.15.15-.13.19-.12s.36.21.32.44.22-.18.37-.14.75.4.76.61a1.16,1.16,0,0,1-.86,1.13c-.14,0-.42.38-.8.33s-.92.57-1.06.54-.74.69-.74.69Z"/><path class="cls-2" d="M53.54,38.51,54,38s0-.57.15-.62-.34-.83-.21-1.08.77-.85,1-.79.24.48.3.6,0-.18.18-.21.49-.11.45.08.21-.15.35-.11.72.33.73.5a1,1,0,0,1-.25.62c-.14.13-.38.39-.52.39s-.52.57-.89.53-.91.4-1.05.37-.61.34-.61.34Z"/><path class="cls-2" d="M54.07,43.3a1.72,1.72,0,0,1-.57-1,.46.46,0,0,0-.46-.45l.13-.16s-.23-.41-.4-.44c-.42-.1-.14-.71-.42-1.13a.39.39,0,0,0-.25-.2.46.46,0,0,0-.35.09.6.6,0,0,0-.23.26c0,.11,0,.23-.14.29h0c-.09,0-.2-.34-.44-.27s-.6,0-.6.42a1.53,1.53,0,0,0,.35,1.12c.16.16.18.1.52.38s.27.3.39.33c.3.08.51-.23.76-.12.1,0,.09.1.21.22s.37.18.67.32c.06,0,1,.73.91.65h0Z"/><path class="cls-2" d="M54.3,47.14a4.18,4.18,0,0,1-.32-.91c0-.13.14-1.57-.09-1.64s-.92-.25-1,0-.46-.41-.72,0a1.1,1.1,0,0,0-.24.8c0,.09-.47.29-.43.6a.89.89,0,0,0,.34.61,5,5,0,0,0,1.07.4c.21,0,.32.49.54.55s1,.38,1,.38Z"/><path class="cls-2" d="M54.85,53.39s-.53-.1-.67-.4a3.08,3.08,0,0,0-.28-.6,2.29,2.29,0,0,0-.85-.69c-.06,0-.16-.6-.26-.68s0-.31-.16-.45-.38-.58-.63-.45a.26.26,0,0,0-.16.32c0,.06,0,.11,0,.19a3.13,3.13,0,0,1-.23.37c-.15.19-.25.33-.41.35s-.16-.06-.29-.06c-.31,0-.68.41-.59.7a.39.39,0,0,0,.18.2.79.79,0,0,0,.15.12,1.13,1.13,0,0,0,.2.13s0,0,.09,0a.5.5,0,0,0,.35.18.88.88,0,0,0,.39-.17l0,0a1,1,0,0,1,.21.08.27.27,0,0,1,.12.14h.53c.33,0,.91.55,1,.58s.83.53,1.19.5S54.85,53.39,54.85,53.39Z"/><path class="cls-2" d="M53.47,39s-.42-.08-.54-.33a1.58,1.58,0,0,0-.91-1s-.13-.48-.21-.55,0-.25-.13-.37-.2-.25-.33-.26a.23.23,0,0,0-.11,0c-.22.08-.23.23-.37.28s-.39-.16-.51-.07,0,.19-.09.22-.21-.21-.38-.2a.15.15,0,0,0-.11,0c-.23.21-.51.54-.16.9s.13,1,1,.91c.61,0,.7-.15,1-.15s.74.44.82.47.67.42,1,.39a.18.18,0,0,0,.14-.06C53.58,39.17,53.48,39,53.47,39Z"/><path class="cls-2" d="M55.33,53.6s.41-.24.45-.28.18-.13.18-.21-.11-.16,0-.32l.43-1a1.14,1.14,0,0,1,.1-.19c.14-.19.36-.23.52-.39a.76.76,0,0,0,.08-.11.36.36,0,0,0,0-.1l.07-.34c0-.09,0-.29.12-.34s.13,0,.25,0,.16-.18.26-.1,0,.31,0,.4a.57.57,0,0,0,.08.36c0,.07.14.11.19.18s.19.09.38,0a1.14,1.14,0,0,1,.48-.09c.32.06.72.15.75.3a1.53,1.53,0,0,1-.44.91c-.2.09-.43.59-.75.58a4,4,0,0,0-1.06,0c-.17.08-.5.19-.65.24s-.46.38-.58.26-.87.88-.87.88Z"/><path class="cls-2" d="M53.07,35.73c.07-.11.36-.65.36-.65a.48.48,0,0,1-.07-.4,1.94,1.94,0,0,1,.33-.61c.33-.33.14-.69.36-.88a.71.71,0,0,1,.3-.15.15.15,0,0,1,.13,0c.05,0,0,.09.08.11s.1,0,.18,0a.23.23,0,0,1,.15.11c.13.2,0,.55-.06.6a1.69,1.69,0,0,1-.25.46c-.15.16-.27.08-.39.22s-.06.24-.18.39a.68.68,0,0,1-.3.21,1.47,1.47,0,0,0-.64.79Z"/><path class="cls-2" d="M52.73,34.65a3.7,3.7,0,0,0-.25-.43.69.69,0,0,0-.1-.19c-.16-.12-.42-.06-.52-.28a.1.1,0,0,0,0,0s0,0,0,0-.08-.08-.14-.17a1.18,1.18,0,0,0-.1-.16c-.07-.12-.06-.12-.08-.14a.79.79,0,0,0-.18-.14.74.74,0,0,1-.21-.21c-.1-.15,0-.22-.09-.42s-.1-.15-.08-.22a.23.23,0,0,1,.12-.16c.06,0,.08,0,.09,0s0,0,0-.1a.1.1,0,0,1,.08-.1s0,0,.07,0,0-.05.07-.06,0,0,0,0a2.07,2.07,0,0,1,.25,0c.1,0,.17.1.36.32s.3.33.33.38a1.81,1.81,0,0,1,.14.53,3.39,3.39,0,0,1,.09.56,1.11,1.11,0,0,0,0,.37,2.56,2.56,0,0,0,.12.32c.06.15.12.29.19.44Z"/><path class="cls-2" d="M52.68,32.92c0-.13-.14-.73-.14-.73a.46.46,0,0,1-.31-.27,2.06,2.06,0,0,1-.14-.68.28.28,0,0,0,0-.11l0-.07A.3.3,0,0,1,52,31a.2.2,0,0,1,0-.08.43.43,0,0,1-.06-.57l0,0a.22.22,0,0,1,0-.08s0,0,0,0c-.07-.25.15-.25.4-.2h.08l0,0a.34.34,0,0,1,.16,0,.11.11,0,0,1,.11,0,.15.15,0,0,1,.05.06c.13.08.17.15.18.21s0,.13,0,.27a.84.84,0,0,0,0,.19.49.49,0,0,1-.09.39l-.06.06a.19.19,0,0,1,0,.08s0,.05,0,.06.14.74,0,.76,0,1,0,1Z"/></g><g id="indigo_flower-3" data-name="indigo_flower"><path class="cls-2" d="M64.16,60.94s-.52-2.28,2.3-2.92A3.37,3.37,0,0,1,64.16,60.94Z"/><path class="cls-2" d="M64.52,60s-1.27-2.59,1.55-3.23C65.69,59.26,64.52,60,64.52,60Z"/><path class="cls-2" d="M64.17,60.76s-.74.66-2.62-2C63.55,58.61,64.17,60.76,64.17,60.76Z"/><path class="cls-2" d="M64.39,59.1a8.16,8.16,0,0,1,1.75-5.9C66.84,55.66,64.39,59.1,64.39,59.1Z"/><path class="cls-2" d="M62.07,54.6s3,1.63,1.91,6.22C61.7,59.52,62.07,54.6,62.07,54.6Z"/><path class="cls-2" d="M63.37,52.9a6.89,6.89,0,0,1,1,5.46C62.83,56.93,63.37,52.9,63.37,52.9Z"/><path class="cls-2" d="M64.56,60.45c0-.12,0-.28,0-.43l0-.46.09-.93c0-.63.11-1.25.16-1.88,0-.32.05-.63.06-1a4.5,4.5,0,0,0,0-.53c0-.15,0-.3,0-.45,0-.59,0-1.21,0-1.83l.14-1.88c0-.31,0-.64,0-1l0-.94c0-1.25.08-2.5.18-3.75s.22-2.48.38-3.72c.07-.62.17-1.25.23-1.88L66.17,38c.06-.63.14-1.22.22-1.86s.12-1.26.16-1.89c.07-1.26.11-2.51.12-3.77a.07.07,0,0,0,0-.07.06.06,0,0,0-.05.06c-.14,1.24-.25,2.49-.39,3.73-.07.62-.14,1.24-.23,1.85l-.14.93c0,.31-.08.63-.11.94-.06.63-.09,1.26-.14,1.88s-.14,1.23-.23,1.85c-.17,1.25-.32,2.5-.43,3.75s-.21,2.52-.28,3.77l0,1c0,.3,0,.6-.08.91-.06.62-.15,1.24-.21,1.87s-.13,1.27-.14,1.93c0,.16,0,.33,0,.5s0,.25,0,.41,0,.61-.07.92l-.16,1.87-.08.94,0,.47c0,.16,0,.32,0,.51a.46.46,0,0,0,.39.5.44.44,0,0,0,.4-.46Z"/><path class="cls-2" d="M65.48,42.61A3.77,3.77,0,0,1,65,42c0-.08.11-.1,0-.27a.76.76,0,0,0-.28-.32,3.11,3.11,0,0,0-.07-.8,4.62,4.62,0,0,0-.32-.48c-.06-.09-.39-.87-.48-.83s-.12.91-.13,1.06-.26-.41-.46-.39-.67-.09-.66.29A2.84,2.84,0,0,0,63,41.49a2.26,2.26,0,0,0,1,.3c.16,0,.19.15.29.22s.48.29.54.22.56.62.56.62Z"/><path class="cls-2" d="M64.87,47.92l-.35-.56s0-.47-.12-.53.29-1,.17-1.3a2.31,2.31,0,0,0-.79-.94.37.37,0,0,0-.37.24c0,.15-.11-.12-.15-.11s-.29.21-.26.43-.17-.18-.29-.13-.61.39-.61.6a1.55,1.55,0,0,0,.21.74c.12.16.36.39.48.39s.34.38.64.33.73.58.85.55.59.69.59.69Z"/><path class="cls-2" d="M65.86,37.39l-.33-.47s0-.56-.12-.62.28-.83.16-1.08-.61-.85-.75-.78-.19.47-.25.6,0-.19-.14-.22-.39-.1-.36.09-.17-.16-.28-.12-.58.33-.59.51a1.21,1.21,0,0,0,.21.61c.11.14.3.39.41.39s.42.57.71.54.74.39.85.37.48.33.48.33Z"/><path class="cls-2" d="M65.44,42.18a1.72,1.72,0,0,0,.46-1c0-.44.37-.44.37-.44l-.11-.17.11-.21c.09-.15.16-.15.21-.23s-.08-.37,0-.63.17-.22.33-.33a.77.77,0,0,1,.41-.18c.08,0,.25,0,.31.07s0,.31,0,.38h0c.07,0,.15-.33.34-.27s.48,0,.48.43a2.81,2.81,0,0,1-.28,1.11,1.08,1.08,0,0,1-.68.38,1.13,1.13,0,0,0-.65.21c-.06,0-.29.49-.43.47s-1,.72-1,.72Z"/><path class="cls-2" d="M65.26,46a4.91,4.91,0,0,0,.25-.9c0-.13-.11-1.58.08-1.65s.74-.25.82,0,.37-.41.57,0a1.29,1.29,0,0,1,.2.81c0,.08.38.28.34.59a.92.92,0,0,1-.27.62,3.76,3.76,0,0,1-.86.39c-.16,0-.25.5-.43.55s-.81.38-.81.38Z"/><path class="cls-2" d="M64.82,52.28s.42-.1.53-.41a3.06,3.06,0,0,1,.23-.59,1.82,1.82,0,0,1,.68-.7s.13-.59.21-.68,0-.31.13-.45.3-.58.5-.45.13.26.09.64.06.24.27.14h0c.23-.08.41-.51.5-.22h0c.2-.11.28-.2.41-.1l0,0,0,0c.11.16-.13.34-.21.52,0,0,0,0,0,0,.11.17.24.08.34,0l.09-.1.09,0V50a2.78,2.78,0,0,1,0,.56l0,0a.86.86,0,0,1-.15.17l0,0a1.92,1.92,0,0,1-.7.64,5.5,5.5,0,0,1-1.17.16c-.27,0-.73.55-.82.58s-.66.52-.95.49S64.82,52.28,64.82,52.28Z"/><path class="cls-2" d="M65.92,37.9s.34-.08.43-.32a2.66,2.66,0,0,1,.18-.48,1.55,1.55,0,0,1,.55-.56s.1-.48.17-.55,0-.25.1-.36.2-.34.36-.24.29-.27.5-.18,0,.51.09.58c.34.17.39-.33.58-.12a.68.68,0,0,1,.13.91c-.28.36-.1,1-.83.91-.49-.05-.56-.16-.77-.16s-.59.45-.66.47-.53.42-.76.4S65.92,37.9,65.92,37.9Z"/><path class="cls-2" d="M64.43,52.49s-.32-.25-.36-.28-.14-.13-.14-.22.08-.16,0-.32l-.35-1a1.54,1.54,0,0,0-.08-.19c-.11-.19-.28-.23-.41-.39a.39.39,0,0,1-.06-.11.29.29,0,0,1,0-.1L63,49.54c0-.09,0-.29-.1-.34s-.1.06-.19,0-.13-.18-.21-.1,0,.32,0,.4a.7.7,0,0,1-.06.36,1.37,1.37,0,0,1-.16.18c-.11.17-.15.09-.3,0a.67.67,0,0,0-.39-.08c-.25,0-.57.15-.6.29a1.72,1.72,0,0,0,.36.91c.16.09.34.59.6.58a2.89,2.89,0,0,1,.85,0,3.91,3.91,0,0,0,.52.24c.12,0,.37.38.46.26s.7.88.7.88Z"/><path class="cls-2" d="M66.24,34.62,66,34a.53.53,0,0,0,.06-.4,1.93,1.93,0,0,0-.27-.61c-.09-.12-.12-.77-.28-.88s-.52-.35-.43-.12-.12-.13-.16,0a1.28,1.28,0,0,0,0,.75,2,2,0,0,0,.51.69c.08,0,.3.66.39.6s.51.78.51.78Z"/><path class="cls-2" d="M66.51,33.54c.06-.15.13-.3.2-.44a.51.51,0,0,1,.09-.18c.13-.13.33-.07.41-.29l0-.05h0s.06-.07.11-.17a1,1,0,0,1,.08-.16c0-.11,0-.12.07-.14s.08-.08.14-.13a1.16,1.16,0,0,0,.17-.22,1.18,1.18,0,0,0,.07-.42.44.44,0,0,0,0-.27.18.18,0,0,0-.06-.08v0c0-.12-.06-.19-.11-.09s0-.2-.09-.16-.45.13-.58.43a2.54,2.54,0,0,0-.13.56,2.63,2.63,0,0,1-.13.57c0,.08-.07.15-.1.23s0,.24,0,.37-.06.21-.09.32-.1.3-.16.44Z"/><path class="cls-2" d="M66.56,31.8c0-.12.11-.73.11-.73a.4.4,0,0,0,.25-.27,2.46,2.46,0,0,0,.11-.67A.22.22,0,0,1,67,30l0-.08,0-.07,0-.08a.54.54,0,0,0,.05-.57l0,0a.21.21,0,0,0,0-.08.08.08,0,0,0,0,0c0-.24-.12-.24-.32-.2h-.1a.28.28,0,0,0-.12-.05.17.17,0,0,0-.1,0l0,.06c.21.35-.14.57-.08,1a.23.23,0,0,0,.07.1s0,.06,0,.09,0,0,0,0-.11.74,0,.77a4.25,4.25,0,0,1,0,1Z"/></g><g id="indigo_flower-4" data-name="indigo_flower"><path class="cls-2" d="M57.46,62.89a4.55,4.55,0,0,1,3.4-3.23C60.48,62.12,57.46,62.89,57.46,62.89Z"/><path class="cls-2" d="M57.82,62s.37-4.6,3.19-5.24C60.63,59.2,57.82,62,57.82,62Z"/><path class="cls-2" d="M57.47,62.71s-.74.66-2.62-2C56.85,60.56,57.47,62.71,57.47,62.71Z"/><path class="cls-2" d="M57.69,61.05a12.73,12.73,0,0,1,2.37-6.61C60.76,56.9,57.69,61.05,57.69,61.05Z"/><path class="cls-2" d="M55.37,56.55s3,1.63,1.91,6.22C55,61.47,55.37,56.55,55.37,56.55Z"/><path class="cls-2" d="M56.67,54.85a6.87,6.87,0,0,1,1,5.45C56.13,58.88,56.67,54.85,56.67,54.85Z"/><path class="cls-2" d="M57.86,62.4c0-.12,0-.28,0-.43l0-.46.09-.93c0-.63.11-1.25.16-1.88,0-.32,0-.63.06-1a4.63,4.63,0,0,0,0-.54c0-.14,0-.29,0-.44,0-.59,0-1.21.05-1.83l.14-1.88c0-.31,0-.64,0-1l0-.94c0-1.25.08-2.5.18-3.75s.22-2.48.38-3.72c.07-.62.17-1.25.23-1.88l.19-1.87c.06-.62.14-1.21.22-1.85s.12-1.26.16-1.89q.1-1.89.12-3.78a.06.06,0,0,0,0-.06.06.06,0,0,0-.05.06c-.14,1.24-.25,2.49-.39,3.73-.07.62-.14,1.24-.23,1.85l-.14.93c0,.31-.08.63-.11.94-.06.63-.09,1.26-.14,1.88s-.14,1.23-.23,1.85c-.17,1.25-.32,2.49-.43,3.75s-.21,2.51-.28,3.77l0,1c0,.3-.05.6-.08.91-.06.62-.15,1.24-.21,1.87s-.13,1.27-.14,1.93c0,.16,0,.33,0,.5s0,.25,0,.41,0,.61-.07.92l-.16,1.86-.08.95,0,.47c0,.16,0,.32,0,.51a.44.44,0,0,0,.38.5.44.44,0,0,0,.4-.46Z"/><path class="cls-2" d="M58.78,44.55s-.52-.54-.51-.62.11-.1,0-.28a.85.85,0,0,0-.29-.31,3.18,3.18,0,0,0-.07-.81,5.36,5.36,0,0,0-.32-.47c-.06-.09-.39-.88-.48-.83s-.12.91-.13,1.06-.26-.41-.46-.39-.67-.09-.66.29a2.84,2.84,0,0,0,.36,1.25,2.26,2.26,0,0,0,1,.3c.16,0,.19.15.29.22s.48.29.54.21.56.63.56.63Z"/><path class="cls-2" d="M58.17,49.87l-.35-.56s0-.47-.12-.53.29-1,.17-1.3a2.31,2.31,0,0,0-.79-.94.37.37,0,0,0-.37.24c-.05.15-.11-.12-.15-.11a.5.5,0,0,0-.26.43c0,.23-.17-.18-.29-.14s-.61.4-.61.61a1.55,1.55,0,0,0,.21.74c.12.16.36.39.48.39s.34.38.64.33.73.57.85.55.59.69.59.69Z"/><path class="cls-2" d="M59.16,39.34l-.33-.47s0-.57-.12-.62.28-.83.16-1.08-.61-.85-.75-.78-.19.47-.25.59,0-.18-.14-.21-.39-.1-.36.08-.17-.15-.28-.11-.58.33-.59.51a1.21,1.21,0,0,0,.21.61c.11.13.3.39.41.39s.42.57.71.54.74.39.85.37.48.33.48.33Z"/><path class="cls-2" d="M58.74,44.13a1.72,1.72,0,0,0,.46-1c0-.44.37-.44.37-.44l-.11-.17s.19-.41.32-.44.23-1,.34-1.12.11-.47.2-.4.17.64.2.64a1.11,1.11,0,0,1,.38.19c.07.08.16-.33.36-.26s.48,0,.48.43a2.81,2.81,0,0,1-.28,1.11,1.08,1.08,0,0,1-.68.38,1.13,1.13,0,0,0-.65.21c-.06,0-.29.49-.43.47s-1,.72-1,.72Z"/><path class="cls-2" d="M58.56,48a4.91,4.91,0,0,0,.25-.9c0-.13-.11-1.58.08-1.65s.74-.25.82,0,.37-.41.58,0a1.33,1.33,0,0,1,.19.81c0,.08.38.28.34.59a.92.92,0,0,1-.27.62,3.76,3.76,0,0,1-.86.39c-.16,0-.25.5-.43.55s-.81.38-.81.38Z"/><path class="cls-2" d="M58.12,54.23s.42-.1.53-.41a3.06,3.06,0,0,1,.23-.59,1.82,1.82,0,0,1,.68-.7s.13-.59.21-.68,0-.31.13-.45.3-.58.5-.45.13.26.09.64.06.24.27.14h0c.23-.08.41-.52.5-.22h0c.2-.11.28-.21.41-.1l0,0,0,0c.11.15-.13.34-.2.52,0,0,0,0,0,.05s.24.07.34,0l.09-.1.09,0v.06a2.69,2.69,0,0,1,0,.55l0,.05a.86.86,0,0,1-.15.17l0,0a1.92,1.92,0,0,1-.7.64,5.5,5.5,0,0,1-1.17.16c-.27,0-.73.55-.82.58s-.66.52-.95.49S58.12,54.23,58.12,54.23Z"/><path class="cls-2" d="M59.22,39.85s.34-.08.43-.32a2.66,2.66,0,0,1,.18-.48,1.55,1.55,0,0,1,.55-.56s.1-.48.17-.55,0-.25.1-.36.2-.35.36-.24.29-.27.5-.18,0,.51.09.58c.34.17.39-.33.58-.12a.67.67,0,0,1,.13.9c-.28.36-.1,1-.83.91-.49,0-.56-.15-.77-.15s-.59.44-.66.47-.53.42-.76.4S59.22,39.85,59.22,39.85Z"/><path class="cls-2" d="M57.73,54.43a4.15,4.15,0,0,0-.36-.28s-.14-.12-.14-.21.08-.16,0-.32l-.35-1a1.54,1.54,0,0,0-.08-.19c-.11-.19-.28-.23-.41-.39a.6.6,0,0,1-.06-.11.29.29,0,0,1,0-.1l0-.34c0-.09,0-.29-.1-.34s-.1.06-.19,0-.13-.18-.21-.1,0,.31,0,.4a.7.7,0,0,1-.06.36c0,.07-.11.11-.16.18s-.15.09-.3,0a.67.67,0,0,0-.39-.08c-.25.05-.57.15-.6.29a1.72,1.72,0,0,0,.36.91c.16.09.34.59.6.58a2.89,2.89,0,0,1,.85,0,3.91,3.91,0,0,0,.52.24c.12,0,.37.38.46.26s.7.88.7.88Z"/><path class="cls-2" d="M59.54,36.56c0-.1-.29-.65-.29-.65a.53.53,0,0,0,.06-.4A1.93,1.93,0,0,0,59,34.9c-.09-.12-.12-.77-.28-.88s-.52-.35-.43-.12-.12-.13-.16,0a1.28,1.28,0,0,0,0,.75,2.16,2.16,0,0,0,.51.69c.08,0,.3.66.39.59s.51.79.51.79Z"/><path class="cls-2" d="M59.81,35.49c.06-.15.13-.3.2-.44a.51.51,0,0,1,.09-.18c.13-.13.33-.07.41-.29l0,0h0s.06-.07.11-.17a1,1,0,0,1,.08-.16c0-.11,0-.12.07-.14s.08-.08.14-.13a1.16,1.16,0,0,0,.17-.22,1.18,1.18,0,0,0,.07-.42.44.44,0,0,0,0-.27.35.35,0,0,0-.06-.09v0c0-.12-.06-.2-.11-.09s0-.2-.09-.16a.74.74,0,0,0-.58.43,2.54,2.54,0,0,0-.13.56,2.63,2.63,0,0,1-.13.57c0,.07-.07.15-.1.23s0,.24,0,.37-.06.21-.09.32-.1.29-.16.44Z"/><path class="cls-2" d="M59.86,33.75c0-.12.11-.73.11-.73a.4.4,0,0,0,.25-.27,2.52,2.52,0,0,0,.11-.67.22.22,0,0,1,0-.11l0-.08,0-.08,0-.07a.54.54,0,0,0,0-.57l0-.05a.21.21,0,0,0,0-.08.08.08,0,0,0,0,0c0-.24-.12-.24-.32-.2h-.06l0,0-.12,0a.12.12,0,0,0-.1,0l0,.06c.21.35-.14.57-.08,1a.23.23,0,0,0,.07.1s0,.06,0,.09,0,0,0,.05-.11.74,0,.77a4.25,4.25,0,0,1,0,1Z"/></g></g><polygon class="cls-2" points="117.95 20.01 116.74 18.17 115.5 19.99 114.86 17.89 113.15 19.28 113.13 17.08 111.1 17.94 111.69 15.82 109.5 16.08 110.67 14.21 108.5 13.84 110.15 12.38 108.17 11.41 110.16 10.47 108.53 8.98 110.71 8.64 109.57 6.76 111.75 7.04 111.19 4.92 113.2 5.8 113.26 3.6 114.94 5.02 115.62 2.93 116.83 4.76 118.07 2.94 118.72 5.05 120.42 3.65 120.45 5.85 122.47 4.99 121.88 7.11 124.07 6.86 122.9 8.72 125.07 9.1 123.43 10.56 125.41 11.53 123.42 12.47 125.04 13.95 122.86 14.29 124 16.18 121.82 15.89 122.39 18.02 120.37 17.13 120.31 19.33 118.63 17.91 117.95 20.01"/><text class="cls-5" transform="translate(114.65 14.92)">1</text></g></g></g></svg>