<svg xmlns="http://www.w3.org/2000/svg" viewBox="0 0 128.93 85.34"><defs><style>.cls-1,.cls-5{fill:#b38867;}.cls-2,.cls-5{font-size:12px;font-family:CalifornianFB-Bold, Californian FB;font-weight:700;}.cls-2,.cls-3,.cls-4{fill:#124559;}.cls-4{stroke:#b38867;stroke-miterlimit:10;stroke-width:0.25px;}</style></defs><title>tobacco_storage</title><g id="Layer_2" data-name="Layer 2"><g id="BUILDINGS"><g id="tobacco_storage"><rect id="building_bg" class="cls-1" width="128.93" height="85.34"/><text class="cls-2" transform="translate(13.11 18.95)">Tobacco Storage</text><g id="building"><path class="cls-3" d="M57.19,60a.13.13,0,0,1-.11-.16c.1-.55.21-1.28.29-2.15a27,27,0,0,0,0-4.92c-.13-1.52-.25-1.35-.36-2.83-.16-2.1.09-2.25-.08-3.84-.21-1.93-.59-1.74-.78-3.71-.16-1.57,0-2.13-.36-3.28s-.72-1-.8-1.79A7.71,7.71,0,0,1,55.76,34a1.51,1.51,0,0,0,.16-.6.6.6,0,0,0,0-.31.15.15,0,0,0-.08,0c-.15,0-.2.15-.24.28-.14.44-.26.89-.39,1.34A14.33,14.33,0,0,0,54.68,37c0,.11,0,.26-.11.29s-.16-.11-.22-.19L54,36.58c-.11-.17-.14,0-.21.24a3.64,3.64,0,0,0-.13,1c0,.26,0,.44,0,.71s0,.52.07.79c.08.54.2.81.13.87s0,0-.3-.2a2.13,2.13,0,0,1-.56-.59c-.15-.27-.15-.44-.21-.44s-.23.59-.23,1.17a7.58,7.58,0,0,0,.15,1.3c.23,1.53.27,1.75.32,2s.07.32.1.47,0,.21-.15.19a.57.57,0,0,1-.25-.14,4.59,4.59,0,0,1-1.11-1.51A13.78,13.78,0,0,1,50.33,38a7.18,7.18,0,0,1,0-.93,1.62,1.62,0,0,0,0-.22c0-.12-.06-.16-.16-.09a2.13,2.13,0,0,0-.66,1,5.28,5.28,0,0,1-.27.53c-.07.12-.13.1-.2,0a1.24,1.24,0,0,1-.13-.5,3.67,3.67,0,0,1,.5-2.2c.41-.72.82-1.43,1.26-2.12a2.67,2.67,0,0,1,.83-.81,12.65,12.65,0,0,0,1-.79.24.24,0,0,0,.12-.28.22.22,0,0,0-.27-.13,1.35,1.35,0,0,0-.76.51,15.23,15.23,0,0,0-1.4,1.76s-.06.14-.14.11-.12-.11-.12-.2,0-.36,0-.53,0-.16,0-.18-.09.06-.12.1a5.83,5.83,0,0,0-.48.93,10.34,10.34,0,0,0-.75,1.77c0,.16-.07.33-.11.49a1,1,0,0,1-.1.31.18.18,0,0,1-.16.12c-.08,0-.09-.09-.11-.16a6.38,6.38,0,0,1-.2-1.37,11.22,11.22,0,0,1,.55-4.13c.05-.15.12-.3.17-.44s.08-.13,0-.18-.11,0-.17,0a1.72,1.72,0,0,0-.63.52c-.09.1-.2.28-.31.2s0-.29,0-.43a5.4,5.4,0,0,1,3.69-4.14,4.61,4.61,0,0,1,1.48-.11,2.49,2.49,0,0,1,1,.48,4.32,4.32,0,0,0,.68.34.17.17,0,0,0,.23-.06.29.29,0,0,0,0-.31.86.86,0,0,0-.32-.28,7.71,7.71,0,0,0-1.3-.62l-.14-.06a.19.19,0,0,1,0-.32.94.94,0,0,1,.55-.17,1,1,0,0,0,.49-.13c.13-.08.14-.18,0-.29a.75.75,0,0,0-.37-.22c-.58-.2-1.17-.35-1.75-.51a1.43,1.43,0,0,0-.79.09,1.71,1.71,0,0,1-.49.1.21.21,0,0,1-.21-.11A.25.25,0,0,1,50.3,24a2.54,2.54,0,0,1,.83-.74,5.64,5.64,0,0,1,1.31-.63,2.8,2.8,0,0,1,3,.93,8.81,8.81,0,0,1,.62.75,4.29,4.29,0,0,1,.59,1.59c0,.14,0,.36.19.39s.19-.18.26-.3a1.77,1.77,0,0,0,.15-.31,5.36,5.36,0,0,1,1.35-2,3.76,3.76,0,0,1,1.2-.64c.13-.06.27-.09.4-.15a1,1,0,0,1,1.1.21,2.44,2.44,0,0,1,.46.5.3.3,0,0,1,0,.29c0,.11-.13.11-.22.11a2.54,2.54,0,0,0-.87,0h-.06c-.08,0-.22.06-.22.16s.15.07.24.08a2.14,2.14,0,0,1,1,.34A9,9,0,0,1,63.38,26a1,1,0,0,1,.21.31c.07.17,0,.25-.13.24s-.5-.06-.75-.09a6,6,0,0,0-2.78.3A3.85,3.85,0,0,0,58.3,28s-.07.08,0,.13.1.05.15,0c.31-.15.62-.31.94-.44a4.83,4.83,0,0,1,1.84-.45,3.73,3.73,0,0,1,1.72.39,11.21,11.21,0,0,1,1.68.88A3.46,3.46,0,0,1,66,30.66,1.53,1.53,0,0,1,66,31c0,.18-.1.24-.23.14a.76.76,0,0,1-.11-.14,3.26,3.26,0,0,0-1.37-1.12c.23.48.53.89.78,1.33a4.19,4.19,0,0,1,.53,2.13,9.81,9.81,0,0,1-.15,2.1,2.35,2.35,0,0,1-.23.57c-.38.72-.61.88-.67.44s-.1-.9-.19-1.33a5.5,5.5,0,0,0-.71-2.1,9.38,9.38,0,0,0-1-1c-.07-.07-.11,0-.13.08s0,.2,0,.3c-.08.26-.23.31-.39.12-.45-.49-.91-1-1.34-1.5a1.49,1.49,0,0,0-.68-.42.1.1,0,0,0-.15.05.17.17,0,0,0,.05.15l.3.3a6.49,6.49,0,0,1,1.54,2.14,6.28,6.28,0,0,1,.43,2.41,9,9,0,0,1-1,4.38,1.17,1.17,0,0,1-.51.52c-.18.09-.25,0-.24-.21a2.2,2.2,0,0,1,.07-.37,6.46,6.46,0,0,0,.33-2,5.54,5.54,0,0,0-.56-2.18,7.32,7.32,0,0,0-.57-1.07.48.48,0,0,0-.06.28,2.19,2.19,0,0,1-.39,1h0a3.44,3.44,0,0,1-.34-.84c-.12-.43-.24-.87-.4-1.29a5,5,0,0,0-.87-1.39c0-.07-.09-.1-.13-.09s-.08.14-.09.18a1.7,1.7,0,0,0,.26,1c.53.88.44,2.79.41,3.54-.08,1.65-.57,1.48-.63,2.92,0,1.2.3,1.26.78,4,.22,1.24.14,1.17.4,2.66.21,1.12.33,1.59.5,2.72.12.75.17,1.23.25,1.92a55.47,55.47,0,0,0,.8,5.66A25.24,25.24,0,0,0,61,59.78a.15.15,0,0,1-.1.2Z"/><path class="cls-3" d="M110.21,61.38c.12-.62.26-1.49.37-2.55a28.75,28.75,0,0,0,0-5.42c-.15-1.67-.29-1.48-.42-3.11-.18-2.32.11-2.48-.09-4.23-.24-2.13-.68-1.91-.9-4.09-.15-1.45-.39-2.8-.41-3.61a3.61,3.61,0,0,0,0-.6c0-.14-.06-.26-.09-.38a3.8,3.8,0,0,1-.51-3.18c0-.16.07-.32.11-.49a.74.74,0,0,1-.23-.42c0-.14,0-.28.07-.18a1.63,1.63,0,0,1-.1.29c-.07.15-.15.29-.22.43a2.51,2.51,0,0,0-.41,2.48c-.12,0-.19-.11-.26-.21s-.27-.37-.4-.56-.16,0-.25.26a3.69,3.69,0,0,0-.15,1.06,6.83,6.83,0,0,0,0,.78,7.8,7.8,0,0,0,.08.87c.09.6.23.89.14.95s0,0-.34-.21a2.33,2.33,0,0,1-.65-.65c-.18-.3-.17-.49-.23-.49s-.27.66-.28,1.3a8.55,8.55,0,0,0,.18,1.42c.27,1.69.31,1.93.37,2.18l.12.52c0,.16,0,.23-.17.2a.69.69,0,0,1-.32-.16,5.17,5.17,0,0,1-1.18-1.5,14.66,14.66,0,0,1-1.58-5,8.85,8.85,0,0,1,0-1c0-.08,0-.16,0-.24.21-.13-.58-.13-.44.11a2.43,2.43,0,0,0-.2.25,5.65,5.65,0,0,0-.31.6c-.1.19-.19.39-.31.58s-.15.11-.23,0a1.06,1.06,0,0,1-.15-.55,3.89,3.89,0,0,1,0-1,1.55,1.55,0,0,1,.06-.31c1-1.68.17-3.52,2.56-4.44-2.39,0-4,2.76-3.33,4.33,0,.09-.11.14-.19.13s-.11-.1-.13-.17L99.69,35c0-.13,0-.25-.07-.38a5.72,5.72,0,0,1-.06-2.16l0-.46a11.27,11.27,0,0,1,.6-2.69c.06-.17.13-.33.19-.49a1.6,1.6,0,0,0-.87.4c-.11.11-.23.31-.37.22s0-.32,0-.48a6.08,6.08,0,0,1,4.27-4.55,4,4,0,0,1,.63,0c.85-.62.88-.88.85-1-.09-.32-1.07-.25-1.66-.12a5.19,5.19,0,0,0-1.3.5c-.92.46-1.26.84-1.39.72s-.07-.45.56-1.73a11.68,11.68,0,0,1,1.33-.73,10.32,10.32,0,0,1,2.71-.83,3.45,3.45,0,0,1,.94.12c1,.27,1.25.86,1.72.71s.47-1,1.11-1.22a1.21,1.21,0,0,1,1,.18c.59.39.52,1,.92,1.13s.32-.23,1.16-.78a15.44,15.44,0,0,1,1.39-.7c.15-.07.31-.1.46-.17a1.23,1.23,0,0,1,1.27.23,1.48,1.48,0,0,1,.28.26,13.16,13.16,0,0,1,1,1.23,6.53,6.53,0,0,0-1.15-.53.82.82,0,0,0-1,.46c0,.29.54.79,3.26,1.72a1.39,1.39,0,0,1,.24.34c.08.19,0,.29-.15.27l-.43,0a8,8,0,0,0-2.36-.52,9.06,9.06,0,0,0-1.18,0c-.44.36-.76.65-1,.86a4,4,0,0,0-.3.32c-.31.36-.48.56-.44.71s.06.15.38.18l.27-.12.27-.11.7-.25.35-.1a7.39,7.39,0,0,0,2.42,0l.32.11.32.13a11.76,11.76,0,0,1,1.94,1A3.72,3.72,0,0,1,120.55,29a1.43,1.43,0,0,1,0,.41c0,.2-.11.26-.25.16a.54.54,0,0,1-.14-.16,3.69,3.69,0,0,0-1.58-1.23c.27.52.61,1,.9,1.46a4.44,4.44,0,0,1,.61,2.35,10.44,10.44,0,0,1-.17,2.31,2.53,2.53,0,0,1-.26.63c-.44.79-.7,1-.78.49s-.11-1-.21-1.47a5.93,5.93,0,0,0-.83-2.31,9.29,9.29,0,0,0-1.2-1.15c.35-.4-.49.55-.66.55l-.26-.28-.26-.27c-4.88-.37-.1.55-.29.45l.18.28c.11.19.21.39.31.61a6.41,6.41,0,0,1,.49,2.65A9.42,9.42,0,0,1,115,39.33a1.35,1.35,0,0,1-.59.57c-.21.1-.29,0-.27-.23a1.42,1.42,0,0,1,.08-.41,6.89,6.89,0,0,0,.38-2.21,5.83,5.83,0,0,0-.64-2.41,3.19,3.19,0,0,0-.44-.62c-.16-.18-.29-.3-.3-.25a1.82,1.82,0,0,1-.08.36,6.64,6.64,0,0,1-.38.79,1.6,1.6,0,0,1-.22-.44c-.1-.23-.18-.47-.19-.49s.1-.27-.56-.12c-.16.05-.3.14-.18.34a4.13,4.13,0,0,1,0,.5c-.07.83-.3,1.64-.35,2.33,0,.14-.1.28-.15.45L111,38a4.46,4.46,0,0,0-.25,1.27,3.64,3.64,0,0,0,0,.71c.1.77.44,1.31.88,3.65.25,1.36.15,1.29.46,2.92.23,1.24.38,1.76.58,3,.13.83.19,1.35.28,2.12a60.38,60.38,0,0,0,.92,6.24,29.48,29.48,0,0,0,1,3.39Z"/><path class="cls-3" d="M101.79,33.18l-37.66.11a.48.48,0,0,0-.49.48V61.06a.49.49,0,0,0,.49.49h37.66a.49.49,0,0,0,.49-.49V33.66A.48.48,0,0,0,101.79,33.18Z"/><path class="cls-4" d="M94.45,27.07a53.05,53.05,0,0,0-9.59-.45c-.4,0-2.22-.27-2.72-.3-1.72-.1-7.4.55-8.54.61-.2,0-3.84.56-4.84.77-2.18.48-1.86.72-3.18.92a2.72,2.72,0,0,0-1.49.6,1.48,1.48,0,0,0-.38.44,22.74,22.74,0,0,0-1.11,2.83c-.39,1.13-.76,2.27-1.07,3.42a4.93,4.93,0,0,0-.36,2l.15-.08c-.3.16,0,2.07,1,1.22-.36,2.22.57,1.52,1.53.62s1.8-1.64,1.6-.24c-.1.53-.09.77,0,.81s.64-1.85,1.18-1.8c.36,0,.52.9.71.88s.1-2,.38-2S68.32,39.2,69,39c.17,0,.33-.1.49-.13-.18-.82-.19-1.25,0-1.3s.31.14.59.53c.45-.72.66-.91.8-.92s.1.43.37.17c0,.77,0,1,.12,1s.26-.29.72-.8c.19-.21.36-.38.47-.48.22.45.81.1,1.14.34.69-.75.31,1,.89.44.74-.91.55.37,1,.07.34,0,.74-.13,1,.09.91-1.32.68,0,1,0-.06.86.58.11,1-.15.31,0,.43.36.92-.14.7-1.06.66-.33.84-.12.36-.53.18.21.78-.86.19-.11.42-.33.19.56,0,.22.07.51.18.59.2-.11.66-.84.75-.7.36-.12.44.42.73.5.48-.77.69-.91.43,0-.42,1.34-.09.94.24.54,1-1.56.14,1.17.87.15.09.53.58.14,1,0,.09.53,1-.87,1-.05.46-.35.86-.54,1-.06,0,.64.73-.27,1-.08.88-1.35.33.63.95-.11-.29,1.36,1-1,.94-.14.34-.31.9-1.12.74-.26.08.33.16.64.61.12.2.57.74.4,1.29.28.89-1.37.25.87.76.34.72-.89,1-1.05.91-.2s.53,1,1.34.33c-.21,1.12.92-.88.94-.31.51-.55.82-.68.43.8.42.26,1.1-.56,1.39-.51s.66-.07,1.39-.63c.18.27.92-.66,1,0a2,2,0,0,1,.9.48,2.86,2.86,0,0,0,1.86.35c1.63-.45-3-9.86-3.88-10.5a1.62,1.62,0,0,0-.82-.45C98.66,27.78,95.22,27.18,94.45,27.07Z"/></g><g id="tobacco_leafs"><path class="cls-3" d="M18.58,22.83l-.09,0c-.47.29.39.73.1.88,0,0,0,.07,0,.11a1.36,1.36,0,0,0,0,.17,2.91,2.91,0,0,0,.65,2.35,2,2,0,0,0,0,.24c0,.69.39,1.15.66,1.85l0,.22c0,.15,0,.3,0,.45a2.89,2.89,0,0,1-.79,2.08L19,31.4a7.6,7.6,0,0,0-1.67,1.52l-.18.15a4.31,4.31,0,0,0-.81,1.45l-.14.22c-1.21.43-.72,1.64-1.2,2.5a2.09,2.09,0,0,0-.08.23,5.49,5.49,0,0,0-.28,1.13l0,.11a13.55,13.55,0,0,0-.31,1.37.5.5,0,0,0,0,.12c0,.28-.49.52-.13.94,0,0,0,.06,0,.09,0,.36,0,.63,0,.81v.49a1.26,1.26,0,0,0,0,.72v.12c0,.27.05.54.08.8v.08a4.29,4.29,0,0,0,.62,2.56.42.42,0,0,1,0,.1L15,47l0,.08c0,.4,0,.88.78.88-.24-.48.48-.72.27-1.19V46.7c0-.43.46-.43.69-.43.24.24-.48.24-.28.58a.17.17,0,0,0,0,.07,2.77,2.77,0,0,0,.1.26s0,0,0,.07,0,0,0,.07.14.64.14.88c.24.24.48-.24.61-.23l.09-.07c.19-.15.36-.36.44-.3l.1,0c.22-.18.26-.76.45-.57a1.61,1.61,0,0,0,.05.4v.08a2.08,2.08,0,0,0,.07.36c.11.25.18.53.3.78s.14.28.21.27.06,0,.09-.07c.48-.37,0-.85.36-1.22l.05-.08c.33-.49.56-.27.69-.1a1.09,1.09,0,0,1,.13.17.74.74,0,0,0,.28.3.24.24,0,0,0,.08.06l.09,0c.2-.2.24-.74.38-1.06a.69.69,0,0,1,.1-.17c.25-.22.25-.46.25-.94.72,0-.24,1,.43,1a.26.26,0,0,0,.13.08h.09l.15-.09.12,0c.52,0,.28.95.77.71v-.59c0-.38-.25-.86,0-1.34,0,.48.48.72.63,1.08a.38.38,0,0,0,0,.18c0,.27.37.48.4.78l0,.1a.81.81,0,0,0,.16.27c.73.24.24-1,.61-1.2a.3.3,0,0,1,0-.1c.12-.36.55-.74.43-1.14a.54.54,0,0,0,.05-.11c.12-.25.22-.5,0-.73a.41.41,0,0,0,0-.11,11,11,0,0,0,0-1.43V43c0-.44,0-.89,0-1.23v-.11c0-.34,0-.7,0-1v-.12a9,9,0,0,0-.37-2l0-.12a13.82,13.82,0,0,0-1.35-3.53l-.08-.06c-.24-.25.11-.86-.5-1l0-.06c-1.22-2-2.4-3.21-2.21-5.3.05-.5.21-1.2.32-2.18a.25.25,0,0,1,0-.07c-.07-.5.89-.74.15-1.56v-.11c0-.22,0-.44-.06-.69a.41.41,0,0,1,0-.12,16.32,16.32,0,0,0-.18-2c0-.16-.13-.1-.25,0a.36.36,0,0,0-.07.1.15.15,0,0,0-.09,0,1.23,1.23,0,0,1,0,.16.27.27,0,0,1-.07.08s0,0-.07,0c.13-.24-.35-.48-.35-.72-.13-.06-.19,0-.23.07a.43.43,0,0,1,0,.05c0,.08,0,.14,0,.18l0,.06c.27.61-.69-.6-.47.08l0,0-.06,0-.05,0c-.17-.14-.36-.41-.56-.22,0,.49-.48.73-.3,1.11A.13.13,0,0,0,18.58,22.83Z"/><path class="cls-3" d="M14.23,26.17a7.51,7.51,0,0,0,3.84,2.39,11.34,11.34,0,0,0,2.26.37l.59,0,.18,0h0a.3.3,0,0,1,.11.06c.06,0,.13.26.06.33a.33.33,0,0,1-.14.13l-.06,0a3.22,3.22,0,0,1-.35.06,4.42,4.42,0,0,1-.63,0l-.17,0-.11,0-.09,0a.37.37,0,0,1-.15-.23.35.35,0,0,1,.08-.24l.05-.06.09-.06.15-.09a4.23,4.23,0,0,1,.58-.25,1.5,1.5,0,0,1,.32-.09l.2,0a.93.93,0,0,1,.19,0,.36.36,0,0,1,.22.34.44.44,0,0,1-.27.37.73.73,0,0,1-.22.06l-.34,0a4.58,4.58,0,0,1-.64,0l-.19,0-.09,0-.07-.05a.26.26,0,0,1-.1-.17.33.33,0,0,1,.29-.42H20l.31,0,.58.07,1.16.13c1.55.19,3.09.36,4.64.47,3.1.23,6.21.35,9.33.31.77,0,1.56,0,2.32-.06A10.42,10.42,0,0,0,40.54,29a7.69,7.69,0,0,0,2.06-.93,4.13,4.13,0,0,0,1.32-1.78l.12,0a3,3,0,0,1-1.22,2,7.39,7.39,0,0,1-2.16,1,10.78,10.78,0,0,1-2.33.52c-.79,0-1.56.07-2.35.09-3.12.08-6.25,0-9.37-.18-1.56-.11-3.12-.23-4.67-.39l-1.16-.14-.58-.06-.27,0h0s-.05.07.2-.1a.31.31,0,0,0,.08-.3c0-.12-.11-.16-.1-.15l0,0h0l.09,0a4.78,4.78,0,0,0,.53.06h.24l.07,0a.21.21,0,0,0-.09.17.24.24,0,0,0,.15.23s0,0,0,0H21l-.25.06a3.7,3.7,0,0,0-.5.19l-.11.06,0,0h0a.19.19,0,0,0,.05-.17c0-.09-.13-.2-.1-.18h0l.12,0a3.23,3.23,0,0,0,.54,0l.23,0h0s-.08.05-.08.09a.21.21,0,0,0,0,.15.42.42,0,0,0,.06.12l.08,0h0l-.1,0-.58-.05A12.36,12.36,0,0,1,18,28.92a7.35,7.35,0,0,1-3.84-2.66Z"/></g><g id="tobacco_leafs-2" data-name="tobacco_leafs"><path class="cls-3" d="M25.64,23.46a.2.2,0,0,0-.08,0c-.47.29.38.73.1.88a.41.41,0,0,0,0,.11l0,.17A3,3,0,0,0,26.36,27a1,1,0,0,0,0,.24c0,.69.38,1.15.65,1.85a2.07,2.07,0,0,1,0,.22,3.4,3.4,0,0,1,0,.45,2.85,2.85,0,0,1-.79,2.08l-.15.18a7.64,7.64,0,0,0-1.68,1.52l-.17.15a4.31,4.31,0,0,0-.81,1.45l-.14.22c-1.21.43-.73,1.64-1.2,2.5L22,38.1a5.47,5.47,0,0,0-.27,1.13l0,.11a13.55,13.55,0,0,0-.31,1.37l0,.12c0,.28-.49.52-.13.94v.09a7.4,7.4,0,0,0-.05.81c0,.12,0,.25,0,.37v.12a1.18,1.18,0,0,0,0,.72V44c0,.27.05.54.08.8v.08a4.22,4.22,0,0,0,.62,2.56,1,1,0,0,0,0,.1l0,.09a.2.2,0,0,1,0,.08c.05.4.05.88.77.88-.24-.48.49-.72.28-1.19a.08.08,0,0,1,0-.07c0-.43.46-.43.69-.43.24.24-.48.24-.28.58v.07a2,2,0,0,0,.11.26s0,0,0,.07a.15.15,0,0,1,0,.07c-.09.16.15.64.15.88.24.24.48-.24.61-.23l.09-.07c.19-.15.35-.36.44-.3a.19.19,0,0,0,.09,0c.23-.18.26-.76.46-.57a2,2,0,0,0,0,.4v.08a1.38,1.38,0,0,0,.08.36c.1.25.18.54.3.78s.14.28.2.27.06,0,.09-.07c.48-.37,0-.85.37-1.22a.22.22,0,0,1,.05-.08c.33-.49.55-.27.68-.1a.75.75,0,0,1,.14.17.79.79,0,0,0,.27.3.24.24,0,0,0,.09.06l.09,0c.2-.2.23-.74.37-1.06a.69.69,0,0,1,.1-.17c.25-.22.25-.46.25-.94.73,0-.24,1,.44,1a.27.27,0,0,0,.13.07h.09l.15-.09a.28.28,0,0,1,.12,0c.52,0,.28,1,.76.71v-.59c0-.38-.24-.86,0-1.34,0,.48.48.72.63,1.08a.37.37,0,0,0,0,.18c0,.27.36.49.4.78a.42.42,0,0,0,0,.1.81.81,0,0,0,.16.27c.72.24.24-1,.6-1.2l0-.1c.12-.36.54-.74.43-1.14l0-.11c.12-.25.21-.5,0-.73,0,0,0-.07,0-.11,0-.45,0-.91,0-1.43v-.12c0-.44,0-.89,0-1.23v-.11c0-.34,0-.7,0-1v-.12a9,9,0,0,0-.37-2.05l0-.12a13.82,13.82,0,0,0-1.35-3.53.28.28,0,0,1-.08-.06c-.24-.25.11-.86-.5-1l0-.06c-1.23-2-2.4-3.21-2.21-5.3.05-.49.21-1.2.32-2.18,0,0,0,0,0-.07-.07-.5.9-.74.16-1.56a.45.45,0,0,0,0-.11c0-.22,0-.44-.05-.69,0,0,0-.07,0-.12a14.89,14.89,0,0,0-.17-2c0-.16-.13-.1-.25,0l-.08.1a.13.13,0,0,0-.08,0l0,.16a.27.27,0,0,1-.07.08s0,0-.07,0c.13-.24-.35-.48-.35-.72-.14-.06-.2,0-.23.07s0,0,0,.06a.81.81,0,0,1,0,.17.11.11,0,0,1,0,.06c.27.61-.7-.6-.48.08l0,0-.07,0,0,0c-.17-.14-.37-.41-.56-.22,0,.49-.48.73-.31,1.11A.13.13,0,0,1,25.64,23.46Z"/><path class="cls-3" d="M27,30.17a1.38,1.38,0,0,0,.68-.3l.09-.13A.43.43,0,0,1,28,29.6a.27.27,0,0,1,.23,0c.12,0,.1.06.15.09a.32.32,0,0,1,.09.28.26.26,0,0,1-.1.19.47.47,0,0,1-.24.12l-.13,0-.24,0a3.46,3.46,0,0,1-.46,0l-.25,0a.58.58,0,0,1-.2-.06l-.09,0a.41.41,0,0,1-.15-.29.43.43,0,0,1,.06-.24c.06-.09,0-.05.07-.08a1.6,1.6,0,0,1,.47-.3l.43-.19a1.52,1.52,0,0,1,.58-.11.49.49,0,0,1,.18.05.43.43,0,0,1,.26.28.42.42,0,0,1,0,.22.37.37,0,0,1,0,.14.41.41,0,0,1-.15.18.82.82,0,0,1-.39.17,3.24,3.24,0,0,1-1,0l-.14,0-.08,0h-.05l-.14-.08,0,0a.41.41,0,0,1-.12-.24.43.43,0,0,1,.07-.33.48.48,0,0,1,.09-.1.6.6,0,0,1,.37-.08l.13.05.13.07a1.84,1.84,0,0,1,.34.27c.21.16.38.4.53.33l.12,0a.29.29,0,0,1-.17.27.71.71,0,0,1-.31.06,2.39,2.39,0,0,1-.49-.08,2.79,2.79,0,0,1-.41-.14l-.07,0h0a.4.4,0,0,0,.31-.08s0,0,.09-.09a.41.41,0,0,0,.07-.32.39.39,0,0,0-.12-.22l0,0a.24.24,0,0,0-.09-.06h.09a3,3,0,0,0,.71,0s.1,0,0,0a.37.37,0,0,0-.07.1.17.17,0,0,0,0,.1.29.29,0,0,0,0,.16.35.35,0,0,0,.2.21l.07,0-.25.05a2.65,2.65,0,0,0-.37.12c-.1,0-.27.12-.26.11l0,0a.36.36,0,0,0,0-.2.34.34,0,0,0-.13-.24l0,0c-.06,0,0,0,0,0l.17,0,.39,0H28s.06,0,0,0a.32.32,0,0,0-.08.16.28.28,0,0,0,.08.23.28.28,0,0,0,.1.06.26.26,0,0,0,.19,0c.09-.07,0,0,0,0l-.23.16a1.28,1.28,0,0,1-1,0Z"/></g><g id="tobacco_leafs-3" data-name="tobacco_leafs"><path class="cls-3" d="M34.08,23.46a.19.19,0,0,0-.09,0c-.47.29.39.73.1.88,0,0,0,.07,0,.11l0,.17A3,3,0,0,0,34.79,27a1,1,0,0,0,0,.24c0,.69.38,1.15.65,1.85a2.07,2.07,0,0,1,0,.22c0,.15,0,.3,0,.45a2.89,2.89,0,0,1-.79,2.08l-.16.18a7.6,7.6,0,0,0-1.67,1.52l-.18.15a4.31,4.31,0,0,0-.81,1.45l-.14.22c-1.21.43-.73,1.64-1.2,2.5a2.09,2.09,0,0,0-.08.23,5.49,5.49,0,0,0-.28,1.13l0,.11a13.55,13.55,0,0,0-.31,1.37.5.5,0,0,0,0,.12c0,.28-.5.52-.13.94a.28.28,0,0,0,0,.09c0,.36-.05.63-.05.81v.49a1.26,1.26,0,0,0,0,.72V44c0,.27.05.54.08.8v.08a4.29,4.29,0,0,0,.62,2.56,1,1,0,0,0,0,.1.36.36,0,0,0,0,.09l0,.08c.05.4.05.88.77.88-.24-.48.49-.72.28-1.19v-.07c0-.43.46-.43.69-.43.24.24-.48.24-.28.58a.17.17,0,0,0,0,.07,2,2,0,0,0,.1.26.19.19,0,0,0,0,.07.2.2,0,0,0,0,.07c-.1.16.14.64.14.88.24.24.48-.24.61-.23l.09-.07c.19-.15.35-.36.44-.3l.1,0c.22-.18.26-.76.45-.57A1.61,1.61,0,0,0,34,48v.08a2.08,2.08,0,0,0,.07.36c.1.25.18.54.3.78s.14.28.2.27.06,0,.09-.07c.48-.37,0-.85.37-1.22a.56.56,0,0,1,0-.08c.33-.49.55-.27.69-.1a1.09,1.09,0,0,1,.13.17.79.79,0,0,0,.27.3l.09.06.09,0c.2-.2.24-.74.38-1.06a.68.68,0,0,1,.09-.17c.25-.22.25-.46.25-.94.73,0-.24,1,.44,1a.33.33,0,0,0,.13.07h.09l.15-.09a.28.28,0,0,1,.12,0c.52,0,.28,1,.76.71v-.43s0-.11,0-.16c0-.38-.25-.86,0-1.34,0,.48.49.72.64,1.08a.29.29,0,0,0,0,.18c0,.27.37.49.4.78a.42.42,0,0,0,0,.1.81.81,0,0,0,.16.27c.72.24.24-1,.61-1.2a.3.3,0,0,1,0-.1c.12-.36.54-.74.43-1.14a.54.54,0,0,0,0-.11c.12-.25.21-.5,0-.73,0,0,0-.07,0-.11,0-.45,0-.91,0-1.43v-.12c0-.44,0-.89,0-1.23v-.11c0-.34,0-.7,0-1v-.12a9,9,0,0,0-.37-2.05l0-.12a13.82,13.82,0,0,0-1.35-3.53l-.08-.06c-.24-.25.11-.86-.5-1l0-.06c-1.22-2-2.4-3.21-2.21-5.3.05-.49.21-1.2.32-2.18,0,0,0,0,0-.07-.07-.5.9-.74.16-1.56v-.11c0-.22,0-.44-.06-.69a.41.41,0,0,1,0-.12,16.32,16.32,0,0,0-.18-2c0-.16-.13-.1-.25,0l-.08.1a.13.13,0,0,0-.08,0l0,.16a.27.27,0,0,1-.07.08s0,0-.07,0c.13-.24-.35-.48-.35-.72-.14-.06-.2,0-.23.07s0,0,0,.06,0,.13,0,.17l0,.06c.27.61-.7-.6-.48.08l0,0-.06,0,0,0c-.17-.14-.37-.41-.56-.22,0,.49-.48.73-.31,1.11Z"/><path class="cls-3" d="M35.16,30.51a1.75,1.75,0,0,1,.61-.75,1.13,1.13,0,0,1,.5-.21.84.84,0,0,1,.35,0,.53.53,0,0,1,.14.08s0,0,.1.14a.32.32,0,0,1,0,.3.44.44,0,0,1-.19.14l-.09,0a3.42,3.42,0,0,1-1,.07l-.15,0-.11,0c-.05-.05-.08,0-.25-.24a.38.38,0,0,1,0-.28.67.67,0,0,1,.06-.12l0,0,.09-.09.13-.08a4.64,4.64,0,0,1,.44-.23,4.44,4.44,0,0,1,.48-.17,1.37,1.37,0,0,1,.34,0,.81.81,0,0,1,.19,0,.5.5,0,0,1,.08.85,1,1,0,0,1-.4.15l-.28,0a4.1,4.1,0,0,1-.5,0l-.26,0a.62.62,0,0,1-.16,0,.55.55,0,0,1-.26-.18.44.44,0,0,1-.07-.34.39.39,0,0,1,.12-.23.58.58,0,0,1,.25-.12c.24,0,.19,0,.23,0a.85.85,0,0,1,.29.19,1.1,1.1,0,0,1,.15.16c.2.2.35.5.48.44l.12,0a.25.25,0,0,1-.21.27.7.7,0,0,1-.32,0,2.56,2.56,0,0,1-.49-.16L35.36,30l-.09-.05s0,0,.18,0a.38.38,0,0,0,.22-.11.46.46,0,0,0,.12-.23.41.41,0,0,0-.07-.32c-.12-.15-.18-.12-.16-.13h0l.19,0a2.56,2.56,0,0,0,.39,0h.16s.1,0,0,0l-.08.1a.41.41,0,0,0,0,.27.4.4,0,0,0,.2.22l.08,0h-.1l-.37.1-.37.15-.06,0h0l.06-.08a.48.48,0,0,0,0-.24c-.15-.24-.14-.14-.17-.18s0,0,0,0l.06,0a3.46,3.46,0,0,0,.78,0h0s0,0-.09.08a.31.31,0,0,0,0,.25c.07.13.05.08.07.1l0,0s0,0-.09,0a1.17,1.17,0,0,0-.35.06,2,2,0,0,0-.69.45Z"/></g><g id="rings"><circle class="cls-1" cx="23.74" cy="62.04" r="15.3"/><circle class="cls-1" cx="63.53" cy="62.04" r="15.3"/><circle class="cls-1" cx="103.33" cy="62.04" r="15.3"/></g><polygon class="cls-3" points="116.77 18.91 115.56 17.07 114.32 18.89 113.67 16.79 111.97 18.18 111.94 15.98 109.92 16.84 110.51 14.72 108.32 14.98 109.49 13.11 107.32 12.74 108.96 11.28 106.99 10.31 108.98 9.37 107.35 7.88 109.53 7.54 108.39 5.66 110.57 5.94 110.01 3.82 112.02 4.7 112.08 2.5 113.76 3.92 114.44 1.83 115.65 3.67 116.89 1.84 117.54 3.95 119.24 2.55 119.27 4.75 121.29 3.89 120.7 6.01 122.89 5.76 121.72 7.63 123.89 8 122.25 9.46 124.22 10.43 122.23 11.37 123.86 12.85 121.68 13.19 122.82 15.08 120.64 14.79 121.2 16.92 119.19 16.03 119.13 18.23 117.45 16.81 116.77 18.91"/><text class="cls-5" transform="translate(112.66 13.82)">3</text></g></g></g></svg>