<svg xmlns="http://www.w3.org/2000/svg" viewBox="0 0 512.77 236.81"><defs><style>.cls-1{fill:#664848;}.cls-2{fill:#7c6262;}</style></defs><title>CaptainShip</title><g id="Layer_2" data-name="Layer 2"><g id="CAPTAIN_SHIPS"><g id="captainShip"><path class="cls-1" d="M509.47,9h-52.4L313.81,21l-12,11.31a26,26,0,0,1-18.37,7.08L165.88,37a26,26,0,0,1-23.73-16.57L141,17.55,0,0V16.2l5,3.6V70l21.42,7.4,9,3.12L48,175.85a57.11,57.11,0,0,0,14.65,38.72C74,227.18,91,236.8,110,235.8l199,1c61.88,1,108.72-47.92,121-111,2.27-11.63,3.81-16.71,7.64-39.54.34-2,8.62-1,10.76-9.23,4.07-15.78.14-33.13,6.4-37.2,12.55-8.17,10.31-7.22,20-12.17C480.07,25,477.29,21,478.82,21c11.32.25,33.95-.42,33.95-.42Z"/><path class="cls-2" d="M430.27,49.93s-3.88,61.31-6.07,72.62c-11.9,61.41-57.13,109-116.89,109l-192.23-.92c-18.33,0-34.72-9.41-45.69-21.68a55.82,55.82,0,0,1-14.15-37.69L43.11,76.52l-8.73-3L13.7,66.28l.17-26.11Z"/><path class="cls-1" d="M32.28,81.12l-7.54-2.61a2.17,2.17,0,0,0-.66-.11H23.2a2,2,0,0,0-2,2.31L23.86,98c.09.57-3,3-3.39,3.43,0,0,.6,7.19.6,7.67l.2,31.23a1.9,1.9,0,0,1-.43,1.25h0a7.86,7.86,0,0,0-1.68,5.11l2.64,81.4a2,2,0,0,0,2,1.94H58.66a2,2,0,0,0,2-2V216.32a2,2,0,0,0-.5-1.31A57.14,57.14,0,0,1,46,177a1.77,1.77,0,0,0,0-.23l-12.39-94A2,2,0,0,0,32.28,81.12Z"/></g><rect class="cls-1" x="48.19" y="126.98" width="376.38" height="6.62" transform="translate(1.81 -3.23) rotate(0.79)"/><g id="money_sack"><path class="cls-1" d="M269.07,196.81a19.9,19.9,0,0,0-5.15,6.65c-1.23,2.49-2.23,4.51-2.23,7.28,0,1.55.31,2.28,0,3.78-.4,2-1.22,2.12-1.95,4.11a12.2,12.2,0,0,0-.52,6,10.53,10.53,0,0,0,2.93,5.88c3.55,3.36,8.41,3.38,23,3.1a15,15,0,0,0,7.23-1.78c2.12-1.13,3.42.86,5.37-3.86.89-2.17.6-6.86-1-12.64-3-11.16-1.5-12.3-3.65-15.62-.58-.88-3.75-5.52-8.35-7.86-.53-.26-1.94-.94-1.94-1.88,0-1.29.92-1.66,2.39-4.72.74-1.54,1.53-2.43,2.72-2.2s-.56-1.83-1.77-2.37a4.64,4.64,0,0,0-1.76-.13c-.46,0-1.67-.54-1.79-2.41-.07-1.15-1.18-.11-1.49.09-1,.61-1,1.48-1.66,1.55-.53.06-1-.44-1.64-1.11s-1.43.93-1.78,1.09c-1.39.67-1.11.86-1.93,2.66-.55,1.23-1.42,3.48.84,1.79,1.62-1.21,5.88,3.49,4.73,6.15S269.07,196.81,269.07,196.81Z"/><path class="cls-1" d="M279.82,188.72a1.3,1.3,0,0,0-.33.87,1.11,1.11,0,0,0,.28.61c.84.92,3.2-.11,3.41-.21,1.52-.68,1.49-1,2.19-1a2.39,2.39,0,0,1,2.57,2.54s.1-.93.16-1.75c.15.51.29,1,.43,1.51a4.69,4.69,0,0,0-.23-2.67,2.21,2.21,0,0,0-2.57-1.08c-1.17.21-1.43,1-2.52,1.5A3.78,3.78,0,0,1,279.82,188.72Z"/></g><g id="money_sack-2" data-name="money_sack"><path class="cls-1" d="M296.56,202.46a19.94,19.94,0,0,0-6.43,5.63c-1.54,2.1-2.8,3.82-2.8,6.16,0,1.31.4,1.93,0,3.2-.49,1.68-1.53,1.8-2.44,3.49a7.22,7.22,0,0,0-.65,5.06,8.26,8.26,0,0,0,3.67,5c4.44,2.85,10.51,2.87,28.76,2.62a26.09,26.09,0,0,0,9-1.5c2.65-1,4.28.73,6.71-3.27,1.12-1.84.75-5.81-1.21-10.71-3.79-9.45-1.88-10.41-4.57-13.22a28.12,28.12,0,0,0-10.44-6.66c-.65-.23-2.41-.8-2.42-1.6,0-1.09,1.15-1.4,3-4,.92-1.3,1.9-2.06,3.39-1.86s-.7-1.55-2.21-2a8.13,8.13,0,0,0-2.2-.1,2.28,2.28,0,0,1-2.23-2c-.09-1-1.49-.1-1.87.07-1.21.52-1.23,1.25-2.07,1.31-.67.05-1.25-.37-2.05-.94s-1.79.79-2.23.93c-1.75.56-1.39.72-2.41,2.25-.69,1-1.78,2.95,1.05,1.51,2-1,7.34,3,5.91,5.21S296.56,202.46,296.56,202.46Z"/><path class="cls-1" d="M310,195.6a.94.94,0,0,0-.41.74.76.76,0,0,0,.35.51c1,.78,4-.09,4.26-.17,1.9-.58,1.85-.84,2.73-.87,3.3-.13,3.2,2.14,3.21,2.14a13,13,0,0,0,.21-1.47l.54,1.28a2.89,2.89,0,0,0-.29-2.27c-.86-1.19-2.71-1-3.22-.91-1.46.17-1.79.85-3.15,1.26A6.65,6.65,0,0,1,310,195.6Z"/></g><g id="money_sack-3" data-name="money_sack"><path class="cls-1" d="M124.88,92.84a20.52,20.52,0,0,1,5.72,6.65c1.37,2.49,2.49,4.51,2.49,7.28,0,1.55-.35,2.28,0,3.78.44,2,1.36,2.12,2.17,4.11a11,11,0,0,1,.58,6,10.22,10.22,0,0,1-3.26,5.88c-3.95,3.36-9.36,3.38-25.6,3.1a18.24,18.24,0,0,1-8-1.78c-2.36-1.13-3.81.86-6-3.86-1-2.17-.67-6.86,1.07-12.64,3.37-11.16,1.67-12.3,4.07-15.62a25.93,25.93,0,0,1,9.29-7.86c.58-.26,2.15-.94,2.15-1.88,0-1.29-1-1.66-2.66-4.72-.82-1.54-1.7-2.43-3-2.2s.62-1.83,2-2.37a5.74,5.74,0,0,1,2-.13,2.29,2.29,0,0,0,2-2.41c.08-1.15,1.32-.11,1.66.09,1.08.61,1.1,1.48,1.84,1.55s1.12-.44,1.83-1.11,1.59.93,2,1.09c1.55.67,1.24.86,2.15,2.66.61,1.23,1.58,3.48-.94,1.79-1.79-1.21-6.53,3.49-5.26,6.15S124.88,92.84,124.88,92.84Z"/><path class="cls-1" d="M112.91,84.75a1.19,1.19,0,0,1,.36.87,1,1,0,0,1-.31.61c-.92.92-3.55-.11-3.79-.21-1.69-.68-1.65-1-2.43-1a2.48,2.48,0,0,0-2.86,2.54s-.11-.93-.18-1.75l-.48,1.51a4.27,4.27,0,0,1,.26-2.67,2.6,2.6,0,0,1,2.86-1.08c1.3.21,1.59,1,2.8,1.5A4.63,4.63,0,0,0,112.91,84.75Z"/></g><g id="money_sack-4" data-name="money_sack"><path class="cls-1" d="M94.29,98.49a21.64,21.64,0,0,1,7.15,5.63c1.72,2.1,3.12,3.82,3.12,6.16,0,1.31-.44,1.93,0,3.2.55,1.68,1.71,1.8,2.72,3.49A6.58,6.58,0,0,1,108,122a8.33,8.33,0,0,1-4.09,5c-4.94,2.85-11.7,2.87-32,2.62a32,32,0,0,1-10-1.5c-3-1-4.76.73-7.47-3.27-1.24-1.84-.83-5.81,1.35-10.71,4.21-9.45,2.09-10.41,5.08-13.22a31.85,31.85,0,0,1,11.61-6.66c.73-.23,2.69-.8,2.7-1.6,0-1.09-1.28-1.4-3.33-4-1-1.3-2.12-2.06-3.77-1.86s.77-1.55,2.45-2a10.08,10.08,0,0,1,2.45-.1,2.47,2.47,0,0,0,2.48-2c.1-1,1.65-.1,2.08.07,1.34.52,1.37,1.25,2.3,1.31a4,4,0,0,0,2.29-.94c1-.63,2,.79,2.47.93,2,.56,1.55.72,2.68,2.25.77,1,2,3-1.16,1.51-2.25-1-8.17,3-6.58,5.21S94.29,98.49,94.29,98.49Z"/><path class="cls-1" d="M79.33,91.63c.08.05.5.36.46.74a.8.8,0,0,1-.39.51c-1.16.79-4.44-.09-4.74-.17-2.12-.58-2.07-.84-3-.87C67.94,91.71,68.06,94,68.05,94a12.1,12.1,0,0,1-.24-1.47c-.2.42-.4.85-.59,1.28a2.58,2.58,0,0,1,.32-2.27c.95-1.19,3-1,3.58-.91,1.62.17,2,.86,3.5,1.26A8.2,8.2,0,0,0,79.33,91.63Z"/></g><g id="money_sack-5" data-name="money_sack"><path class="cls-1" d="M232.56,202.46a19.94,19.94,0,0,0-6.43,5.63c-1.54,2.1-2.8,3.82-2.8,6.16,0,1.31.4,1.93,0,3.2-.49,1.68-1.53,1.8-2.44,3.49a7.22,7.22,0,0,0-.65,5.06,8.26,8.26,0,0,0,3.67,5c4.44,2.85,10.51,2.87,28.76,2.62a26.09,26.09,0,0,0,9-1.5c2.65-1,4.28.73,6.71-3.27,1.12-1.84.75-5.81-1.21-10.71-3.79-9.45-1.88-10.41-4.57-13.22a28.12,28.12,0,0,0-10.44-6.66c-.65-.23-2.41-.8-2.42-1.6,0-1.09,1.15-1.4,3-4,.92-1.3,1.9-2.06,3.39-1.86s-.7-1.55-2.21-2a8.13,8.13,0,0,0-2.2-.1,2.28,2.28,0,0,1-2.23-2c-.09-1-1.49-.1-1.87.07-1.21.52-1.23,1.25-2.07,1.31-.67.05-1.25-.37-2.05-.94s-1.79.79-2.23.93c-1.75.56-1.39.72-2.41,2.25-.69,1-1.78,2.95,1.05,1.51,2-1,7.34,3,5.91,5.21S232.56,202.46,232.56,202.46Z"/><path class="cls-1" d="M246,195.6a.94.94,0,0,0-.41.74.76.76,0,0,0,.35.51c1,.78,4-.16,4.26-.17.77,0,.86.21,1.7.43.59.16,2.34,2.54,2.35,2.54a5.94,5.94,0,0,1-.08-1.37c.18.43.65.74.83,1.17a2.82,2.82,0,0,0-.29-2.26,2,2,0,0,0-1.94-1.06c-1.44-.27-1.18-.7-2.54-.29A6.65,6.65,0,0,1,246,195.6Z"/></g><path class="cls-1" d="M174.37,201.32A137.53,137.53,0,0,0,172,171.83c0-2-8.53-3.81-19.18-4.1s-19.31,1.06-19.37,3a138.64,138.64,0,0,0-1.64,59.06h0c-.06,2,8.53,3.8,19.17,4.1s19.32-1.06,19.37-3h0A136.86,136.86,0,0,0,174.37,201.32Z"/><path class="cls-1" d="M247.17,98a137.53,137.53,0,0,0-2.35-29.49c.05-2-8.53-3.81-19.18-4.1s-19.31,1.06-19.37,3a138.61,138.61,0,0,0-1.64,59.05h0c-.06,2,8.53,3.81,19.17,4.11s19.32-1.06,19.37-3h0A137,137,0,0,0,247.17,98Z"/><path class="cls-1" d="M200.17,104.28a106.74,106.74,0,0,0-1.84-23c0-1.54-6.65-3-15-3.2s-15.06.83-15.1,2.36A107.8,107.8,0,0,0,167,126.5h0c-.05,1.53,6.65,3,14.95,3.2s15.06-.83,15.1-2.37h0A106.71,106.71,0,0,0,200.17,104.28Z"/><path class="cls-1" d="M393.92,130.79a107.4,107.4,0,0,0,23-1.84c1.54,0,3-6.65,3.2-14.95s-.82-15.06-2.36-15.1a107.76,107.76,0,0,0-46-1.28h0c-1.54-.05-3,6.65-3.2,14.94s.82,15.07,2.36,15.11h0A107.34,107.34,0,0,0,393.92,130.79Z"/><path class="cls-1" d="M360.43,104.28a106.86,106.86,0,0,0-1.83-23c0-1.54-6.65-3-15-3.2s-15.06.83-15.1,2.36A106,106,0,0,0,325.47,102a107.28,107.28,0,0,0,1.79,24.51h0c0,1.53,6.65,3,14.95,3.2s15.06-.83,15.11-2.37h0A106.82,106.82,0,0,0,360.43,104.28Z"/><path class="cls-1" d="M141.09,192a169.55,169.55,0,0,0-2.91-36.48c.07-2.43-10.55-4.71-23.72-5.07s-23.89,1.31-24,3.75a171.23,171.23,0,0,0-2,73h0c-.07,2.44,10.55,4.71,23.71,5.08s23.9-1.32,24-3.75h0A169.48,169.48,0,0,0,141.09,192Z"/><path class="cls-1" d="M212.9,198.43,183,202.59a1,1,0,0,0-.81,1L181.37,232a1,1,0,0,0,.4.85l17.08.71a.83.83,0,0,0,.74.15l33.13-.2a1,1,0,0,0,.69-.94l.82-26.5a1,1,0,0,0-.65-1l-20.3-6.59A.81.81,0,0,0,212.9,198.43Z"/><path class="cls-1" d="M289.58,97.74l-34.32,3.53a1,1,0,0,0-.91.86l-.71,25.52a.85.85,0,0,0,.46.76l19.6.77a1.21,1.21,0,0,0,.86.13l38,.05a.92.92,0,0,0,.79-.84l.76-23.8a.94.94,0,0,0-.75-.89L290,97.77A1.08,1.08,0,0,0,289.58,97.74Z"/><path class="cls-1" d="M317.67,87.64l-25.22,5.17c-.37.07-.66.56-.68,1.13l-.93,33.37a1.41,1.41,0,0,0,.32,1l14.36.69a.59.59,0,0,0,.63.16L334,128.6a1.17,1.17,0,0,0,.59-1.1l.94-31.13a1.16,1.16,0,0,0-.54-1.14l-17-7.55A.5.5,0,0,0,317.67,87.64Z"/></g></g></svg>