<svg xmlns="http://www.w3.org/2000/svg" viewBox="0 0 66 66"><defs><style>.cls-1{fill:#ddbc95;opacity:0;}.cls-2{fill:#124559;}</style></defs><title>SelectRole</title><g id="Layer_2" data-name="Layer 2"><g id="MISC"><g id="SelectRole"><circle class="cls-1" cx="33" cy="33" r="33"/><g id="tools"><path class="cls-2" d="M28.7,20.39,17.37,30s.4.45-2.1,2.56-3.3,2.3-5.28,0L9,31.34c-1.68-2-.38-3,1.69-4.78s2.92-1.44,2.92-1.44l14-12.31A6.25,6.25,0,0,1,34.11,12V14.1C25.34,12.58,28.27,19.78,28.7,20.39Z"/><path class="cls-2" d="M52.31,51.29l-4.52,3.82a.87.87,0,0,1-1.23-.1L18.79,20.83a.87.87,0,0,1,.11-1.23l2.57-2.18a.87.87,0,0,1,1.23.11L52.42,50.05A.88.88,0,0,1,52.31,51.29Z"/></g><g id="flag"><path class="cls-2" d="M18.09,54.85l-.29-.17a1,1,0,0,1-.33-1.32L42.54,12.24c.27-.45.69-1,1.15-.7l.29.17c.45.28.2.83-.08,1.28L19.41,54.52A1,1,0,0,1,18.09,54.85Z"/><path class="cls-2" d="M43,13.27c.43.35,1.21,1,1.63,1.37l.63.52c.23.17,1.13,1,1.35,1.19,2.26,1.4-.15,3.46,2.87,5.94.82.67,1.59,3,1.88,3,4.08-.5,1,4.24,4.21,5.74a11.91,11.91,0,0,1,1.29.72c1.44,1-.64,7.53.29,9.49-1.55-.93-.25-8-2.41-7.21-.38-.12-1.76.44-2.08.39-3.43.27-.14-3.16-3.77-2.56-1.34.21-.8-2.67-3.7-2.87s-1.58-6-6-5.27l-.73-.36-1.06-.53a10.62,10.62,0,0,1,1.14-.31c.27-.14.56-.26.84-.38,1.93-.56,3.33-1.13,3.67-4.42.06-.34.09-.69.12-1C43.25,15.68,42.87,14.31,43,13.27Z"/></g></g></g></g></svg>