<svg xmlns="http://www.w3.org/2000/svg" viewBox="0 0 186.4 50.91"><defs><style>.cls-1{fill:#b38867;}.cls-2{fill:#132b40;}</style></defs><title>EndTurn</title><g id="Layer_2" data-name="Layer 2"><g id="MISC"><g id="EndTurn"><rect class="cls-1" width="186.4" height="50.91"/><path class="cls-2" d="M33.79,30.24c-.14.72-.89,3.71-1.14,4.49H19v-.9c2.48-.22,2.65-.39,2.65-2.64V20.75c0-2.33-.32-2.48-2.22-2.65v-.92H28c2.73,0,3.71,0,4.07-.05,0,.55.15,2.7.26,4.29l-1,.13a7.15,7.15,0,0,0-1-2.35c-.47-.66-.91-.83-2.37-.83h-2c-1,0-1.05.06-1.05.93v5.76h2.77c1.69,0,1.91-.41,2.29-2.3h1v5.86h-1c-.4-2-.62-2.28-2.32-2.28H24.84v4.9c0,1.87.24,2.29,1.8,2.32h2.13c1.56,0,1.92-.21,2.51-.93A11.49,11.49,0,0,0,32.86,30Z" transform="translate(-6.6)"/><path class="cls-2" d="M54.24,18.1c-1.68.2-2.21.53-2.29,1.75-.06,1-.13,2-.13,4.39V35H50.48L39.12,21.29v6.33c0,2.38.06,3.49.13,4.27.09,1.25.7,1.8,2.67,1.92v.92H35.28v-.92c1.58-.13,2.25-.53,2.39-1.82a40.22,40.22,0,0,0,.15-4.38V21a2.91,2.91,0,0,0-.55-2c-.5-.68-1.12-.79-2.32-.9v-.92h4.84L50.48,29.71V24.24c0-2.41,0-3.4-.12-4.33-.08-1.18-.58-1.68-2.79-1.81v-.92h6.67Z" transform="translate(-6.6)"/><path class="cls-2" d="M64.1,17.18c3.57,0,6.06.74,7.77,2.35a7.72,7.72,0,0,1,2.39,5.85,8.62,8.62,0,0,1-3.38,7.13,12.52,12.52,0,0,1-7.76,2.22h-7v-.92c2.15-.18,2.35-.4,2.35-2.63V20.74c0-2.28-.31-2.46-2.35-2.64v-.92ZM61.69,31c0,1.95.61,2.57,2.6,2.57,4.07,0,6.31-2.81,6.31-7.78,0-2.69-.81-4.93-2.36-6.14a6.43,6.43,0,0,0-4.44-1.36,2.9,2.9,0,0,0-1.8.38c-.24.21-.31.61-.31,1.49Z" transform="translate(-6.6)"/><path class="cls-2" d="M97.24,21.7a8.52,8.52,0,0,0-1-2.5c-.47-.63-.7-.83-2.26-.83H91.86V31.22c0,2.21.25,2.42,2.71,2.59v.92H86v-.92c2.37-.17,2.6-.37,2.6-2.59V18.37H86.67c-1.5,0-1.93.21-2.43.92a11.05,11.05,0,0,0-1,2.43h-.95c.18-1.86.36-3.82.43-5.19h.74c.4.63.72.65,1.51.65H95.7a1.63,1.63,0,0,0,1.5-.65h.73c0,1.18.13,3.4.26,5.09Z" transform="translate(-6.6)"/><path class="cls-2" d="M119,18.1c-1.72.14-2.23.62-2.32,1.69-.07.74-.12,1.74-.12,3.84v3.31c0,2.48-.36,4.74-1.91,6.37a6.88,6.88,0,0,1-5,1.81,7.6,7.6,0,0,1-4.69-1.34c-1.59-1.21-2.35-2.93-2.35-6V20.93c0-2.46-.24-2.64-2.33-2.83v-.92h7.91v.92c-2.07.17-2.3.37-2.3,2.83v7c0,3.34,1.61,5.4,4.62,5.4,3.43,0,4.77-2.38,4.77-6.58V23.63c0-2.09-.08-3.08-.14-3.86-.09-1.23-.8-1.56-2.73-1.67v-.92H119Z" transform="translate(-6.6)"/><path class="cls-2" d="M137,34.91c-.23,0-.55,0-.88,0-2.92-.15-3.94-.8-4.88-2.13s-1.9-3.11-2.8-4.64c-.45-.78-.82-.94-1.86-.94l-.68,0v4.05c0,2.22.28,2.39,2.35,2.62v.92H120.4v-.92c2.11-.22,2.34-.4,2.34-2.62V20.7c0-2.19-.28-2.41-2.34-2.6v-.92h7.49c2.26,0,3.61.26,4.69,1a4.09,4.09,0,0,1,1.82,3.58c0,2.38-1.56,3.71-3.41,4.47.43.82,1.52,2.59,2.33,3.82a22,22,0,0,0,2.08,2.8,3.52,3.52,0,0,0,1.8,1.21ZM126.86,26.1a4.1,4.1,0,0,0,2.76-.73A3.8,3.8,0,0,0,131,22.16c0-2.87-1.74-3.91-3.45-3.91a2,2,0,0,0-1.31.27c-.21.17-.27.48-.27,1.07V26.1Z" transform="translate(-6.6)"/><path class="cls-2" d="M156.89,18.1c-1.67.2-2.2.53-2.28,1.75-.07,1-.14,2-.14,4.39V35h-1.34L141.77,21.29v6.33c0,2.38.06,3.49.13,4.27.09,1.25.7,1.8,2.68,1.92v.92h-6.65v-.92c1.59-.13,2.25-.53,2.39-1.82a39.36,39.36,0,0,0,.16-4.38V21a2.91,2.91,0,0,0-.56-2c-.5-.68-1.12-.79-2.31-.9v-.92h4.83l10.69,12.53V24.24c0-2.41,0-3.4-.11-4.33-.08-1.18-.58-1.68-2.79-1.81v-.92h6.66Z" transform="translate(-6.6)"/><g id="halfwheel"><path class="cls-2" d="M180.41,36.84a16.55,16.55,0,0,1-4.47-10.37c-.9-.14-2.49-.23-2.87-.24-.2,0-.4,0-.6,0A20,20,0,0,0,178,39.31c.17-.15.33-.3.48-.46S179.86,37.55,180.41,36.84Z" transform="translate(-6.6)"/><path class="cls-2" d="M175.91,24.94a16.54,16.54,0,0,1,4.16-10.5c-.53-.73-1.6-1.92-1.86-2.19s-.29-.27-.43-.41A20,20,0,0,0,172.46,25c.22,0,.44,0,.66,0C173.53,25,175,25.05,175.91,24.94Z" transform="translate(-6.6)"/><path class="cls-2" d="M181.14,13.34a16.59,16.59,0,0,1,10.37-4.48c.13-.89.22-2.48.23-2.86,0-.2,0-.4,0-.6a20,20,0,0,0-13.05,5.53c.15.17.3.33.46.48A26.47,26.47,0,0,0,181.14,13.34Z" transform="translate(-6.6)"/><path class="cls-2" d="M179.32,39.76c-.15.14-.27.29-.41.44a20,20,0,0,0,13.14,5.32c0-.22,0-.45,0-.66,0-.41.05-1.9-.06-2.79a16.55,16.55,0,0,1-10.5-4.17C180.78,38.44,179.59,39.5,179.32,39.76Z" transform="translate(-6.6)"/><path class="cls-2" d="M191.7,22.87c0-.19.06-.37.09-.56a3,3,0,0,0-.89.37l.37.38a1,1,0,0,1,0,1.11,1,1,0,0,1-1.11,0c-.11-.16-.22-.3-.34-.45a3.28,3.28,0,0,0-.37.88H190a1,1,0,0,1,.75.81c0,.41-.54.86-.76.81l-.55-.08a3.14,3.14,0,0,0,.36.89l.38-.38a1,1,0,0,1,1.11.05,1,1,0,0,1,0,1.11l-.45.33a3.3,3.3,0,0,0,.88.38c0-.21,0-.4,0-.54a1,1,0,0,1,.81-.75.77.77,0,0,1,.47.21v-4.1a.76.76,0,0,1-.48.24C192.11,23.63,191.66,23.09,191.7,22.87Z" transform="translate(-6.6)"/><path class="cls-2" d="M191.13.9c.15,1.37.54,3,.59,4.5,0,.2,0,.4,0,.6,0,.38-.1,2-.23,2.86a3.33,3.33,0,0,1-.12.53c-1.23,3-.66,5.18,0,7.44a12.78,12.78,0,0,1,.43,5.48c0,.19,0,.37-.09.56s.41.76.82.76a.76.76,0,0,0,.48-.24V8.46c-.06-.89,0-2.05,0-2.41s0-.48,0-.73V0l-.08,0h-1A.82.82,0,0,0,191.13.9Z" transform="translate(-6.6)"/><path class="cls-2" d="M181.51,37.9a2.88,2.88,0,0,1,.46-.29c3-1.26,4.13-3.19,5.28-5.24a12.8,12.8,0,0,1,3.58-4.18l.45-.33a1,1,0,0,0,0-1.11,1,1,0,0,0-1.11-.05l-.38.38a35.36,35.36,0,0,1-4.09,3.71c-1.91,1.24-4.21,2.87-4.94,5.54a1.56,1.56,0,0,1-.31.51c-.55.71-1.65,1.71-1.93,2s-.31.31-.48.46c-1.16,1-2.66,1.83-3.69,2.65a.81.81,0,0,0-.06,1.21l.69.69a.82.82,0,0,0,1.21-.06c.86-1.07,1.71-2.47,2.76-3.6.14-.15.26-.3.41-.44S180.78,38.44,181.51,37.9Z" transform="translate(-6.6)"/><path class="cls-2" d="M193,27.49a.77.77,0,0,0-.47-.21,1,1,0,0,0-.81.75c0,.14,0,.33,0,.54a34.13,34.13,0,0,1-.27,5.51c-.47,2.23-.94,5,.43,7.41a1.88,1.88,0,0,1,.14.58c.11.89.05,2.38.06,2.79,0,.21,0,.44,0,.66-.09,1.54-.58,3.18-.73,4.49a.81.81,0,0,0,.81.9H193Z" transform="translate(-6.6)"/><path class="cls-2" d="M175.94,26.47a2.52,2.52,0,0,1,.52.12c3,1.23,5.18.66,7.44,0a12.83,12.83,0,0,1,5.49-.42l.55.08c.22.05.76-.4.76-.81a1,1,0,0,0-.75-.81h-.54a34.08,34.08,0,0,1-5.51-.27c-2.24-.47-5-.95-7.41.43a2,2,0,0,1-.58.14c-.89.11-2.38,0-2.79,0-.22,0-.44,0-.66,0-1.55-.09-3.18-.58-4.49-.73a.81.81,0,0,0-.9.81v1a.81.81,0,0,0,.9.81c1.37-.14,3-.53,4.5-.58.2,0,.4,0,.6,0C173.45,26.24,175,26.33,175.94,26.47Z" transform="translate(-6.6)"/><path class="cls-2" d="M180.07,14.44a2.29,2.29,0,0,1,.29.46c1.27,3,3.19,4.12,5.25,5.28a12.68,12.68,0,0,1,4.17,3.58c.12.15.23.29.34.45a1,1,0,0,0,1.11,0,1,1,0,0,0,0-1.11l-.37-.38a34.48,34.48,0,0,1-3.71-4.09c-1.25-1.91-2.88-4.21-5.54-4.94a1.76,1.76,0,0,1-.51-.31,26.47,26.47,0,0,1-2-1.93c-.16-.15-.31-.31-.46-.48-1-1.16-1.84-2.66-2.66-3.69a.81.81,0,0,0-1.21-.06l-.68.68a.82.82,0,0,0,.06,1.22c1.07.86,2.47,1.71,3.6,2.76.14.14.3.26.43.41S179.54,13.71,180.07,14.44Z" transform="translate(-6.6)"/></g></g></g></g></svg>