<svg xmlns="http://www.w3.org/2000/svg" viewBox="0 0 25.93 50.91"><defs><style>.cls-1{fill:#132b40;}</style></defs><title>EndTurnIcon</title><g id="Layer_2" data-name="Layer 2"><g id="MISC"><g id="EndTurn"><g id="halfwheel"><path class="cls-1" d="M13.34,36.84A16.61,16.61,0,0,1,8.86,26.47C8,26.33,6.38,26.24,6,26.23c-.2,0-.4,0-.6,0a20,20,0,0,0,5.53,13.05c.17-.15.33-.3.48-.46S12.79,37.55,13.34,36.84Z"/><path class="cls-1" d="M8.84,24.94A16.54,16.54,0,0,1,13,14.44c-.53-.73-1.6-1.92-1.86-2.19s-.29-.27-.43-.41A19.93,19.93,0,0,0,5.39,25c.22,0,.44,0,.66,0C6.46,25,8,25.05,8.84,24.94Z"/><path class="cls-1" d="M14.07,13.34A16.58,16.58,0,0,1,24.43,8.86c.14-.89.23-2.48.24-2.86,0-.2,0-.4,0-.6a20,20,0,0,0-13,5.53,5.22,5.22,0,0,0,.46.48A24.68,24.68,0,0,0,14.07,13.34Z"/><path class="cls-1" d="M12.25,39.76c-.15.14-.27.29-.41.44A20,20,0,0,0,25,45.52c0-.22,0-.45,0-.66,0-.41.06-1.9,0-2.79a16.55,16.55,0,0,1-10.5-4.17C13.71,38.44,12.52,39.5,12.25,39.76Z"/><path class="cls-1" d="M24.63,22.87c0-.19.06-.37.09-.56a3,3,0,0,0-.89.37l.37.38a1,1,0,0,1,0,1.11,1,1,0,0,1-1.11,0c-.11-.16-.23-.3-.34-.45a3.28,3.28,0,0,0-.37.88h.54a1,1,0,0,1,.75.81c0,.41-.54.86-.76.81l-.56-.08a3.16,3.16,0,0,0,.37.89l.38-.38a1,1,0,0,1,1.11.05,1,1,0,0,1,0,1.11l-.45.33a3.3,3.3,0,0,0,.88.38c0-.21,0-.4,0-.54a1,1,0,0,1,.81-.75.77.77,0,0,1,.47.21v-4.1a.76.76,0,0,1-.49.24C25,23.63,24.59,23.09,24.63,22.87Z"/><path class="cls-1" d="M24.06.9c.15,1.37.53,3,.59,4.5,0,.2,0,.4,0,.6,0,.38-.1,2-.24,2.86a2.62,2.62,0,0,1-.11.53c-1.23,3-.66,5.18,0,7.44a12.78,12.78,0,0,1,.43,5.48c0,.19,0,.37-.09.56s.41.76.81.76a.76.76,0,0,0,.49-.24V8.46c-.06-.89,0-2.05,0-2.41a6,6,0,0,1,0-.73V0l-.08,0h-1A.82.82,0,0,0,24.06.9Z"/><path class="cls-1" d="M14.44,37.9a2.88,2.88,0,0,1,.46-.29c3-1.26,4.12-3.19,5.28-5.24a12.8,12.8,0,0,1,3.58-4.18l.45-.33a1,1,0,0,0,0-1.11,1,1,0,0,0-1.11-.05l-.38.38a35.36,35.36,0,0,1-4.09,3.71c-1.91,1.24-4.22,2.87-4.94,5.54a1.76,1.76,0,0,1-.31.51c-.55.71-1.65,1.71-1.93,2s-.31.31-.48.46c-1.16,1-2.66,1.83-3.69,2.65a.81.81,0,0,0-.06,1.21l.68.69a.83.83,0,0,0,1.22-.06c.86-1.07,1.71-2.47,2.76-3.6.14-.15.26-.3.41-.44S13.71,38.44,14.44,37.9Z"/><path class="cls-1" d="M25.93,27.49a.77.77,0,0,0-.47-.21,1,1,0,0,0-.81.75c0,.14,0,.33,0,.54a34.13,34.13,0,0,1-.27,5.51c-.47,2.23-.95,5,.43,7.41a1.88,1.88,0,0,1,.14.58c.11.89,0,2.38,0,2.79,0,.21,0,.44,0,.66-.09,1.54-.58,3.18-.73,4.49a.81.81,0,0,0,.81.9h.87Z"/><path class="cls-1" d="M8.86,26.47a2.49,2.49,0,0,1,.53.12c3,1.23,5.18.66,7.44,0a12.8,12.8,0,0,1,5.48-.42l.56.08c.22.05.76-.4.76-.81a1,1,0,0,0-.75-.81h-.54a34.08,34.08,0,0,1-5.51-.27c-2.24-.47-5-.95-7.41.43a2,2,0,0,1-.58.14c-.89.11-2.38,0-2.79,0-.22,0-.44,0-.66,0-1.55-.09-3.18-.58-4.49-.73a.81.81,0,0,0-.9.81v1a.81.81,0,0,0,.9.81c1.37-.14,3-.53,4.5-.58.2,0,.4,0,.6,0C6.38,26.24,8,26.33,8.86,26.47Z"/><path class="cls-1" d="M13,14.44a2.29,2.29,0,0,1,.29.46c1.27,3,3.19,4.12,5.25,5.28a12.68,12.68,0,0,1,4.17,3.58c.11.15.23.29.34.45a1,1,0,0,0,1.11,0,1,1,0,0,0,0-1.11l-.37-.38a34.48,34.48,0,0,1-3.71-4.09c-1.25-1.91-2.88-4.21-5.54-4.94a1.76,1.76,0,0,1-.51-.31,24.68,24.68,0,0,1-2-1.93,5.22,5.22,0,0,1-.46-.48c-1-1.16-1.84-2.66-2.66-3.69a.81.81,0,0,0-1.21-.06L7,7.86a.83.83,0,0,0,.07,1.22c1.07.86,2.47,1.71,3.6,2.76.14.14.3.26.43.41S12.47,13.71,13,14.44Z"/></g></g></g></g></svg>