<svg width="73.37" height="110.37" xmlns="http://www.w3.org/2000/svg">
 <defs>
  <style>.cls-2 {
                fill: #124559;
            }</style>
 </defs>
 <title>flag</title>
 <g>
  <title>background</title>
  <rect fill="none" id="canvas_background" height="112.37" width="75.37" y="-1" x="-1"/>
 </g>
 <g>
  <title>Layer 1</title>
  <g stroke="null" id="flag">
   <path stroke="null" id="svg_1" d="m39.929729,106.662394l-0.521147,0.285957a1.640081,2.039826 0 0 1 -2.153564,-1.038977l-32.518055,-93.364946c-0.360205,-1.029445 -0.674426,-2.402038 0.153279,-2.85957l0.521147,-0.285957c0.82004,-0.457531 1.341188,0.657701 1.701392,1.677614l33.652316,92.888351a1.640081,2.039826 0 0 1 -0.835368,2.697527z" class="cls-2"/>
   <path stroke="null" id="svg_2" d="m6.652945,12.935236c0.904344,-0.324085 2.6134,-0.848339 3.502416,-1.162892l1.32586,-0.447999c0.482828,-0.20017 2.475449,-0.772084 2.981269,-0.876935c4.169178,-2.201869 8.016471,2.239996 14.408188,0c1.739712,-0.590978 5.686636,0.886467 6.069832,0.457531c3.287826,-7.625519 14.906344,0.266893 20.171464,-3.517271c0.475164,-0.238297 4.038891,-1.715742 4.598358,-1.90638c2.751351,-1.296338 6.636963,4.908928 10.269666,5.719139c-2.812662,1.544168 -8.09311,-3.889015 -9.196716,0.75302c-0.521147,0.524254 -3.479424,4.089184 -3.831965,4.575311c-2.981269,6.262457 -12.591837,-0.35268 -15.32786,6.672329c-1.003975,2.573613 -4.475735,-1.90638 -7.594955,2.85957s-13.258599,-2.354379 -16.569416,6.243394l-1.226229,0.800679c-0.406188,0.266893 -1.348852,0.95319 -1.762704,1.201019c0,-0.657701 0.590123,-1.696678 0.674426,-2.344847s0.191598,-1.286806 0.298893,-1.90638c1.11127,-4.012929 1.693729,-7.110796 -2.529097,-11.724235q-0.64377,-0.772084 -1.333524,-1.45838c-1.36418,-1.372593 -3.663358,-2.392507 -4.927907,-3.936674z" class="cls-2"/>
  </g>
 </g>
</svg>