<svg xmlns="http://www.w3.org/2000/svg" viewBox="0 0 839.47 54"><defs><style>.cls-1{fill:#124559;}.cls-2{fill:#c4c6b5;}</style></defs><title>JoinGame</title><g id="Layer_2" data-name="Layer 2"><g id="Layer_34" data-name="Layer 34"><g id="JoinGame"><rect class="cls-1" width="839.47" height="54"/><path class="cls-2" d="M320.12,15.79c-2.94.34-3.32.59-3.32,4.12V33.77c0,4.87-.46,8.95-4.45,12.1a14.65,14.65,0,0,1-5.21,2.56l-.67-1.6a6.25,6.25,0,0,0,4-5.16A51.45,51.45,0,0,0,311,33.6V19.91c0-3.53-.42-3.82-3.65-4.12V14.24h12.81Z"/><path class="cls-2" d="M337.93,13.65c7.77,0,14.11,5.67,14.11,13.94,0,9-6.38,14.58-14.32,14.58-8.41,0-14.5-6.13-14.5-14.24C323.22,20.75,328.35,13.65,337.93,13.65Zm-.63,1.85c-4.29,0-7.44,4.2-7.44,11.63,0,7.1,2.81,13.19,8.49,13.19,4,0,7.1-3.86,7.1-11.55C345.45,20.45,342.17,15.5,337.3,15.5Z"/><path class="cls-2" d="M355.69,41.54V40c3.19-.3,3.57-.55,3.57-4.08v-16c0-3.53-.42-3.87-3.57-4.12V14.24h13v1.55c-3.15.3-3.57.59-3.57,4.12v16c0,3.49.38,3.74,3.57,4.08v1.55Z"/><path class="cls-2" d="M401.51,15.79c-2.56.34-3.36.88-3.48,2.77-.13,1.64-.25,3.07-.25,6.72V42h-2.36L377.91,21v9.49a62.37,62.37,0,0,0,.21,6.51c.16,1.85,1.05,2.82,4.16,3v1.55H371.86V40c2.39-.21,3.44-.84,3.69-2.82a55.43,55.43,0,0,0,.26-6.68V20.54a5,5,0,0,0-.89-3.41c-.75-1-1.76-1.17-3.52-1.34V14.24h8.19l16,18.61V25.28c0-3.65,0-5-.17-6.59-.12-1.81-.79-2.69-4.28-2.9V14.24h10.37Z"/><path class="cls-2" d="M441.25,30c-2.4.42-2.69.59-2.69,3.45v3.23a23.92,23.92,0,0,0,.25,4.08,64.93,64.93,0,0,1-10.17,1.38c-9.87,0-15.54-6-15.54-14.32,0-9.46,7.69-14.2,16.64-14.2a68,68,0,0,1,8.48,1c.09,1.85.42,5.05.72,7.36l-1.64.29c-1-3.57-2.57-5.38-5.17-6.26a12.52,12.52,0,0,0-3.57-.5c-5.08,0-8.91,4.41-8.91,11.63,0,7.4,2.61,13.24,9.5,13.24a5.51,5.51,0,0,0,2.69-.59c.63-.38,1-1.1,1-2.4V33.69c0-2.94-.59-3.24-4.11-3.66V28.48h12.56Z"/><path class="cls-2" d="M458.76,41.54V40c2.64-.38,2.64-.84,2.06-2.65-.42-1.26-1.1-3.15-1.73-4.83H450.9c-.46,1.3-1,2.9-1.47,4.2-.88,2.65.13,3,3.45,3.28v1.55H442.5V40c2.65-.34,3.32-.72,4.75-4.25L456,14l2-.38c2.69,7.31,5.55,14.78,8.28,21.8,1.55,3.91,1.93,4.2,4.66,4.54v1.55Zm-3.7-20.08c-1.22,3-2.39,5.84-3.44,8.91h6.67Z"/><path class="cls-2" d="M494,41.54V40c3.19-.34,3.4-.63,3.4-4.41l0-16.39c-3,7.23-6.34,15.21-9.37,22.35h-1.38c-2.73-6.85-5.72-14.66-8.74-22-.55,13.19-.55,15.79-.55,17.31,0,2.26.88,2.85,4,3.15v1.55H471V40c2.39-.21,3.48-.68,3.82-3.2.17-1.26.34-3.65,1.3-17.51.13-2-.17-3.15-3.78-3.49V14.24h9.07l8.11,18.52,8.15-18.52h8.86v1.55c-3.36.34-3.73.67-3.65,4l.34,15.76c0,3.78.21,3.94,3.61,4.41v1.55Z"/><path class="cls-2" d="M533,34.4c-.21,1.13-1.38,6-1.76,7.14h-21.8V40c3.82-.38,4.07-.59,4.07-4.12v-16c0-3.57-.5-3.83-3.36-4.08V14.24h13.65c4.41,0,5.88-.05,6.47-.09,0,.76.25,4.2.42,6.81l-1.64.21a10.53,10.53,0,0,0-1.8-3.91c-.76-.84-1.3-1.09-3.45-1.09H521c-1.59,0-1.76.08-1.76,1.51v8.78h4.11c2.36,0,2.78-.63,3.41-3.61h1.64v9.37H526.8c-.67-3.11-1-3.62-3.45-3.62h-4.07v7.23c0,2.9.08,3.78,2.69,3.82h3c2.35,0,3-.29,3.91-1.43a18.67,18.67,0,0,0,2.56-4.2Z"/><g id="flag"><path class="cls-2" d="M543.92,48.54l-.29-.13a.91.91,0,0,1-.44-1.2l19.21-41c.2-.45.55-1,1-.78l.29.14c.45.21.27.75.06,1.2L545.12,48.1A.91.91,0,0,1,543.92,48.54Z"/><path class="cls-2" d="M563,7.11c.44.28,1.24.83,1.67,1.11l.64.42c.24.14,1.16.8,1.38,1,2.26,1.08,2.19,4,5.27,6,.84.55,1.79,2.62,2.07,2.65,3.76-.88,5.38,6.26,8.57,7.33.25.13,2,1.17,2.32,1.37,1.44.76.8,4.2,1.87,5.94-1.55-.71-1.67-4.51-3.62-3.59-.37-.07-2.64-.24-2.95-.26-3.17.61-4.49-5.33-7.83-4.4-1.23.35-1-2.41-3.75-2.29s-4.07-6.2-8.15-5l-.72-.27c-.24-.09-.8-.28-1-.38.22-.19.78-.25,1-.41s.49-.3.75-.44c1.74-.72,3-1.39,3-4.51,0-.32,0-.65,0-1C563.42,9.34,562.92,8.1,563,7.11Z"/></g><g id="flag-2" data-name="flag"><path class="cls-2" d="M292.81,48.54l.28-.13a.9.9,0,0,0,.45-1.2l-19.21-41c-.21-.45-.55-1-1-.78l-.28.14c-.46.21-.27.75-.07,1.2L291.61,48.1A.9.9,0,0,0,292.81,48.54Z"/><path class="cls-2" d="M273.76,7.11c-.44.28-1.24.83-1.67,1.11l-.64.42c-.24.14-1.16.8-1.39,1-2.26,1.08-2.19,4-5.26,6-.84.55-1.79,2.62-2.08,2.65-3.75-.88-5.37,6.26-8.56,7.33-.26.13-2.06,1.17-2.33,1.37-1.44.76-.79,4.2-1.86,5.94,1.54-.71,1.67-4.51,3.62-3.59.36-.07,2.64-.24,2.94-.26,3.18.61,4.5-5.33,7.84-4.4,1.22.35,1-2.41,3.74-2.29s4.07-6.2,8.16-5L277,17c.24-.09.81-.28,1-.38-.22-.19-.78-.25-1-.41l-.75-.44c-1.75-.72-3-1.39-3-4.51,0-.32,0-.65,0-1C273.31,9.34,273.8,8.1,273.76,7.11Z"/></g></g></g></g></svg>