<svg xmlns="http://www.w3.org/2000/svg" viewBox="0 0 839.47 54"><defs><style>.cls-1{fill:#124559;}.cls-2{fill:#c4c6b5;}</style></defs><title>LaunchGame</title><g id="Layer_2" data-name="Layer 2"><g id="Layer_34" data-name="Layer 34"><g id="LaunchGame"><rect class="cls-1" width="839.47" height="54"/><path class="cls-2" d="M288.77,34.15c-.34,1.8-1.52,6.26-1.89,7.39H266V40c3.7-.26,4-.55,4-4.08v-16c0-3.53-.42-3.87-3.57-4.12V14.24h13.11v1.55c-3.28.3-3.7.59-3.7,4.12v16.3c0,2.31.09,3.36,2.4,3.4.08,0,2,0,2.18,0,2.4,0,3-.5,4-1.64a17.45,17.45,0,0,0,2.65-4.37Z"/><path class="cls-2" d="M306.61,41.54V40c2.65-.38,2.65-.84,2.06-2.65-.42-1.26-1.09-3.15-1.72-4.83h-8.19c-.46,1.3-1.05,2.9-1.47,4.2-.88,2.65.12,3,3.44,3.28v1.55H290.36V40c2.64-.34,3.32-.72,4.74-4.25L303.84,14l2-.38c2.69,7.31,5.54,14.78,8.27,21.8,1.56,3.91,1.94,4.2,4.67,4.54v1.55Zm-3.69-20.08c-1.22,3-2.4,5.84-3.45,8.91h6.68Z"/><path class="cls-2" d="M347.32,15.79c-2.69.25-3.41,1.05-3.57,2.56a52.26,52.26,0,0,0-.21,5.63v5.51c0,3.61-.59,7.26-3,9.78a10.85,10.85,0,0,1-7.89,2.9A12,12,0,0,1,325.14,40c-2.44-1.85-3.62-4.41-3.62-9.12V20.24c0-3.86-.37-4.15-3.57-4.45V14.24h13v1.55c-3.15.3-3.53.59-3.53,4.45V31.42c0,4.7,2.31,7.81,6.81,7.81,5,0,7.18-3.7,7.18-10V24c0-2.9-.12-4.41-.21-5.67-.17-1.93-1.34-2.35-4.28-2.52V14.24h10.42Z"/><path class="cls-2" d="M378.69,15.79c-2.56.34-3.36.88-3.49,2.77-.12,1.64-.25,3.07-.25,6.72V42H372.6L355.08,21v9.49c0,3.66.09,5.3.21,6.51.17,1.85,1,2.82,4.16,3v1.55H349V40c2.4-.21,3.45-.84,3.7-2.82a56.13,56.13,0,0,0,.25-6.68V20.54a5,5,0,0,0-.88-3.4c-.76-1.05-1.77-1.18-3.53-1.35V14.24h8.19l16,18.61V25.28c0-3.65,0-5-.17-6.59-.13-1.81-.8-2.69-4.29-2.9V14.24h10.38Z"/><path class="cls-2" d="M407.54,34.32a60.29,60.29,0,0,1-2.35,6.76,36.22,36.22,0,0,1-7.73,1.09c-11.3,0-16-7.27-16-13.94,0-8.7,6.63-14.58,16.72-14.58a44.12,44.12,0,0,1,7.94,1c.21,2,.5,5.08.79,6.93l-1.68.29c-.88-3.28-2.14-4.83-4.36-5.71a10.64,10.64,0,0,0-3.66-.59c-6.09,0-9.16,5.08-9.16,11.68,0,7.69,4,12.89,9.71,12.89,3.53,0,5.88-1.84,8.15-6.46Z"/><path class="cls-2" d="M441.27,15.79c-3.28.34-3.57.59-3.57,4.08V36c0,3.49.33,3.74,3.57,4v1.55h-13V40c3.32-.42,3.57-.55,3.57-4V28.06H420.52V36c0,3.49.37,3.7,3.52,4v1.55H411.11V40c3.11-.34,3.57-.55,3.57-4V19.87c0-3.49-.38-3.83-3.57-4.08V14.24H424v1.55c-3.19.3-3.52.59-3.52,4.08v6h11.34v-6c0-3.49-.42-3.74-3.57-4.08V14.24h13Z"/><path class="cls-2" d="M482.13,30c-2.39.42-2.69.59-2.69,3.45v3.23a23.84,23.84,0,0,0,.26,4.08,65.27,65.27,0,0,1-10.17,1.38c-9.87,0-15.54-6-15.54-14.32,0-9.46,7.69-14.2,16.63-14.2a68.2,68.2,0,0,1,8.49,1c.08,1.85.42,5.05.71,7.36l-1.64.29c-1-3.57-2.56-5.38-5.16-6.26a12.52,12.52,0,0,0-3.57-.5c-5.09,0-8.91,4.41-8.91,11.63,0,7.4,2.61,13.24,9.5,13.24a5.44,5.44,0,0,0,2.68-.59c.63-.38,1-1.1,1-2.4V33.69c0-2.94-.59-3.24-4.12-3.66V28.48h12.56Z"/><path class="cls-2" d="M499.64,41.54V40c2.65-.38,2.65-.84,2.06-2.65-.42-1.26-1.09-3.15-1.72-4.83h-8.19c-.46,1.3-1.05,2.9-1.47,4.2-.88,2.65.12,3,3.44,3.28v1.55H483.39V40c2.64-.34,3.32-.72,4.74-4.25L496.87,14l2-.38c2.69,7.31,5.54,14.78,8.27,21.8,1.56,3.91,1.94,4.2,4.67,4.54v1.55ZM496,21.46c-1.22,3-2.4,5.84-3.45,8.91h6.68Z"/><path class="cls-2" d="M534.93,41.54V40c3.19-.34,3.4-.63,3.4-4.41l0-16.39c-3,7.23-6.35,15.21-9.37,22.35h-1.39c-2.73-6.85-5.71-14.66-8.74-22-.54,13.19-.54,15.79-.54,17.31,0,2.26.88,2.85,4,3.15v1.55H511.86V40c2.4-.21,3.49-.68,3.83-3.2.16-1.26.33-3.65,1.3-17.51.12-2-.17-3.15-3.78-3.49V14.24h9.07l8.11,18.52,8.15-18.52h8.86v1.55c-3.36.34-3.74.67-3.65,4l.33,15.76c0,3.78.21,3.94,3.62,4.41v1.55Z"/><path class="cls-2" d="M573.86,34.4c-.21,1.13-1.39,6-1.77,7.14h-21.8V40c3.83-.38,4.08-.59,4.08-4.12v-16c0-3.57-.51-3.83-3.36-4.08V14.24h13.65c4.41,0,5.88-.05,6.47-.09,0,.76.25,4.2.42,6.81l-1.64.21a10.53,10.53,0,0,0-1.81-3.91c-.75-.84-1.3-1.09-3.44-1.09h-2.73c-1.6,0-1.76.08-1.76,1.51v8.78h4.11c2.35,0,2.77-.63,3.4-3.61h1.64v9.37h-1.64c-.67-3.11-1-3.62-3.44-3.62h-4.07v7.23c0,2.9.08,3.78,2.68,3.82h3c2.35,0,3-.29,3.9-1.43A18.67,18.67,0,0,0,572.3,34Z"/><g id="wheel"><path class="cls-2" d="M228.12,9.81A17.19,17.19,0,1,0,245.31,27,17.19,17.19,0,0,0,228.12,9.81Zm0,31.43A14.24,14.24,0,1,1,242.36,27,14.25,14.25,0,0,1,228.12,41.24Z"/><circle class="cls-2" cx="228.12" cy="27" r="2.76"/><path class="cls-2" d="M228.11,25.44c-.34,0-.73-.46-.69-.65a10.84,10.84,0,0,0-.29-5.17,8.69,8.69,0,0,1,0-6.36,17.11,17.11,0,0,0,.3-2.91A31.16,31.16,0,0,0,226.93,6a.7.7,0,0,1,.7-.77h.83a.69.69,0,0,1,.69.77,33.62,33.62,0,0,0-.64,4.41,11.19,11.19,0,0,0,.17,2.88c1.18,2.05.77,4.43.37,6.34a37.33,37.33,0,0,0-.24,5.18A.87.87,0,0,1,228.11,25.44Z"/><path class="cls-2" d="M227,28.11a.81.81,0,0,1,0,.95,10.73,10.73,0,0,0-3.44,3.86c-1,1.75-2,3.4-4.52,4.48a17.87,17.87,0,0,0-2.27,1.84,32,32,0,0,0-2.71,3.46.71.71,0,0,1-1,0l-.59-.59a.69.69,0,0,1,.05-1,29.56,29.56,0,0,0,3.57-2.67c.31-.32,1.78-1.64,1.92-2.16.62-2.28,2.59-3.67,4.23-4.74a36,36,0,0,0,3.83-3.49A.85.85,0,0,1,227,28.11Z"/><path class="cls-2" d="M228.13,28.56c.35,0,.73.46.69.65a11,11,0,0,0,.29,5.17,8.69,8.69,0,0,1,0,6.36,18.19,18.19,0,0,0-.3,2.91,31.16,31.16,0,0,0,.52,4.36.69.69,0,0,1-.69.77h-.84a.69.69,0,0,1-.69-.77,30.55,30.55,0,0,0,.64-4.41,11.19,11.19,0,0,0-.17-2.88c-1.17-2-.77-4.43-.36-6.34a35.71,35.71,0,0,0,.23-5.18A.87.87,0,0,1,228.13,28.56Z"/><path class="cls-2" d="M229.23,28.1a.81.81,0,0,1,1,0A11,11,0,0,0,234,31.52,8.71,8.71,0,0,1,238.53,36a17.87,17.87,0,0,0,1.84,2.27A31,31,0,0,0,243.82,41a.7.7,0,0,1,.05,1l-.59.59a.69.69,0,0,1-1,0A30.37,30.37,0,0,0,239.58,39c-.32-.31-1.64-1.78-2.16-1.92-2.27-.62-3.67-2.59-4.74-4.23A37,37,0,0,0,229.19,29,.85.85,0,0,1,229.23,28.1Z"/><path class="cls-2" d="M229.68,27c0-.34.46-.73.65-.69A11,11,0,0,0,235.5,26a8.69,8.69,0,0,1,6.36,0,17.11,17.11,0,0,0,2.91.3,31.16,31.16,0,0,0,4.36-.52.7.7,0,0,1,.77.69v.84a.69.69,0,0,1-.77.69,32.09,32.09,0,0,0-4.4-.64,11.24,11.24,0,0,0-2.89.17c-2.05,1.18-4.43.77-6.34.36a37.19,37.19,0,0,0-5.18-.23A.87.87,0,0,1,229.68,27Z"/><path class="cls-2" d="M229.22,25.89a.81.81,0,0,1,0-.95,10.88,10.88,0,0,0,3.45-3.86,8.69,8.69,0,0,1,4.51-4.48,17.87,17.87,0,0,0,2.27-1.84,32,32,0,0,0,2.71-3.46.71.71,0,0,1,1-.05l.59.59a.69.69,0,0,1,0,1,30.37,30.37,0,0,0-3.57,2.67c-.31.32-1.78,1.64-1.92,2.16-.62,2.28-2.59,3.67-4.23,4.74a35.78,35.78,0,0,0-3.82,3.49A.87.87,0,0,1,229.22,25.89Z"/><path class="cls-2" d="M226.56,27c0,.34-.46.73-.65.69a11,11,0,0,0-5.17.29,8.69,8.69,0,0,1-6.36,0,17.11,17.11,0,0,0-2.91-.3,31.16,31.16,0,0,0-4.36.52.7.7,0,0,1-.77-.69v-.84a.69.69,0,0,1,.77-.69,32,32,0,0,0,4.41.64,11.19,11.19,0,0,0,2.88-.17c2-1.18,4.43-.77,6.34-.36a37.19,37.19,0,0,0,5.18.23A.87.87,0,0,1,226.56,27Z"/><path class="cls-2" d="M227,25.9a.81.81,0,0,1-.95,0,10.88,10.88,0,0,0-3.86-3.45A8.69,8.69,0,0,1,217.72,18a17.87,17.87,0,0,0-1.84-2.27A31.93,31.93,0,0,0,212.43,13a.7.7,0,0,1-.06-1l.59-.59a.69.69,0,0,1,1,.05A32.77,32.77,0,0,0,216.66,15c.32.31,1.64,1.78,2.16,1.92,2.28.62,3.67,2.59,4.74,4.23A37,37,0,0,0,227.05,25,.85.85,0,0,1,227,25.9Z"/></g><g id="wheel-2" data-name="wheel"><path class="cls-2" d="M613.7,9.81A17.19,17.19,0,1,0,630.89,27,17.19,17.19,0,0,0,613.7,9.81Zm0,31.43A14.24,14.24,0,1,1,627.94,27,14.25,14.25,0,0,1,613.7,41.24Z"/><circle class="cls-2" cx="613.7" cy="27" r="2.76"/><path class="cls-2" d="M613.69,25.44c-.34,0-.73-.46-.69-.65a11,11,0,0,0-.29-5.17,8.69,8.69,0,0,1,0-6.36,17.11,17.11,0,0,0,.3-2.91A31.16,31.16,0,0,0,612.51,6a.7.7,0,0,1,.69-.77H614a.69.69,0,0,1,.69.77,32,32,0,0,0-.64,4.41,11.19,11.19,0,0,0,.17,2.88c1.18,2.05.77,4.43.36,6.34a37.19,37.19,0,0,0-.23,5.18A.87.87,0,0,1,613.69,25.44Z"/><path class="cls-2" d="M612.6,28.11a.81.81,0,0,1,0,.95,10.88,10.88,0,0,0-3.45,3.86,8.69,8.69,0,0,1-4.51,4.48,17.87,17.87,0,0,0-2.27,1.84,32,32,0,0,0-2.71,3.46.71.71,0,0,1-1,0l-.59-.59a.69.69,0,0,1,.05-1,30.37,30.37,0,0,0,3.57-2.67c.31-.32,1.78-1.64,1.92-2.16.62-2.28,2.59-3.67,4.23-4.74a37,37,0,0,0,3.83-3.49A.85.85,0,0,1,612.6,28.11Z"/><path class="cls-2" d="M613.71,28.56c.35,0,.73.46.69.65a11,11,0,0,0,.29,5.17,8.69,8.69,0,0,1,0,6.36,17.11,17.11,0,0,0-.3,2.91,31.16,31.16,0,0,0,.52,4.36.7.7,0,0,1-.69.77h-.84a.69.69,0,0,1-.69-.77,32,32,0,0,0,.64-4.41,11.19,11.19,0,0,0-.17-2.88c-1.17-2-.77-4.43-.36-6.34A35.71,35.71,0,0,0,613,29.2.87.87,0,0,1,613.71,28.56Z"/><path class="cls-2" d="M614.81,28.1a.81.81,0,0,1,1,0,10.88,10.88,0,0,0,3.86,3.45A8.69,8.69,0,0,1,624.1,36a17.87,17.87,0,0,0,1.84,2.27A32,32,0,0,0,629.4,41a.71.71,0,0,1,.05,1l-.59.59a.69.69,0,0,1-1,0A30.37,30.37,0,0,0,625.16,39c-.32-.31-1.64-1.78-2.16-1.92-2.27-.62-3.67-2.59-4.74-4.23A37,37,0,0,0,614.77,29,.85.85,0,0,1,614.81,28.1Z"/><path class="cls-2" d="M615.26,27c0-.34.46-.73.65-.69a11,11,0,0,0,5.17-.29,8.69,8.69,0,0,1,6.36,0,17.11,17.11,0,0,0,2.91.3,31.16,31.16,0,0,0,4.36-.52.7.7,0,0,1,.77.69v.84a.69.69,0,0,1-.77.69,32,32,0,0,0-4.41-.64,11.19,11.19,0,0,0-2.88.17c-2,1.18-4.43.77-6.34.36a37.19,37.19,0,0,0-5.18-.23A.87.87,0,0,1,615.26,27Z"/><path class="cls-2" d="M614.8,25.89a.81.81,0,0,1,0-.95,10.88,10.88,0,0,0,3.45-3.86,8.69,8.69,0,0,1,4.51-4.48A17.87,17.87,0,0,0,625,14.76a32,32,0,0,0,2.71-3.46.71.71,0,0,1,1-.05l.59.59a.69.69,0,0,1-.05,1,30.37,30.37,0,0,0-3.57,2.67c-.31.32-1.78,1.64-1.92,2.16-.62,2.28-2.59,3.67-4.23,4.74a37,37,0,0,0-3.83,3.49A.85.85,0,0,1,614.8,25.89Z"/><path class="cls-2" d="M612.14,27c0,.34-.46.73-.65.69a11,11,0,0,0-5.17.29A8.69,8.69,0,0,1,600,28a17.11,17.11,0,0,0-2.91-.3,31.16,31.16,0,0,0-4.36.52.7.7,0,0,1-.77-.69v-.84a.69.69,0,0,1,.77-.69,32,32,0,0,0,4.41.64,11.19,11.19,0,0,0,2.88-.17c2-1.18,4.43-.77,6.34-.36a37.19,37.19,0,0,0,5.18.23A.87.87,0,0,1,612.14,27Z"/><path class="cls-2" d="M612.59,25.9a.81.81,0,0,1-1,0,10.88,10.88,0,0,0-3.86-3.45A8.69,8.69,0,0,1,603.3,18a17.87,17.87,0,0,0-1.84-2.27A32,32,0,0,0,598,13a.71.71,0,0,1,0-1l.59-.59a.69.69,0,0,1,1,.05A31.53,31.53,0,0,0,602.24,15c.32.31,1.64,1.78,2.16,1.92,2.28.62,3.67,2.59,4.74,4.23A37,37,0,0,0,612.63,25,.85.85,0,0,1,612.59,25.9Z"/></g></g></g></g></svg>