<svg xmlns="http://www.w3.org/2000/svg" viewBox="0 0 1366.68 184.41"><defs><style>.cls-1{fill:#338980;}.cls-2{fill:#297568;}.cls-3{fill:#25685e;}.cls-4{fill:#0b3b3d;}.cls-5{fill:#0b514c;}.cls-6{fill:none;stroke:#0b514c;stroke-miterlimit:10;}.cls-7{fill:#c4c6b5;}.cls-8{fill:#06292d;}.cls-9{fill:#0d4442;}.cls-10{fill:#0c4242;}.cls-11{fill:#072f33;}.cls-12{fill:#0a4442;}</style></defs><title>LobbyHeader</title><g id="Layer_2" data-name="Layer 2"><g id="LOBBY_HEADER"><g id="LobbyHeader"><g id="bg"><polygon class="cls-1" points="0.01 0.37 1366.22 0.37 1366.22 183.76 0.22 183.78 0.01 0.37"/><polygon class="cls-2" points="701.84 183.77 1002.81 183.77 1095.99 164.69 1064.79 133.34 1034.29 160.91 1052.97 132.47 980.93 153.77 994.32 92.23 923.98 123.52 923.32 150.73 912.27 125.88 868.47 152.27 833.08 98.27 792.2 84.06 788.22 107.17 776.66 78.66 749.22 81.97 745.82 119.73 761.02 136.77 734.74 143.44 701.84 183.77"/><polygon class="cls-3" points="516.32 184.41 502.09 149.44 530.38 171.31 512.78 93.47 554.52 82.24 563.53 143.57 568.25 82.24 595.45 34.24 561.62 0.31 748.74 0.31 764.57 21.44 738.92 19.84 764.57 28.37 760.78 48.1 741.58 47.57 759.72 55.94 745.34 89.7 706.48 71.04 686.12 149.44 664.3 144.1 695.72 162.24 787.48 183.77 516.32 184.41"/><polygon class="cls-3" points="1366.22 183.76 1365.75 0.37 874.22 0.37 887.55 26.89 926.62 14.09 898 32.49 972.47 42.31 935.23 93.09 1012.22 93.09 1023.87 68.49 1023.87 95.69 1074.62 89.38 1085.02 153.09 1031.8 183.74 1366.22 183.76"/><polyline class="cls-2" points="403.19 38.77 408.68 109.65 374.96 45.97 366.7 103.77 325.99 93.02 352.69 145.33 267.04 151.67 284.16 183.78 0.22 183.78 0.48 0.37"/></g><g id="rocks"><g id="rocks-2" data-name="rocks"><polygon class="cls-4" points="742.67 183.84 745.78 175.55 755.74 166.41 762.84 155.96 793.06 140.73 826.47 154.66 829.67 166.63 831.45 173.81 838.56 172.5 847.8 179.47 847.8 183.77 836.09 183.77 811.21 183.77 795.39 183.77 790.24 183.77 789.53 183.77 778.15 183.77 753.32 183.88 742.67 183.84"/><path class="cls-4" d="M693.62,183.88l9.25-12,7.55-8.14,22.65-11.14s25,5.72,25.26,6.62S774.88,156,774.88,156l11.9,14.46,4.94,13.43L767,183.76h-58.7Z"/></g><g id="pickaxe"><path class="cls-4" d="M781.51,131.74c-.81,5.14-2.23,17.63-7.37,27.22-5.59,10.4-1.24-4.29-1.24-4.29s6.85-22.31,7.36-31S782.32,126.6,781.51,131.74Z"/><path class="cls-4" d="M727.43,135.47a1,1,0,0,1,1.1-.82q5.7.91,11.43,1.7l12.41,1.76c4.14.54,8.28,1.16,12.43,1.63l6.22.74,3.12.36a2.9,2.9,0,0,0,.78,0c.27-.06.56-.24.83-.3a2.27,2.27,0,0,1,1.53.41l-.39,3a2.21,2.21,0,0,1-1.58,0c-.25-.12-.48-.37-.72-.5a3.52,3.52,0,0,0-.77-.16l-3.11-.44-6.2-.89c-4.14-.62-8.29-1.07-12.43-1.62l-12.45-1.5c-3.82-.46-7.65-.9-11.48-1.29a1,1,0,0,1-.85-1.08Z"/></g></g><g id="tobacco_leafs"><path class="cls-5" d="M451.29,10.12l-.21.11c-1.14.7.94,1.78.24,2.15l0,.25a3,3,0,0,0,.09.41c0,2.47,0,4.23,1.58,5.72,0,.21,0,.41-.06.59-.08,1.68.93,2.8,1.59,4.5,0,.18.06.36.08.54a10,10,0,0,1,.09,1.09,7,7,0,0,1-1.92,5.05c-.12.15-.25.3-.38.44a18.38,18.38,0,0,0-4.07,3.7,5.2,5.2,0,0,0-.43.37,10.41,10.41,0,0,0-2,3.52c-.12.19-.22.37-.33.54-2.95,1-1.78,4-2.93,6.09-.07.18-.14.36-.2.54a13.14,13.14,0,0,0-.67,2.75c0,.1-.05.19-.08.28-.33,1.2-.58,2.32-.76,3.32a2.93,2.93,0,0,1-.05.29c0,.69-1.19,1.28-.32,2.3,0,.08,0,.15,0,.22-.08.86-.11,1.53-.12,2s0,.6,0,.9v.3a2.83,2.83,0,0,0,.07,1.75c0,.09,0,.19,0,.28.05.67.12,1.32.2,1.94l0,.21c-.46,2.56.72,4.32,1.5,6.22,0,.09.07.17.1.25a1.8,1.8,0,0,1,.08.21l.09.19c.12,1,.12,2.15,1.88,2.15-.59-1.18,1.17-1.76.66-2.9v-.17c0-1,1.13-1,1.69-1,.58.59-1.18.59-.68,1.42a.92.92,0,0,0,0,.16c.05.21.18.43.25.64a.75.75,0,0,1,0,.16l0,.16c-.24.39.35,1.57.35,2.16.58.58,1.17-.59,1.48-.56l.23-.18c.45-.36.85-.87,1.07-.72a.57.57,0,0,0,.22-.11c.54-.43.64-1.84,1.11-1.37a4.36,4.36,0,0,0,.11,1l0,.18a4,4,0,0,0,.18.88c.26.62.44,1.3.74,1.9s.34.69.49.67.15-.08.22-.18c1.17-.9,0-2.07.88-3l.13-.21c.8-1.19,1.35-.64,1.67-.24a2.12,2.12,0,0,1,.32.42,2.05,2.05,0,0,0,.67.73,1.28,1.28,0,0,0,.21.14.63.63,0,0,0,.22,0c.49-.49.57-1.79.91-2.58a1.77,1.77,0,0,1,.24-.41c.61-.53.61-1.12.61-2.29,1.76,0-.58,2.34,1.07,2.52a.58.58,0,0,0,.3.18.89.89,0,0,0,.23,0,2.64,2.64,0,0,1,.36-.23,1.05,1.05,0,0,1,.3-.1c1.26,0,.68,2.31,1.85,1.72V69c0-.13,0-.26,0-.39,0-.92-.6-2.1,0-3.27,0,1.17,1.17,1.76,1.54,2.65a.87.87,0,0,0-.07.41c.06.66.89,1.19,1,1.91l.09.25a1.94,1.94,0,0,0,.39.65c1.76.59.59-2.35,1.48-2.93a1.12,1.12,0,0,1,.06-.23c.29-.87,1.32-1.8,1-2.78.05-.09.09-.17.13-.26.29-.6.51-1.23.09-1.77l0-.28c.1-1.1.1-2.2.1-3.48v-.29c0-1.07,0-2.15,0-3,0-.09,0-.18,0-.28,0-.83,0-1.69-.06-2.38a2.83,2.83,0,0,0,0-.29,20.85,20.85,0,0,0-.9-5c0-.11,0-.2-.07-.3a34.24,34.24,0,0,0-3.28-8.59.6.6,0,0,1-.2-.14c-.59-.59.27-2.09-1.22-2.3l-.09-.15c-3-4.78-5.85-7.81-5.37-12.9.11-1.2.5-2.92.77-5.29a1,1,0,0,1,0-.17c-.17-1.21,2.17-1.8.38-3.79,0-.09,0-.18,0-.27,0-.54-.07-1.08-.14-1.68a1.15,1.15,0,0,1,0-.3,41.37,41.37,0,0,0-.43-4.88c-.07-.4-.32-.24-.62.1l-.17.23a.58.58,0,0,0-.21.05,2,2,0,0,1-.1.38.42.42,0,0,1-.17.2c.08,0,0,0-.17-.06.32-.58-.85-1.16-.85-1.75-.33-.16-.47-.06-.55.16A.74.74,0,0,0,455,7a2.46,2.46,0,0,1,0,.43l0,.14c.65,1.48-1.7-1.46-1.16.2l-.08,0-.16.1-.11-.09c-.42-.34-.89-1-1.36-.53,0,1.17-1.17,1.76-.75,2.68A.59.59,0,0,1,451.29,10.12Z"/><path class="cls-5" d="M450.18,29c1.28-1.88,6.92-3.57,7.19-3.23s-2.91.38-2.93.06,3.28-1.67,3.17-1-3.36.26-3.17.08,6,1.8,6.36.65"/></g><g id="tobacco_leafs-2" data-name="tobacco_leafs"><path class="cls-5" d="M481.37,14.92l-.21.11c-1.14.7.94,1.78.24,2.15l0,.25c0,.14.05.27.08.41,0,2.47,0,4.23,1.59,5.72,0,.21-.06.41-.07.59-.08,1.68.94,2.8,1.59,4.5a5.07,5.07,0,0,1,.09.54,10,10,0,0,1,.09,1.09,7,7,0,0,1-1.92,5c-.13.15-.25.3-.38.44a18.17,18.17,0,0,0-4.07,3.7,4,4,0,0,0-.43.37,10.41,10.41,0,0,0-2,3.52l-.33.54c-2.95,1.05-1.78,4-2.93,6.09-.07.18-.14.36-.2.54a13.14,13.14,0,0,0-.67,2.75c0,.1-.06.19-.08.28-.33,1.2-.58,2.32-.76,3.32,0,.1,0,.19-.05.29,0,.69-1.19,1.28-.32,2.3,0,.08,0,.15,0,.22-.08.86-.11,1.53-.12,2s0,.6,0,.9v.3a2.91,2.91,0,0,0,.06,1.75,2.64,2.64,0,0,1,0,.28c.05.67.12,1.32.2,1.94a1.49,1.49,0,0,0,0,.21c-.45,2.56.73,4.32,1.51,6.22a1.86,1.86,0,0,0,.1.25l.08.21.09.19c.12,1,.12,2.15,1.88,2.15-.59-1.18,1.17-1.76.66-2.9V73c0-1,1.13-1,1.69-1,.58.59-1.18.59-.69,1.42a1,1,0,0,0,0,.16c.05.21.18.43.25.64,0,0,0,.1,0,.16l0,.16c-.24.39.35,1.57.35,2.16.58.58,1.17-.59,1.48-.56l.23-.18c.45-.36.85-.87,1.07-.72a.65.65,0,0,0,.22-.11c.54-.43.63-1.84,1.1-1.37a4,4,0,0,0,.12,1l0,.18a4,4,0,0,0,.18.88c.26.62.44,1.3.74,1.9s.34.69.49.67a.39.39,0,0,0,.22-.18c1.17-.9,0-2.07.88-3l.13-.21c.8-1.19,1.35-.64,1.67-.24a3.32,3.32,0,0,1,.32.42,2,2,0,0,0,.67.73,1.28,1.28,0,0,0,.21.14.59.59,0,0,0,.22,0c.49-.49.57-1.79.91-2.58a1.77,1.77,0,0,1,.24-.41c.61-.53.61-1.12.61-2.29,1.76,0-.59,2.34,1.06,2.52a.65.65,0,0,0,.31.18.81.81,0,0,0,.22,0,3.47,3.47,0,0,1,.37-.23,1.11,1.11,0,0,1,.29-.1c1.27,0,.68,2.31,1.86,1.72V73.45c0-.92-.59-2.1,0-3.27,0,1.17,1.17,1.76,1.54,2.65a.87.87,0,0,0-.07.41c.06.66.89,1.19,1,1.91a2.5,2.5,0,0,0,.09.25,1.94,1.94,0,0,0,.39.65c1.76.59.59-2.35,1.48-2.93a1.12,1.12,0,0,1,.06-.23c.29-.87,1.32-1.8,1-2.78,0-.09.09-.17.13-.26.29-.6.51-1.23.09-1.77l0-.28c.1-1.1.1-2.2.09-3.48,0-.09,0-.19,0-.29,0-1.07,0-2.15,0-3a2.53,2.53,0,0,1,0-.28c0-.83,0-1.69-.06-2.38,0-.1,0-.19,0-.29a20.88,20.88,0,0,0-.91-5,2.64,2.64,0,0,0-.07-.3,33.86,33.86,0,0,0-3.28-8.59.72.72,0,0,1-.2-.14c-.58-.59.28-2.09-1.21-2.3l-.09-.15c-3-4.78-5.85-7.81-5.37-12.9.11-1.2.5-2.92.76-5.29l.05-.17c-.18-1.21,2.17-1.8.38-3.79a2.44,2.44,0,0,1,0-.27c0-.54-.07-1.08-.14-1.68a1.68,1.68,0,0,1,0-.3,41.86,41.86,0,0,0-.42-4.88c-.08-.4-.32-.24-.62.1l-.18.23a.53.53,0,0,0-.2.05,3.15,3.15,0,0,1-.1.38.42.42,0,0,1-.17.2c.07,0,0,0-.17-.06.32-.58-.85-1.16-.85-1.75-.33-.16-.47-.06-.55.16a.74.74,0,0,0,0,.14,2.46,2.46,0,0,1,0,.43l0,.14c.65,1.48-1.7-1.46-1.16.2l-.08,0-.16.1-.11-.09c-.42-.34-.89-1-1.36-.53,0,1.17-1.18,1.76-.75,2.68A.59.59,0,0,1,481.37,14.92Z"/><path class="cls-5" d="M480.25,33.76c1.29-1.88,6.93-3.57,7.2-3.23s-2.91.38-2.93.06,3.28-1.67,3.17-1-3.36.26-3.17.08,6,1.8,6.35.65"/></g><g id="tobacco_leafs-3" data-name="tobacco_leafs"><path class="cls-5" d="M513.34,14.92l-.21.11c-1.15.7.94,1.78.24,2.15a1.13,1.13,0,0,0,0,.25c0,.14.05.27.08.41,0,2.47,0,4.23,1.59,5.72a4.48,4.48,0,0,0-.07.59c-.08,1.68.94,2.8,1.59,4.5l.09.54c0,.36.07.73.08,1.09a7,7,0,0,1-1.92,5l-.37.44a18.42,18.42,0,0,0-4.08,3.7l-.43.37a10.41,10.41,0,0,0-2,3.52l-.33.54c-3,1.05-1.77,4-2.92,6.09-.08.18-.14.36-.21.54a14.52,14.52,0,0,0-.67,2.75,2.29,2.29,0,0,1-.08.28c-.33,1.2-.57,2.32-.75,3.32a2.93,2.93,0,0,0,0,.29c0,.69-1.2,1.28-.32,2.3,0,.08,0,.15,0,.22-.08.86-.1,1.53-.12,2s0,.6,0,.9v.3a3,3,0,0,0,.07,1.75c0,.09,0,.19,0,.28,0,.67.11,1.32.19,1.94l0,.21c-.45,2.56.72,4.32,1.5,6.22,0,.09.07.17.1.25l.09.21c0,.06.05.13.08.19.12,1,.12,2.15,1.88,2.15-.58-1.18,1.18-1.76.67-2.9a.49.49,0,0,1,0-.17c0-1,1.12-1,1.68-1,.59.59-1.17.59-.68,1.42a1,1,0,0,0,0,.16,5.55,5.55,0,0,0,.24.64s0,.1.05.16a.88.88,0,0,1,0,.16c-.24.39.35,1.57.35,2.16.59.58,1.18-.59,1.48-.56l.23-.18c.45-.36.86-.87,1.07-.72a.61.61,0,0,0,.23-.11,6.25,6.25,0,0,0,1.1-1.37,4.36,4.36,0,0,0,.11,1l0,.18a4.89,4.89,0,0,0,.17.88c.26.62.45,1.3.74,1.9s.34.69.49.67.15-.08.22-.18c1.17-.9,0-2.07.89-3l0-.09a1,1,0,0,1,.08-.12c.09-.15.61-2.18.86-2.18s.06,1.3.8,1.94a.76.76,0,0,1,.33.42c.08.39-.33.69-.23.84s.23.12.89-.11l.22.14a3,3,0,0,0,1.69.37,3.26,3.26,0,0,1-.56-2.9,1.61,1.61,0,0,1,.24-.41,1.21,1.21,0,0,0,.72-.39,1.59,1.59,0,0,0-.11-1.9.69.69,0,0,1,.59.2c.36.44-.32,1.53,0,2.09a.46.46,0,0,0,.27.26.38.38,0,0,0,.25,0,.63.63,0,0,0,.31.18.79.79,0,0,0,.22,0,.57.57,0,0,0-.23.44.69.69,0,0,0,.8.5c.19-1,.35-1.2.46-1.2.29,0,.35,1.47,1,1.72a.51.51,0,0,0,.46-.07c0-.26,0-.64,0-1v-.39c0-.92-.59-2.1,0-3.27,0,1.17,1.18,1.76,1.54,2.65a.75.75,0,0,0-.06.41c.06.66.89,1.19,1,1.91l.09.25a2,2,0,0,0,.4.65c1.76.59.58-2.35,1.47-2.93a1.12,1.12,0,0,1,.06-.23c.3-.87,1.32-1.8,1-2.78l.12-.26c.29-.6.52-1.23.1-1.77a2.64,2.64,0,0,0,0-.28,32.27,32.27,0,0,0,.1-3.48V64c0-1.07,0-2.15,0-3a2.72,2.72,0,0,0,0-.28c0-.83,0-1.69,0-2.38a2.83,2.83,0,0,1,0-.29,20.88,20.88,0,0,0-.91-5c0-.11,0-.2-.07-.3a33.86,33.86,0,0,0-3.28-8.59.6.6,0,0,1-.2-.14c-.58-.59.28-2.09-1.21-2.3l-.09-.15c-3-4.78-5.85-7.81-5.38-12.9.11-1.2.5-2.92.77-5.29,0-.06,0-.11,0-.17-.17-1.21,2.18-1.8.38-3.79a2.44,2.44,0,0,0,0-.27c0-.54-.07-1.08-.14-1.68a1.15,1.15,0,0,1,0-.3,39.3,39.3,0,0,0-.43-4.88c-.07-.4-.32-.24-.61.1l-.18.23a.63.63,0,0,0-.21.05,2,2,0,0,1-.1.38.37.37,0,0,1-.17.2c.08,0,0,0-.16-.06.32-.58-.86-1.16-.86-1.75-.32-.16-.47-.06-.55.16,0,.05,0,.09,0,.14s0,.32,0,.43a.57.57,0,0,1,0,.14c.65,1.48-1.69-1.46-1.16.2l-.08,0-.16.1-.11-.09c-.42-.34-.89-1-1.36-.53a8.2,8.2,0,0,0-.53,1.43A7.55,7.55,0,0,0,513.34,14.92Z"/><path class="cls-5" d="M512.22,33.76c1.29-1.88,6.92-3.57,7.2-3.23s-2.92.38-2.94.06,3.28-1.67,3.18-1-3.37.26-3.18.08,6,1.8,6.36.65"/></g><g id="tobacco_leafs-4" data-name="tobacco_leafs"><path class="cls-5" d="M546,5.93l-.21.11c-1.15.7.94,1.78.24,2.15a1,1,0,0,0,0,.25c0,.14.05.28.08.41,0,2.47,0,4.23,1.59,5.73a4.16,4.16,0,0,0-.07.58c-.08,1.68.94,2.81,1.59,4.51l.09.54a9.81,9.81,0,0,1,.08,1.09,7,7,0,0,1-1.92,5.05l-.37.43a18.42,18.42,0,0,0-4.08,3.7,3.79,3.79,0,0,0-.42.38,10.17,10.17,0,0,0-2,3.52l-.33.53c-3,1.05-1.77,4-2.92,6.09-.08.18-.14.36-.21.54a14.9,14.9,0,0,0-.67,2.75,2.29,2.29,0,0,1-.08.28c-.33,1.21-.57,2.32-.75,3.32,0,.1,0,.2-.05.29,0,.69-1.2,1.28-.32,2.3,0,.08,0,.15,0,.23-.08.85-.1,1.52-.12,2s0,.6,0,.89v.3a3,3,0,0,0,.07,1.75c0,.1,0,.19,0,.29,0,.66.11,1.31.19,1.94l0,.21c-.45,2.56.72,4.32,1.5,6.22a1.86,1.86,0,0,1,.1.25l.09.2c0,.07.05.13.08.19.12,1,.12,2.15,1.88,2.15-.58-1.17,1.18-1.76.67-2.89a.54.54,0,0,1,0-.18c0-1,1.12-1,1.68-1,.59.59-1.17.59-.68,1.42a.88.88,0,0,0,0,.16,5.55,5.55,0,0,0,.24.64c0,.06,0,.11.05.16a.88.88,0,0,1,0,.17c-.23.39.35,1.56.35,2.15.59.58,1.18-.59,1.48-.56l.23-.17c.45-.37.86-.88,1.07-.73a.61.61,0,0,0,.23-.11c.54-.43.63-1.83,1.1-1.37a4.49,4.49,0,0,0,.11,1l0,.17a4.89,4.89,0,0,0,.17.88c.26.62.45,1.31.75,1.91s.33.69.48.66.15-.08.22-.18c1.17-.9,0-2.07.89-3a2.39,2.39,0,0,1,.13-.21c.8-1.19,1.34-.64,1.66-.24a3.2,3.2,0,0,1,.33.42,2,2,0,0,0,.67.73.6.6,0,0,0,.21.14.54.54,0,0,0,.22,0c.49-.49.57-1.79.91-2.58a1.29,1.29,0,0,1,.24-.4c.61-.54.61-1.13.61-2.3,1.76,0-.59,2.35,1.06,2.52a.57.57,0,0,0,.31.18.54.54,0,0,0,.22,0,1.84,1.84,0,0,1,.36-.22,1.11,1.11,0,0,1,.3-.11c1.27,0,.68,2.31,1.85,1.73,0-.27,0-.65,0-1v-.39c0-.92-.59-2.09,0-3.27,0,1.18,1.18,1.76,1.54,2.65a.77.77,0,0,0-.06.42c.06.66.89,1.19,1,1.91l.09.24a1.78,1.78,0,0,0,.4.65c1.76.59.58-2.35,1.47-2.92a2.1,2.1,0,0,1,.06-.24c.3-.87,1.32-1.8,1.05-2.78l.12-.26c.29-.6.52-1.22.1-1.76,0-.1,0-.19,0-.28a32.43,32.43,0,0,0,.1-3.48V55c0-1.07,0-2.15,0-3a2.53,2.53,0,0,0,0-.28c0-.84,0-1.7-.05-2.39a2.83,2.83,0,0,1,0-.29,20.88,20.88,0,0,0-.91-5c0-.1-.05-.2-.07-.3a34,34,0,0,0-3.28-8.59.58.58,0,0,1-.2-.13c-.58-.6.28-2.1-1.21-2.31l-.09-.14c-3-4.79-5.85-7.82-5.38-12.91.11-1.19.5-2.92.77-5.28,0-.06,0-.12,0-.18-.17-1.21,2.18-1.79.38-3.79a2.44,2.44,0,0,0,0-.27c0-.54-.07-1.08-.14-1.67a1.21,1.21,0,0,1,0-.3,39.31,39.31,0,0,0-.43-4.89c-.07-.4-.32-.24-.61.1l-.18.23a.48.48,0,0,0-.21.06,2.48,2.48,0,0,1-.1.38.46.46,0,0,1-.17.2c.08,0,0,0-.16-.07.32-.58-.86-1.16-.86-1.75-.32-.16-.47,0-.55.17l0,.13c0,.18,0,.32,0,.43a.47.47,0,0,1,0,.14c.65,1.48-1.69-1.46-1.16.2a.2.2,0,0,1-.08,0l-.16.1-.11-.09c-.42-.34-.89-1-1.36-.53,0,1.17-1.17,1.76-.74,2.68C546,5.84,546,5.89,546,5.93Z"/><path class="cls-5" d="M544.88,24.77c1.29-1.88,6.92-3.57,7.2-3.22s-2.92.37-2.94.05,3.28-1.66,3.18-1-3.37.26-3.18.07,6,1.81,6.36.65"/></g><polyline class="cls-6" points="434.62 20.42 486.62 34.77 517.53 31.58 550.19 22.59 574.22 8.01"/><g id="plant"><path class="cls-5" d="M580,173.82l-20.87,1.62-3.7,8.4,35.46-.08H599l33,.07s11.16-.15-5.72-2.74c-8.27-1.27-3.69-6.73-9.47-8.07S580,173.82,580,173.82Z"/><path class="cls-6" d="M584.73,177.83c1.56-7.27,2.54-16.81-5-35a66.43,66.43,0,0,0-10.5-17.34"/><path class="cls-6" d="M593.5,177.08c.34-12.71,2.36-26.2,0-39.81-1.43-8.25,4-13.63,1-30.44"/><path class="cls-6" d="M598.78,182.32c0-1.08,4.12-24.85,6.57-35.65s5.84-18,14-21.62"/><path class="cls-6" d="M604.5,177.08c1.11-.71-2.32-28.16-1.74-44.25.35-9.54,5.14-14.36,6.33-18.42"/><path class="cls-6" d="M588.54,180.56a138.57,138.57,0,0,0,0-39.81,136.89,136.89,0,0,0-5.07-22"/><path class="cls-5" d="M583.85,120.22l-.47.14a2.63,2.63,0,0,1-2.06-.23,2.81,2.81,0,0,1-1.31-1.67c-.62-3.23-1.22-6.64-2.14-9.87-.16-.53-.32-1.07-.49-1.59-1.33-2.72-3.28-9.56,2.58-7.61,1.95,1,1.95,4.89,3,6.86.13.35.26.7.39,1.07a15.84,15.84,0,0,1,.77,3.8l.62,2.17,1,3.45A2.82,2.82,0,0,1,583.85,120.22Z"/><path class="cls-6" d="M608,180.56a100.54,100.54,0,0,0,.31-29.94,136.75,136.75,0,0,0-5.07-21.94"/><path class="cls-5" d="M604.88,130.2l-.47.11a2.66,2.66,0,0,1-2-.37,2.79,2.79,0,0,1-1.19-1.75c-.4-3.27-.77-6.71-1.48-10q-.18-.83-.39-1.62c-1.14-2.81-2.63-9.76,3.09-7.42,1.88,1.1,1.62,5,2.49,7,.11.35.22.72.32,1.09a15.5,15.5,0,0,1,.52,3.84c.16.78.32,1.53.47,2.21l.75,3.51A2.83,2.83,0,0,1,604.88,130.2Z"/><path class="cls-5" d="M570.67,126.12a7.57,7.57,0,0,1-7.09-.84,16.74,16.74,0,0,1-1.4-1,37.79,37.79,0,0,1-5.69-4.41c-.42-.41-.82-.83-1.17-1.24.21-1.62-2.72-1.62-1.74-3.58s2.93-2.93,5.13-.77c.62.33,1.24.7,1.81,1a14.63,14.63,0,0,0,1.54.77c.52.41,1,.83,1.55,1.26a35.2,35.2,0,0,0,4.49,3.35c.33.35.66.72,1,1.09.66.74,1.32,1.51,2,2.3A2.82,2.82,0,0,1,570.67,126.12Z"/><path class="cls-5" d="M594.74,107.48c-5-2.23-2.08-7.11-2.93-10.89,0-.56,0-1.16,0-1.78-.13-3.72-.86-8.12,2.8-8.12,3.26-.81,3.12,2.45,2.94,5.32,0,.57-.08,1.13-.1,1.64-.55,3,0,5.62,0,8.27,0,.53,0,1-.06,1.59.13.77.13,2.72-.84,3.24A2.42,2.42,0,0,1,594.74,107.48Z"/><path class="cls-5" d="M607.41,118.05a7,7,0,0,1-.94-3.34,10.28,10.28,0,0,1,.11-1.83,14,14,0,0,1,1.74-4.51,9.26,9.26,0,0,1,1-1.31c1-.83,1.93-2.78,3.88-1.81,3.91,2,1,4.89-.07,7-.19.37-.4.73-.61,1.1-1,1.81-2.23,3.54-3.1,4.81A2.88,2.88,0,0,1,607.41,118.05Z"/><path class="cls-6" d="M590.2,177.24c1-.85-5.82-27.65-7.24-43.69-.85-9.51,3.31-14.89,4-19.07"/><path class="cls-5" d="M585.73,118.31a6.82,6.82,0,0,1-1.35-3.21,9.13,9.13,0,0,1-.12-1.82,13.73,13.73,0,0,1,1.16-4.69,8.85,8.85,0,0,1,.8-1.42c.84-1,1.57-3,3.63-2.28,4.12,1.45,1.57,4.72.79,6.91-.14.38-.3.77-.47,1.15-.81,1.93-1.77,3.8-2.48,5.16A2.83,2.83,0,0,1,585.73,118.31Z"/><path class="cls-5" d="M614.69,128.4l-.11-.16c-2.39-2.47,1.52-2.47,2.95-4.24.52-.41,1-.84,1.53-1.27,2.54-2.19,5-4.59,8.45-5.9a2.65,2.65,0,0,1,1.73,1.16l.1.17a2.87,2.87,0,0,1-.72,3.89L627,123.16l-1.63,1.13-1.86,1.31-1.87,1.3-3.21,2.25A2.68,2.68,0,0,1,614.69,128.4Z"/><path class="cls-5" d="M584.87,163.37c-.49-1.21-5-12.51-8.18-12s-4,8.07-4.43,11,2.61-6.73,4.43-6.59S584.87,163.37,584.87,163.37Z"/><path class="cls-5" d="M595.49,155.88c-.5-1.21-5.06-12.5-8.18-12s-4,8.07-4.43,11,2.6-6.72,4.43-6.59S595.49,155.88,595.49,155.88Z"/><path class="cls-5" d="M600.4,162c1.29-.19,13.36-1.84,13.61-5s-6.84-5.89-9.61-7,5.88,4.18,5.31,5.91S600.4,162,600.4,162Z"/><path class="cls-5" d="M603.09,153.68c.28-1.28,3-13.2.12-14.65s-7.84,4.12-9.83,6.29,5.92-3.89,7.32-2.68S603.09,153.68,603.09,153.68Z"/><path class="cls-5" d="M618,152.69c.47-1.32,4.93-13.54,1.77-16.67s-9.6.62-12.16,2.06,7.33-1.36,8.84.75S618,152.69,618,152.69Z"/><path class="cls-6" d="M599.42,182c-.48-1-7.34-24.09-9.94-34.85s-2.76-18.72,3-25.61"/><path class="cls-5" d="M589.74,126.6l-.17-.1c-3.24-1.15.26-2.89.75-5.1.29-.6.56-1.21.82-1.83,1.3-3.08,2.42-6.31,5-9a2.61,2.61,0,0,1,2.06.28l.17.09a2.87,2.87,0,0,1,1.08,3.81l-.93,1.7-1,1.74-1.09,2-1.09,2-1.88,3.44A2.68,2.68,0,0,1,589.74,126.6Z"/><path class="cls-5" d="M603.53,146.87c-.17-1.39-1.6-14.31-5.82-15.72s-8.33,4.82-10,7.25,6-4.48,8.26-3.26S603.53,146.87,603.53,146.87Z"/><path class="cls-5" d="M594.5,139.49c-.89-.77-9.12-8-11.52-6.21s-.2,8.29.63,10.86-.46-6.58,1.11-7.26S594.5,139.49,594.5,139.49Z"/><path class="cls-6" d="M591.66,179.32s-10.33-44.24-13.11-50.64"/><path class="cls-6" d="M597.63,177.24s1.89-47.11,1.15-51.72"/><path class="cls-6" d="M609.09,174.44s-1.81-42.59.61-50.21"/><path class="cls-6" d="M580.88,174.44s-4.72-50-4.91-54.61"/><rect class="cls-5" x="572.94" y="108.68" width="4.14" height="12.82" rx="2.07" transform="translate(-11.08 95.61) rotate(-9.41)"/><rect class="cls-5" x="575.97" y="118.8" width="4.91" height="11.1" rx="2.46" transform="translate(-12.16 89.11) rotate(-8.72)"/><rect class="cls-5" x="607.87" y="118.75" width="4.31" height="7.47" rx="2.15" transform="translate(45.8 -139.78) rotate(13.58)"/><rect class="cls-5" x="596.35" y="115.76" width="4.05" height="12.79" rx="2.02" transform="translate(-3.71 19.84) rotate(-1.89)"/></g><g id="plant-2" data-name="plant"><path class="cls-5" d="M602.7,168.18c-5.86.53-20.73,4-20.73,4l-36.15,11.65h123l-26.6-6.54,4.18-2.86Z"/><path class="cls-6" d="M606,181.85c1.56-7.27,4.09-24.08-3.39-42.24a66.26,66.26,0,0,0-10.5-17.34"/><path class="cls-6" d="M616.35,173.83c.34-12.71,2.36-26.21,0-39.81-1.43-8.25,3.95-13.63,1-30.44"/><path class="cls-6" d="M621.63,179.06c0-1.07,4.12-24.84,6.57-35.64s5.84-18,14-21.62"/><path class="cls-6" d="M627.35,173.83c1.11-.71-2.32-28.16-1.74-44.25.35-9.55,5.14-14.36,6.33-18.42"/><path class="cls-6" d="M611.39,177.3a138.56,138.56,0,0,0,0-39.81,136.75,136.75,0,0,0-5.07-21.94"/><path class="cls-5" d="M606.7,117l-.47.14a2.63,2.63,0,0,1-2.06-.23,2.81,2.81,0,0,1-1.31-1.67c-.62-3.23-1.22-6.64-2.14-9.87-.16-.54-.32-1.07-.49-1.59-1.33-2.72-3.29-9.56,2.58-7.61,2,1,2,4.89,3,6.86.13.35.26.7.38,1.07a15.36,15.36,0,0,1,.78,3.79l.62,2.18,1,3.45A2.83,2.83,0,0,1,606.7,117Z"/><path class="cls-6" d="M631.29,180.56c1.4-9.73,2.17-17.09-.17-33.19a138.23,138.23,0,0,0-5.07-22"/><path class="cls-5" d="M627.73,127l-.47.11a2.66,2.66,0,0,1-2-.37,2.82,2.82,0,0,1-1.19-1.75c-.4-3.27-.77-6.71-1.48-10q-.18-.83-.39-1.62c-1.14-2.81-2.63-9.76,3.09-7.42,1.88,1.1,1.62,5,2.49,7,.11.35.22.72.32,1.09a15.5,15.5,0,0,1,.52,3.84c.16.78.32,1.53.47,2.21l.75,3.51A2.83,2.83,0,0,1,627.73,127Z"/><path class="cls-5" d="M593.52,122.87a7.57,7.57,0,0,1-7.09-.84,15.24,15.24,0,0,1-1.4-1,37.79,37.79,0,0,1-5.69-4.41c-.42-.41-.82-.83-1.17-1.24.21-1.62-2.72-1.62-1.74-3.58s2.93-2.93,5.13-.77c.62.33,1.24.7,1.81,1a12.66,12.66,0,0,0,1.54.76c.52.41,1,.84,1.55,1.27A35.2,35.2,0,0,0,591,117.4c.33.35.66.71,1,1.08.66.75,1.32,1.52,2,2.31A2.82,2.82,0,0,1,593.52,122.87Z"/><path class="cls-5" d="M618.35,115.45c-5-2.23-2.09-7.12-2.94-10.89a17.72,17.72,0,0,0,0-1.79c-.13-3.72-.87-8.12,2.8-8.12,3.25-.81,3.12,2.45,2.93,5.32,0,.57-.07,1.13-.09,1.64-.56,3,0,5.62,0,8.27,0,.53,0,1.06-.07,1.59.14.77.14,2.72-.83,3.24A2.49,2.49,0,0,1,618.35,115.45Z"/><path class="cls-5" d="M630.26,114.8a6.81,6.81,0,0,1-.94-3.35,10.17,10.17,0,0,1,.11-1.82,14,14,0,0,1,1.74-4.51,8.08,8.08,0,0,1,1-1.31c1-.83,1.93-2.78,3.88-1.81,3.91,2,1,4.89-.07,7-.19.37-.4.73-.61,1.1-1.05,1.81-2.23,3.54-3.1,4.81A2.88,2.88,0,0,1,630.26,114.8Z"/><path class="cls-6" d="M613.05,174c1-.85-5.82-27.65-7.24-43.69-.85-9.52,3.31-14.89,4-19.07"/><path class="cls-5" d="M608.58,115.05a6.74,6.74,0,0,1-1.35-3.2,9.13,9.13,0,0,1-.12-1.82,13.83,13.83,0,0,1,1.16-4.7,9.2,9.2,0,0,1,.8-1.41c.84-1,1.56-3,3.63-2.28,4.12,1.45,1.57,4.72.79,6.9-.14.39-.3.78-.47,1.16-.82,1.93-1.77,3.79-2.48,5.16A2.77,2.77,0,0,1,608.58,115.05Z"/><path class="cls-5" d="M637.54,125.15l-.11-.16c-2.39-2.47,1.52-2.47,2.94-4.24.53-.41,1-.84,1.54-1.28,2.54-2.18,5-4.58,8.45-5.89a2.65,2.65,0,0,1,1.73,1.16l.1.16a2.88,2.88,0,0,1-.72,3.9l-1.59,1.11L648.25,121l-1.86,1.31-1.87,1.3-3.21,2.25A2.68,2.68,0,0,1,637.54,125.15Z"/><path class="cls-5" d="M607.72,160.12c-.49-1.21-5.05-12.51-8.18-12s-4,8.07-4.43,11,2.61-6.73,4.43-6.59S607.72,160.12,607.72,160.12Z"/><path class="cls-5" d="M618.34,152.63c-.5-1.21-5.06-12.5-8.18-12s-4,8.07-4.43,11,2.6-6.72,4.43-6.59S618.34,152.63,618.34,152.63Z"/><path class="cls-5" d="M623.25,158.79c1.29-.19,13.36-1.84,13.61-5s-6.84-5.9-9.61-7,5.88,4.17,5.3,5.91S623.25,158.79,623.25,158.79Z"/><path class="cls-5" d="M625.94,150.43c.28-1.28,3-13.2.12-14.65s-7.84,4.12-9.83,6.29,5.91-3.89,7.32-2.69S625.94,150.43,625.94,150.43Z"/><path class="cls-5" d="M640.89,149.44c.47-1.32,4.93-13.54,1.77-16.67s-9.6.62-12.16,2.06,7.33-1.37,8.84.75S640.89,149.44,640.89,149.44Z"/><path class="cls-6" d="M622.27,178.72c-.48-1-7.34-24.09-9.94-34.85s-2.76-18.72,3-25.61"/><path class="cls-5" d="M612.58,123.35l-.16-.1c-3.24-1.15.26-2.89.75-5.11.29-.59.56-1.2.82-1.82,1.3-3.08,2.42-6.32,5-9a2.65,2.65,0,0,1,2.06.27l.17.1a2.88,2.88,0,0,1,1.08,3.81l-.93,1.7-1,1.74-1.09,2-1.09,2-1.89,3.44A2.67,2.67,0,0,1,612.58,123.35Z"/><path class="cls-5" d="M626.37,143.62c-.16-1.39-1.59-14.32-5.81-15.72s-8.33,4.82-10,7.24,6-4.47,8.26-3.25S626.37,143.62,626.37,143.62Z"/><path class="cls-5" d="M617.35,136.24c-.89-.77-9.13-8-11.52-6.21s-.21,8.29.63,10.86-.47-6.58,1.11-7.26S617.35,136.24,617.35,136.24Z"/><path class="cls-6" d="M614.51,176.07s-10.33-44.25-13.11-50.65"/><path class="cls-6" d="M620.47,174s1.9-47.11,1.16-51.72"/><path class="cls-6" d="M631.94,171.19s-1.81-42.59.6-50.21"/><path class="cls-6" d="M603.73,171.19s-4.72-50-4.92-54.61"/><rect class="cls-5" x="595.79" y="105.43" width="4.14" height="12.82" rx="2.07" transform="translate(-10.24 99.3) rotate(-9.41)"/><rect class="cls-5" x="598.81" y="115.55" width="4.91" height="11.1" rx="2.46" transform="translate(-11.41 92.53) rotate(-8.72)"/><rect class="cls-5" x="630.72" y="115.5" width="4.31" height="7.47" rx="2.15" transform="translate(45.68 -145.23) rotate(13.58)"/><rect class="cls-5" x="619.2" y="112.51" width="4.05" height="12.79" rx="2.02" transform="translate(-3.59 20.59) rotate(-1.89)"/></g><g id="TITLE"><path class="cls-7" d="M313.87,55.94c9.49,0,16.7,1.68,21.62,4.92,6,4,9.37,9.73,9.37,18,0,17.41-14.77,24.74-27.62,24.86a30.4,30.4,0,0,1-3.61-.24l-7-1.8V118c0,10.09.84,10.57,11.29,11.54V134h-38.2v-4.44c9-1.09,10.21-1.45,10.21-11.54V72.15c0-10.09-1.2-11.17-10.21-11.77V55.94Zm-7.2,40.71A15.36,15.36,0,0,0,313,97.86c5.53,0,14.54-3.25,14.54-19.1,0-13.46-7.33-17.9-15.14-17.9-2.52,0-4,.6-4.68,1.2s-1.08,1.92-1.08,3.73Z"/><path class="cls-7" d="M437,60.38c-7.69.72-9.73,3-10.21,7.33a152.45,152.45,0,0,0-.6,16.09V99.54c0,10.33-1.68,20.78-8.53,28-5.52,5.77-14,8.29-22.58,8.29-7.93,0-15.85-1.68-21.5-6.24-7-5.29-10.33-12.62-10.33-26.07V73.11c0-11-1.08-11.89-10.21-12.73V55.94h37.12v4.44c-9,.84-10.09,1.68-10.09,12.73v32c0,13.45,6.6,22.34,19.45,22.34,14.3,0,20.54-10.57,20.54-28.58v-15c0-8.29-.36-12.61-.6-16.21-.48-5.53-3.84-6.73-12.25-7.21V55.94H437Z"/><path class="cls-7" d="M508.94,113.59c-.6,3.24-4,17.06-5.05,20.42H441.55v-4.33c10.93-1.08,11.65-1.68,11.65-11.77V72c0-10.21-1.44-10.93-9.6-11.65V55.94h39c12.61,0,16.82-.12,18.5-.24.12,2.16.72,12,1.2,19.45l-4.68.6c-1.08-4.08-3.13-9-5.17-11.17-2.16-2.4-3.72-3.12-9.85-3.12h-7.81c-4.56,0-5,.24-5,4.33v25.1h11.77c6.73,0,7.93-1.8,9.73-10.33H496v26.78h-4.68C489.36,98.46,488.4,97,481.43,97H469.78v20.66c0,8.29.24,10.81,7.69,10.93H486c6.72,0,8.52-.84,11.17-4.08a53.65,53.65,0,0,0,7.32-12Z"/><path class="cls-7" d="M591.57,134.73c-.72,0-2.16,0-3.6-.12-15.25-.72-19.7-4-23.3-9-4.81-6.61-8.29-13.93-12.37-21.14-1.8-3.24-3.49-4-7.33-4l-2.4-.12v17.53c0,9.73,1.2,10.57,10.21,11.66V134H516v-4.44c9.13-1,10.21-1.93,10.21-11.66v-46c0-9.49-1.2-10.81-10.21-11.53V55.94h34.84c10.69,0,16.81,1.2,21.74,4.56s8,8.53,8,16c0,10.68-7.08,16.33-15,19.45,1.8,3.61,6.49,11.41,10.09,16.94a96.35,96.35,0,0,0,9.13,12.49c2.76,3.12,4.08,4.08,7.56,5.29ZM545.81,95.45c5.17,0,9.13-.84,11.77-3.12,4-3.36,5.65-7.93,5.65-14,0-12.73-7.33-17.3-14.06-17.3-3.24,0-4.8.48-5.52,1.2s-1.08,2.16-1.08,4.57v28.7Z"/><path class="cls-7" d="M659.44,76.72a37.12,37.12,0,0,0-5.17-11.78c-2.16-2.52-3.12-3.48-10.21-3.48h-7.68v56.45c0,10.09,1.2,10.81,11.89,11.66V134H608.39v-4.44c10.21-.85,11.29-1.57,11.29-11.66V61.46h-7.33c-6.72,0-8.64,1.08-10.93,4-1.68,2.28-3.36,6.6-4.92,11.41h-4.57c.85-8.77,1.69-18.14,1.93-23.91h3.6c1.8,2.77,3.24,3,6.85,3h48c3.24,0,4.93-.72,7-3h3.48c.12,5,.6,15.62,1.2,23.43Z"/><path class="cls-7" d="M714.69,54.25c22.22,0,40.36,16.22,40.36,39.88,0,25.59-18.26,41.68-41,41.68-24,0-41.44-17.54-41.44-40.72C672.65,74.55,687.3,54.25,714.69,54.25Zm-1.8,5.29c-12.26,0-21.26,12-21.26,33.27,0,20.3,8,37.72,24.26,37.72,11.41,0,20.3-11,20.3-33C736.19,73.71,726.82,59.54,712.89,59.54Z"/><path class="cls-7" d="M867,134.73c-.72,0-2.16,0-3.6-.12-15.26-.72-19.7-4-23.31-9-4.8-6.61-8.28-13.93-12.37-21.14-1.8-3.24-3.48-4-7.32-4l-2.41-.12v17.53c0,9.73,1.2,10.57,10.21,11.66V134H791.44v-4.44c9.13-1,10.21-1.93,10.21-11.66v-46c0-9.49-1.2-10.81-10.21-11.53V55.94h34.83c10.69,0,16.82,1.2,21.74,4.56s8,8.53,8,16c0,10.68-7.09,16.33-15,19.45,1.8,3.61,6.48,11.41,10.08,16.94a97.33,97.33,0,0,0,9.13,12.49c2.77,3.12,4.09,4.08,7.57,5.29ZM821.23,95.45c5.16,0,9.13-.84,11.77-3.12,4-3.36,5.64-7.93,5.64-14,0-12.73-7.32-17.3-14-17.3-3.24,0-4.8.48-5.53,1.2S818,64.34,818,66.75v28.7Z"/><path class="cls-7" d="M872,134v-4.44c9.13-.85,10.21-1.57,10.21-11.66V72.15c0-10.09-1.2-11.05-10.21-11.77V55.94h37.12v4.44c-9,.84-10.21,1.68-10.21,11.77v45.76c0,10,1.08,10.69,10.21,11.66V134Z"/><path class="cls-7" d="M994.07,113.35a170.38,170.38,0,0,1-6.73,19.34c-3.12.72-13,3.12-22.1,3.12-32.31,0-45.64-20.78-45.64-39.88,0-24.86,19-41.68,47.8-41.68,10.45,0,19.7,2.53,22.7,2.89.6,5.64,1.44,14.53,2.29,19.82l-4.81.84c-2.52-9.37-6.13-13.82-12.49-16.34a30.3,30.3,0,0,0-10.45-1.68c-17.42,0-26.19,14.53-26.19,33.39,0,22,11.3,36.88,27.75,36.88,10.09,0,16.82-5.29,23.3-18.5Z"/><path class="cls-7" d="M1046.31,54.25c22.23,0,40.36,16.22,40.36,39.88,0,25.59-18.25,41.68-41,41.68-24,0-41.43-17.54-41.43-40.72C1004.28,74.55,1018.93,54.25,1046.31,54.25Zm-1.8,5.29c-12.25,0-21.26,12-21.26,33.27,0,20.3,8,37.72,24.27,37.72,11.41,0,20.3-11,20.3-33C1067.82,73.71,1058.45,59.54,1044.51,59.54Z"/></g><g id="front_trees"><polygon class="cls-8" points="850.5 183.75 806.51 182.97 804.64 157.47 813.39 154.68 804.28 150.21 803.83 141.01 830.52 111.31 853.22 129.12 836.77 163.61 853.54 143.26 854.87 183.75 866.24 183.75 850.5 183.75"/><polygon class="cls-5" points="1126.15 0.37 1117.76 14.88 1129.66 19.15 1112.66 21.89 1116.06 71.09 1154.59 50.59 1118.89 86.12 1116.14 171.24 1172.72 116.19 1200.49 17.79 1260.08 143.82 1263.69 183.76 1306.27 183.76 1266.83 25.15 1335.69 48.82 1328.44 30.69 1355.62 45.73 1366.22 0.37 1126.15 0.37"/><polygon class="cls-5" points="1058.19 0.37 1053.22 29.7 1058.69 47.76 1066.82 41.17 1061.61 57.4 1066.55 73.7 1095.37 28.68 1089.14 15.69 1117.82 0.37 1058.19 0.37"/><polygon class="cls-4" points="241.87 183.76 262.67 171.38 327.73 146.85 371.47 183.78 241.87 183.76"/><polygon class="cls-4" points="372.19 183.78 392.99 177.63 458.06 153.09 501.89 183.76 372.19 183.78"/><polygon class="cls-8" points="803.28 183.77 824.08 183.77 889.13 165.47 932.86 183.76 803.28 183.77"/><g id="money_sack"><path class="cls-9" d="M1217.77,142l6.88,8,3,8.75,0,4.54,2.61,4.94.7,7.19-3.93,8.31h-40.43s-4.57,1.37-7.17-4.3c-1.2-2.61-.8-8.25,1.29-15.19,4-13.41,4.89-18.76,4.89-18.76s5-6.64,11.16-9.45c.7-.31,2.58-1.13,2.59-2.26,0-1.54-1.23-2-3.2-5.67-1-1.84-3.63-2.64-3.63-2.64l2.36-2.85,2.35-.15,2.39-2.89,2,.1,2.21,1.86a7.92,7.92,0,0,0,2.2-1.33c1-.9,2.38,1.31,2.38,1.31a9.05,9.05,0,0,1,2.58,3.2c.74,1.47,1.9,4.18-1.12,2.14-2.16-1.45-6.32,7.39-6.32,7.39Z"/><path class="cls-9" d="M1203.39,132.3a1.51,1.51,0,0,1,.44,1,1.14,1.14,0,0,1-.38.73c-1.11,1.11-4.26-.13-4.56-.25-1.58-.64-1.32-.21-1.82-.36-.22-.06-1.19.84-1.35.85-.54.05-1.76.05-2,.65-.09-.43,1-3.08,1.6-3a12.28,12.28,0,0,1,3.49.68A5.49,5.49,0,0,0,1203.39,132.3Z"/></g><g id="money_sack-2" data-name="money_sack"><path class="cls-10" d="M1139,138.2c-3.6,2-12.5,10.87-12.5,10.87l-5.43,11.9,0,6.18-4.74,6.73-1.27,9.86h93.64l-2.35-15.29-8.87-25.54s-9.1-9-20.29-12.86c-1.27-.44-4.7-1.54-4.71-3.08,0-2.11,2.23-2.71,5.82-7.72,1.79-2.51,6.59-3.6,6.59-3.6l-4.28-3.88-4.28-.2s-4.08-.88-4.35-3.94c-.17-1.89-3.62.14-3.62.14l-4,2.53-4-1.81-4.32,1.79-6.22,7.19,3.57.08s14.28,5.7,11.48,10S1139,138.2,1139,138.2Z"/><path class="cls-10" d="M1165.12,125c-.13.11-.87.69-.79,1.43a1.5,1.5,0,0,0,.68,1c2,1.52,7.75-.17,8.28-.33,3.69-1.12,5.3-1.68,5.3-1.68s6.22,4.14,6.25,4.14.24-1.51.41-2.85c.34.82.69,1.65,1,2.47a28.54,28.54,0,0,0-.57-4.37l-6.25-1.77a52.33,52.33,0,0,1-6.11,2.45A13.13,13.13,0,0,1,1165.12,125Z"/></g><polygon class="cls-4" points="1171.39 183.74 1124.99 132.24 1126.33 153.91 1116.46 132.24 1079.66 120.57 1069.86 147.54 1089.8 153.37 1068.19 150.71 1068.06 163.5 1072.73 179.77 1049.26 144.04 1028.37 147.13 1032.73 162.71 1064.73 183.74 1070.06 183.74 1161.66 183.74 1171.39 183.74"/><polygon class="cls-5" points="304.07 0 291.63 38.17 288.76 22.39 280.66 35.02 266.12 7.55 265.46 28.75 269.12 68.88 257 101.61 230.72 68.05 237.5 57.04 224.55 58.2 188 22.61 200.81 53.02 213.76 69.1 200.81 72.73 219.31 75.05 215.61 116.79 173.69 99.4 212.53 129.54 217 183.77 153.97 155.05 123.77 71.57 64.61 176.13 51.6 77.82 0 97.9 0 82.51 0 95.28 0 27.18 0 0 54.47 0 304.07 0"/><polygon class="cls-4" points="0.01 55.58 0.01 20.72 0.01 0.37 60.57 19.18 104.75 0.64 235.46 77.47 235.46 135.07 200.66 89.47 210.39 77.73 194.93 86.8 188.03 69.32 187.5 83.18 173.1 69.85 184.84 87.98 180.97 105.18 198.22 134.97 204.02 171.97 174.7 157.85 180.57 147.72 169.37 148.78 170.97 136.52 124.57 129.58 135.77 144.38 124.57 147.72 140.57 149.85 101.1 172.25 137.29 183.77 83.67 183.76 57.9 146.65 53.22 183.76 0.22 183.78 0.01 55.58"/><polygon class="cls-11" points="55.27 183.77 74.84 140.97 60.05 120.31 91 114.44 56.33 105.26 31.8 125.11 52.07 88.7 22.73 72.84 19 148.04 0.22 183.78 55.27 183.77"/><polygon class="cls-8" points="295.67 183.76 306.12 170.12 322.62 164.92 341.52 182.87 332.22 162.52 342.22 117.69 377.42 134.56 367.82 156.16 385.42 140.16 385.42 176.16 395.04 153.36 406.54 143.22 410.82 153.39 409.78 140.36 427.35 124.86 441.48 150.72 436.68 167.79 418.33 170.98 435.73 171.85 411.82 183.11 295.67 183.76"/><polygon class="cls-11" points="1311.42 32.37 1317.02 146.1 1305.2 183.76 1312.36 183.76 1324.22 128.37 1311.42 32.37"/><polygon class="cls-11" points="1262.78 0.37 1261.42 46.97 1257.41 74.57 1259.41 120.57 1270.82 89.77 1270.82 60.66 1262.78 0.37"/><polygon class="cls-4" points="1366.68 135.81 1357.7 90.49 1354.65 111.73 1341.82 109.97 1352.36 127.62 1349.82 145.28 1329.88 121.03 1311.47 49.47 1304.28 134.5 1287.42 113.37 1288.01 99.98 1263.88 48.77 1265.04 20.27 1252.02 57.7 1244.12 42.14 1237.11 111.81 1218.62 90.17 1213.12 69.54 1225.22 58.77 1211.12 62.04 1201.72 26.74 1191.49 0.37 1173.65 0.37 1174.73 42.82 1162.02 28.77 1171.48 48.53 1156.42 91.17 1134.42 32.37 1133.45 0.37 1366.22 0.37 1366.68 135.81"/><polygon class="cls-5" points="484.52 0.37 521.29 17.17 567.74 21.17 567.74 40.37 607.77 34.24 616.54 11.3 616.54 33.7 673.13 16.77 684.29 35.84 774.16 20.37 762.5 11.84 785.51 16.77 808.22 0.37 484.52 0.37"/><polygon class="cls-4" points="584.48 0.37 588.75 12.24 580.08 10.64 578.75 5.17 576.32 8.01 570.75 11.43 570.75 5 567.28 11.43 542.57 0.37 584.48 0.37"/><polygon class="cls-4" points="305.68 0.37 294.75 0.37 291.4 18.5 306.75 49.26 318.76 38.83 316.55 24.35 328.09 30.73 333.79 25.78 348.07 1.64 342.89 25.89 353.65 19.91 343.48 54.15 382.41 79.42 385.79 63.43 381.14 50.03 387.98 53.06 389.72 43.79 384.11 31.27 392.01 34.01 399.23 20.41 412.52 44.57 443.45 61.2 440.44 36.62 445.32 26.38 468.37 30.61 471.7 23.87 480.71 37.27 494.57 44.73 494.7 18.84 516.67 30.29 506.5 7.73 523.62 22.79 531.26 18.9 530.61 28.94 536.38 34.03 551.58 14.73 538.21 0.37 305.68 0.37"/><polygon class="cls-12" points="1067.82 0.37 1069.85 8.38 1055.37 37.07 1036.09 28.75 1028.78 15.18 1021.11 22.28 1011.96 18.33 1004.28 0.37 998.02 0.37 986.97 6.85 994.94 45.45 954.63 68.36 950.65 52.71 955.19 39.91 948.07 42.56 945.99 33.5 951.57 21.58 943.32 23.91 940.33 12.18 903.19 23.86 905.28 15.35 896.93 10.11 875.85 28.98 867.94 23.12 867.53 36.42 858.19 44.78 840.9 20.94 825.85 33.84 821.39 11.97 813.73 27.68 803.27 24.92 810.6 34.09 808.01 39.4 779.58 23.25 794.08 3.26 774.01 11.97 732.75 20.69 743.03 0.37 1067.82 0.37"/></g></g></g></g></svg>