<svg xmlns="http://www.w3.org/2000/svg" viewBox="0 0 126.37 126.37"><defs><style>.cls-1{fill:#ddbc95;}.cls-2{opacity:0.28;}.cls-3{fill:#124559;}</style></defs><title>MarketSlot</title><g id="Layer_2" data-name="Layer 2"><g id="MISC"><g id="MarketSlot"><circle class="cls-1" cx="63.19" cy="63.19" r="63.19"/><g id="market" class="cls-2"><rect class="cls-3" x="31.7" y="43.59" width="2.15" height="54.83" rx="0.7" transform="translate(-4.81 2.42) rotate(-3.94)"/><rect class="cls-3" x="93.11" y="43.73" width="2.15" height="54.83" rx="0.7" transform="translate(4.72 -5.85) rotate(3.65)"/><path class="cls-3" d="M107,46.07c-6.88-5.42-14.52-12.89-17.07-21.19,0,0-14.63,1.89-25.61,2.17A124.16,124.16,0,0,1,38,24.88C35.57,29.82,28,38.5,19.36,46.07c0,0,0,.12,0,.18h0a2.9,2.9,0,0,0,5.8,0h0a2.91,2.91,0,0,0,5.81,0h0a2.9,2.9,0,0,0,5.8,0h0a2.9,2.9,0,0,0,5.8,0h0a2.91,2.91,0,0,0,5.81,0h0a2.9,2.9,0,0,0,5.8,0h0a2.9,2.9,0,0,0,5.8,0h0a2.9,2.9,0,0,0,5.8,0h0a2.9,2.9,0,0,0,5.8,0h0a2.9,2.9,0,0,0,5.8,0h0a2.9,2.9,0,0,0,5.8,0h0a2.9,2.9,0,0,0,5.8,0h0a2.91,2.91,0,0,0,5.81,0h0a2.9,2.9,0,0,0,5.8,0h0a2.91,2.91,0,0,0,5.81,0h0C107,46.18,107.06,46.11,107,46.07Z"/><polygon class="cls-3" points="33.33 77.26 35.05 98.33 92.06 98.48 93.5 77.26 33.33 77.26"/><ellipse class="cls-3" cx="46.16" cy="75.5" rx="3.46" ry="2.33"/><ellipse class="cls-3" cx="53.29" cy="76.35" rx="2.28" ry="1.97"/><rect class="cls-3" x="67.79" y="70.04" width="3.66" height="9.2" rx="1.83"/><rect class="cls-3" x="72.09" y="73.17" width="9.8" height="5.15" rx="2.57"/><rect class="cls-3" x="54.18" y="71" width="4.26" height="8.24"/></g></g></g></g></svg>