<svg xmlns="http://www.w3.org/2000/svg" viewBox="0 0 161.91 50.84"><defs><style>.cls-1{fill:#916a50;}.cls-2{fill:#7a5841;}.cls-3{fill:#b38867;}.cls-4{fill:#124559;}</style></defs><title>NewGameButton</title><g id="Layer_2" data-name="Layer 2"><g id="MISC"><g id="NewGameButton"><g id="ribbon"><path id="ribbon-element5" class="cls-1" d="M7.63,25.81c.3-.45.63-.91,1-1.37a10.5,10.5,0,0,1,2.17-2.53c1.47-1.29,3.83-5.13,7.81-5.66a4.36,4.36,0,0,1,2.72.84,16.91,16.91,0,0,0,1,5.41c0,1.29-.05,2.81-.07,4.43-.13,8.11-.3,18.92-.3,18.92l-1.49,0-1.49,0a7.06,7.06,0,0,0-3.7-.06,7.73,7.73,0,0,0-1.08.38C11.9,44.7,9.55,50.84,7.2,50.84c2.35-3.07,0-9.2,3.86-12.16.31-.44.65-.89,1-1.35a40.83,40.83,0,0,0,3.16-4.7l.62-1.09s-1.29-3.82-3-4.78S7.63,25.81,7.63,25.81Z" transform="translate(-7.2)"/><path id="ribbon-element4" class="cls-1" d="M169.11,26.83c-4.37-3.6-4.8-7.14-11-7.07a4.47,4.47,0,0,1-1.17-.18A2.87,2.87,0,0,1,155.13,18c-.38,0-.73,0-1,0s-.62.07-.89.11l.45,27.68.88-.24c.28-.08.56-.14.83-.19.47-.07.94-.17,1.41-.27l1.39-.34c1.89-.11,8.94-3.17,8.94,6,2.35-6.14-2-12.62-2.82-14.32a15.13,15.13,0,0,0-.88-1.32A23.89,23.89,0,0,0,160,31.54h0a14.76,14.76,0,0,1,1.45-2.08c.34-.37,1.54-2.55,6.5-2.9A10,10,0,0,1,169.11,26.83Z" transform="translate(-7.2)"/><path id="ribbon-element1" class="cls-2" d="M21.89,45.85q-1.08-3.09-2.17-6.2l2.9-.44Q22.25,42.54,21.89,45.85Z" transform="translate(-7.2)"/><path id="ribbon-element3" class="cls-2" d="M153.64,45.85l2.06-6.2-2.93-1.43Z" transform="translate(-7.2)"/><path id="ribbon-element2" class="cls-3" d="M155.7,39.65s-3.55-.56-9.3-1.35l-3-.41c-1.84-.48-3.59-.86-5.3-1.17-.85-.16-1.69-.29-2.52-.42a9.12,9.12,0,0,1-2.62.28,14.32,14.32,0,0,1-2.77-.39,13.53,13.53,0,0,0-9.43-2c-1.08.11-2.17.29-3.26.43-9.15.93-16.21-5.21-25.84-1.12l-2,0H87.71l-2.89,0a83.68,83.68,0,0,0-8.71-.71c-1,0-2.06,0-3.1,0a79.45,79.45,0,0,0-15.08.51c-.9,0-1.8,0-2.7,0a50.12,50.12,0,0,0-19.79,4.32l-3.37.44c-7.51,1-12.35,1.76-12.35,1.76,0-5,1.11-8.62,1.22-14.67,0-1.21,0-2.51-.07-3.95.44-7-1.91-13.15.44-16.21a33.18,33.18,0,0,0,7.21-.54L30.47,4c1.08-.15,2.22-.29,3.4-.43,8.6-4.9,20.36-1.83,29-2.51L65,.91C74.16.34,82.56,0,87.71,0c5,0,10,.15,15,.41l3,.13c11.91,1.21,23.67,1.21,35.13,5.08.73.11,1.45.21,2.17.29a26.59,26.59,0,0,0,8.55-.31c1.31.19,2.32.35,3,.46l1,.18c0,.13-1.14,11.93-1.14,16.7C154.56,29.33,155.7,39.65,155.7,39.65Z" transform="translate(-7.2)"/></g><path class="cls-4" d="M50.73,12.22c-1.15.26-1.49.55-1.46,1.48,0,.75.06,1.51.23,3.33.32,3.26.48,4.89.79,8.16l-.89.09c-3.46-3.86-5.22-5.76-8.83-9.54.22,1.91.34,2.87.57,4.78s.36,2.64.47,3.22c.18.93.63,1.3,2,1.25l.08.69c-1.78.2-2.66.31-4.44.53,0-.28-.05-.41-.09-.69,1.05-.24,1.46-.6,1.44-1.58,0-.71-.08-1.52-.3-3.32l-.6-5a2.43,2.43,0,0,0-.57-1.5c-.41-.46-.85-.5-1.68-.48,0-.28-.06-.42-.09-.69l3.34-.41C44.07,16,45.73,17.76,49,21.26c-.16-1.66-.25-2.48-.41-4.14-.18-1.82-.29-2.57-.4-3.27-.16-.88-.53-1.23-2.07-1.18,0-.27,0-.41-.07-.69,1.84-.19,2.77-.28,4.61-.45Z" transform="translate(-7.2)"/><path class="cls-4" d="M62.65,20.56c-.06.55-.41,2.85-.54,3.45-3.68.25-5.52.39-9.19.72,0-.27,0-.41-.06-.68,1.65-.32,1.75-.46,1.61-2.16-.27-3.16-.41-4.75-.68-7.91-.15-1.77-.38-1.87-1.7-1.88,0-.28,0-.42-.06-.7,2.38-.21,3.57-.31,5.95-.48,1.9-.14,2.58-.21,2.83-.24,0,.41.24,2,.39,3.24l-.66.15a5.88,5.88,0,0,0-.84-1.74c-.36-.46-.67-.59-1.68-.51l-1.41.11c-.67.05-.73.1-.67.76l.35,4.37,1.89-.15c1.15-.08,1.28-.4,1.44-1.85l.67-.05c.12,1.78.18,2.67.31,4.45l-.67.05c-.38-1.49-.54-1.71-1.7-1.62L56.36,18l.3,3.72c.11,1.42.3,1.73,1.35,1.66l1.43-.1c1.05-.08,1.27-.26,1.64-.82A9.74,9.74,0,0,0,62,20.42Z" transform="translate(-7.2)"/><path class="cls-4" d="M80.3,10.58c-1.33.22-1.55.48-2,2.18s-1.78,6.78-2.75,10.83l-.87,0c-1-3-2.27-6.34-3.42-9.36-.87,3.29-1.7,6.51-2.44,9.6l-.89,0c-.94-3.07-2.29-7.12-3.54-10.67-.56-1.57-.84-1.86-2-1.92l0-.69c2.11-.13,3.17-.19,5.29-.3l0,.69c-1.39.22-1.41.51-1.1,1.55.79,2.47,1.6,5,2.37,7.38.81-3.07,1.64-6.38,2.4-9.66l.86,0c1.16,3.22,2.32,6.31,3.44,9.45.64-2.42,1.49-6,1.77-7.35.23-1.21,0-1.54-1.56-1.66,0-.28,0-.42,0-.7l4.48-.11Z" transform="translate(-7.2)"/><path class="cls-4" d="M97.15,17.66c-1.09.16-1.2.26-1.23,1.59,0,.65,0,1,0,1.63a13.49,13.49,0,0,0,.07,2,21.84,21.84,0,0,1-4.31.63c-4.21,0-6.69-2.93-6.72-7,0-4.52,3.31-7,7.23-6.92A13.57,13.57,0,0,1,96,10.1a25.77,25.77,0,0,1,.23,3.5l-.67.12c-.41-1.75-1-2.6-2.2-3.05a5.47,5.47,0,0,0-1.64-.27c-2.48,0-4.23,2.14-4.23,5.75s1.26,6.47,4.43,6.51a2.62,2.62,0,0,0,1.3-.29c.31-.2.49-.51.5-1.22s0-1.06,0-1.76c0-1.46-.19-1.62-1.81-1.82v-.7c2.1,0,3.15,0,5.24.09C97.16,17.24,97.15,17.38,97.15,17.66Z" transform="translate(-7.2)"/><path class="cls-4" d="M104.82,23.54l0-.69c1.17-.13,1.23-.34,1-1.2-.18-.69-.45-1.66-.72-2.66-1.48-.07-2.22-.1-3.71-.15-.26.73-.55,1.51-.78,2.21-.43,1.29-.06,1.47,1.38,1.69,0,.27,0,.41,0,.69l-4.38-.14,0-.69c1.15-.14,1.44-.3,2.12-2.05,1.65-4.22,2.5-6.33,4.23-10.53l.8-.13c1,3.6,2.13,7.39,3.13,10.92.54,1.9.7,2.06,1.91,2.29,0,.28,0,.42,0,.7C107.81,23.68,106.82,23.63,104.82,23.54Zm-1.26-10.27c-.62,1.55-1.24,3.08-1.79,4.6l3.11.13C104.36,16.1,104.09,15.16,103.56,13.27Z" transform="translate(-7.2)"/><path class="cls-4" d="M120.08,24.52c0-.28,0-.42.06-.7,1.43,0,1.52-.17,1.69-2.13l.7-8.12c-1.72,3.48-3.88,7.92-5.17,10.73l-.55,0c-.77-2.9-2-7.46-3.15-11.18-.71,6.68-.8,8.08-.84,8.69-.06,1.11.33,1.39,1.64,1.62l0,.7c-1.77-.13-2.65-.18-4.42-.28l0-.7c1-.05,1.52-.25,1.73-1.43.13-.71.24-1.73,1.13-8.71.13-1,0-1.51-1.6-1.77,0-.28,0-.42,0-.69,1.51.09,2.26.13,3.77.24,1.26,3.91,1.87,5.86,3.06,9.78,1.82-3.68,2.75-5.52,4.65-9.18,1.48.13,2.23.19,3.71.34,0,.27,0,.41-.07.69-1.55,0-1.74.19-1.85,1.76l-.6,7.74c-.14,2-.08,2.06,1.41,2.42l-.07.69C123.24,24.79,122.19,24.69,120.08,24.52Z" transform="translate(-7.2)"/><path class="cls-4" d="M136.93,22.85c-.16.53-1,2.73-1.19,3.29-3.66-.45-5.49-.66-9.16-1,0-.27,0-.4.07-.68,1.67,0,1.8-.11,2-1.81.33-3.16.5-4.74.83-7.9.19-1.77,0-1.91-1.32-2.17,0-.28,0-.42.07-.7l5.95.65c1.88.22,2.57.29,2.82.3,0,.42-.15,2-.22,3.26l-.68,0a5.71,5.71,0,0,0-.5-1.86c-.27-.52-.55-.71-1.56-.83l-1.41-.16c-.66-.07-.73,0-.8.63-.19,1.74-.29,2.61-.48,4.35l1.89.21c1.15.14,1.34-.15,1.76-1.54l.67.08c-.21,1.77-.32,2.65-.54,4.42l-.66-.08c-.09-1.53-.21-1.77-1.36-1.91l-1.87-.21c-.16,1.48-.24,2.23-.41,3.71s0,1.75,1,1.89l1.42.17c1.05.12,1.3,0,1.77-.5a10.91,10.91,0,0,0,1.3-1.85Z" transform="translate(-7.2)"/></g></g></g></svg>