<svg xmlns="http://www.w3.org/2000/svg" viewBox="0 0 167.01 126.16"><defs><style>.cls-1{fill:#1c8daf;}.cls-2{fill:#5cc8e5;}.cls-3{fill:#25667f;}</style></defs><title>ship</title><g id="Layer_2" data-name="Layer 2"><g id="LOBBY_FOOTER"><g id="ship"><polygon class="cls-1" points="93.22 106.09 93.22 0 95.42 106.09 93.22 106.09"/><polygon class="cls-1" points="64.99 107.07 64.99 23.05 67.67 107.07 64.99 107.07"/><polygon class="cls-1" points="144.99 100.03 144.99 47.48 146.93 100.03 144.99 100.03"/><polygon class="cls-1" points="131.5 81.63 159.28 92 145.39 61.74 131.5 81.63"/><path class="cls-2" d="M9.07,93.93,65,39.27S52.42,64.72,51.82,88.55C48.08,83,20.35,90.13,20.35,90.13l.28-1.55L17.87,90.9Z"/><path class="cls-2" d="M78.32,18.34S67.54,34.28,72.24,39.56c4.13-4,6.08-2.7,6.08-2.7S66.59,80,69.63,75.35s7.17-4.16,7.17-4.16S69,82.63,69.63,94.07c1.62-.82,8.92-.8,8.92-.8l1.25-3.11,2.42,3.38,31.53,5.27-6.52-32.62a20.57,20.57,0,0,0-5,1.46c-4.57-2.91,2.39-34.54,2.39-34.54s-2.18,2.51-3.91,1.17c-6.52-5.54,2.6-31.54,2.6-31.54Z"/><path class="cls-2" d="M122.85,83.85c5.42-5.51,26.57.89,39.86,1.33L117.39,42.25C119.21,56.12,122.26,63.71,122.85,83.85Z"/><polygon class="cls-1" points="0 92.95 46.06 100.76 58.88 121.47 80.1 126.16 104.94 125.38 154.6 125.68 167.01 111.31 163.01 92.95 135.37 92.95 135.78 99.98 113.75 98.81 106.94 103.89 83.51 104.67 79.3 99.59 50.47 98.42 0 92.95"/><polygon class="cls-3" points="76.8 71.19 90.72 70.53 93.8 66.07 93.61 69.81 102.23 67.65 94.82 72.68 73.72 76.71 76.8 71.19"/><polygon class="cls-3" points="78.32 36.86 86.66 35.66 101.71 34.67 99.28 38.15 78.32 36.86"/><polygon class="cls-1" points="28.48 87.91 64.99 39.27 53.18 74.63 45.1 85.75 28.48 87.91"/><polygon class="cls-1" points="99.28 38.15 83.51 44.25 70.84 66.07 78.32 36.86 99.28 38.15"/><path class="cls-1" d="M103.31,2.74,91.44,21.15,94,27.89l-14.27,4-7.51,7.71,6.08-2.7,23.39-2.19S92.67,33.9,103.31,2.74Z"/><path class="cls-1" d="M117.39,42.25l10.2,20.15.4,17-5.14,4.41S120.46,60,117.39,42.25Z"/><polygon class="cls-3" points="167.01 111.31 152.9 120.15 130.27 121.72 103.18 121.72 95.42 118.74 87.15 118.67 82.81 121.72 64.99 112.92 46.06 100.76 58.88 121.47 80.1 126.16 105.43 125.42 154.6 125.68 167.01 111.31"/></g></g></g></svg>