<svg xmlns="http://www.w3.org/2000/svg" viewBox="0 0 186.4 50.91"><defs><style>.cls-1{fill:#b38867;}.cls-2{fill:#132b40;}.cls-3{fill:#0b514c;}.cls-4{fill:#0b3b3d;}.cls-5{fill:#072f33;}</style></defs><title>ToLobby</title><g id="Layer_2" data-name="Layer 2"><g id="MISC"><g id="ToLobby"><rect class="cls-1" width="186.4" height="50.91"/><path class="cls-2" d="M61.83,21.7a8.76,8.76,0,0,0-1.06-2.5c-.47-.63-.7-.83-2.26-.83H56.44V31.22c0,2.21.26,2.42,2.71,2.59v.92H50.58v-.92c2.37-.17,2.6-.37,2.6-2.59V18.37H51.25c-1.5,0-1.93.21-2.42.92a11,11,0,0,0-1,2.43h-.95c.18-1.86.36-3.82.43-5.19H48c.41.63.72.65,1.51.65H60.28a1.63,1.63,0,0,0,1.5-.65h.74c0,1.18.12,3.4.26,5.09Z"/><path class="cls-2" d="M74.16,16.81a8.75,8.75,0,0,1,9,8.94c0,5.77-4.05,9.38-9.1,9.38A8.91,8.91,0,0,1,64.83,26,9,9,0,0,1,74.16,16.81Zm-.45,1.12c-2.85,0-5.13,2.64-5.13,7.51,0,4.72,2.14,8.56,5.85,8.56,2.81,0,5-2.46,5-7.5C79.4,21.05,77,17.93,73.71,17.93Z"/><path class="cls-2" d="M105.55,30.07c-.19,1.05-1,3.89-1.22,4.66H91.23v-.92c2.41-.19,2.62-.36,2.62-2.63V20.74c0-2.27-.27-2.46-2.34-2.64v-.92h8v.92c-2.13.19-2.41.36-2.41,2.64V31.39c0,1.55.12,2.12,1.62,2.14,0,0,1.53,0,1.66,0a2.66,2.66,0,0,0,2.52-1,10.09,10.09,0,0,0,1.68-2.79Z"/><path class="cls-2" d="M116.63,16.81a8.75,8.75,0,0,1,9,8.94c0,5.77-4,9.38-9.1,9.38A8.91,8.91,0,0,1,107.3,26,9,9,0,0,1,116.63,16.81Zm-.45,1.12c-2.85,0-5.13,2.64-5.13,7.51,0,4.72,2.14,8.56,5.85,8.56,2.81,0,5-2.46,5-7.5C121.87,21.05,119.45,17.93,116.18,17.93Z"/><path class="cls-2" d="M138.06,25.12c2.75.49,4.79,1.8,4.79,4.38a4.77,4.77,0,0,1-2.6,4.12,10,10,0,0,1-5,1.11H128v-.92c2.16-.21,2.34-.38,2.34-2.6V20.73c0-2.26-.31-2.48-2.32-2.63v-.92h7.81a7.64,7.64,0,0,1,4.33.95,3.48,3.48,0,0,1,1.63,3C141.83,23.48,139.73,24.76,138.06,25.12Zm-3.31-.34c2.7,0,3.74-1.13,3.74-3.21a3,3,0,0,0-3.27-3.28,2.72,2.72,0,0,0-1.36.24c-.27.18-.28.44-.28,1.11v5.14Zm-1.17,6.37c0,2,.74,2.5,2.36,2.48s3.37-1.25,3.37-3.88-1.54-3.88-4.66-3.88h-1.07Z"/><path class="cls-2" d="M155,25.12c2.75.49,4.78,1.8,4.78,4.38a4.77,4.77,0,0,1-2.6,4.12,10,10,0,0,1-5,1.11h-7.24v-.92c2.16-.21,2.35-.38,2.35-2.6V20.73c0-2.26-.32-2.48-2.33-2.63v-.92h7.81a7.64,7.64,0,0,1,4.33.95,3.48,3.48,0,0,1,1.63,3C158.73,23.48,156.64,24.76,155,25.12Zm-3.32-.34c2.71,0,3.75-1.13,3.75-3.21a3,3,0,0,0-3.28-3.28,2.72,2.72,0,0,0-1.36.24c-.26.18-.28.44-.28,1.11v5.14Zm-1.17,6.37c0,2,.75,2.5,2.36,2.48s3.37-1.25,3.37-3.88-1.54-3.88-4.66-3.88h-1.07Z"/><path class="cls-2" d="M177.41,18.1c-1.78.19-2.3.54-3.31,2.22s-1.95,3.39-3.27,6a2.81,2.81,0,0,0-.33,1.49v3.33c0,2.32.22,2.42,2.54,2.68v.92h-8.26v-.92c2.25-.28,2.44-.36,2.44-2.68V27.9a2.46,2.46,0,0,0-.38-1.36c-.84-1.65-1.82-3.42-3.38-6.15-1-1.78-1.37-2.12-3-2.29v-.92h7.46v.92c-1.85.25-1.78.6-1.31,1.54,1,1.86,2.17,4.12,3.24,6.11.86-1.62,2.24-4.33,3-5.92.55-1.18.38-1.5-1.63-1.73v-.92h6.22Z"/><polygon class="cls-3" points="13.46 0 54.93 0 52.05 6.16 51.38 3.61 49.51 5.65 46.14 1.22 45.98 4.64 46.83 11.12 44.02 16.4 37.93 10.98 39.5 9.21 36.5 9.39 28.03 3.65 31 8.56 34 11.15 31 11.74 35.29 12.11 34.43 18.85 24.72 16.04 33.72 20.91 34.75 29.66 20.14 25.02 13.14 11.55 13.46 0"/><polygon class="cls-4" points="17.47 0.07 8.7 0 0.1 0 0.1 5.64 0.1 15.31 0.16 50.85 15.37 50.85 16.71 50.91 24.11 50.85 27.87 50.85 23.57 38.45 31.14 48.1 35.47 42.86 33.73 34.06 20.8 26.33 27.73 23.39 38.77 29.85 38.27 20.09 40.3 32.37 46.41 37.44 47.05 26.02 36.67 11.26 17.47 0.07"/><polygon class="cls-5" points="15.96 50.85 8.2 44.23 17.33 33.26 26.21 31.63 16.26 29.08 9.22 34.59 10.2 19.43 3.9 21.83 0.16 40.63 0.16 50.85 15.96 50.85"/></g></g></g></svg>