<svg xmlns="http://www.w3.org/2000/svg" viewBox="0 0 54.83 50.91"><defs><style>.cls-1{fill:#0b514c;}.cls-2{fill:#0b3b3d;}.cls-3{fill:#072f33;}</style></defs><title>ToLobbyIcon</title><g id="Layer_2" data-name="Layer 2"><g id="MISC"><g id="ToLobby"><polygon class="cls-1" points="13.36 0 54.83 0 51.95 6.16 51.28 3.61 49.41 5.65 46.04 1.22 45.88 4.64 46.73 11.12 43.92 16.4 37.83 10.98 39.4 9.21 36.4 9.39 27.93 3.65 30.9 8.56 33.9 11.15 30.9 11.74 35.19 12.11 34.33 18.85 24.62 16.04 33.62 20.91 34.65 29.66 20.04 25.02 13.04 11.55 13.36 0"/><polygon class="cls-2" points="17.37 0.07 8.6 0 0 0 0 5.64 0 15.31 0.06 50.85 15.27 50.85 16.61 50.91 24 50.85 27.77 50.85 23.47 38.45 31.04 48.1 35.37 42.86 33.63 34.06 20.7 26.33 27.63 23.39 38.67 29.85 38.17 20.09 40.2 32.37 46.31 37.44 46.95 26.02 36.57 11.26 17.37 0.07"/><polygon class="cls-3" points="15.86 50.85 8.1 44.23 17.23 33.26 26.11 31.63 16.16 29.08 9.12 34.59 10.1 19.43 3.8 21.83 0.06 40.63 0.06 50.85 15.86 50.85"/></g></g></g></svg>