<svg xmlns="http://www.w3.org/2000/svg" viewBox="0 0 113.56 92.06"><defs><style>.cls-1{fill:#124559;}.cls-2{font-size:43px;fill:#dddfd4;font-family:CalifornianFB-Bold, Californian FB;font-weight:700;}</style></defs><title>VP</title><g id="Layer_2" data-name="Layer 2"><g id="MISC"><g id="VP"><polygon class="cls-1" points="52.76 92.06 46.21 82.16 39.53 91.97 36.04 80.63 26.87 88.16 26.72 76.29 15.79 80.94 18.99 69.51 7.2 70.88 13.49 60.82 1.79 58.82 10.66 50.93 0 45.71 10.73 40.65 1.97 32.64 13.7 30.8 7.55 20.65 19.31 22.18 16.27 10.71 27.13 15.5 27.45 3.64 36.52 11.29 40.16 0 46.71 9.9 53.38 0.09 56.88 11.43 66.05 3.9 66.2 15.77 77.12 11.13 73.93 22.56 85.71 21.18 79.43 31.25 91.13 33.25 82.26 41.13 92.92 46.35 82.19 51.42 90.95 59.42 79.22 61.27 85.37 71.42 73.6 69.88 76.64 81.35 65.79 76.56 65.47 88.42 56.4 80.77 52.76 92.06"/><text id="VP-2" data-name="VP" class="cls-2" transform="translate(19.23 63.32)">VP</text></g></g></g></svg>