<svg xmlns="http://www.w3.org/2000/svg" viewBox="0 0 281.8 40.4"><defs><style>.cls-1,.cls-2{fill:none;}.cls-1{stroke:#5cc8e5;stroke-miterlimit:10;}</style></defs><title>Wave</title><g id="Layer_2" data-name="Layer 2"><g id="CAPTAIN_SHIPS"><g id="wave"><path class="cls-1" d="M91,31.13c4.54,0,4.54,4,9.09,4s4.54-4,9.09-4,4.54,4,9.09,4,4.54-4,9.09-4,4.54,4,9.08,4,4.55-4,9.09-4,4.55,4,9.09,4,4.55-4,9.1-4,4.54,4,9.09,4,4.54-4,9.09-4,4.55,4,9.1,4"/><path class="cls-1" d="M181.8,31.13c4.54,0,4.54,4,9.09,4s4.54-4,9.09-4,4.54,4,9.09,4,4.54-4,9.09-4,4.54,4,9.08,4,4.55-4,9.09-4,4.55,4,9.09,4,4.55-4,9.1-4,4.54,4,9.09,4,4.54-4,9.09-4,4.55,4,9.1,4"/><path class="cls-1" d="M0,31.13c4.54,0,4.54,4,9.09,4s4.54-4,9.09-4,4.54,4,9.09,4,4.54-4,9.09-4,4.54,4,9.08,4,4.55-4,9.09-4,4.55,4,9.09,4,4.55-4,9.1-4,4.54,4,9.09,4,4.54-4,9.09-4,4.55,4,9.1,4"/><rect class="cls-2" width="281.8" height="40.4"/></g></g></g></svg>