<svg xmlns="http://www.w3.org/2000/svg" viewBox="0 0 839.47 54"><defs><style>.cls-1{fill:#124559;}.cls-2{fill:#c4c6b5;}</style></defs><title>YourGames</title><g id="Layer_2" data-name="Layer 2"><g id="LOBBY_SECTIONS"><g id="YourGames"><rect class="cls-1" width="839.47" height="54"/><path class="cls-2" d="M310.54,15.79c-2.68.3-3.65.88-5.16,3.45s-2.82,4.91-4.88,9.11a4.35,4.35,0,0,0-.46,2.23v5.21c0,3.65.34,3.78,3.78,4.2v1.55H290.55V40c3.32-.42,3.61-.55,3.61-4.2V31A3.71,3.71,0,0,0,293.7,29c-1.22-2.48-2.77-5.29-5.29-9.7-1.56-2.73-2.19-3.28-4.63-3.53V14.24h12.31v1.55c-2.81.38-2.73.93-2,2.39,1.38,2.74,3.19,6.1,4.79,9.16,1.26-2.35,3.27-6.38,4.45-8.95.8-1.67.46-2.22-2.56-2.6V14.24h9.78Z"/><path class="cls-2" d="M325.49,13.65c7.78,0,14.12,5.67,14.12,13.94,0,9-6.39,14.58-14.33,14.58-8.4,0-14.49-6.13-14.49-14.24C310.79,20.75,315.92,13.65,325.49,13.65Zm-.63,1.85c-4.28,0-7.43,4.2-7.43,11.63,0,7.1,2.81,13.19,8.48,13.19,4,0,7.1-3.86,7.1-11.55C333,20.45,329.74,15.5,324.86,15.5Z"/><path class="cls-2" d="M372.2,15.79c-2.69.25-3.4,1.05-3.57,2.56a52.26,52.26,0,0,0-.21,5.63v5.51c0,3.61-.59,7.26-3,9.78a10.89,10.89,0,0,1-7.9,2.9A12,12,0,0,1,350,40c-2.44-1.85-3.61-4.41-3.61-9.12V20.24c0-3.86-.38-4.15-3.57-4.45V14.24h13v1.55c-3.15.3-3.53.59-3.53,4.45V31.42c0,4.7,2.31,7.81,6.8,7.81,5,0,7.19-3.7,7.19-10V24c0-2.9-.13-4.41-.21-5.67-.17-1.93-1.35-2.35-4.29-2.52V14.24H372.2Z"/><path class="cls-2" d="M400.72,41.79c-.26,0-.76,0-1.26,0-5.34-.25-6.89-1.38-8.15-3.15A76,76,0,0,1,387,31.21a2.36,2.36,0,0,0-2.56-1.39l-.84,0v6.13c0,3.4.42,3.7,3.57,4.08v1.55H374.29V40c3.2-.34,3.57-.68,3.57-4.08V19.82c0-3.31-.42-3.78-3.57-4V14.24h12.19c3.73,0,5.88.42,7.6,1.59a6.43,6.43,0,0,1,2.81,5.59c0,3.74-2.47,5.71-5.25,6.8.63,1.27,2.27,4,3.53,5.93a35.33,35.33,0,0,0,3.19,4.37A5.21,5.21,0,0,0,401,40.37Zm-16-13.73A6.23,6.23,0,0,0,388.83,27a6,6,0,0,0,2-4.92c0-4.45-2.56-6.05-4.91-6.05-1.14,0-1.68.17-1.93.42s-.38.76-.38,1.6v10Z"/><path class="cls-2" d="M439.19,30c-2.4.42-2.69.59-2.69,3.45v3.23a23.92,23.92,0,0,0,.25,4.08,65,65,0,0,1-10.16,1.38c-9.88,0-15.55-6-15.55-14.32,0-9.46,7.69-14.2,16.64-14.2a68,68,0,0,1,8.48,1c.09,1.85.42,5.05.72,7.36l-1.64.29c-1-3.57-2.56-5.38-5.17-6.26a12.47,12.47,0,0,0-3.57-.5c-5.08,0-8.9,4.41-8.9,11.63,0,7.4,2.6,13.24,9.49,13.24a5.51,5.51,0,0,0,2.69-.59c.63-.38,1-1.1,1-2.4V33.69c0-2.94-.59-3.24-4.12-3.66V28.48h12.56Z"/><path class="cls-2" d="M456.7,41.54V40c2.65-.38,2.65-.84,2.06-2.65-.42-1.26-1.09-3.15-1.72-4.83h-8.2c-.46,1.3-1,2.9-1.47,4.2-.88,2.65.13,3,3.45,3.28v1.55H440.44V40c2.65-.34,3.32-.72,4.75-4.25L453.93,14l2-.38c2.69,7.31,5.55,14.78,8.28,21.8,1.55,3.91,1.93,4.2,4.66,4.54v1.55ZM453,21.46c-1.22,3-2.39,5.84-3.44,8.91h6.68Z"/><path class="cls-2" d="M492,41.54V40c3.19-.34,3.4-.63,3.4-4.41l0-16.39c-3,7.23-6.34,15.21-9.37,22.35h-1.38c-2.73-6.85-5.71-14.66-8.74-22-.55,13.19-.55,15.79-.55,17.31.05,2.26.89,2.85,4,3.15v1.55H468.92V40c2.39-.21,3.49-.68,3.82-3.2.17-1.26.34-3.65,1.3-17.51.13-2-.16-3.15-3.78-3.49V14.24h9.08l8.1,18.52,8.15-18.52h8.87v1.55c-3.36.34-3.74.67-3.66,4l.34,15.76c0,3.78.21,3.94,3.61,4.41v1.55Z"/><path class="cls-2" d="M530.92,34.4c-.21,1.13-1.39,6-1.77,7.14h-21.8V40c3.82-.38,4.07-.59,4.07-4.12v-16c0-3.57-.5-3.83-3.36-4.08V14.24h13.66c4.41,0,5.88-.05,6.46-.09.05.76.26,4.2.42,6.81l-1.63.21a10.69,10.69,0,0,0-1.81-3.91c-.76-.84-1.3-1.09-3.44-1.09H519c-1.6,0-1.77.08-1.77,1.51v8.78h4.12c2.35,0,2.77-.63,3.4-3.61h1.64v9.37h-1.64c-.67-3.11-1-3.62-3.45-3.62h-4.07v7.23c0,2.9.08,3.78,2.69,3.82h3c2.35,0,3-.29,3.91-1.43a18.67,18.67,0,0,0,2.56-4.2Z"/><path class="cls-2" d="M549.73,21.17c-.84-2.69-2-5.76-5.88-5.76a3.87,3.87,0,0,0-4,4.08c0,2.31,1.55,3.69,5.25,5.54,4.49,2.23,7.35,4.41,7.35,8.57,0,5-4.12,8.57-10.13,8.57a24.2,24.2,0,0,1-7-1.3c-.26-1-1-5.34-1.26-7.31l1.63-.38c.85,2.65,3.2,7.23,7.31,7.23,2.57,0,4.12-1.6,4.12-4.29,0-2.43-1.51-3.86-5-5.75-4.37-2.36-7.23-4.46-7.23-8.82s3.45-7.9,9.75-7.9a31.81,31.81,0,0,1,6,.75c.17,1.56.46,3.74.8,6.39Z"/><g id="wheel"><path class="cls-2" d="M248.12,9.81A17.19,17.19,0,1,0,265.31,27,17.19,17.19,0,0,0,248.12,9.81Zm0,31.43A14.24,14.24,0,1,1,262.36,27,14.25,14.25,0,0,1,248.12,41.24Z"/><circle class="cls-2" cx="248.12" cy="27" r="2.76"/><path class="cls-2" d="M248.11,25.44c-.34,0-.73-.46-.69-.65a10.84,10.84,0,0,0-.29-5.17,8.69,8.69,0,0,1,0-6.36,17.11,17.11,0,0,0,.3-2.91A31.16,31.16,0,0,0,246.93,6a.7.7,0,0,1,.7-.77h.83a.69.69,0,0,1,.69.77,33.62,33.62,0,0,0-.64,4.41,11.19,11.19,0,0,0,.17,2.88c1.18,2.05.77,4.43.37,6.34a37.33,37.33,0,0,0-.24,5.18A.87.87,0,0,1,248.11,25.44Z"/><path class="cls-2" d="M247,28.11a.81.81,0,0,1,0,.95,10.73,10.73,0,0,0-3.44,3.86c-1,1.75-2,3.4-4.52,4.48a17.87,17.87,0,0,0-2.27,1.84,32,32,0,0,0-2.71,3.46.71.71,0,0,1-1,0l-.59-.59a.69.69,0,0,1,.05-1,29.56,29.56,0,0,0,3.57-2.67c.31-.32,1.78-1.64,1.92-2.16.62-2.28,2.59-3.67,4.23-4.74a36,36,0,0,0,3.83-3.49A.85.85,0,0,1,247,28.11Z"/><path class="cls-2" d="M248.13,28.56c.35,0,.73.46.69.65a11,11,0,0,0,.29,5.17,8.69,8.69,0,0,1,0,6.36,18.19,18.19,0,0,0-.3,2.91,31.16,31.16,0,0,0,.52,4.36.69.69,0,0,1-.69.77h-.84a.69.69,0,0,1-.69-.77,30.55,30.55,0,0,0,.64-4.41,11.19,11.19,0,0,0-.17-2.88c-1.17-2-.77-4.43-.36-6.34a35.71,35.71,0,0,0,.23-5.18A.87.87,0,0,1,248.13,28.56Z"/><path class="cls-2" d="M249.23,28.1a.81.81,0,0,1,1,0A11,11,0,0,0,254,31.52,8.71,8.71,0,0,1,258.53,36a17.87,17.87,0,0,0,1.84,2.27A31,31,0,0,0,263.82,41a.7.7,0,0,1,.05,1l-.59.59a.69.69,0,0,1-1,0A30.37,30.37,0,0,0,259.58,39c-.32-.31-1.64-1.78-2.16-1.92-2.27-.62-3.67-2.59-4.74-4.23A37,37,0,0,0,249.19,29,.85.85,0,0,1,249.23,28.1Z"/><path class="cls-2" d="M249.68,27c0-.34.46-.73.65-.69A11,11,0,0,0,255.5,26a8.69,8.69,0,0,1,6.36,0,17.11,17.11,0,0,0,2.91.3,31.16,31.16,0,0,0,4.36-.52.7.7,0,0,1,.77.69v.84a.69.69,0,0,1-.77.69,32.09,32.09,0,0,0-4.4-.64,11.24,11.24,0,0,0-2.89.17c-2,1.18-4.43.77-6.34.36a37.19,37.19,0,0,0-5.18-.23A.87.87,0,0,1,249.68,27Z"/><path class="cls-2" d="M249.22,25.89a.81.81,0,0,1,0-.95,10.88,10.88,0,0,0,3.45-3.86,8.69,8.69,0,0,1,4.51-4.48,17.87,17.87,0,0,0,2.27-1.84,32,32,0,0,0,2.71-3.46.71.71,0,0,1,1-.05l.59.59a.69.69,0,0,1-.05,1,30.37,30.37,0,0,0-3.57,2.67c-.31.32-1.78,1.64-1.92,2.16-.62,2.28-2.59,3.67-4.23,4.74a35.78,35.78,0,0,0-3.82,3.49A.87.87,0,0,1,249.22,25.89Z"/><path class="cls-2" d="M246.56,27c0,.34-.46.73-.65.69a11,11,0,0,0-5.17.29,8.69,8.69,0,0,1-6.36,0,17.11,17.11,0,0,0-2.91-.3,31.16,31.16,0,0,0-4.36.52.7.7,0,0,1-.77-.69v-.84a.69.69,0,0,1,.77-.69,32,32,0,0,0,4.41.64,11.19,11.19,0,0,0,2.88-.17c2-1.18,4.43-.77,6.34-.36a37.19,37.19,0,0,0,5.18.23A.87.87,0,0,1,246.56,27Z"/><path class="cls-2" d="M247,25.9a.81.81,0,0,1-.95,0,10.88,10.88,0,0,0-3.86-3.45A8.69,8.69,0,0,1,237.72,18a17.87,17.87,0,0,0-1.84-2.27A31.93,31.93,0,0,0,232.43,13a.7.7,0,0,1-.06-1l.59-.59a.69.69,0,0,1,1,.05A32.77,32.77,0,0,0,236.66,15c.32.31,1.64,1.78,2.16,1.92,2.28.62,3.67,2.59,4.74,4.23A37,37,0,0,0,247.05,25,.85.85,0,0,1,247,25.9Z"/></g><g id="wheel-2" data-name="wheel"><path class="cls-2" d="M590.7,9.81A17.19,17.19,0,1,0,607.89,27,17.19,17.19,0,0,0,590.7,9.81Zm0,31.43A14.24,14.24,0,1,1,604.94,27,14.25,14.25,0,0,1,590.7,41.24Z"/><circle class="cls-2" cx="590.7" cy="27" r="2.76"/><path class="cls-2" d="M590.69,25.44c-.34,0-.73-.46-.69-.65a11,11,0,0,0-.29-5.17,8.69,8.69,0,0,1,0-6.36,17.11,17.11,0,0,0,.3-2.91A31.16,31.16,0,0,0,589.51,6a.7.7,0,0,1,.69-.77H591a.69.69,0,0,1,.69.77,32,32,0,0,0-.64,4.41,11.19,11.19,0,0,0,.17,2.88c1.18,2.05.77,4.43.36,6.34a37.19,37.19,0,0,0-.23,5.18A.87.87,0,0,1,590.69,25.44Z"/><path class="cls-2" d="M589.6,28.11a.81.81,0,0,1,0,.95,10.88,10.88,0,0,0-3.45,3.86,8.69,8.69,0,0,1-4.51,4.48,17.87,17.87,0,0,0-2.27,1.84,32,32,0,0,0-2.71,3.46.71.71,0,0,1-1,0l-.59-.59a.69.69,0,0,1,.05-1,30.37,30.37,0,0,0,3.57-2.67c.31-.32,1.78-1.64,1.92-2.16.62-2.28,2.59-3.67,4.23-4.74a37,37,0,0,0,3.83-3.49A.85.85,0,0,1,589.6,28.11Z"/><path class="cls-2" d="M590.71,28.56c.35,0,.73.46.69.65a11,11,0,0,0,.29,5.17,8.69,8.69,0,0,1,0,6.36,17.11,17.11,0,0,0-.3,2.91,31.16,31.16,0,0,0,.52,4.36.7.7,0,0,1-.69.77h-.84a.69.69,0,0,1-.69-.77,32,32,0,0,0,.64-4.41,11.19,11.19,0,0,0-.17-2.88c-1.17-2-.77-4.43-.36-6.34A35.71,35.71,0,0,0,590,29.2.87.87,0,0,1,590.71,28.56Z"/><path class="cls-2" d="M591.81,28.1a.81.81,0,0,1,1,0,10.88,10.88,0,0,0,3.86,3.45A8.69,8.69,0,0,1,601.1,36a17.87,17.87,0,0,0,1.84,2.27A32,32,0,0,0,606.4,41a.71.71,0,0,1,.05,1l-.59.59a.69.69,0,0,1-1,0A30.37,30.37,0,0,0,602.16,39c-.32-.31-1.64-1.78-2.16-1.92-2.27-.62-3.67-2.59-4.74-4.23A37,37,0,0,0,591.77,29,.85.85,0,0,1,591.81,28.1Z"/><path class="cls-2" d="M592.26,27c0-.34.46-.73.65-.69a11,11,0,0,0,5.17-.29,8.69,8.69,0,0,1,6.36,0,17.11,17.11,0,0,0,2.91.3,31.16,31.16,0,0,0,4.36-.52.7.7,0,0,1,.77.69v.84a.69.69,0,0,1-.77.69,32,32,0,0,0-4.41-.64,11.19,11.19,0,0,0-2.88.17c-2,1.18-4.43.77-6.34.36a37.19,37.19,0,0,0-5.18-.23A.87.87,0,0,1,592.26,27Z"/><path class="cls-2" d="M591.8,25.89a.81.81,0,0,1,0-.95,10.88,10.88,0,0,0,3.45-3.86,8.69,8.69,0,0,1,4.51-4.48A17.87,17.87,0,0,0,602,14.76a32,32,0,0,0,2.71-3.46.71.71,0,0,1,1-.05l.59.59a.69.69,0,0,1-.05,1,30.37,30.37,0,0,0-3.57,2.67c-.31.32-1.78,1.64-1.92,2.16-.62,2.28-2.59,3.67-4.23,4.74a37,37,0,0,0-3.83,3.49A.85.85,0,0,1,591.8,25.89Z"/><path class="cls-2" d="M589.14,27c0,.34-.46.73-.65.69a11,11,0,0,0-5.17.29A8.69,8.69,0,0,1,577,28a17.11,17.11,0,0,0-2.91-.3,31.16,31.16,0,0,0-4.36.52.7.7,0,0,1-.77-.69v-.84a.69.69,0,0,1,.77-.69,32,32,0,0,0,4.41.64,11.19,11.19,0,0,0,2.88-.17c2-1.18,4.43-.77,6.34-.36a37.19,37.19,0,0,0,5.18.23A.87.87,0,0,1,589.14,27Z"/><path class="cls-2" d="M589.59,25.9a.81.81,0,0,1-1,0,10.88,10.88,0,0,0-3.86-3.45A8.69,8.69,0,0,1,580.3,18a17.87,17.87,0,0,0-1.84-2.27A32,32,0,0,0,575,13a.71.71,0,0,1,0-1l.59-.59a.69.69,0,0,1,1,.05A31.53,31.53,0,0,0,579.24,15c.32.31,1.64,1.78,2.16,1.92,2.28.62,3.67,2.59,4.74,4.23A37,37,0,0,0,589.63,25,.85.85,0,0,1,589.59,25.9Z"/></g></g></g></g></svg>