<svg xmlns="http://www.w3.org/2000/svg" viewBox="0 0 176.37 176.37">
  <defs>
    <style>
      .cls-1 {
        fill: #e8edf3;
      }
      .cls-2 {
        fill: #124559;
      }
      .cls-3 {
        fill: #296a75;
      }
      .cls-4 {
        fill: #274b51;
      }
      .cls-5 {
        fill: #3f7b89;
      }
      .cls-6 {
        fill: #ffecd4;
      }
    </style>
  </defs>
  <title>builder_icon</title>
  <g id="Layer_2" data-name="Layer 2">
    <g id="ROLE_ICONS" data-name="ROLE ICONS">
      <g id="builder_icon">
        <circle class="cls-1" cx="88.19" cy="88.19" r="88.19" />
        <g id="tools">
          <path
            class="cls-2"
            d="M106,80.43c-4.41-4.11-5.06-3.54-8.65.31,0,0-20.25,20.32-29.82,30.6a214,214,0,0,0-14.6,17.14,6.11,6.11,0,0,0,.31,8.65h0a6.11,6.11,0,0,0,8.65-.31s4.65-3.54,16.17-15.93,28.25-31.81,28.25-31.81C110.1,85,110.19,84.37,106,80.43Z" />
          <path
            class="cls-2"
            d="M103.44,84.12,102.26,83a.64.64,0,0,1,0-.9L107,77a.62.62,0,0,0,.09-.74l-1-1.88a.64.64,0,0,1,.1-.74l24.4-26.22a.63.63,0,0,1,.9,0c.74,1.1.74,1.92,2.21,3.29s2.29,1.31,3.44,2a.64.64,0,0,1,0,.9L112.87,79.6a.65.65,0,0,1-.7.16l-2.39-.94a.63.63,0,0,0-.69.16l-4.75,5.1A.63.63,0,0,1,103.44,84.12Z" />
          <path
            class="cls-2"
            d="M75.53,63,50.4,84.18s.9,1-4.64,5.69-7.31,5.1-11.71-.1l-2.13-2.52c-3.71-4.39-.83-6.73,3.74-10.6s6.49-3.19,6.49-3.19L73.22,46.18c2.2-1.86,7.31-4.56,14.3-1.83V49C68.09,45.66,74.57,61.62,75.53,63Z" />
          <path
            class="cls-2"
            d="M127.87,131.47l-10,8.47a1.94,1.94,0,0,1-2.74-.23L53.57,64a1.94,1.94,0,0,1,.22-2.74l5.7-4.81a1.94,1.94,0,0,1,2.74.22l65.87,72.11A2,2,0,0,1,127.87,131.47Z" />
        </g>
        <g id="ribbon">
          <path
            id="ribbon-element5"
            class="cls-3"
            d="M28,134.13l.73-.78a6.59,6.59,0,0,1,1.62-1.45c1.1-.74,2.86-2.94,5.84-3.24a4,4,0,0,1,2,.48,7.65,7.65,0,0,0,.71,3.1c0,.74,0,1.61,0,2.54-.1,4.64-.22,10.83-.22,10.83l-1.12,0-1.11,0a7,7,0,0,0-2.76,0,6.87,6.87,0,0,0-.81.22c-1.67-.88-3.43,2.63-5.18,2.63,1.75-1.76,0-5.27,2.88-7,.23-.25.49-.51.75-.77A24.38,24.38,0,0,0,33.68,138l.47-.63s-1-2.18-2.27-2.73A13.16,13.16,0,0,0,28,134.13Z" />
          <path
            id="ribbon-element4"
            class="cls-3"
            d="M148.69,134.72c-3.27-2.07-3.59-4.09-8.25-4.05a4.15,4.15,0,0,1-.88-.11,2.08,2.08,0,0,1-1.32-.89c-.28,0-.54,0-.79,0s-.46,0-.66.06l.34,15.85.65-.14.63-.11,1.05-.15,1-.19c1.41-.06,6.68-1.82,6.68,3.45,1.76-3.51-1.49-7.23-2.11-8.2a7.8,7.8,0,0,0-.66-.76,16.12,16.12,0,0,0-2.51-2.1h0a9.13,9.13,0,0,1,1.08-1.18c.26-.22,1.15-1.47,4.86-1.66A7.58,7.58,0,0,1,148.69,134.72Z" />
          <path
            id="ribbon-element1"
            class="cls-4"
            d="M38.67,145.61l-1.62-3.55,2.16-.25Z" />
          <path
            id="ribbon-element3"
            class="cls-4"
            d="M137.13,145.61l1.53-3.55-2.19-.82Z" />
          <path
            id="ribbon-element2"
            class="cls-5"
            d="M138.66,142.06s-2.65-.32-6.94-.77l-2.28-.24c-1.37-.27-2.68-.49-4-.67l-1.89-.24a8.47,8.47,0,0,1-2,.16,15,15,0,0,1-2.07-.22,12.7,12.7,0,0,0-7-1.17c-.8.06-1.62.16-2.43.24-6.84.53-12.11-3-19.31-.64l-1.47,0H85.7c-2-.22-4.22-.35-6.52-.41l-2.31,0a79.78,79.78,0,0,0-11.27.29c-.67,0-1.34,0-2,0a47.16,47.16,0,0,0-14.79,2.47l-2.52.25c-5.61.57-9.22,1-9.22,1,0-2.85.83-4.94.9-8.4a22.06,22.06,0,0,0-.05-2.26c.33-4-1.43-7.53.33-9.29a33.21,33.21,0,0,0,5.39-.3l1.46-.16,2.54-.25c6.42-2.8,15.21-1.05,21.67-1.43.53,0,1-.07,1.58-.09,6.86-.33,13.13-.53,17-.53,3.7,0,7.48.09,11.24.24l2.27.07c8.91.69,17.69.69,26.26,2.91l1.62.17a25.7,25.7,0,0,0,6.39-.18l2.24.27.78.1c0,.07-.85,6.83-.85,9.56A87.4,87.4,0,0,0,138.66,142.06Z" />
          <path
            class="cls-6"
            d="M73,131.53a2.4,2.4,0,0,1-.75,1.94,3.94,3.94,0,0,1-2.51,1l-1.15.07c-.65,0-1.12.07-1.43.1l-1.14.12s-.06,0-.06,0l0-.26a.07.07,0,0,1,.06-.08l1-.11c.13,0,.18-.1.17-.28s-.06-.79-.17-2.21-.18-2.19-.19-2.33l-.2-3c-.1-.91-.23-1.36-.38-1.34l-1.16.12s-.06,0-.07-.07V125s0-.07.07-.07l2.28-.24.81-.09.84-.1.74-.07a3.79,3.79,0,0,1,1,.09,2.23,2.23,0,0,1,1,.61,1.87,1.87,0,0,1,.53,1.29,2.2,2.2,0,0,1-.16,1A4.1,4.1,0,0,1,70.64,129c-.1.06-.1.1,0,.12a3.89,3.89,0,0,1,1.54.72A2,2,0,0,1,73,131.53Zm-1.83-4.45a2.17,2.17,0,0,0-.77-1.59,2.44,2.44,0,0,0-1.89-.53,3.52,3.52,0,0,0-.67.11.19.19,0,0,0-.12.16c0,.09.07,1.36.22,3.81,0,.09,0,.14.1.13l.3,0,.65-.07.58,0h.54a.32.32,0,0,0,.19-.07,1.68,1.68,0,0,0,.65-.76A2.4,2.4,0,0,0,71.15,127.08Zm.57,4.74a2.19,2.19,0,0,0-.77-1.64,3.41,3.41,0,0,0-2.64-.72.81.81,0,0,0-.29.07s0,.07,0,.16l.2,3.22c.07.76.18,1.15.32,1.2a3.38,3.38,0,0,0,1.2,0,2.29,2.29,0,0,0,1.47-.61A2.19,2.19,0,0,0,71.72,131.82Z" />
          <path
            class="cls-6"
            d="M81.21,133.38a.11.11,0,0,1-.06.1l-.46.22-.23.15a.15.15,0,0,1-.13.06l-.2-.1a1.81,1.81,0,0,1-.67-1.07c0-.08-.08-.09-.15,0s-.61.44-1.35.92a3.35,3.35,0,0,1-1.52.35,1.14,1.14,0,0,1-1-.46,1.94,1.94,0,0,1-.39-1.12c-.05-1.16-.07-1.74-.12-2.9s-.18-1.84-.39-1.83l-.89.06c-.07,0-.11,0-.11-.07v-.24a.06.06,0,0,1,0-.08l.93-.06.38-.05.4,0,.49-.09c.08,0,.13.06.13.19s0,.76.07,2.25S76,131.83,76,132a1.19,1.19,0,0,0,.35.93,1.4,1.4,0,0,0,.91.19,6.31,6.31,0,0,0,2-.7s.07,0,.07-.13l-.1-3.77c0-.68-.13-1-.34-1l-.9,0c-.06,0-.09,0-.09-.07v-.24s0-.07.06-.07l1,0a5.22,5.22,0,0,0,.78-.08l.45-.08c.08,0,.11.07.12.21s0,.79,0,2.31,0,2.31,0,2.39a1.53,1.53,0,0,0,.71,1.43C81.18,133.3,81.21,133.34,81.21,133.38Z" />
          <path
            class="cls-6"
            d="M85.72,133.5c0,.05,0,.07-.09.07-1.41,0-2.11,0-3.52.08,0,0-.08,0-.08-.09v-.22c0-.07,0-.11.06-.11l1.07,0c.1,0,.14,0,.14-.15s0-.63,0-1.78,0-1.79,0-1.92c0-.76,0-1.21,0-1.36-.06-.45-.2-.68-.42-.68l-.75,0c-.08,0-.12,0-.12-.07V127c0-.07,0-.1.07-.1h.45q.7,0,1.35-.09l.45,0c.11,0,.17.07.17.22s0,.74,0,2.18,0,2.19,0,2.26c0,1.17.14,1.75.38,1.75l.9,0a.07.07,0,0,1,.08.08Zm-1.33-9.25a.87.87,0,0,1-.35.7,1,1,0,0,1-.59.26.43.43,0,0,1-.51-.46.92.92,0,0,1,.25-.59,1,1,0,0,1,.74-.36A.39.39,0,0,1,84.39,124.25Z" />
          <path
            class="cls-6"
            d="M89.87,133.5s0,.06-.08.06c-1.47,0-2.21,0-3.69,0-.06,0-.09,0-.09-.08v-.25c0-.06,0-.09.08-.09H87.3c.1,0,.15-.06.15-.17,0-3.24,0-4.87,0-8.11,0-1.08-.1-1.63-.3-1.63H86.2a.08.08,0,0,1-.09-.09v-.24c0-.07,0-.1.06-.1h.6a4.56,4.56,0,0,0,1.13-.15c.4-.09.57-.14.52-.14s.14.07.14.21,0,1.46,0,4.33-.06,4.36-.06,4.47c0,1.08.09,1.62.28,1.62h1.07c.06,0,.08,0,.08.08Z" />
          <path
            class="cls-6"
            d="M98.19,132.94c0,.09,0,.14-.07.15a17.32,17.32,0,0,0-1.65.58,3.42,3.42,0,0,0-.59.27c-.08,0-.11-.06-.11-.18s0-.14,0-.32,0-.29,0-.33a1.55,1.55,0,0,0,0-.44c0-.08-.07-.11-.16-.08-.29.21-.65.46-1.05.72a2.85,2.85,0,0,1-1.65.38,2.15,2.15,0,0,1-1-.25,2.41,2.41,0,0,1-1-1.12,4.88,4.88,0,0,1-.4-2,3.54,3.54,0,0,1,.95-2.68,2.88,2.88,0,0,1,2.11-.73,3.63,3.63,0,0,1,1.21.22,7.31,7.31,0,0,1,1,.49c.07,0,.1,0,.11-.12s0-.51,0-1.38,0-1.33,0-1.41c0-.86-.06-1.29-.26-1.3l-1.07,0c-.05,0-.08,0-.08-.09v-.19c0-.07,0-.11.09-.11h.36a4.56,4.56,0,0,0,1.66-.18,2.29,2.29,0,0,1,.42-.14c.06,0,.09.06.09.19s0,.32,0,.92,0,1,0,1.08c-.08,2.73-.12,4.1-.19,6.83,0,1,0,1.43.25,1.38l.75-.22a1.49,1.49,0,0,1,.33-.09S98.19,132.82,98.19,132.94Zm-2.37-1.07s0-.21,0-.75,0-1,0-1.45a7.45,7.45,0,0,0-.09-1.53.46.46,0,0,0-.22-.31,4.05,4.05,0,0,0-1.85-.47,1.94,1.94,0,0,0-1.6.55,3.16,3.16,0,0,0-.69,2.16,3.35,3.35,0,0,0,.2,1.17A2.84,2.84,0,0,0,92,132a2,2,0,0,0,.68.6,2.57,2.57,0,0,0,1,.2,3.35,3.35,0,0,0,2-.61C95.78,132.16,95.81,132.05,95.82,131.87Z" />
          <path
            class="cls-6"
            d="M104.4,133.21l0,0a4.57,4.57,0,0,1-.4.3,4.38,4.38,0,0,1-.76.33,4.24,4.24,0,0,1-1.64.22,2.93,2.93,0,0,1-2-.88,3.09,3.09,0,0,1-.87-2.3,6.47,6.47,0,0,1,.15-1.38,3.28,3.28,0,0,1,1-1.66,2.62,2.62,0,0,1,1.93-.61,2,2,0,0,1,.89.23,8.36,8.36,0,0,1,.84.6,2.78,2.78,0,0,1,.9,1.08.44.44,0,0,1,0,.23c0,.06,0,.1-.14.12a14.43,14.43,0,0,1-1.69.23,17,17,0,0,1-2.12.14h-.36l-.36,0c-.06,0-.09.11-.1.34a3.15,3.15,0,0,0,1,2.52,3.22,3.22,0,0,0,1.95.64,3.82,3.82,0,0,0,1.17-.07,1.22,1.22,0,0,0,.45-.18l.06,0a.06.06,0,0,1,.06.05Zm-1.2-4a.44.44,0,0,0-.07-.19,3.25,3.25,0,0,0-.77-1,2,2,0,0,0-1.12-.44,1.14,1.14,0,0,0-.93.51,2.86,2.86,0,0,0-.37.62,2.22,2.22,0,0,0-.22.72.1.1,0,0,0,.09.12s.38,0,1.29,0a7.77,7.77,0,0,0,2-.21C103.15,129.33,103.19,129.29,103.2,129.23Z" />
          <path
            class="cls-6"
            d="M110.37,128.77a6.07,6.07,0,0,1-.3.88c0,.07-.07.1-.11.1a.15.15,0,0,1-.13-.09,1.89,1.89,0,0,0-.32-.4,1.24,1.24,0,0,0-.74-.3,1.89,1.89,0,0,0-1.3.22.26.26,0,0,0-.09.19s0,.59-.11,1.67-.1,1.66-.11,1.72c0,.86,0,1.29.17,1.31l1.45.14c.06,0,.09,0,.09.11l0,.21c0,.05,0,.07-.07.06-1.51-.15-2.27-.22-3.78-.35-.07,0-.1,0-.1-.08V134c0-.06,0-.1.09-.09l.9.08a.13.13,0,0,0,.15-.13c.11-1.9.16-2.85.27-4.75,0-.66,0-1-.19-1l-.93-.08a.08.08,0,0,1-.07-.09v-.23c0-.05,0-.08.08-.07l1,.09a3.55,3.55,0,0,0,.7,0,2.76,2.76,0,0,1,.46-.07c.07,0,.1.07.09.2s0,.18,0,.43,0,.39,0,.42,0,.18.08.13c.24-.17.52-.37.83-.56a1.77,1.77,0,0,1,1.1-.27,1.12,1.12,0,0,1,.91.59A.23.23,0,0,1,110.37,128.77Z" />
        </g>
      </g>
    </g>
  </g>
</svg>
