<svg xmlns="http://www.w3.org/2000/svg" viewBox="0 0 107.12 97.22"><defs><style>.cls-1{fill:#c4c6b5;}</style></defs><title>BuilderIcon</title><g id="Layer_2" data-name="Layer 2"><g id="ROLE_ICONS" data-name="ROLE ICONS"><g id="builder_icon"><g id="tools"><path class="cls-1" d="M75.74,37.25c-4.42-4.11-5.07-3.55-8.66.31,0,0-20.25,20.31-29.82,30.59a216.17,216.17,0,0,0-14.6,17.14A6.11,6.11,0,0,0,23,93.94h0a6.11,6.11,0,0,0,8.65-.31s4.65-3.54,16.17-15.93S76.05,45.9,76.05,45.9C79.88,41.78,80,41.18,75.74,37.25Z"/><path class="cls-1" d="M73.22,40.93,72,39.83a.64.64,0,0,1,0-.9l4.81-5.16a.63.63,0,0,0,.09-.75l-1-1.88A.62.62,0,0,1,76,30.4l24.4-26.22a.63.63,0,0,1,.9,0c.74,1.09.74,1.91,2.21,3.28s2.29,1.31,3.44,2a.63.63,0,0,1,0,.9L82.65,36.41a.64.64,0,0,1-.7.16l-2.38-.93a.62.62,0,0,0-.7.16l-4.75,5.1A.64.64,0,0,1,73.22,40.93Z"/><path class="cls-1" d="M45.31,19.78,20.18,41s.9,1-4.64,5.69-7.31,5.1-11.71-.1L1.7,44.06C-2,39.67.87,37.33,5.44,33.46s6.49-3.19,6.49-3.19L43,3c2.2-1.86,7.31-4.56,14.31-1.83V5.84C37.87,2.47,44.35,18.43,45.31,19.78Z"/><path class="cls-1" d="M97.65,88.28l-10,8.48a2,2,0,0,1-2.74-.23L23.35,20.77A1.94,1.94,0,0,1,23.58,18l5.69-4.82a1.94,1.94,0,0,1,2.74.23l65.87,72.1A2,2,0,0,1,97.65,88.28Z"/></g></g></g></g></svg>