<svg xmlns="http://www.w3.org/2000/svg" viewBox="0 0 121.32 121.32"><defs><style>.cls-1{fill:#c4c6b5;}</style></defs><title>CaptainIcon</title><g id="Layer_2" data-name="Layer 2"><g id="ROLE_ICONS" data-name="ROLE ICONS"><g id="captain_icon"><g id="wheel"><path class="cls-1" d="M60.66,12.78a47.88,47.88,0,1,0,47.88,47.88A47.88,47.88,0,0,0,60.66,12.78Zm0,87.54a39.66,39.66,0,1,1,39.66-39.66A39.66,39.66,0,0,1,60.66,100.32Z"/><circle class="cls-1" cx="60.66" cy="60.66" r="7.7"/><path class="cls-1" d="M60.64,56.31c-1,0-2-1.28-1.93-1.81a30.35,30.35,0,0,0-.81-14.39C56.38,34.71,55,29.58,58,22.38c.49-1.2.81-6.95.84-8.09.13-4.1-1.07-8.47-1.45-12.14A1.94,1.94,0,0,1,59.28,0H61.6a1.94,1.94,0,0,1,1.94,2.13c-.42,3.58-1.89,8.16-1.79,12.28,0,1.26-.26,6.75.48,8,3.26,5.71,2.13,12.33,1,17.66-.84,4-.56,11.69-.66,14.42A2.4,2.4,0,0,1,60.64,56.31Z"/><path class="cls-1" d="M57.6,63.75a2.28,2.28,0,0,1,.09,2.65,30.31,30.31,0,0,0-9.61,10.75C45.34,82,42.67,86.62,35.5,89.64c-1.19.5-5.49,4.35-6.31,5.13-3,2.81-5.24,6.74-7.56,9.61a1.94,1.94,0,0,1-2.89.15l-1.64-1.64a1.93,1.93,0,0,1,.15-2.88c2.81-2.23,7.1-4.43,9.94-7.42.86-.91,4.95-4.59,5.34-6,1.73-6.35,7.22-10.23,11.78-13.21C47.69,71.17,53,65.5,55,63.64A2.42,2.42,0,0,1,57.6,63.75Z"/><path class="cls-1" d="M60.68,65c1,0,2,1.28,1.94,1.81a30.08,30.08,0,0,0,.81,14.39c1.51,5.4,2.87,10.53-.07,17.73-.49,1.2-.81,7-.84,8.09-.12,4.1,1.07,8.47,1.46,12.14A2,2,0,0,1,62,121.32H59.72a1.93,1.93,0,0,1-1.93-2.13c.41-3.57,1.88-8.16,1.78-12.28,0-1.26.26-6.75-.47-8-3.27-5.71-2.14-12.34-1-17.67.83-3.95.56-11.68.65-14.41A2.42,2.42,0,0,1,60.68,65Z"/><path class="cls-1" d="M63.75,63.72a2.3,2.3,0,0,1,2.65-.09,30.11,30.11,0,0,0,10.75,9.61C82,76,86.62,78.66,89.64,85.82c.5,1.19,4.35,5.49,5.13,6.32,2.81,3,6.74,5.23,9.61,7.55a1.94,1.94,0,0,1,.15,2.89l-1.64,1.64a1.94,1.94,0,0,1-2.88-.14c-2.23-2.82-4.43-7.1-7.42-9.94-.91-.87-4.59-5-6-5.35C80.23,87.06,76.35,81.58,73.37,77c-2.2-3.39-7.87-8.66-9.73-10.67A2.42,2.42,0,0,1,63.75,63.72Z"/><path class="cls-1" d="M65,60.64c0-1,1.28-2,1.81-1.93a30.34,30.34,0,0,0,14.39-.81c5.4-1.52,10.53-2.87,17.73.06,1.2.49,7,.81,8.09.84,4.1.13,8.47-1.07,12.14-1.45a1.94,1.94,0,0,1,2.15,1.93V61.6a1.94,1.94,0,0,1-2.13,1.94c-3.57-.42-8.16-1.89-12.28-1.79-1.26,0-6.75-.26-8,.48-5.71,3.26-12.34,2.13-17.67,1-3.95-.84-11.68-.56-14.41-.66A2.41,2.41,0,0,1,65,60.64Z"/><path class="cls-1" d="M63.72,57.57a2.3,2.3,0,0,1-.09-2.65,30.18,30.18,0,0,0,9.61-10.74c2.74-4.89,5.42-9.48,12.58-12.5,1.19-.5,5.49-4.34,6.32-5.12,3-2.81,5.23-6.75,7.55-9.62a1.94,1.94,0,0,1,2.89-.15l1.64,1.64a1.94,1.94,0,0,1-.14,2.88c-2.82,2.23-7.1,4.44-9.94,7.42-.87.91-5,4.59-5.35,6C87.06,41.09,81.58,45,77,48c-3.39,2.21-8.66,7.87-10.67,9.73A2.4,2.4,0,0,1,63.72,57.57Z"/><path class="cls-1" d="M56.31,60.68c0,1-1.28,2-1.81,1.94a30.09,30.09,0,0,0-14.39.81c-5.4,1.51-10.53,2.87-17.73-.07-1.2-.49-6.95-.81-8.09-.84C10.19,62.4,5.82,63.59,2.15,64A2,2,0,0,1,0,62V59.72a1.93,1.93,0,0,1,2.13-1.93c3.58.41,8.16,1.88,12.28,1.78,1.26,0,6.75.26,8-.47,5.71-3.27,12.33-2.14,17.66-1,4,.83,11.69.56,14.42.65A2.41,2.41,0,0,1,56.31,60.68Z"/><path class="cls-1" d="M57.57,57.6a2.29,2.29,0,0,1-2.65.09,30.37,30.37,0,0,0-10.74-9.61c-4.89-2.74-9.48-5.41-12.5-12.58-.5-1.19-4.34-5.49-5.12-6.31-2.81-3-6.75-5.24-9.62-7.56a1.94,1.94,0,0,1-.15-2.89l1.64-1.64a1.93,1.93,0,0,1,2.88.15c2.23,2.81,4.44,7.1,7.42,9.94.91.86,4.59,4.95,6,5.34C41.09,34.26,45,39.75,48,44.31,50.16,47.69,55.82,53,57.68,55A2.4,2.4,0,0,1,57.57,57.6Z"/></g></g></g></g></svg>