<svg xmlns="http://www.w3.org/2000/svg" viewBox="0 0 176.37 176.37">
  <defs>
    <style>
      .cls-1 {
        fill: #e8edf3;
      }
      .cls-2 {
        fill: #124559;
      }
      .cls-3 {
        fill: #296a75;
      }
      .cls-4 {
        fill: #274b51;
      }
      .cls-5 {
        fill: #3f7b89;
      }
      .cls-6 {
        fill: #ffecd4;
      }
    </style>
  </defs>
  <title>captain_icon</title>
  <g id="Layer_2" data-name="Layer 2">
    <g id="ROLE_ICONS" data-name="ROLE ICONS">
      <g id="captain_icon">
        <circle class="cls-1" cx="88.19" cy="88.19" r="88.19" />
        <g id="wheel">
          <path
            class="cls-2"
            d="M88.19,40.31a47.88,47.88,0,1,0,47.88,47.88A47.87,47.87,0,0,0,88.19,40.31Zm0,87.53a39.66,39.66,0,1,1,39.65-39.65A39.65,39.65,0,0,1,88.19,127.84Z" />
          <circle class="cls-2" cx="88.19" cy="88.19" r="7.7" />
          <path
            class="cls-2"
            d="M88.17,83.84c-1,0-2-1.28-1.94-1.81a30.26,30.26,0,0,0-.81-14.4c-1.52-5.39-2.87-10.52.07-17.72.48-1.2.8-7,.84-8.1.12-4.09-1.07-8.47-1.46-12.14a2,2,0,0,1,1.93-2.15h2.33a1.94,1.94,0,0,1,1.93,2.14c-.41,3.57-1.88,8.16-1.78,12.28,0,1.25-.26,6.75.47,8,3.27,5.71,2.14,12.34,1,17.66-.83,4-.56,11.69-.66,14.42A2.42,2.42,0,0,1,88.17,83.84Z" />
          <path
            class="cls-2"
            d="M85.13,91.27a2.3,2.3,0,0,1,.09,2.65,30.27,30.27,0,0,0-9.61,10.75c-2.74,4.89-5.42,9.48-12.58,12.49-1.19.51-5.49,4.35-6.32,5.13-3,2.81-5.23,6.75-7.55,9.62a2,2,0,0,1-2.89.15l-1.64-1.64a1.93,1.93,0,0,1,.14-2.88c2.82-2.24,7.1-4.44,9.94-7.42.87-.91,5-4.59,5.35-6,1.72-6.35,7.21-10.23,11.77-13.2,3.39-2.21,8.66-7.87,10.66-9.73A2.44,2.44,0,0,1,85.13,91.27Z" />
          <path
            class="cls-2"
            d="M88.21,92.53c1,0,2,1.29,1.93,1.81a30.25,30.25,0,0,0,.81,14.4c1.52,5.39,2.87,10.53-.06,17.73-.49,1.19-.81,6.95-.85,8.09-.12,4.1,1.07,8.47,1.46,12.14a2,2,0,0,1-1.93,2.15H87.25a1.94,1.94,0,0,1-1.94-2.14c.41-3.57,1.89-8.16,1.78-12.28,0-1.25.26-6.75-.47-8-3.27-5.71-2.13-12.33-1-17.66.83-4,.56-11.69.66-14.42A2.42,2.42,0,0,1,88.21,92.53Z" />
          <path
            class="cls-2"
            d="M91.27,91.25a2.27,2.27,0,0,1,2.65-.09,30.33,30.33,0,0,0,10.75,9.6c4.89,2.75,9.48,5.42,12.49,12.59.51,1.19,4.35,5.48,5.13,6.31,2.81,3,6.75,5.23,9.62,7.56a2,2,0,0,1,.15,2.88l-1.64,1.64a1.93,1.93,0,0,1-2.88-.14c-2.24-2.81-4.44-7.1-7.42-9.94-.91-.87-4.59-5-6-5.35-6.35-1.72-10.23-7.21-13.2-11.77-2.21-3.39-7.87-8.66-9.73-10.66A2.42,2.42,0,0,1,91.27,91.25Z" />
          <path
            class="cls-2"
            d="M92.53,88.17c0-1,1.29-2,1.81-1.94a30.25,30.25,0,0,0,14.4-.81c5.39-1.52,10.53-2.87,17.73.07,1.19.48,6.95.8,8.09.84,4.1.12,8.47-1.07,12.14-1.46a2,2,0,0,1,2.15,1.93v2.33a1.94,1.94,0,0,1-2.14,1.93c-3.57-.41-8.16-1.88-12.28-1.78-1.25,0-6.75-.26-8,.47-5.71,3.27-12.33,2.14-17.66,1-4-.83-11.69-.56-14.42-.66A2.42,2.42,0,0,1,92.53,88.17Z" />
          <path
            class="cls-2"
            d="M91.25,85.1a2.27,2.27,0,0,1-.09-2.65,30.24,30.24,0,0,0,9.6-10.75c2.75-4.89,5.42-9.48,12.59-12.49,1.19-.5,5.48-4.35,6.31-5.13,3-2.81,5.23-6.74,7.56-9.61a1.94,1.94,0,0,1,2.88-.16L131.74,46a1.92,1.92,0,0,1-.14,2.87c-2.81,2.24-7.1,4.44-9.94,7.43-.87.91-5,4.58-5.35,6-1.72,6.35-7.21,10.23-11.77,13.2-3.39,2.21-8.66,7.87-10.66,9.73A2.4,2.4,0,0,1,91.25,85.1Z" />
          <path
            class="cls-2"
            d="M83.84,88.21c0,1-1.28,2-1.81,1.93a30.26,30.26,0,0,0-14.4.81c-5.39,1.52-10.52,2.87-17.72-.06-1.2-.49-7-.81-8.1-.85-4.09-.12-8.47,1.07-12.14,1.46a2,2,0,0,1-2.15-1.93V87.25a1.94,1.94,0,0,1,2.14-1.94c3.57.41,8.16,1.89,12.28,1.78,1.25,0,6.75.26,8-.47,5.71-3.27,12.34-2.13,17.66-1,4,.83,11.69.56,14.42.66A2.42,2.42,0,0,1,83.84,88.21Z" />
          <path
            class="cls-2"
            d="M85.1,85.13a2.3,2.3,0,0,1-2.65.09A30.19,30.19,0,0,0,71.7,75.61C66.81,72.87,62.22,70.19,59.21,63c-.5-1.19-4.35-5.49-5.13-6.32-2.81-3-6.74-5.23-9.61-7.55a2,2,0,0,1-.16-2.89L46,44.63a1.92,1.92,0,0,1,2.87.14c2.24,2.82,4.44,7.1,7.43,9.94.91.87,4.58,5,6,5.35,6.35,1.72,10.23,7.21,13.2,11.77,2.21,3.39,7.87,8.66,9.73,10.66A2.42,2.42,0,0,1,85.1,85.13Z" />
        </g>
        <g id="ribbon">
          <path
            id="ribbon-element5"
            class="cls-3"
            d="M28,134.13l.73-.78a6.59,6.59,0,0,1,1.62-1.45c1.1-.74,2.86-2.94,5.84-3.24a4,4,0,0,1,2,.48,7.65,7.65,0,0,0,.71,3.1c0,.74,0,1.61,0,2.54-.1,4.64-.22,10.83-.22,10.83l-1.12,0-1.11,0a7,7,0,0,0-2.76,0,6.87,6.87,0,0,0-.81.22c-1.67-.88-3.43,2.63-5.18,2.63,1.75-1.76,0-5.27,2.88-7,.23-.25.49-.51.75-.77A24.38,24.38,0,0,0,33.68,138l.47-.63s-1-2.18-2.27-2.73A13.16,13.16,0,0,0,28,134.13Z" />
          <path
            id="ribbon-element4"
            class="cls-3"
            d="M148.69,134.72c-3.27-2.07-3.59-4.09-8.25-4.05a4.15,4.15,0,0,1-.88-.11,2.08,2.08,0,0,1-1.32-.89c-.28,0-.54,0-.79,0s-.46,0-.66.06l.34,15.85.65-.14.63-.11,1.05-.15,1-.19c1.41-.06,6.68-1.82,6.68,3.45,1.76-3.51-1.49-7.23-2.11-8.2a7.8,7.8,0,0,0-.66-.76,16.12,16.12,0,0,0-2.51-2.1h0a9.13,9.13,0,0,1,1.08-1.18c.26-.22,1.15-1.47,4.86-1.66A7.58,7.58,0,0,1,148.69,134.72Z" />
          <path
            id="ribbon-element1"
            class="cls-4"
            d="M38.67,145.61l-1.62-3.55,2.16-.25Z" />
          <path
            id="ribbon-element3"
            class="cls-4"
            d="M137.13,145.61l1.53-3.55-2.19-.82Z" />
          <path
            id="ribbon-element2"
            class="cls-5"
            d="M138.66,142.06s-2.65-.32-6.94-.77l-2.28-.24c-1.37-.27-2.68-.49-4-.67l-1.89-.24a8.47,8.47,0,0,1-2,.16,15,15,0,0,1-2.07-.22,12.7,12.7,0,0,0-7-1.17c-.8.06-1.62.16-2.43.24-6.84.53-12.11-3-19.31-.64l-1.47,0H85.7c-2-.22-4.22-.35-6.52-.41l-2.31,0a79.78,79.78,0,0,0-11.27.29c-.67,0-1.34,0-2,0a47.16,47.16,0,0,0-14.79,2.47l-2.52.25c-5.61.57-9.22,1-9.22,1,0-2.85.83-4.94.9-8.4a22.06,22.06,0,0,0-.05-2.26c.33-4-1.43-7.53.33-9.29a33.21,33.21,0,0,0,5.39-.3l1.46-.16,2.54-.25c6.42-2.8,15.21-1.05,21.67-1.43.53,0,1-.07,1.58-.09,6.86-.33,13.13-.53,17-.53,3.7,0,7.48.09,11.24.24l2.27.07c8.91.69,17.69.69,26.26,2.91l1.62.17a25.7,25.7,0,0,0,6.39-.18l2.24.27.78.1c0,.07-.85,6.83-.85,9.56A87.4,87.4,0,0,0,138.66,142.06Z" />
          <path
            class="cls-6"
            d="M72.4,131.54a.12.12,0,0,1,0,.13,5,5,0,0,1-1.81,1.18,7.87,7.87,0,0,1-2.54.58,6.81,6.81,0,0,1-2.08-.06,4.11,4.11,0,0,1-1.59-.82,4.6,4.6,0,0,1-1.5-3.44,5.83,5.83,0,0,1,.52-2.74,5,5,0,0,1,1.64-2A7.43,7.43,0,0,1,69,123.06a16.68,16.68,0,0,1,1.68-.06,3.92,3.92,0,0,1,1.13.14s0,0,0,.07,0,.29,0,.62,0,.52,0,.71,0,.09,0,.09a.07.07,0,0,1-.09-.06,1,1,0,0,0-.09-.2,1.81,1.81,0,0,0-.67-.46,5.17,5.17,0,0,0-2.42-.2,4.45,4.45,0,0,0-3.18,1.49,4.71,4.71,0,0,0-1.12,3.54,4.35,4.35,0,0,0,1.65,3.36,4,4,0,0,0,1.5.73,6.09,6.09,0,0,0,1.76,0,3.94,3.94,0,0,0,1.56-.48,2.76,2.76,0,0,0,1.1-1,1.64,1.64,0,0,0,.22-.63c0-.09,0-.13,0-.13s0,0,.06.06a1.79,1.79,0,0,0,.19.45A3.48,3.48,0,0,0,72.4,131.54Z" />
          <path
            class="cls-6"
            d="M79.7,132.11a.22.22,0,0,1,0,.1,5.74,5.74,0,0,1-.6.56.24.24,0,0,1-.13,0,1.27,1.27,0,0,1-.89-.36,2.27,2.27,0,0,1-.63-.87c0-.08-.07-.09-.12,0a3.15,3.15,0,0,1-.41.44,2.36,2.36,0,0,1-.46.4,2.7,2.7,0,0,1-1.31.49,1.42,1.42,0,0,1-.86-.14,1,1,0,0,1-.46-.89,2.23,2.23,0,0,1,.41-1.38,2.49,2.49,0,0,1,1-.83,9.13,9.13,0,0,1,2-.67s.07-.07.07-.17a10,10,0,0,0,0-1.52.77.77,0,0,0-.37-.56,1.58,1.58,0,0,0-.87-.15,2.4,2.4,0,0,0-1.09.24q-.18.14-.15.27v.2a1,1,0,0,1-.15.59.78.78,0,0,1-.62.44c-.18,0-.27-.09-.28-.32a1.31,1.31,0,0,1,.31-.73,2.72,2.72,0,0,1,.73-.71,3.94,3.94,0,0,1,2-.54,1.78,1.78,0,0,1,1.25.29,1.39,1.39,0,0,1,.31,1c0,.38,0,1,0,1.75s0,1.22,0,1.32a1.5,1.5,0,0,0,1.29,1.6C79.66,132.05,79.7,132.08,79.7,132.11Zm-2.41-2.64c0-.1,0-.14-.12-.14a3.38,3.38,0,0,0-1.31.39c-.8.4-1.19.9-1.16,1.51A.88.88,0,0,0,75,132a1.18,1.18,0,0,0,.74.14,2.11,2.11,0,0,0,1.31-.64.57.57,0,0,0,.2-.39A15,15,0,0,0,77.29,129.47Z" />
          <path
            class="cls-6"
            d="M87.73,129.11a3.28,3.28,0,0,1-1,2.47,2.9,2.9,0,0,1-.9.64,4.78,4.78,0,0,1-1.69.3,4.07,4.07,0,0,1-1.72-.46c-.11-.05-.16,0-.16.06l0,2a7.27,7.27,0,0,0,.09,1c.07.5.17.76.31.76l1.47,0s.06,0,.06.07v.23c0,.06,0,.1,0,.1-1.59,0-2.39.05-4,.11-.06,0-.1,0-.1-.06v-.25c0-.05,0-.08.09-.08l1,0a.11.11,0,0,0,.12-.12s0-1.38-.07-4-.06-4-.07-4.11c0-1-.11-1.51-.27-1.51l-1,0c-.06,0-.1,0-.1-.07v-.24s0-.08.06-.08l.74,0a8,8,0,0,0,1-.07,1.32,1.32,0,0,0,.25,0l.19,0s.08.06.09.18,0,.18,0,.45,0,.43,0,.48,0,.21,0,.21a.09.09,0,0,0,.07,0,7.22,7.22,0,0,1,1.25-.91,2.72,2.72,0,0,1,1.35-.36,2.56,2.56,0,0,1,1.86.78A3.56,3.56,0,0,1,87.73,129.11Zm-1,.32a2.77,2.77,0,0,0-.27-1.13,2.33,2.33,0,0,0-2.41-1.57,3.07,3.07,0,0,0-1.22.2,5.09,5.09,0,0,0-.61.4.31.31,0,0,0,0,.19c0,1.61,0,2.41.07,4a.26.26,0,0,0,.07.21,4.87,4.87,0,0,0,2.06.36,2.29,2.29,0,0,0,2-1.05A2.87,2.87,0,0,0,86.76,129.43Z" />
          <path
            class="cls-6"
            d="M93.42,131.61a.27.27,0,0,1-.07.17,4.27,4.27,0,0,1-.81.44,3.74,3.74,0,0,1-1.58.36A1.38,1.38,0,0,1,89.41,131q0-.09,0-1.62c0-1,0-1.55,0-1.61s0-.27,0-.63,0-.54,0-.56a.23.23,0,0,0-.14-.22c-.08,0-.27-.13-.6-.26a.18.18,0,0,1-.09-.17.27.27,0,0,1,.12-.18c.51-.41,1.05-.84,1.64-1.29a.35.35,0,0,1,.2-.07c.08,0,.1.07.07.21a4.43,4.43,0,0,0-.1,1c0,.16,0,.24.08.25l1.32,0,1.29,0c.11,0,.13.07.11.16a1.41,1.41,0,0,1-.12.41.13.13,0,0,1-.14.11l-1.24,0-1.23,0c-.06,0-.09,0-.09.07,0,1.62,0,2.43,0,4a1.81,1.81,0,0,0,.18.93c.14.22.51.34,1.13.35A4.33,4.33,0,0,0,93,131.6l.32-.12S93.42,131.52,93.42,131.61Z" />
          <path
            class="cls-6"
            d="M100.23,132.28a.31.31,0,0,1,0,.09,4.15,4.15,0,0,1-.63.5.25.25,0,0,1-.14,0,1.31,1.31,0,0,1-.86-.44,2.34,2.34,0,0,1-.57-.91c0-.09-.07-.1-.12,0a2.93,2.93,0,0,1-.43.41,4.68,4.68,0,0,1-.49.35,2.63,2.63,0,0,1-1.34.36,1.52,1.52,0,0,1-.84-.21,1.05,1.05,0,0,1-.41-.92,2.21,2.21,0,0,1,.49-1.34,2.41,2.41,0,0,1,1.05-.72A8.91,8.91,0,0,1,98,129c.05,0,.07-.06.08-.16a9.18,9.18,0,0,0,0-1.5.73.73,0,0,0-.33-.59,1.63,1.63,0,0,0-.86-.23,2.38,2.38,0,0,0-1.1.14c-.12.08-.17.16-.16.25v.21a1,1,0,0,1-.19.56.8.8,0,0,1-.64.39c-.18,0-.27-.12-.26-.35a1.18,1.18,0,0,1,.35-.69,2.68,2.68,0,0,1,.77-.64,3.92,3.92,0,0,1,2-.35,1.84,1.84,0,0,1,1.23.4,1.44,1.44,0,0,1,.25,1c0,.39-.06,1-.13,1.73s-.11,1.2-.12,1.3a1.78,1.78,0,0,0,.35,1.19,1.8,1.8,0,0,0,.84.51C100.19,132.22,100.23,132.25,100.23,132.28ZM98,129.44c0-.09,0-.14-.12-.14a3.25,3.25,0,0,0-1.32.26c-.83.32-1.24.79-1.26,1.39a1,1,0,0,0,.26.77,1.28,1.28,0,0,0,.74.2,2,2,0,0,0,1.35-.51.56.56,0,0,0,.21-.36A13.85,13.85,0,0,0,98,129.44Z" />
          <path
            class="cls-6"
            d="M104.4,133a.08.08,0,0,1-.1.06c-1.42-.1-2.13-.15-3.55-.22a.08.08,0,0,1-.07-.1v-.22c0-.07,0-.1.06-.1l1.09.06c.09,0,.14,0,.14-.14s0-.62.09-1.76.08-1.78.08-1.9c0-.75,0-1.21,0-1.36,0-.44-.17-.68-.39-.7l-.75,0c-.08,0-.12,0-.12-.08v-.26c0-.06,0-.09.08-.09l.45,0c.47,0,.93,0,1.37,0h.45c.12,0,.17.08.17.23s-.06.74-.16,2.16-.15,2.16-.16,2.23c0,1.16,0,1.75.29,1.77l.91.06s.07,0,.07.08Zm-.82-9.27a.85.85,0,0,1-.4.65,1,1,0,0,1-.6.22c-.34,0-.5-.19-.49-.51a.84.84,0,0,1,.28-.55.94.94,0,0,1,.77-.3A.42.42,0,0,1,103.58,123.68Z" />
          <path
            class="cls-6"
            d="M112.62,133.68s0,.08-.07.08c-1.26-.14-1.89-.21-3.15-.32-.05,0-.07,0-.07-.07l0-.25c0-.05,0-.07.08-.07l.8.08c.06,0,.11,0,.14-.11.1-.5.21-1.61.33-3.35a2.22,2.22,0,0,0-.29-1.6,1.76,1.76,0,0,0-1.17-.47,2.85,2.85,0,0,0-1.7.28.19.19,0,0,0-.12.18c0,.2-.12,1.29-.23,3.27-.06,1,0,1.52.14,1.53l1,.09s.07,0,.07.08,0,.15,0,.26,0,.05-.08.05c-1.34-.12-2-.18-3.35-.28l-.06,0s0,0,0-.07v-.24s0-.06.08,0l1,.07c.07,0,.11,0,.12-.13s.05-.8.14-2.31.15-2.31.16-2.38c0-.72,0-1.09-.18-1.1l-.92-.07a.1.1,0,0,1-.09-.11v-.21s0-.07.07-.06l1,.07.4,0,.33,0,.24,0a1.13,1.13,0,0,1,.22,0c.08,0,.11.07.1.18s0,.15,0,.37,0,.36,0,.39,0,.2.08.15a5.31,5.31,0,0,1,1.31-.65,3,3,0,0,1,1.13-.13,2,2,0,0,1,1.32.64,2.8,2.8,0,0,1,.43,2c0,.33-.07.87-.16,1.63s-.13,1.14-.13,1.13c0,.7,0,1.06.08,1.07l1,.11c.06,0,.09,0,.09.05Z" />
        </g>
      </g>
    </g>
  </g>
</svg>
