<svg xmlns="http://www.w3.org/2000/svg" viewBox="0 0 100.12 86.39"><defs><style>.cls-1{fill:#c4c6b5;stroke:#124559;stroke-miterlimit:10;}</style></defs><title>CraftsmanIcon</title><g id="Layer_2" data-name="Layer 2"><g id="ROLE_ICONS" data-name="ROLE ICONS"><g id="craftsman_icon"><g id="goods"><path class="cls-1" d="M92.43,46.12a137.57,137.57,0,0,0-3.18-29.41c0-2-8.63-3.57-19.28-3.57s-19.28,1.6-19.28,3.57a138.71,138.71,0,0,0,0,59.08h0c0,2,8.63,3.57,19.28,3.57s19.28-1.6,19.28-3.57h0A136.91,136.91,0,0,0,92.43,46.12Z"/><path class="cls-1" d="M56.07,41.3A170.22,170.22,0,0,0,52.14,4.92C52.14,2.48,41.46.5,28.29.5S4.44,2.48,4.44,4.92A171.16,171.16,0,0,0,4.44,78h0c0,2.44,10.68,4.42,23.85,4.42s23.85-2,23.85-4.42h0A169.92,169.92,0,0,0,56.07,41.3Z"/><path class="cls-1" d="M78.09,46.26l-29.81,5a1,1,0,0,0-.78,1V80.66a1,1,0,0,0,.42.83l28.43,4.24a.88.88,0,0,0,.75.13L99,83.74a1,1,0,0,0,.67-1V53.27a1,1,0,0,0-.68-1l-20.47-6A.83.83,0,0,0,78.09,46.26Z"/></g></g></g></g></svg>