<svg xmlns="http://www.w3.org/2000/svg" viewBox="0 0 85.66 106.73"><defs><style>.cls-1{fill:#c4c6b5;}</style></defs><title>MayorIcon</title><g id="Layer_2" data-name="Layer 2"><g id="ROLE_ICONS" data-name="ROLE ICONS"><g id="mayor_icon"><path class="cls-1" d="M46.41,106.25l-.69.3a2.13,2.13,0,0,1-2.81-1.09L.48,7.51C0,6.44-.39,5,.68,4.52l.69-.3C2.44,3.75,3.11,4.91,3.58,6L47.5,103.44A2.14,2.14,0,0,1,46.41,106.25Z"/><path class="cls-1" d="M3,7.92C4.17,7.59,6.39,7,7.55,6.71l1.74-.48c.62-.2,3.22-.8,3.89-.92C18.61,3,23.63,7.66,32,5.36c2.27-.63,7.41.93,7.91.48,4.3-8,19.45.27,26.32-3.69.63-.25,5.27-1.81,6.05-2,3.59-1.36,8.65,5.15,13.4,6C82,7.78,75.09,2.08,73.66,7c-.69.54-4.54,4.28-5,4.8-3.89,6.56-16.44-.38-20,7-1.31,2.7-5.84-2-9.9,3s-17.3-2.48-21.63,6.54l-1.59.84c-.54.29-1.76,1-2.31,1.27,0-.7.77-1.79.88-2.47s.25-1.35.4-2c1.45-4.21,2.2-7.46-3.31-12.29a23.07,23.07,0,0,0-1.74-1.54C7.62,10.61,4.65,9.55,3,7.92Z"/></g></g></g></svg>