<svg xmlns="http://www.w3.org/2000/svg" viewBox="0 0 176.37 176.37">
  <defs>
    <style>
      .cls-1 {
        fill: #e8edf3;
      }
      .cls-2 {
        fill: #124559;
      }
      .cls-3 {
        fill: #296a75;
      }
      .cls-4 {
        fill: #274b51;
      }
      .cls-5 {
        fill: #3f7b89;
      }
      .cls-6 {
        fill: #ffecd4;
      }
    </style>
  </defs>
  <title>mayor_icon</title>
  <g id="Layer_2" data-name="Layer 2">
    <g id="ROLE_ICONS" data-name="ROLE ICONS">
      <g id="mayor_icon">
        <circle class="cls-1" cx="88.19" cy="88.19" r="88.19" />
        <g id="flag">
          <path
            class="cls-2"
            d="M90.77,147.64l-.68.3a2.14,2.14,0,0,1-2.81-1.09L44.85,48.9c-.47-1.08-.88-2.52.2-3l.68-.3c1.07-.48,1.75.69,2.22,1.76l43.91,97.45A2.14,2.14,0,0,1,90.77,147.64Z" />
          <path
            class="cls-2"
            d="M47.35,49.31c1.18-.34,3.41-.89,4.57-1.22l1.73-.47c.63-.21,3.23-.81,3.89-.92,5.44-2.31,10.46,2.35,18.8,0,2.27-.62,7.42.93,7.92.48,4.29-8,19.45.28,26.32-3.69.62-.25,5.27-1.8,6-2,3.59-1.36,8.66,5.15,13.4,6-3.67,1.62-10.56-4.08-12,.79-.68.55-4.54,4.29-5,4.8-3.89,6.57-16.43-.37-20,7-1.31,2.7-5.84-2-9.91,3s-17.3-2.47-21.62,6.55l-1.6.84c-.53.28-1.76,1-2.3,1.26,0-.69.77-1.78.88-2.46s.25-1.35.39-2c1.45-4.21,2.21-7.46-3.3-12.3q-.84-.81-1.74-1.53C52,52,49,50.93,47.35,49.31Z" />
        </g>
        <g id="ribbon">
          <path
            id="ribbon-element5"
            class="cls-3"
            d="M28,134.13l.73-.78a6.59,6.59,0,0,1,1.62-1.45c1.1-.74,2.86-2.94,5.84-3.24a4,4,0,0,1,2,.48,7.65,7.65,0,0,0,.71,3.1c0,.74,0,1.61,0,2.54-.1,4.64-.22,10.83-.22,10.83l-1.12,0-1.11,0a7,7,0,0,0-2.76,0,6.87,6.87,0,0,0-.81.22c-1.67-.88-3.43,2.63-5.18,2.63,1.75-1.76,0-5.27,2.88-7,.23-.25.49-.51.75-.77A24.38,24.38,0,0,0,33.68,138l.47-.63s-1-2.18-2.27-2.73A13.16,13.16,0,0,0,28,134.13Z" />
          <path
            id="ribbon-element4"
            class="cls-3"
            d="M148.69,134.72c-3.27-2.07-3.59-4.09-8.25-4.05a4.15,4.15,0,0,1-.88-.11,2.08,2.08,0,0,1-1.32-.89c-.28,0-.54,0-.79,0s-.46,0-.66.06l.34,15.85.65-.14.63-.11,1.05-.15,1-.19c1.41-.06,6.68-1.82,6.68,3.45,1.76-3.51-1.49-7.23-2.11-8.2a7.8,7.8,0,0,0-.66-.76,16.12,16.12,0,0,0-2.51-2.1h0a9.13,9.13,0,0,1,1.08-1.18c.26-.22,1.15-1.47,4.86-1.66A7.58,7.58,0,0,1,148.69,134.72Z" />
          <path
            id="ribbon-element1"
            class="cls-4"
            d="M38.67,145.61l-1.62-3.55,2.16-.25Z" />
          <path
            id="ribbon-element3"
            class="cls-4"
            d="M137.13,145.61l1.53-3.55-2.19-.82Z" />
          <path
            id="ribbon-element2"
            class="cls-5"
            d="M138.66,142.06s-2.65-.32-6.94-.77l-2.28-.24c-1.37-.27-2.68-.49-4-.67l-1.89-.24a8.47,8.47,0,0,1-2,.16,15,15,0,0,1-2.07-.22,12.7,12.7,0,0,0-7-1.17c-.8.06-1.62.16-2.43.24-6.84.53-12.11-3-19.31-.64l-1.47,0H85.7c-2-.22-4.22-.35-6.52-.41l-2.31,0a79.78,79.78,0,0,0-11.27.29c-.67,0-1.34,0-2,0a47.16,47.16,0,0,0-14.79,2.47l-2.52.25c-5.61.57-9.22,1-9.22,1,0-2.85.83-4.94.9-8.4a22.06,22.06,0,0,0-.05-2.26c.33-4-1.43-7.53.33-9.29a33.21,33.21,0,0,0,5.39-.3l1.46-.16,2.54-.25c6.42-2.8,15.21-1.05,21.67-1.43.53,0,1-.07,1.58-.09,6.86-.33,13.13-.53,17-.53,3.7,0,7.48.09,11.24.24l2.27.07c8.91.69,17.69.69,26.26,2.91l1.62.17a25.7,25.7,0,0,0,6.39-.18l2.24.27.78.1c0,.07-.85,6.83-.85,9.56A87.4,87.4,0,0,0,138.66,142.06Z" />
          <path
            class="cls-6"
            d="M80.55,132.77s0,.08-.07.08c-1.37.06-2.06.09-3.43.18-.07,0-.11,0-.11-.07v-.24c0-.05,0-.08.07-.08l.81,0c.13,0,.19-.07.18-.19l-.15-3.76c-.08-1.93-.15-3.23-.22-3.87,0-.14,0-.21-.08-.21s-.07,0-.11.14-1.08,2.52-2.79,7c-.25.66-.46,1.22-.6,1.67-.05.09-.09.14-.12.14a.13.13,0,0,1-.14-.1q-1.16-2-2.42-4.12c-.48-.83-1.13-1.94-2-3.3,0-.08-.1-.12-.13-.11s-.07.06-.06.16c0,2,0,3.4.11,4.31,0,.66.07,1,.12,1.66.06.86.21,1.28.45,1.25l.89-.08a.07.07,0,0,1,.09.05v.26s0,.07,0,.07l-2.72.28c-.06,0-.09,0-.09,0l0-.22c0-.07,0-.11.07-.12l.78-.08c.13,0,.19-.13.18-.35-.06-.77-.17-2.2-.22-4.22,0-.38,0-.77,0-1.16,0-.76-.05-1.42-.09-2a1.39,1.39,0,0,0-.89-1.36,2.43,2.43,0,0,0-.71-.05s-.07,0-.07,0l0-.28s0-.06.06-.06l2.05-.21a.2.2,0,0,1,.21.09c.54.85,1.13,1.78,1.76,2.79.92,1.6,1.9,3.28,2.93,5.06.09.11.16.13.2,0,.49-1.29,1-2.66,1.62-4.1s1.16-2.89,1.78-4.36a.25.25,0,0,1,.24-.15l2-.09s.08,0,.08,0v.26s0,.07,0,.07l-.77,0c-.16,0-.24.18-.26.51s0,1.54.07,3.68c.06,1.58.12,2.71.18,3.38.09,1.09.25,1.63.5,1.62l.86,0s.06,0,.07.07Z" />
          <path
            class="cls-6"
            d="M87.67,132.2a.22.22,0,0,1,0,.1,4.68,4.68,0,0,1-.62.54.24.24,0,0,1-.13,0,1.29,1.29,0,0,1-.88-.4,2.28,2.28,0,0,1-.62-.88q0-.13-.12,0a2.5,2.5,0,0,1-.42.43,3.59,3.59,0,0,1-.46.39,2.83,2.83,0,0,1-1.34.45,1.52,1.52,0,0,1-.85-.17,1,1,0,0,1-.45-.9,2.27,2.27,0,0,1,.43-1.37,2.45,2.45,0,0,1,1-.79,9,9,0,0,1,2.05-.62s.07-.06.07-.16a11.36,11.36,0,0,0,0-1.51.8.8,0,0,0-.36-.58,1.68,1.68,0,0,0-.88-.17,2.33,2.33,0,0,0-1.1.21c-.12.08-.17.17-.15.26v.2a1,1,0,0,1-.16.58.8.8,0,0,1-.64.43c-.17,0-.27-.11-.27-.33a1.18,1.18,0,0,1,.33-.72,2.82,2.82,0,0,1,.74-.69,4.16,4.16,0,0,1,2-.48,1.91,1.91,0,0,1,1.25.33,1.46,1.46,0,0,1,.3,1c0,.38,0,1-.07,1.74s-.06,1.22-.06,1.32a1.77,1.77,0,0,0,.39,1.17,1.88,1.88,0,0,0,.87.47C87.63,132.15,87.67,132.17,87.67,132.2Zm-2.36-2.71c0-.1,0-.14-.12-.14a3.39,3.39,0,0,0-1.32.34c-.82.37-1.22.87-1.21,1.47a.92.92,0,0,0,.3.76,1.23,1.23,0,0,0,.74.16,2.1,2.1,0,0,0,1.34-.6.57.57,0,0,0,.2-.37A15.73,15.73,0,0,0,85.31,129.49Z" />
          <path
            class="cls-6"
            d="M95.19,126.46s0,.06,0,.07h-.48a.22.22,0,0,0-.21.12,20.35,20.35,0,0,0-1.08,2.47c-.18.49-.79,1.86-1.79,4.14-.58,1.26-1.07,2.23-1.47,2.9a.34.34,0,0,1-.2.13l-.86.12-.67.08c-.09,0-.14,0-.14-.1s0-.1.14-.14A3.77,3.77,0,0,0,89.87,135a10.55,10.55,0,0,0,1.42-2.14c0-.07,0-.15-.05-.27-.41-.83-.92-2-1.54-3.57-.22-.53-.52-1.23-.92-2.08-.12-.36-.27-.54-.44-.54h-.28c-.07,0-.1,0-.1-.09v-.23a.08.08,0,0,1,0,0s0,0,.08,0c1.18,0,1.78,0,3,0a.07.07,0,0,1,.08.07v.26s0,.06-.08.06l-.94,0c-.11,0-.17,0-.17.16a2,2,0,0,0,.08.29c0,.16.36.84.85,2l1,2.54c0,.09.09.08.14,0a15.65,15.65,0,0,0,1-2.27,9.11,9.11,0,0,0,.57-2.08c0-.38-.08-.57-.27-.58l-.72,0c-.08,0-.11,0-.11-.06v-.26s0-.07.08-.07l2.61.09s.07,0,.08,0a.09.09,0,0,1,0,0Z" />
          <path
            class="cls-6"
            d="M102.35,129.86a4.18,4.18,0,0,1-.42,1.65,2.91,2.91,0,0,1-1.45,1.3,3.2,3.2,0,0,1-1.6.27,4.52,4.52,0,0,1-1.45-.25,2.77,2.77,0,0,1-1.33-1.37,4.18,4.18,0,0,1-.41-1.94,3.73,3.73,0,0,1,.57-2,3,3,0,0,1,1.37-1.11,4.17,4.17,0,0,1,1.89-.2,3.1,3.1,0,0,1,1.55.44,2.78,2.78,0,0,1,1.05,1.36A4.69,4.69,0,0,1,102.35,129.86Zm-1.1.27a3.47,3.47,0,0,0-.63-2.41,2.62,2.62,0,0,0-2-1,2.46,2.46,0,0,0-.9,0,.93.93,0,0,0-.38.32,3.12,3.12,0,0,0-.52,1.84,5.66,5.66,0,0,0,.4,2.38,2.24,2.24,0,0,0,.84,1.1,2.52,2.52,0,0,0,2.11.21,1.85,1.85,0,0,0,.77-.93A4.33,4.33,0,0,0,101.25,130.13Z" />
          <path
            class="cls-6"
            d="M108.58,127.82a5.29,5.29,0,0,1-.31.87c0,.07-.07.11-.11.1a.17.17,0,0,1-.14-.08,1.35,1.35,0,0,0-.32-.41,1.28,1.28,0,0,0-.75-.3,2,2,0,0,0-1.33.22.26.26,0,0,0-.09.19s0,.59-.12,1.67-.12,1.66-.12,1.72c-.06.86,0,1.29.16,1.31l1.47.14a.1.1,0,0,1,.09.11l0,.21a.06.06,0,0,1-.07.07c-1.54-.16-2.3-.23-3.84-.35-.07,0-.1,0-.1-.09V133c0-.06,0-.1.1-.09l.91.08a.13.13,0,0,0,.15-.13l.3-4.75c0-.66,0-1-.19-1l-.94-.09s-.08,0-.07-.08v-.23c0-.06,0-.08.08-.08l1.06.09a4,4,0,0,0,.71,0,3.69,3.69,0,0,1,.47-.08q.11,0,.09.21s0,.18,0,.43,0,.39,0,.42,0,.18.09.13c.24-.17.53-.37.85-.56a1.83,1.83,0,0,1,1.12-.27,1.14,1.14,0,0,1,.93.59A.25.25,0,0,1,108.58,127.82Z" />
        </g>
      </g>
    </g>
  </g>
</svg>
