<svg xmlns="http://www.w3.org/2000/svg" viewBox="0 0 176.37 176.37">
  <defs>
    <style>
      .cls-1 {
        fill: #e8edf3;
      }
      .cls-2 {
        fill: #124559;
      }
      .cls-3 {
        fill: #296a75;
      }
      .cls-4 {
        fill: #274b51;
      }
      .cls-5 {
        fill: #3f7b89;
      }
      .cls-6 {
        fill: #ffecd4;
      }
    </style>
  </defs>
  <title>settler_icon</title>
  <g id="Layer_2" data-name="Layer 2">
    <g id="ROLE_ICONS" data-name="ROLE ICONS">
      <g id="settler_icon">
        <circle class="cls-1" cx="88.19" cy="88.19" r="88.19" />
        <g id="plant">
          <path
            class="cls-2"
            d="M72.82,117.56c-6,.56-17.38.67-21.37,1.66-6.14,1.51-22.11,9.35-3.31,12,3.32.47,36.8.57,35.79,3s-8.87,3.86-3.28,6.61,38.25.49,45.36-3c5.33-2.61,11.39-10.2-5.9-12.85-8.46-1.3-3.77-6.88-9.69-8.26S72.82,117.56,72.82,117.56Z" />
          <path
            class="cls-2"
            d="M74.6,128.79A63.56,63.56,0,0,0,77,113a60.31,60.31,0,0,0-1.56-16c-.28-1.31-.68-2.58-1-3.88-.18-.64-.41-1.27-.61-1.91s-.72-1.17-.89-1.81A51.65,51.65,0,0,0,70,82a52.16,52.16,0,0,0-3.9-7c-1.52-2.19-3-4.43-5.44-5.9L63,67.15c1.08,2.68,2.77,4.79,4.22,7.12s2.86,4.65,4.14,7.06c.62,1.22,1.23,2.44,1.78,3.7.29.62.52,1.26.79,1.89s.6,1.24.84,1.88a20.29,20.29,0,0,1,.37,2c.2.65.42,1.3.6,2,.32,1.33.71,2.64,1,4A88.56,88.56,0,0,1,78.61,113a99.37,99.37,0,0,1-1.07,16.41Z" />
          <path
            class="cls-2"
            d="M85.15,120.86c.66-6.06,1.36-12,1.74-18a103.06,103.06,0,0,0-.38-17.92L86,80.48c-.06-.76-.19-1.55-.21-2.33a20.77,20.77,0,0,0-.16-2.35,4.16,4.16,0,0,1,0-1.17c0-.39.09-.77.15-1.15.12-.76.26-1.51.4-2.26L87,66.81A43.75,43.75,0,0,0,87.86,58a41.35,41.35,0,0,0-.28-4.44c-.08-.74-.16-1.48-.3-2.21l-.18-1.1c-.13-.36.17-.79-.91-1l3-.52c-1,.56-.55.87-.56,1.26l.15,1.13c.12.75.17,1.52.25,2.27.18,1.52.23,3,.3,4.57a50.84,50.84,0,0,1-.54,9.14c-.21,1.51-.52,3-.78,4.47-.13.73-.26,1.46-.36,2.19s-.12,1.45-.31,2.16c-.06.36-.16.72-.2,1.08a9.91,9.91,0,0,0,0,1.09,14.39,14.39,0,0,0,.28,2.15,40.92,40.92,0,0,1,.68,4.51,136,136,0,0,1,.23,18.16c-.19,6-.49,12.06-.16,18Z" />
          <path
            class="cls-2"
            d="M90.55,126.26c0-.23.07-.49.11-.69l.12-.51.23-1,.47-2,.88-3.95c.57-2.64,1.1-5.28,1.62-7.93q1.55-7.93,3.22-15.84c1.14-5.27,2.24-10.6,4.41-15.65a26.29,26.29,0,0,1,4.43-7,35.56,35.56,0,0,1,6.5-5.46L113.76,69a13.8,13.8,0,0,0-6.67,3.71,23.23,23.23,0,0,0-4.35,6.49,44.65,44.65,0,0,0-2.63,7.52c-.69,2.58-1.25,5.21-1.77,7.85-1,5.27-2,10.58-2.86,15.88-.45,2.66-.86,5.32-1.2,8-.17,1.33-.33,2.67-.47,4l-.17,2-.07,1,0,.49v.32Z" />
          <path
            class="cls-2"
            d="M97.09,119.64a1.09,1.09,0,0,0-.36.35c-.08.13-.07.1-.1.16s0,.12,0,.13l0-.06c0-.1,0-.23,0-.38a9.2,9.2,0,0,0,0-.94c0-.65,0-1.32,0-2,0-1.35-.06-2.71-.11-4.07-.12-2.72-.22-5.45-.37-8.18-.28-5.46-.58-10.92-.79-16.4l-.15-4.1,0-2.06A17.84,17.84,0,0,0,95.17,80a18.4,18.4,0,0,1-.06-4.13c0-.69.12-1.4.19-2.1s.22-1.39.37-2.08a38,38,0,0,1,2.73-7.92c.58-1.26,1.19-2.51,1.72-3.76a10.81,10.81,0,0,0,1-3.73l2.88.84c-.77,1.44-1.59,2.56-2.34,3.73a35.62,35.62,0,0,0-2,3.51,24.27,24.27,0,0,0-1.49,3.72A26.1,26.1,0,0,0,97.35,72c-.08.66-.12,1.32-.17,2s-.06,1.31-.06,2A26.34,26.34,0,0,1,96.94,80a15.44,15.44,0,0,0,0,2l0,2,.13,4.08c.25,5.44.69,10.88,1.2,16.31l.8,8.16.37,4.12c0,.69.1,1.38.12,2.09,0,.36,0,.72,0,1.11,0,.2,0,.41,0,.64a4,4,0,0,1-.08.45,2.07,2.07,0,0,1-.13.36,1.5,1.5,0,0,1-.16.28,1.71,1.71,0,0,1-.45.44Z" />
          <path
            class="cls-2"
            d="M80.08,124.24a156.54,156.54,0,0,0,1.76-15.74c0-.66,0-1.33.12-2a8.21,8.21,0,0,0,.12-2c0-1.32,0-2.65,0-4-.06-2.65-.22-5.29-.42-7.93-.13-1.32-.21-2.64-.37-4l-.2-2c-.07-.66,0-1.33-.07-2-.25-2.64-.71-5.26-1.18-7.87s-1.06-5.2-1.74-7.77c-.36-1.28-.74-2.55-1.15-3.81a7.56,7.56,0,0,0-2-3.56l2.86-.91a8.46,8.46,0,0,0,.36,4.1l1,3.9c.65,2.6,1.24,5.21,1.8,7.83s1,5.25,1.47,7.89c.16.66.35,1.31.46,2s.17,1.33.25,2c.17,1.33.29,2.67.42,4,.19,2.68.35,5.36.41,8,0,1.34.06,2.69,0,4a10.41,10.41,0,0,0,.08,2c0,.67,0,1.34,0,2a133.49,133.49,0,0,1-1,16.1Z" />
          <path
            class="cls-2"
            d="M76.76,62.69l-.47.15a2.73,2.73,0,0,1-2.12-.24,2.83,2.83,0,0,1-1.33-1.71c-.64-3.31-1.25-6.79-2.2-10.1-.16-.55-.32-1.1-.5-1.63-1.36-2.79-3.36-9.79,2.64-7.79,2,1,2,5,3,7,.14.36.27.72.4,1.1A15.91,15.91,0,0,1,77,53.37c.22.79.44,1.54.63,2.23l1,3.53A2.89,2.89,0,0,1,76.76,62.69Z" />
          <path
            class="cls-2"
            d="M63.27,68.73A7.72,7.72,0,0,1,56,67.87c-.5-.32-1-.68-1.44-1.05a39.53,39.53,0,0,1-5.83-4.52c-.43-.42-.83-.84-1.19-1.27.22-1.66-2.78-1.66-1.78-3.66s3-3,5.25-.79c.63.34,1.27.72,1.86,1a12.8,12.8,0,0,0,1.57.79c.53.42,1.06.85,1.58,1.29a34.21,34.21,0,0,0,4.61,3.43l1,1.11c.67.76,1.35,1.56,2.09,2.36A2.9,2.9,0,0,1,63.27,68.73Z" />
          <path
            class="cls-2"
            d="M87.91,49.65c-5.13-2.28-2.13-7.28-3-11.14q0-.87,0-1.83c-.13-3.81-.88-8.31,2.87-8.31,3.33-.83,3.19,2.5,3,5.44,0,.59-.07,1.16-.09,1.69-.57,3,0,5.75,0,8.46,0,.54,0,1.08-.07,1.62.14.79.14,2.79-.85,3.32A2.51,2.51,0,0,1,87.91,49.65Z" />
          <path
            class="cls-2"
            d="M100.88,60.47a7.06,7.06,0,0,1-1-3.42,10.73,10.73,0,0,1,.11-1.87,14.39,14.39,0,0,1,1.78-4.62,9,9,0,0,1,1-1.34c1-.85,2-2.85,4-1.85,4,2,1,5-.07,7.12q-.3.55-.63,1.11c-1.07,1.86-2.28,3.63-3.18,4.93A2.88,2.88,0,0,1,100.88,60.47Z" />
          <path
            class="cls-2"
            d="M108.33,71.06l-.1-.16c-2.45-2.53,1.55-2.53,3-4.34.53-.42,1.05-.86,1.57-1.3,2.6-2.24,5.1-4.69,8.65-6a2.69,2.69,0,0,1,1.77,1.18l.1.17a2.92,2.92,0,0,1-.74,4L121,65.7l-1.67,1.16-1.91,1.34-1.91,1.33-3.29,2.3A2.73,2.73,0,0,1,108.33,71.06Z" />
          <path
            class="cls-2"
            d="M77.81,106.86c-.51-1.24-5.17-12.8-8.37-12.25s-4.14,8.26-4.54,11.29,2.67-6.88,4.54-6.75S77.81,106.86,77.81,106.86Z" />
          <path
            class="cls-2"
            d="M96.46,97c.29-1.32,3-13.52.12-15s-8,4.22-10.06,6.44,6-4,7.49-2.75S96.46,97,96.46,97Z" />
          <path
            class="cls-2"
            d="M111.77,95.93c.48-1.35,5-13.86,1.81-17.07s-9.83.64-12.45,2.11,7.5-1.39,9,.77S111.77,95.93,111.77,95.93Z" />
          <path
            class="cls-2"
            d="M87.67,82.42c-.91-.79-9.34-8.18-11.8-6.36s-.21,8.48.65,11.12-.48-6.74,1.13-7.43S87.67,82.42,87.67,82.42Z" />
        </g>
        <g id="ribbon">
          <path
            id="ribbon-element5"
            class="cls-3"
            d="M28,134.13l.73-.78a6.59,6.59,0,0,1,1.62-1.45c1.1-.74,2.86-2.94,5.84-3.24a4,4,0,0,1,2,.48,7.65,7.65,0,0,0,.71,3.1c0,.74,0,1.61,0,2.54-.1,4.64-.22,10.83-.22,10.83l-1.12,0-1.11,0a7,7,0,0,0-2.76,0,6.87,6.87,0,0,0-.81.22c-1.67-.88-3.43,2.63-5.18,2.63,1.75-1.76,0-5.27,2.88-7,.23-.25.49-.51.75-.77A24.38,24.38,0,0,0,33.68,138l.47-.63s-1-2.18-2.27-2.73A13.16,13.16,0,0,0,28,134.13Z" />
          <path
            id="ribbon-element4"
            class="cls-3"
            d="M148.69,134.72c-3.27-2.07-3.59-4.09-8.25-4.05a4.15,4.15,0,0,1-.88-.11,2.08,2.08,0,0,1-1.32-.89c-.28,0-.54,0-.79,0s-.46,0-.66.06l.34,15.85.65-.14.63-.11,1.05-.15,1-.19c1.41-.06,6.68-1.82,6.68,3.45,1.76-3.51-1.49-7.23-2.11-8.2a7.8,7.8,0,0,0-.66-.76,16.12,16.12,0,0,0-2.51-2.1h0a9.13,9.13,0,0,1,1.08-1.18c.26-.22,1.15-1.47,4.86-1.66A7.58,7.58,0,0,1,148.69,134.72Z" />
          <path
            id="ribbon-element1"
            class="cls-4"
            d="M38.67,145.61l-1.62-3.55,2.16-.25Z" />
          <path
            id="ribbon-element3"
            class="cls-4"
            d="M137.13,145.61l1.53-3.55-2.19-.82Z" />
          <path
            id="ribbon-element2"
            class="cls-5"
            d="M138.66,142.06s-2.65-.32-6.94-.77l-2.28-.24c-1.37-.27-2.68-.49-4-.67l-1.89-.24a8.47,8.47,0,0,1-2,.16,15,15,0,0,1-2.07-.22,12.7,12.7,0,0,0-7-1.17c-.8.06-1.62.16-2.43.24-6.84.53-12.11-3-19.31-.64l-1.47,0H85.7c-2-.22-4.22-.35-6.52-.41l-2.31,0a79.78,79.78,0,0,0-11.27.29c-.67,0-1.34,0-2,0a47.16,47.16,0,0,0-14.79,2.47l-2.52.25c-5.61.57-9.22,1-9.22,1,0-2.85.83-4.94.9-8.4a22.06,22.06,0,0,0-.05-2.26c.33-4-1.43-7.53.33-9.29a33.21,33.21,0,0,0,5.39-.3l1.46-.16,2.54-.25c6.42-2.8,15.21-1.05,21.67-1.43.53,0,1-.07,1.58-.09,6.86-.33,13.13-.53,17-.53,3.7,0,7.48.09,11.24.24l2.27.07c8.91.69,17.69.69,26.26,2.91l1.62.17a25.7,25.7,0,0,0,6.39-.18l2.24.27.78.1c0,.07-.85,6.83-.85,9.56A87.4,87.4,0,0,0,138.66,142.06Z" />
          <path
            class="cls-6"
            d="M73.85,130.5a2.8,2.8,0,0,1-.68,2.07,3.48,3.48,0,0,1-2.38,1,3.94,3.94,0,0,1-2.67-.4c-.07,0-.1-.14-.11-.29s0-.32-.07-.86-.07-.83-.08-.87,0-.09.1-.1l.31,0c.06,0,.09,0,.11.09s0,.22.08.46a1.78,1.78,0,0,0,.68,1.23,2.05,2.05,0,0,0,.77.32,2.73,2.73,0,0,0,.87.07,2.08,2.08,0,0,0,1.92-1.16,2.55,2.55,0,0,0,.16-1.15,1.39,1.39,0,0,0-.48-1,4.34,4.34,0,0,0-1.73-.75,6.3,6.3,0,0,1-2-.76,2.31,2.31,0,0,1-.91-1.87,2.73,2.73,0,0,1,.9-2.22,3.27,3.27,0,0,1,2.07-.86,4.12,4.12,0,0,1,1.62.14,2,2,0,0,1,.72.31.26.26,0,0,1,.13.19,10.67,10.67,0,0,1,.17,1.49c0,.1,0,.15,0,.16l-.37,0s-.06,0-.08-.09-.08-.33-.13-.55a1,1,0,0,0-.58-.69,3.53,3.53,0,0,0-1.8-.27,2.07,2.07,0,0,0-1.32.51,1.75,1.75,0,0,0-.36,1.42,1.42,1.42,0,0,0,.49,1,2.37,2.37,0,0,0,.83.39l1,.29c.67.22,1.06.36,1.18.41a3.32,3.32,0,0,1,1,.65A2.35,2.35,0,0,1,73.85,130.5Z" />
          <path
            class="cls-6"
            d="M81.08,131.83a.11.11,0,0,1,0,0,3.51,3.51,0,0,1-.38.35,4.45,4.45,0,0,1-2.34.84,2.79,2.79,0,0,1-2.1-.63,3,3,0,0,1-1-2.21,6.4,6.4,0,0,1,0-1.4,3.41,3.41,0,0,1,.85-1.79,2.66,2.66,0,0,1,1.88-.86,2,2,0,0,1,.9.13,6.26,6.26,0,0,1,.89.5,2.61,2.61,0,0,1,1,1,.43.43,0,0,1,.07.22c0,.06,0,.1-.13.14s-.75.22-1.67.44a16.74,16.74,0,0,1-2.1.4l-.36,0-.36,0c-.06,0-.09.12-.08.35a3.1,3.1,0,0,0,1.23,2.41,3,3,0,0,0,2,.4,3.84,3.84,0,0,0,1.15-.2,1.16,1.16,0,0,0,.43-.24l.07,0s.05,0,.06.05ZM79.57,128a.51.51,0,0,0-.08-.19,3,3,0,0,0-.85-.88,1.82,1.82,0,0,0-1.15-.31,1.26,1.26,0,0,0-.89.62,3.19,3.19,0,0,0-.31.68,2.25,2.25,0,0,0-.17.74c0,.08,0,.12.1.11l1.29-.18a8.14,8.14,0,0,0,1.95-.44A.18.18,0,0,0,79.57,128Z" />
          <path
            class="cls-6"
            d="M86.45,131.8a.24.24,0,0,1-.06.17,4,4,0,0,1-.79.47,3.8,3.8,0,0,1-1.56.42,1.37,1.37,0,0,1-1.58-1.52V128.1q0-.09,0-.63t0-.57a.21.21,0,0,0-.15-.21,6.09,6.09,0,0,0-.59-.24.17.17,0,0,1-.1-.17.26.26,0,0,1,.11-.18c.5-.43,1-.88,1.6-1.35a.3.3,0,0,1,.19-.08c.08,0,.11.07.08.21a4.44,4.44,0,0,0-.07,1c0,.17,0,.25.08.24l1.31-.06,1.28-.06c.11,0,.13.06.12.15a1.73,1.73,0,0,1-.11.42c0,.07-.07.11-.14.11H84.77l-1.21,0c-.06,0-.09,0-.09.07l.07,4.07a1.71,1.71,0,0,0,.2.93c.14.21.51.31,1.12.3a4,4,0,0,0,1.19-.25l.32-.13S86.45,131.71,86.45,131.8Z" />
          <path
            class="cls-6"
            d="M91.84,131.82a.2.2,0,0,1-.06.16,4.63,4.63,0,0,1-2.36.83,1.38,1.38,0,0,1-1.55-1.56c0-.07,0-.61,0-1.63s0-1.55,0-1.6,0-.28,0-.64,0-.54,0-.56a.23.23,0,0,0-.14-.22l-.6-.26a.16.16,0,0,1-.09-.16.21.21,0,0,1,.12-.18c.5-.42,1-.85,1.62-1.31a.35.35,0,0,1,.2-.07c.08,0,.1.07.07.21a5.15,5.15,0,0,0-.09,1c0,.16,0,.25.07.25l1.32,0,1.28,0c.11,0,.13.06.11.15a1.45,1.45,0,0,1-.12.42.12.12,0,0,1-.14.1l-1.23,0-1.22,0c-.06,0-.09,0-.09.07,0,1.62,0,2.44,0,4.06a1.86,1.86,0,0,0,.18.93c.13.21.51.33,1.12.33a3.56,3.56,0,0,0,1.19-.21l.32-.12S91.84,131.73,91.84,131.82Z" />
          <path
            class="cls-6"
            d="M96.05,132.77s0,0-.08,0c-1.48-.06-2.21-.08-3.69-.11-.06,0-.09,0-.09-.08v-.25a.08.08,0,0,1,.09-.09l1.21,0c.1,0,.15,0,.15-.16.07-3.24.1-4.85.17-8.09,0-1.08-.07-1.62-.27-1.63l-1,0q-.09,0-.09-.09v-.25c0-.06,0-.1.06-.09h.6a4.58,4.58,0,0,0,1.14-.11,2.27,2.27,0,0,0,.52-.13c.1,0,.14.08.14.22s0,1.45-.15,4.31-.15,4.35-.15,4.45c0,1.08,0,1.62.23,1.63l1.08,0a.07.07,0,0,1,.08.07Z" />
          <path
            class="cls-6"
            d="M102.48,132.22a0,0,0,0,1,0,0,3.41,3.41,0,0,1-.4.31,5.2,5.2,0,0,1-.76.34,4.19,4.19,0,0,1-1.63.22,3,3,0,0,1-2-.87,3.08,3.08,0,0,1-.87-2.3,6.47,6.47,0,0,1,.15-1.38,3.2,3.2,0,0,1,1-1.66,2.59,2.59,0,0,1,1.94-.62,2.19,2.19,0,0,1,.89.22,8.36,8.36,0,0,1,.84.6,2.82,2.82,0,0,1,.91,1.08.8.8,0,0,1,.05.23s-.05.09-.15.12a14.07,14.07,0,0,1-1.69.23,16.38,16.38,0,0,1-2.12.16l-.36,0h-.36c-.06,0-.1.11-.11.34a3.16,3.16,0,0,0,1,2.51,3.11,3.11,0,0,0,2,.63,3.47,3.47,0,0,0,1.16-.07,1.15,1.15,0,0,0,.45-.18l.07,0s0,0,0,0Zm-1.2-4a.44.44,0,0,0-.07-.19,3.21,3.21,0,0,0-.77-1,2,2,0,0,0-1.12-.44,1.17,1.17,0,0,0-.94.51,2.78,2.78,0,0,0-.36.63,2,2,0,0,0-.23.71q0,.12.09.12l1.3,0a8.17,8.17,0,0,0,2-.22C101.23,128.34,101.27,128.3,101.28,128.24Z" />
          <path
            class="cls-6"
            d="M108.47,127.77a6.07,6.07,0,0,1-.3.88c0,.07-.07.1-.12.1a.22.22,0,0,1-.13-.09,1.42,1.42,0,0,0-.32-.4,1.22,1.22,0,0,0-.73-.3,2,2,0,0,0-1.31.22.24.24,0,0,0-.08.19s0,.59-.12,1.67-.11,1.66-.11,1.72c-.06.86,0,1.29.16,1.31l1.45.14c.07,0,.1,0,.09.11v.21c0,.05,0,.07-.08.06-1.51-.15-2.26-.22-3.78-.34-.07,0-.1,0-.1-.08V133c0-.07,0-.1.1-.09l.89.07q.15,0,.15-.12c.11-1.91.17-2.86.28-4.76,0-.66,0-1-.19-1l-.93-.08c-.05,0-.07,0-.07-.08v-.24c0-.05,0-.07.08-.07l1,.09a3.55,3.55,0,0,0,.7,0,2.76,2.76,0,0,1,.46-.07c.07,0,.1.07.09.2s0,.18,0,.43,0,.39,0,.42,0,.18.08.13c.25-.17.53-.37.84-.56a1.85,1.85,0,0,1,1.1-.28,1.14,1.14,0,0,1,.91.6A.23.23,0,0,1,108.47,127.77Z" />
        </g>
      </g>
    </g>
  </g>
</svg>
