<svg xmlns="http://www.w3.org/2000/svg" viewBox="0 0 92.28 113.82"><defs><style>.cls-1{fill:#c4c6b5;}.cls-2{fill:none;stroke:#c4c6b5;stroke-miterlimit:10;}</style></defs><title>SettlerIcon</title><g id="Layer_2" data-name="Layer 2"><g id="ROLE_ICONS" data-name="ROLE ICONS"><g id="settler_icon"><g id="plant"><path class="cls-1" d="M33.55,89.32c-6,.55-17.38.67-21.37,1.65-6.14,1.52-22.11,9.36-3.31,12,3.32.46,36.8.56,35.79,3s-8.87,3.86-3.28,6.61,38.25.49,45.37-3c5.32-2.6,11.38-10.19-5.91-12.84-8.46-1.3-3.77-6.89-9.68-8.26S33.55,89.32,33.55,89.32Z"/><path class="cls-2" d="M36.8,100.86c1.6-7.44,4.19-24.64-3.47-43.23A68.48,68.48,0,0,0,22.58,39.87"/><path class="cls-2" d="M47.38,92.66c.34-13,2.41-26.83,0-40.75-1.47-8.45,4-14,1-31.17"/><path class="cls-2" d="M52.78,98c0-1.11,4.22-25.44,6.73-36.49s6-18.42,14.37-22.14"/><path class="cls-2" d="M58.64,92.66c1.13-.73-2.38-28.83-1.78-45.3.35-9.77,5.26-14.7,6.47-18.86"/><path class="cls-2" d="M42.3,96.21a142.18,142.18,0,0,0,0-40.75A139.82,139.82,0,0,0,37.11,33"/><path class="cls-1" d="M37.49,34.45l-.47.14a2.66,2.66,0,0,1-2.11-.23,2.8,2.8,0,0,1-1.34-1.71c-.64-3.31-1.25-6.8-2.2-10.1-.16-.55-.32-1.1-.5-1.63-1.36-2.79-3.36-9.79,2.64-7.79,2,1,2,5,3,7,.14.35.27.72.4,1.1a15.46,15.46,0,0,1,.79,3.88c.22.79.44,1.54.64,2.23l1,3.53A2.89,2.89,0,0,1,37.49,34.45Z"/><path class="cls-1" d="M24,40.49a7.72,7.72,0,0,1-7.25-.86,16.13,16.13,0,0,1-1.44-1.06,38.22,38.22,0,0,1-5.82-4.51,15.66,15.66,0,0,1-1.2-1.27c.22-1.66-2.78-1.66-1.78-3.66s3-3,5.25-.79c.63.34,1.27.71,1.86,1a15.37,15.37,0,0,0,1.57.79q.8.63,1.59,1.29a35.26,35.26,0,0,0,4.6,3.43c.33.36.67.73,1,1.11.67.76,1.35,1.55,2.09,2.36A2.9,2.9,0,0,1,24,40.49Z"/><path class="cls-1" d="M48.64,21.41c-5.13-2.28-2.13-7.28-3-11.14,0-.58,0-1.2,0-1.83C45.51,4.63,44.76.13,48.51.13c3.33-.83,3.19,2.5,3,5.44,0,.59-.08,1.16-.1,1.68-.57,3.05,0,5.76,0,8.46,0,.54,0,1.09-.07,1.63.14.79.14,2.79-.85,3.32A2.51,2.51,0,0,1,48.64,21.41Z"/><path class="cls-1" d="M61.61,32.23a7.09,7.09,0,0,1-1-3.42,10.67,10.67,0,0,1,.11-1.87,14.39,14.39,0,0,1,1.78-4.62,8.5,8.5,0,0,1,1-1.34c1-.85,2-2.85,4-1.85,4,2,1,5-.07,7.12q-.3.55-.63,1.11c-1.07,1.86-2.28,3.63-3.17,4.93A3,3,0,0,1,61.61,32.23Z"/><path class="cls-1" d="M69.07,42.82,69,42.66c-2.45-2.53,1.55-2.53,3-4.34.53-.42,1.06-.86,1.57-1.3,2.6-2.24,5.1-4.7,8.65-6A2.74,2.74,0,0,1,84,32.17l.11.17a2.94,2.94,0,0,1-.75,4L81.7,37.46,80,38.62,78.12,40l-1.91,1.33-3.29,2.3A2.72,2.72,0,0,1,69.07,42.82Z"/><path class="cls-1" d="M38.54,78.62c-.51-1.24-5.17-12.8-8.37-12.25S26,74.63,25.63,77.66s2.67-6.89,4.54-6.75S38.54,78.62,38.54,78.62Z"/><path class="cls-1" d="M57.19,68.7c.29-1.31,3-13.51.12-15s-8,4.22-10.06,6.44,6.06-4,7.49-2.75S57.19,68.7,57.19,68.7Z"/><path class="cls-1" d="M72.5,67.69c.48-1.35,5-13.86,1.81-17.07s-9.83.64-12.45,2.11,7.51-1.39,9,.77S72.5,67.69,72.5,67.69Z"/><path class="cls-1" d="M48.4,54.17c-.91-.78-9.34-8.18-11.8-6.35s-.2,8.48.65,11.12-.48-6.74,1.14-7.43S48.4,54.17,48.4,54.17Z"/></g></g></g></g></svg>