<svg xmlns="http://www.w3.org/2000/svg" viewBox="0 0 176.37 176.37">
  <defs>
    <style>
      .cls-1 {
        fill: #e8edf3;
      }
      .cls-2 {
        fill: #124559;
      }
      .cls-3 {
        fill: #296a75;
      }
      .cls-4 {
        fill: #274b51;
      }
      .cls-5 {
        fill: #3f7b89;
      }
      .cls-6 {
        fill: #ffecd4;
      }
    </style>
  </defs>
  <title>trader_icon</title>
  <g id="Layer_2" data-name="Layer 2">
    <g id="ROLE_ICONS" data-name="ROLE ICONS">
      <g id="trader_icon">
        <circle class="cls-1" cx="88.19" cy="88.19" r="88.19" />
        <g id="market">
          <rect
            class="cls-2"
            x="47.96"
            y="65.04"
            width="2.75"
            height="70.05"
            rx="0.7"
            transform="translate(-6.77 3.63) rotate(-3.94)" />
          <rect
            class="cls-2"
            x="126.42"
            y="65.22"
            width="2.75"
            height="70.05"
            rx="0.7"
            transform="translate(6.64 -7.93) rotate(3.65)" />
          <path
            class="cls-2"
            d="M144.18,68.21c-8.8-6.93-18.56-16.47-21.82-27.08,0,0-18.69,2.42-32.72,2.79A158.49,158.49,0,0,1,56,41.13C52.9,47.44,43.25,58.54,32.19,68.21c0,.05,0,.15,0,.23h0a3.71,3.71,0,0,0,7.41,0h0a3.71,3.71,0,0,0,7.42,0h0a3.71,3.71,0,0,0,7.41,0h.06a3.71,3.71,0,0,0,7.41,0h0a3.71,3.71,0,0,0,7.41,0h.06a3.71,3.71,0,0,0,7.41,0H77a3.7,3.7,0,0,0,7.4,0h.06a3.71,3.71,0,0,0,7.41,0H92a3.71,3.71,0,0,0,7.41,0h0a3.71,3.71,0,0,0,7.41,0h.06a3.71,3.71,0,0,0,7.41,0h0a3.71,3.71,0,0,0,7.41,0h.06a3.71,3.71,0,0,0,7.41,0h.05a3.71,3.71,0,0,0,7.42,0h.05a3.71,3.71,0,0,0,7.42,0h0C144.16,68.36,144.23,68.25,144.18,68.21Z" />
          <polygon
            class="cls-2"
            points="50.04 108.06 52.23 134.97 125.08 135.17 126.92 108.06 50.04
            108.06" />
          <ellipse class="cls-2" cx="66.44" cy="105.81" rx="4.43" ry="2.97" />
          <ellipse class="cls-2" cx="75.54" cy="106.89" rx="2.91" ry="2.52" />
          <rect
            class="cls-2"
            x="94.07"
            y="98.83"
            width="4.68"
            height="11.76"
            rx="1.85" />
          <rect
            class="cls-2"
            x="99.57"
            y="102.84"
            width="12.52"
            height="6.57"
            rx="2.6" />
          <rect
            class="cls-2"
            x="76.68"
            y="100.06"
            width="5.44"
            height="10.53" />
        </g>
        <g id="ribbon">
          <path
            id="ribbon-element5"
            class="cls-3"
            d="M28,134.13l.73-.78a6.59,6.59,0,0,1,1.62-1.45c1.1-.74,2.86-2.94,5.84-3.24a4,4,0,0,1,2,.48,7.65,7.65,0,0,0,.71,3.1c0,.74,0,1.61,0,2.54-.1,4.64-.22,10.83-.22,10.83l-1.12,0-1.11,0a7,7,0,0,0-2.76,0,6.87,6.87,0,0,0-.81.22c-1.67-.88-3.43,2.63-5.18,2.63,1.75-1.76,0-5.27,2.88-7,.23-.25.49-.51.75-.77A24.38,24.38,0,0,0,33.68,138l.47-.63s-1-2.18-2.27-2.73A13.16,13.16,0,0,0,28,134.13Z" />
          <path
            id="ribbon-element4"
            class="cls-3"
            d="M148.69,134.72c-3.27-2.07-3.59-4.09-8.25-4.05a4.15,4.15,0,0,1-.88-.11,2.08,2.08,0,0,1-1.32-.89c-.28,0-.54,0-.79,0s-.46,0-.66.06l.34,15.85.65-.14.63-.11,1.05-.15,1-.19c1.41-.06,6.68-1.82,6.68,3.45,1.76-3.51-1.49-7.23-2.11-8.2a7.8,7.8,0,0,0-.66-.76,16.12,16.12,0,0,0-2.51-2.1h0a9.13,9.13,0,0,1,1.08-1.18c.26-.22,1.15-1.47,4.86-1.66A7.58,7.58,0,0,1,148.69,134.72Z" />
          <path
            id="ribbon-element1"
            class="cls-4"
            d="M38.67,145.61l-1.62-3.55,2.16-.25Z" />
          <path
            id="ribbon-element3"
            class="cls-4"
            d="M137.13,145.61l1.53-3.55-2.19-.82Z" />
          <path
            id="ribbon-element2"
            class="cls-5"
            d="M138.66,142.06s-2.65-.32-6.94-.77l-2.28-.24c-1.37-.27-2.68-.49-4-.67l-1.89-.24a8.47,8.47,0,0,1-2,.16,15,15,0,0,1-2.07-.22,12.7,12.7,0,0,0-7-1.17c-.8.06-1.62.16-2.43.24-6.84.53-12.11-3-19.31-.64l-1.47,0H85.7c-2-.22-4.22-.35-6.52-.41l-2.31,0a79.78,79.78,0,0,0-11.27.29c-.67,0-1.34,0-2,0a47.16,47.16,0,0,0-14.79,2.47l-2.52.25c-5.61.57-9.22,1-9.22,1,0-2.85.83-4.94.9-8.4a22.06,22.06,0,0,0-.05-2.26c.33-4-1.43-7.53.33-9.29a33.21,33.21,0,0,0,5.39-.3l1.46-.16,2.54-.25c6.42-2.8,15.21-1.05,21.67-1.43.53,0,1-.07,1.58-.09,6.86-.33,13.13-.53,17-.53,3.7,0,7.48.09,11.24.24l2.27.07c8.91.69,17.69.69,26.26,2.91l1.62.17a25.7,25.7,0,0,0,6.39-.18l2.24.27.78.1c0,.07-.85,6.83-.85,9.56A87.4,87.4,0,0,0,138.66,142.06Z" />
          <path
            class="cls-6"
            d="M75.53,124.15a9.31,9.31,0,0,1-.19,1.09c0,.07,0,.11-.09.11s-.1,0-.15-.11a.87.87,0,0,0-.63-.39,15,15,0,0,0-2.73,0c-.08,0-.12,0-.12.11s0,1.21.14,3.43.14,3.27.15,3.42c.07,1.39.23,2.08.48,2.06l1.27-.1s0,0,0,.05l0,.26s0,.08,0,.08c-1.63.12-2.44.2-4.07.36,0,0-.08,0-.08-.07l0-.24c0-.05,0-.08.08-.08l1.19-.12c.09,0,.14-.07.13-.2-.07-1-.13-1.59-.13-1.69s0-.91-.11-2.48-.11-2.39-.11-2.46c-.09-1.48-.22-2.21-.4-2.19a11.44,11.44,0,0,0-2.77.48,1.32,1.32,0,0,0-.72.48c0,.1-.1.15-.14.15s-.1,0-.11,0a.5.5,0,0,1,0-.19q.17-.77.27-1.14c0-.07.07-.1.16-.1s.64,0,1.58-.07c1.1,0,2-.11,2.68-.16,2.18-.19,3.42-.26,3.72-.29l.38-.06.17,0A.1.1,0,0,1,75.53,124.15Z" />
          <path
            class="cls-6"
            d="M81.43,127.71a6.84,6.84,0,0,1-.21.92c0,.08-.06.12-.1.12a.15.15,0,0,1-.14-.07,2,2,0,0,0-.36-.36,1.22,1.22,0,0,0-.76-.2,2,2,0,0,0-1.27.42.23.23,0,0,0-.07.2s0,.6,0,1.7,0,1.68,0,1.74c0,.87.13,1.3.29,1.3l1.45-.07c.07,0,.1,0,.1.1v.21c0,.05,0,.08-.07.08-1.51.06-2.27.1-3.79.19-.07,0-.1,0-.1-.06v-.21c0-.07,0-.11.08-.11l.9-.06a.13.13,0,0,0,.14-.14c-.07-1.93-.11-2.9-.18-4.83,0-.67-.12-1-.28-1l-.94.06s-.07,0-.08-.08v-.24s0-.08.07-.08l1-.06a3.73,3.73,0,0,0,.69-.08l.45-.14c.08,0,.11.06.12.19v.44c0,.26,0,.4,0,.43s0,.18.1.12c.23-.21.48-.44.77-.68a1.83,1.83,0,0,1,1.08-.44,1,1,0,0,1,1,.47A.22.22,0,0,1,81.43,127.71Z" />
          <path
            class="cls-6"
            d="M88.18,133.15a.22.22,0,0,1,0,.1,4.48,4.48,0,0,1-.61.53.18.18,0,0,1-.13.05,1.27,1.27,0,0,1-.87-.39,2.27,2.27,0,0,1-.6-.89c0-.09-.07-.09-.12,0a2.74,2.74,0,0,1-.41.43,2.68,2.68,0,0,1-.47.38,2.74,2.74,0,0,1-1.31.45,1.47,1.47,0,0,1-.84-.17,1,1,0,0,1-.44-.9,2.27,2.27,0,0,1,.43-1.37,2.57,2.57,0,0,1,1-.79,8.8,8.8,0,0,1,2-.6s.07-.07.07-.16a9.92,9.92,0,0,0,0-1.52.74.74,0,0,0-.35-.57,1.51,1.51,0,0,0-.86-.18,2.43,2.43,0,0,0-1.09.2c-.12.09-.17.17-.14.26v.21a1,1,0,0,1-.17.57.77.77,0,0,1-.62.43q-.27,0-.27-.33a1.22,1.22,0,0,1,.32-.72,3,3,0,0,1,.74-.69,4,4,0,0,1,2-.46,1.84,1.84,0,0,1,1.24.33,1.47,1.47,0,0,1,.28,1.05c0,.38,0,1-.07,1.74s-.06,1.21-.06,1.32a1.52,1.52,0,0,0,1.24,1.64C88.14,133.09,88.18,133.12,88.18,133.15Zm-2.31-2.72a.12.12,0,0,0-.13-.14,3.35,3.35,0,0,0-1.3.34c-.8.37-1.2.86-1.19,1.47a.91.91,0,0,0,.29.75,1.19,1.19,0,0,0,.73.17,2.06,2.06,0,0,0,1.32-.6.55.55,0,0,0,.2-.37C85.84,131.47,85.87,130.93,85.87,130.43Z" />
          <path
            class="cls-6"
            d="M96.59,133q0,.14-.06.15a15.38,15.38,0,0,0-1.66.59,3.69,3.69,0,0,0-.59.26c-.07,0-.11-.06-.1-.17s0-.14,0-.32,0-.29,0-.33a2.2,2.2,0,0,0,0-.45c0-.07-.08-.1-.17-.07-.29.21-.64.46-1,.72a2.93,2.93,0,0,1-1.65.4,2.19,2.19,0,0,1-1-.25,2.33,2.33,0,0,1-1-1.12,4.72,4.72,0,0,1-.41-2,3.52,3.52,0,0,1,.94-2.69A2.89,2.89,0,0,1,92,127a3.7,3.7,0,0,1,1.22.21,8,8,0,0,1,1,.49c.07,0,.1,0,.11-.13s0-.51,0-1.37,0-1.34,0-1.42c0-.86-.08-1.29-.27-1.3l-1.07,0a.08.08,0,0,1-.09-.09v-.19c0-.08,0-.11.08-.11h.37a4.52,4.52,0,0,0,1.66-.2l.42-.14c.06,0,.09.07.09.19s0,.33,0,.93,0,1,0,1.07c-.07,2.74-.1,4.11-.17,6.85,0,1,.06,1.42.25,1.37l.76-.22a1.47,1.47,0,0,1,.32-.09S96.59,132.84,96.59,133Zm-2.37-1.06s0-.21,0-.75,0-1,0-1.46a7.5,7.5,0,0,0-.08-1.52.46.46,0,0,0-.23-.31,4,4,0,0,0-1.86-.47,2,2,0,0,0-1.6.57,3.11,3.11,0,0,0-.68,2.16A3.37,3.37,0,0,0,90,131.3a2.58,2.58,0,0,0,.37.78,2.12,2.12,0,0,0,.68.6,2.59,2.59,0,0,0,1,.19,3.4,3.4,0,0,0,2-.62C94.18,132.2,94.21,132.09,94.22,131.91Z" />
          <path
            class="cls-6"
            d="M102.81,133.22l0,0a2.65,2.65,0,0,1-1.17.64,3.82,3.82,0,0,1-1.63.22,2.92,2.92,0,0,1-2-.87,3.12,3.12,0,0,1-.87-2.3,6.47,6.47,0,0,1,.15-1.38,3.28,3.28,0,0,1,1-1.66,2.58,2.58,0,0,1,1.93-.62,2.1,2.1,0,0,1,.89.23,5.88,5.88,0,0,1,.85.6,2.78,2.78,0,0,1,.9,1.08.42.42,0,0,1,0,.23s0,.09-.14.12-.76.13-1.69.23a18,18,0,0,1-2.13.15l-.35,0h-.37c-.06,0-.09.11-.1.34a2.85,2.85,0,0,0,3,3.15,3.73,3.73,0,0,0,1.16-.07,1.08,1.08,0,0,0,.45-.18l.07,0a.06.06,0,0,1,.06,0Zm-1.21-4a.55.55,0,0,0-.06-.19,3.13,3.13,0,0,0-.78-1,1.85,1.85,0,0,0-1.12-.43,1.17,1.17,0,0,0-.93.5,3.27,3.27,0,0,0-.37.63,2.22,2.22,0,0,0-.22.72.1.1,0,0,0,.09.12s.38,0,1.29,0a7.92,7.92,0,0,0,2-.21C101.56,129.34,101.6,129.3,101.6,129.24Z" />
          <path
            class="cls-6"
            d="M108.79,128.77a6.07,6.07,0,0,1-.3.88c0,.07-.07.1-.11.1a.18.18,0,0,1-.13-.09,1.89,1.89,0,0,0-.32-.4,1.24,1.24,0,0,0-.74-.3,2,2,0,0,0-1.3.22.22.22,0,0,0-.09.19s0,.59-.11,1.67-.11,1.66-.12,1.72c0,.86,0,1.29.17,1.31l1.45.14a.1.1,0,0,1,.09.11l0,.21c0,.05,0,.07-.07.06-1.51-.15-2.27-.22-3.78-.34-.07,0-.11,0-.1-.08V134c0-.07,0-.1.09-.1l.9.08c.09,0,.14,0,.15-.13.11-1.9.16-2.85.28-4.75,0-.66,0-1-.2-1l-.92-.08c-.06,0-.08,0-.08-.09l0-.23c0-.05,0-.07.08-.07l1,.09a3.55,3.55,0,0,0,.7,0,2.92,2.92,0,0,1,.46-.07c.07,0,.1.07.1.2s0,.18-.05.43,0,.39,0,.42,0,.18.09.13c.24-.17.52-.37.83-.56a1.78,1.78,0,0,1,1.11-.27,1.13,1.13,0,0,1,.91.59A.22.22,0,0,1,108.79,128.77Z" />
        </g>
      </g>
    </g>
  </g>
</svg>
