<svg xmlns="http://www.w3.org/2000/svg" viewBox="0 0 112.03 94.11"><defs><style>.cls-1{fill:#c4c6b5;}</style></defs><title>TraderIcon</title><g id="Layer_2" data-name="Layer 2"><g id="ROLE_ICONS" data-name="ROLE ICONS"><g id="trader_icon"><g id="market"><rect class="cls-1" x="15.79" y="23.91" width="2.75" height="70.05" rx="0.7" transform="translate(-4.01 1.32) rotate(-3.94)"/><rect class="cls-1" x="94.25" y="24.09" width="2.75" height="70.05" rx="0.7" transform="translate(3.95 -5.96) rotate(3.65)"/><path class="cls-1" d="M112,27.08C103.21,20.15,93.45,10.61,90.19,0c0,0-18.69,2.42-32.72,2.78A157.7,157.7,0,0,1,23.87,0C20.73,6.31,11.07,17.41,0,27.08c0,.05,0,.15,0,.22H0a3.76,3.76,0,0,0,3.71,3.58,3.75,3.75,0,0,0,3.71-3.57h0a3.71,3.71,0,0,0,7.42,0H15a3.71,3.71,0,0,0,7.41,0h.05a3.71,3.71,0,0,0,7.42,0h.05a3.71,3.71,0,0,0,7.41,0h.06a3.71,3.71,0,0,0,7.41,0h.05a3.71,3.71,0,0,0,7.41,0h.06a3.71,3.71,0,0,0,7.41,0h.05a3.71,3.71,0,0,0,7.41,0h.06a3.71,3.71,0,0,0,7.41,0h.06a3.71,3.71,0,0,0,7.41,0h0a3.71,3.71,0,0,0,7.41,0h.06a3.71,3.71,0,0,0,7.41,0h0a3.71,3.71,0,0,0,7.42,0h0a3.71,3.71,0,0,0,7.41,0h0C112,27.22,112.06,27.12,112,27.08Z"/><polygon class="cls-1" points="17.87 66.93 20.06 93.84 92.91 94.04 94.75 66.93 17.87 66.93"/><ellipse class="cls-1" cx="34.27" cy="64.67" rx="4.43" ry="2.97"/><ellipse class="cls-1" cx="43.37" cy="65.76" rx="2.91" ry="2.52"/><rect class="cls-1" x="61.89" y="57.7" width="4.68" height="11.76" rx="1.85"/><rect class="cls-1" x="67.39" y="61.7" width="12.52" height="6.57" rx="2.6"/><rect class="cls-1" x="44.51" y="58.93" width="5.44" height="10.53"/></g></g></g></g></svg>