<svg xmlns="http://www.w3.org/2000/svg" viewBox="0 0 167.01 126.16"><defs><style>.cls-1{fill:#1c8daf;}.cls-2{fill:#5cc8e5;}.cls-3{fill:#25667f;}</style></defs><title>ShipR</title><g id="Layer_2" data-name="Layer 2"><g id="LOBBY_FOOTER"><g id="ship"><polygon class="cls-1" points="73.8 106.09 73.8 0 71.59 106.09 73.8 106.09"/><polygon class="cls-1" points="102.02 107.07 102.02 23.05 99.35 107.07 102.02 107.07"/><polygon class="cls-1" points="22.03 100.03 22.03 47.48 20.08 100.03 22.03 100.03"/><polygon class="cls-1" points="35.52 81.63 7.74 92 21.63 61.74 35.52 81.63"/><path class="cls-2" d="M157.94,93.93,102,39.27S114.6,64.72,115.2,88.55c3.74-5.58,31.47,1.58,31.47,1.58l-.28-1.55,2.75,2.32Z"/><path class="cls-2" d="M88.69,18.34s10.78,15.94,6.09,21.22c-4.13-4-6.09-2.7-6.09-2.7S100.43,80,97.39,75.35s-7.18-4.16-7.18-4.16S98,82.63,97.39,94.07c-1.62-.82-8.93-.8-8.93-.8l-1.25-3.11L84.8,93.54,53.27,98.81l6.52-32.62a20.69,20.69,0,0,1,5,1.46c4.56-2.91-2.39-34.54-2.39-34.54s2.18,2.51,3.91,1.17C72.83,28.74,63.7,2.74,63.7,2.74Z"/><path class="cls-2" d="M44.17,83.85c-5.42-5.51-26.58.89-39.86,1.33L49.62,42.25C47.8,56.12,44.76,63.71,44.17,83.85Z"/><polygon class="cls-1" points="167.01 92.95 120.96 100.76 108.14 121.47 86.91 126.16 62.08 125.38 12.42 125.68 0 111.31 4 92.95 31.64 92.95 31.24 99.98 53.27 98.81 60.08 103.89 83.51 104.67 87.71 99.59 116.55 98.42 167.01 92.95"/><polygon class="cls-3" points="90.21 71.19 76.3 70.53 73.22 66.07 73.41 69.81 64.79 67.65 72.19 72.68 93.3 76.71 90.21 71.19"/><polygon class="cls-3" points="88.69 36.86 80.35 35.66 65.3 34.67 67.74 38.15 88.69 36.86"/><polygon class="cls-1" points="138.53 87.91 102.02 39.27 113.83 74.63 121.92 85.75 138.53 87.91"/><polygon class="cls-1" points="67.74 38.15 83.51 44.25 96.18 66.07 88.69 36.86 67.74 38.15"/><path class="cls-1" d="M63.7,2.74,75.58,21.15,73,27.89l14.27,4,7.52,7.71-6.09-2.7L65.3,34.67S74.35,33.9,63.7,2.74Z"/><path class="cls-1" d="M49.62,42.25,39.43,62.4l-.4,17,5.14,4.41S46.56,60,49.62,42.25Z"/><polygon class="cls-3" points="0 111.31 14.12 120.15 36.75 121.72 63.83 121.72 71.59 118.74 79.86 118.67 84.21 121.72 102.02 112.92 120.96 100.76 108.14 121.47 86.91 126.16 61.59 125.42 12.42 125.68 0 111.31"/></g></g></g></svg>