<svg xmlns="http://www.w3.org/2000/svg" viewBox="0 0 170.33 170.33"><defs><style>.cls-1{fill:#664848;}.cls-2{fill:#124559;}</style></defs><title>coffee_icon</title><g id="Layer_2" data-name="Layer 2"><g id="GOODS_ICONS"><g id="coffee_icon"><circle class="cls-1" cx="85.16" cy="85.16" r="85.16"/><g id="coffee_beans"><path class="cls-2" d="M49.06,75.47a9.67,9.67,0,0,0-1.68,1c-4.16,3.35-5.36,8.07-5,13,.06.81.16,1.62.3,2.44s.44,1.6.68,2.37.49,1.54.75,2.28.69,1.29,1,1.92.81,1.22,1.2,1.84.78,1.27,1.16,1.91c4.9,6.3,7.55,16.15,17.47,14.07a9.67,9.67,0,0,0,2-.31,8.77,8.77,0,0,0,1.85-.69,10.3,10.3,0,0,0,4.27-4.06,14.55,14.55,0,0,0,.93-1.9,17.89,17.89,0,0,0,1.32-6,16.85,16.85,0,0,0,0-2c-1.36-5.66-2.67-12.82-6.52-17.81-.45-.68-.94-1.36-1.45-2-3.58-4.58-8.52-8.18-14.8-7a9.52,9.52,0,0,0-1.77.32A9.36,9.36,0,0,0,49.06,75.47Zm12,16a14.75,14.75,0,0,1,.74,4c.09.66.18,1.32.25,2,.21,1.74.39,3.5.69,5.23.1.57.21,1.14.34,1.71a36.55,36.55,0,0,0,2.72,6.52c-3.13-1.8-5.8-4.94-5.75-8.54,0-.45-.09-.91-.17-1.36a8.74,8.74,0,0,0-.32-1.37c-.08-.7-.14-1.41-.21-2.11s-.14-1.41-.22-2.11-.2-1.4-.33-2.08C57.86,88,52.5,86.17,50,81.44a9.52,9.52,0,0,0-1.49-1.1c.44.16.9.33,1.37.53,4.43,2.18,8,4.88,10.59,9.13C60.69,90.43,60.88,91,61.09,91.42Z"/><path class="cls-2" d="M123.83,87.65C126,86,127.53,82.49,127.9,80a11.81,11.81,0,0,0,.11-1.46,10.14,10.14,0,0,0-.1-1.46c-.09-.54-.22-1.07-.36-1.61-.19-.71-.41-1.42-.67-2.12s-.66-1.36-1-2-.68-1.3-1-1.92-.82-1.07-1.23-1.57-.91-1-1.35-1.49-.88-1-1.32-1.55c-3.7-3.48-6.75-8.64-11.06-10.38a8.23,8.23,0,0,0-1.92-.51c-6.75.13-11.87,6.89-11.1,13.34q.14.89.36,1.77c.47,1.06.94,2.18,1.45,3.33.25.57.51,1.16.79,1.74a83.86,83.86,0,0,0,6.63,8.64,32.44,32.44,0,0,0,3.75,3.57c1.12.89,2.37,1.54,3.54,2.34a6.56,6.56,0,0,0,3.86,1.44,10.3,10.3,0,0,0,2.95-.82A15.78,15.78,0,0,0,123.27,88,4,4,0,0,0,123.83,87.65ZM111.14,76c-.27-.64-.54-1.15-.77-1.66a7.07,7.07,0,0,1-.55-1.75c-.19-.57-.37-1.15-.55-1.73-.48-1.51-.94-3-1.49-4.54-.18-.5-.37-1-.58-1.48-.77-1.21-2.07-3.61-2.94-5.22,2,0,3.26,2.42,4.64,3.72a7.6,7.6,0,0,1,.78,1.39,7.24,7.24,0,0,1,.47,1.54c.11.39.23.78.37,1.18a10,10,0,0,0,.52,1.17l.54,1.84c.18.62.36,1.24.55,1.84s.4,1.21.64,1.81a7.44,7.44,0,0,0,.79,1.54A13.19,13.19,0,0,0,117,79.09c.44.34.9.67,1.36,1,1.55,1.21,3.17,2.42,4.8,3.63a51.93,51.93,0,0,1-5.82-2.24c-.47-.31-.92-.62-1.37-1s-.68-.5-1-.76l-1-.81a5.4,5.4,0,0,0-2-1.76C111.64,76.83,111.4,76.39,111.14,76Z"/><path class="cls-2" d="M104.1,112.55a9.6,9.6,0,0,0-.64-1.67A12.49,12.49,0,0,0,93.75,104a18.89,18.89,0,0,0-2-.2c-.67,0-1.33.08-2,.14s-1.28.13-1.9.21-1.12.36-1.66.55-1.08.48-1.62.7l-1.67.64c-5.63,3.08-13.81,3.51-13.36,12.59a10.46,10.46,0,0,0,0,1.77,9.64,9.64,0,0,0,.33,1.75,10,10,0,0,0,2.72,4.52A11.31,11.31,0,0,0,74,127.85a14.73,14.73,0,0,0,4.66,2.32,12.77,12.77,0,0,0,1.6.37c4.68-.1,10.56.12,15-2.28.6-.27,1.2-.56,1.78-.88,4.1-2.26,7.57-5.89,7.39-11.61a9.76,9.76,0,0,0-.35-3.22ZM89.9,120a10.75,10.75,0,0,1-3.25-.11L85,119.74c-1.41-.16-2.84-.33-4.25-.4-.47,0-.94,0-1.41,0a26.34,26.34,0,0,0-5.53,1.13c1.82-2.39,4.65-4.12,7.51-3.39q.56.08,1.11.12a6.12,6.12,0,0,0,1.13,0l1.71.23c.57.07,1.14.15,1.71.21s1.14.1,1.7.11c4.32.17,6.42-4.18,10.51-5.46a7.86,7.86,0,0,0,1.06-1.1c-.18.36-.38.73-.59,1.1-2.28,3.46-4.87,6.06-8.59,7.51C90.73,119.85,90.3,119.91,89.9,120Z"/><path class="cls-2" d="M102,80.09a6.8,6.8,0,0,0-1.25-.73c-3.58-1.59-7.06-.78-10.11,1.09-.51.31-1,.65-1.49,1s-.89.83-1.32,1.25S87,83.54,86.64,84s-.61.89-.89,1.33-.53.94-.8,1.41-.57.93-.86,1.39c-2.45,5.31-8,10.35-3.29,16.11a7.66,7.66,0,0,0,.86,1.17,7.05,7.05,0,0,0,1.07,1,7.52,7.52,0,0,0,4.08,1.42,10.13,10.13,0,0,0,1.55,0,13.06,13.06,0,0,0,4.37-1.16,14.63,14.63,0,0,0,1.3-.69c3.23-2.79,7.45-6,9.41-10.23.29-.52.57-1.07.82-1.62,1.78-3.87,2.47-8.3-.42-12a7.43,7.43,0,0,0-.81-1A7,7,0,0,0,102,80.09Zm-6.91,12.7c-.37.38-.77.75-1.19,1.14a13.43,13.43,0,0,1-2,1.61c-.62.38-1.29.67-1.89,1.07A9.53,9.53,0,0,0,87.23,100a14.65,14.65,0,0,1-1,1.64c-.27.34-1.49,1.17-1.57,1.49a19.05,19.05,0,0,1,4.24-7.63,7.83,7.83,0,0,1,.84-.89c.3-.26.62-.49.94-.72,3.49-2.57,5.18-6,7-9.76.12-.23.24-.47.37-.7s.27-.46.42-.68a6.35,6.35,0,0,0,.22-1.34c0,.34.09.7.12,1.07v.89c0,.3,0,.59,0,.88a14.8,14.8,0,0,1-1.26,5.24A11.06,11.06,0,0,1,95.13,92.79Z"/><path class="cls-2" d="M119.33,121.56a5.9,5.9,0,0,0,1-.53c5.26-3.49,3.58-5.33,3.61-7.28a14.12,14.12,0,0,0,0-1.45c-.08-.48-.17-1-.27-1.42s-.2-.92-.31-1.37-.34-.79-.51-1.17-.41-.76-.61-1.15l-.57-1.17c-2.52-3.94-3.54-9.83-9.44-9.15a5.55,5.55,0,0,0-2.28.38,6,6,0,0,0-2.71,2.14,8.52,8.52,0,0,0-.64,1.06,10.6,10.6,0,0,0-1.1,3.45,11.52,11.52,0,0,0-.09,1.17c.49,3.38.87,7.63,2.85,10.74.23.43.47.85.74,1.26,1.84,2.86,4.53,5.23,8.26,4.87a5.19,5.19,0,0,0,1-.1A5.42,5.42,0,0,0,119.33,121.56Zm-6.17-10a8.45,8.45,0,0,1-.22-2.35c0-.39,0-.78,0-1.17,0-1,0-2.06-.12-3.09,0-.34-.07-.68-.11-1a21.1,21.1,0,0,0-1.24-4c1.73,1.22,3.12,3.2,2.9,5.3,0,.26,0,.53,0,.8a5.66,5.66,0,0,0,.12.81c0,.42,0,.83,0,1.25s0,.83,0,1.24a12.29,12.29,0,0,0,.08,1.23c.28,3.13,3.31,4.47,4.52,7.37a6,6,0,0,0,.81.72c-.25-.11-.51-.24-.77-.38a14,14,0,0,1-5.69-5.9C113.34,112.2,113.26,111.89,113.16,111.6Z"/><path class="cls-2" d="M55,69.47a4.68,4.68,0,0,0,1.1.34c6.21,1.17,6.29-1.33,7.67-2.7a14,14,0,0,0,1-1.07c.28-.41.55-.81.8-1.21s.5-.8.73-1.2.31-.8.45-1.2.24-.82.37-1.24.27-.83.41-1.24c.93-4.59,4.31-9.52-.41-13.14a5.72,5.72,0,0,0-.88-.75,5.22,5.22,0,0,0-1-.56,6,6,0,0,0-3.44-.35,7.57,7.57,0,0,0-1.2.31,10.3,10.3,0,0,0-3.19,1.71,10.77,10.77,0,0,0-.88.77c-2,2.77-4.69,6.08-5.44,9.7-.13.46-.25.93-.34,1.41C50,62.39,50.3,66,53.23,68.3A5.42,5.42,0,0,0,55,69.47ZM57.5,58A8.62,8.62,0,0,1,59,56.2c.26-.3.52-.59.79-.88.7-.75,1.41-1.5,2.07-2.29.21-.27.43-.54.63-.81a20.68,20.68,0,0,0,1.86-3.7c.39,2.08,0,4.47-1.61,5.82l-.54.59a6.72,6.72,0,0,0-.48.67l-.86.9-.86.9c-.27.31-.54.62-.8.94-2,2.44-.73,5.52-1.88,8.44a4.78,4.78,0,0,0,.08,1.08c-.1-.25-.2-.53-.29-.81a14.14,14.14,0,0,1,0-8.2C57.21,58.59,57.37,58.31,57.5,58Z"/><path class="cls-2" d="M70.85,48.43a6.15,6.15,0,0,0,.09,1.22c1.26,6.56,3.75,5.67,5.64,6.5.46.2.94.38,1.43.54s1,.22,1.49.32,1,.18,1.46.25.92,0,1.36,0,.9-.09,1.36-.12L85.06,57c4.87-.86,11,.55,12.77-5.49a6.11,6.11,0,0,0,.56-2.37,6.37,6.37,0,0,0-1-3.52,8.38,8.38,0,0,0-.77-1.06,11,11,0,0,0-2.92-2.47,11.45,11.45,0,0,0-1.1-.57c-3.49-.9-7.8-2.25-11.64-1.6q-.77.07-1.53.21c-3.55.64-7,2.3-8.11,6.08A6,6,0,0,0,71,47.32,5.81,5.81,0,0,0,70.85,48.43Zm12.23-2a9.13,9.13,0,0,1,2.38.74l1.16.44c1,.39,2,.8,3.06,1.14l1,.31a22.29,22.29,0,0,0,4.35.4c-1.89,1.19-4.38,1.74-6.34.67-.26-.11-.52-.21-.79-.3a5.75,5.75,0,0,0-.84-.22l-1.22-.5-1.22-.49c-.41-.15-.82-.3-1.24-.42-3.16-1-5.71,1.41-9,1.41a6.26,6.26,0,0,0-1,.5c.21-.2.44-.4.68-.59a14.93,14.93,0,0,1,8.08-3.16C82.42,46.4,82.76,46.45,83.08,46.47Z"/><path class="cls-2" d="M98.39,62a7.49,7.49,0,0,0-.62-1.31c-2.06-3.33-5.39-4.63-9-4.81-.59,0-1.2,0-1.8,0s-1.21.18-1.79.29-1.16.21-1.72.33-1,.39-1.49.6l-1.45.71c-.49.22-1,.45-1.49.66-5,3-12.43,4-11.8,11.46a7.41,7.41,0,0,0,.38,2.85,7.59,7.59,0,0,0,2.57,3.47,9.64,9.64,0,0,0,1.3.84,13.25,13.25,0,0,0,4.27,1.51,12.07,12.07,0,0,0,1.46.16c4.24-.48,9.57-.79,13.54-3.14.54-.27,1.07-.56,1.59-.88,3.66-2.19,6.72-5.46,6.41-10.13a7.37,7.37,0,0,0-.07-1.33A8.26,8.26,0,0,0,98.39,62ZM85.7,69.28a10.33,10.33,0,0,1-2.94.18H81.29c-1.28,0-2.58,0-3.86,0-.43,0-.85,0-1.28.09a27.34,27.34,0,0,0-5,1.39c1.59-2.11,4.11-3.77,6.72-3.41.34,0,.67,0,1,0a6,6,0,0,0,1-.11c.52,0,1,0,1.56,0l1.55,0c.52,0,1,0,1.55,0,3.91-.23,5.71-4,9.38-5.37a7.19,7.19,0,0,0,.93-1c-.15.31-.32.63-.51,1A17.61,17.61,0,0,1,86.79,69C86.46,69.08,86.06,69.17,85.7,69.28Z"/></g></g></g></g></svg>