<svg xmlns="http://www.w3.org/2000/svg" viewBox="0 0 170.33 170.33"><defs><style>.cls-1{fill:#f2bf5e;}.cls-2{fill:#124559;}</style></defs><title>corn_icon</title><g id="Layer_2" data-name="Layer 2"><g id="GOODS_ICONS"><g id="corn_icon"><circle class="cls-1" cx="85.16" cy="85.16" r="85.16"/><g id="corn"><path class="cls-2" d="M104.42,84.87c-.2.33-.37.67-.54,1a15.63,15.63,0,0,0-1.09,2.69c-.21.73-.14,1.47-.3,2.2s-.52,1.51-.66,2.3a17,17,0,0,0-.08,2.47c0,.85-.27,1.66-.37,2.49a42.57,42.57,0,0,0-.32,5.64c0,10.22,2.61,20.42.87,30.64a14.31,14.31,0,0,1-1.16,4,3.67,3.67,0,0,1-1.47,1.73s-5.6,2.89-6.83,6a2.74,2.74,0,0,0-.31.64,2.26,2.26,0,0,1-1,1.25l-1.12.69a2.08,2.08,0,0,1-1,.33,58.35,58.35,0,0,1-5.91,0,6.83,6.83,0,0,1-1.66-.27,10.37,10.37,0,0,1-1.89-1,2.11,2.11,0,0,1-.61-1.61c-.29-2.19-4.87-4.2-6.14-5-6-3.53-5.1-18-4.33-29.78a54.74,54.74,0,0,0,.35-6C68.7,98.21,66.28,93.6,63.4,88c-2-4-2.11-3-3.41.24l-.15.37c-2,1.55-2,4.64-4.06,6.32a3.37,3.37,0,0,0-.25.46,3.29,3.29,0,0,0,0,1.73c0,.24-.47.2-.62.12-1.52-.76-1.69-2.61-1.6-4.18a2.6,2.6,0,0,0-.12-1.3.88.88,0,0,1-.05-.15v-.1c0-.52.07-1,.07-1.57,0-.2,0-.4,0-.59s0-.38,0-.56,0-.37,0-.55c0-.88,0-2,.17-3.12,0-.19,0-.38.07-.58s0-.42,0-.62.06-.38.1-.56.08-.37.13-.55c1.35-4.05,4.62-7.93,6.25-9.86s5.33-3.74,6.69-1.53A32.1,32.1,0,0,1,69,76.07a48,48,0,0,0,3.1,4.56c6,7.52,3.61,6.21,5.41,10.28,2.45,5.57,3.38,15.71,4.15,16.57.55.62,1.13,3.69,1.13,3.69.53,2.06,1.26-1.1,1.57-1.65.63-1.12.28-3,1.65-8,.33-1.19,2.18-9.18,2.79-10.26.47-.85.24-1.86.67-3a23.82,23.82,0,0,1,1.13-2.75A13.54,13.54,0,0,1,94,81.05c2.81-2.21,5.72-4.39,8.64-6.46A24.7,24.7,0,0,0,106.12,72c1.84-1.86,4-2.36,6.45-3a16.73,16.73,0,0,1,4.63-.62c-1.26,2.22-.47,1.77-2.73,4.61-.58.73-1.51,2.94-2.16,3.62s-1,1.4-1.61,2-1.15.91-1.68,1.42-1,1.28-1.62,1.83-1.44,1-2,1.61A8.05,8.05,0,0,0,104.42,84.87Z"/><path class="cls-2" d="M72.06,79.15c6,7.52,4.38,6.22,6.18,10.29,2.46,5.56,3.48,15,3.71,16.08a10,10,0,0,1,.91,4c.66,3.11,1-.8,1.19-1.45.35-1.24-.22-3,1.15-8,.33-1.19,2.18-9.18,2.78-10.26.48-.85.25-1.86.67-3A24.11,24.11,0,0,1,89.79,84,20.77,20.77,0,0,1,94,79.57c1.87-1.47,3.79-2.91,5.72-4.33l0-1c0-.22,0-.48,0-.77.1-2,1.1-4,0-6.06l-.06-.69c0-.23,0-.47,0-.71s0-.33,0-.52a25.52,25.52,0,0,0-.13-5.69v-.54a22.88,22.88,0,0,0-.08-6.71c0-.21.07-.42.1-.63A17.21,17.21,0,0,0,99.34,46c0-.16.08-.34.12-.52a13.46,13.46,0,0,0-.18-5.65c.06-.21.1-.41.14-.62A5.53,5.53,0,0,0,98,34.3l-.06-.72c-.14-1.68-.31-3.36-1.64-4.56l-.16-.4c-1.63-3.83-3.75-6.54-6.07-6.54A19.64,19.64,0,0,0,85,21.3a10.58,10.58,0,0,0-4.19.78,4.86,4.86,0,0,0-3.56,2.16c-.16.2-.32.4-.48.62-.95,2.53-3.27,2.62-3,6.61-.08.21-.1.48-.28.63a3.63,3.63,0,0,0-1.08,2.72s.4,1.57-.1,2a2.71,2.71,0,0,0-.38.51c-.93,1.62-.15,4.22-.41,5.86,0,.23-.11.48-.18.74s-.14.54-.23.84a3.36,3.36,0,0,0-.21.66c-.39,1.73.81,3.32.38,4.88-.05.18-.09.38-.13.58A13.2,13.2,0,0,0,71.21,56c0,.2-.09.39-.12.59a12,12,0,0,0,.19,4.87c0,.19-.09.38-.13.58a15.37,15.37,0,0,0,0,5.73v.5c0,.18,0,.36,0,.54a12.73,12.73,0,0,0-.07,5.26v.78l0,3.18A12.65,12.65,0,0,1,72.06,79.15Z"/><path class="cls-2" d="M70.19,68.84c0-.18,0-.36,0-.54v-.5a15.37,15.37,0,0,1,0-5.73c0-.2.08-.39.13-.58a12,12,0,0,1-.19-4.87c0-.2.07-.39.12-.59a13.2,13.2,0,0,1-.08-5.11c0-.2.08-.4.13-.58a2.8,2.8,0,0,0,.07-1,7.1,7.1,0,0,1-1.47-.89s-.23-.24-.49-.52a7.64,7.64,0,0,0-1.7-1.53c-2.23-.91-3.57-3-4.34-2.28.77,0,2,5.51,3.09,6.38.08,0,1.68,2.6,1.84,2.89a65.55,65.55,0,0,1,1.38,7.91c0,.16,0,.32.07.48,1.51,2.06-.49,4.06.76,5.57,0,.14,0,.27,0,.41s.07.53.1.78l.06.41c.11.18.25.37.38.57A6.83,6.83,0,0,1,70.19,68.84Z"/></g></g></g></g></svg>