<svg xmlns="http://www.w3.org/2000/svg" viewBox="0 0 170.33 170.33"><defs><style>.cls-1{fill:#68829e;}.cls-2{fill:#124559;}</style></defs><title>indigo_icon</title><g id="Layer_2" data-name="Layer 2"><g id="GOODS_ICONS"><g id="indigo_icon"><circle class="cls-1" cx="85.16" cy="85.16" r="85.16"/><g id="indigo_flower"><path class="cls-2" d="M89.66,150.88s-3-10.6-17.37-13.22C74.24,147.72,89.66,150.88,89.66,150.88Z"/><path class="cls-2" d="M87.8,147.14s3.73-11.24-10.68-13.87A20,20,0,0,0,87.8,147.14Z"/><path class="cls-2" d="M89.62,150.12s3.78,2.73,13.36-8A13,13,0,0,0,89.62,150.12Z"/><path class="cls-2" d="M88.5,143.36s2.6-12.07-9-24.14C76,129.29,88.5,143.36,88.5,143.36Z"/><path class="cls-2" d="M100.3,125S85,131.6,90.55,150.37C102.19,145.06,100.3,125,100.3,125Z"/><path class="cls-2" d="M93.67,118s-8.23,7.78-5.2,22.32C96.45,134.48,93.67,118,93.67,118Z"/><path class="cls-2" d="M87.62,148.87c0-.5-.09-1.13-.15-1.75l-.21-1.89-.43-3.81c-.3-2.56-.59-5.11-.84-7.69-.12-1.3-.24-2.58-.32-3.92a19.07,19.07,0,0,1,0-2.18c0-.6.08-1.19.09-1.81.06-2.43-.09-5-.27-7.49l-.67-7.68c-.11-1.3-.2-2.61-.24-3.94l-.11-3.85c-.18-5.12-.45-10.22-.92-15.31s-1.17-10.17-2-15.23c-.39-2.52-.87-5.09-1.17-7.66l-1-7.65c-.32-2.54-.74-5-1.13-7.58s-.61-5.15-.81-7.72q-.56-7.73-.61-15.45a.25.25,0,0,1,.25-.25.24.24,0,0,1,.25.22c.69,5.1,1.27,10.2,2,15.28.35,2.53.72,5.06,1.16,7.56l.73,3.79c.22,1.28.42,2.57.56,3.86.3,2.58.48,5.14.74,7.68s.7,5,1.16,7.57c.87,5.08,1.62,10.19,2.2,15.32S87,97.57,87.3,102.72l.24,3.86c.08,1.24.22,2.48.37,3.74.32,2.52.75,5.06,1.1,7.63a63.38,63.38,0,0,1,.71,7.89c0,.67,0,1.36,0,2,0,.46,0,1,.06,1.66.08,1.23.22,2.5.34,3.77l.83,7.64.4,3.84.18,1.95c0,.66.1,1.31.11,2.09a2,2,0,0,1-4,.15Z"/><path class="cls-2" d="M82.9,75.9s2.68-2.23,2.61-2.56-.53-.4-.22-1.12a3.63,3.63,0,0,1,1.45-1.29s0-2.76.36-3.29a18.56,18.56,0,0,1,1.63-1.93c.32-.36,2-3.59,2.46-3.41,1.1.41.6,3.72.67,4.34S93.2,65,94.19,65.05s3.43-.36,3.39,1.19a10,10,0,0,1-1.87,5.09c-.78.73-4.26,1.25-5.11,1.25s-1,.62-1.53.91-2.4,1.15-2.75.86-2.86,2.56-2.86,2.56Z"/><path class="cls-2" d="M86,97.63l1.77-2.3s.23-1.89.63-2.15S87,89.1,87.56,87.87s3.22-3.78,4-3.85a1.92,1.92,0,0,1,1.88,1c.28.59.59-.52.75-.49s1.49.86,1.33,1.79.9-.75,1.49-.56,3.1,1.62,3.14,2.48a5.31,5.31,0,0,1-1.1,3,5.12,5.12,0,0,1-2.43,1.58c-.59,0-1.73,1.56-3.29,1.37-1.21-.14-3.73,2.34-4.32,2.23s-3,2.82-3,2.82Z"/><path class="cls-2" d="M81,54.57l1.69-1.91s.23-2.32.61-2.53-1.4-3.4-.83-4.42,3.14-3.48,3.87-3.21c1.36.52,1,2,1.23,2.45s0-.76.75-.88c.32,0,2-.42,1.82.35S91,43.8,91.53,44s3,1.35,3,2.06a4.15,4.15,0,0,1-1.05,2.52c-.57.54-1.54,1.59-2.11,1.59s-2.12,2.34-3.62,2.18c-1.16-.12-3.75,1.61-4.31,1.52S81,55.19,81,55.19Z"/><path class="cls-2" d="M83.13,74.16a6.72,6.72,0,0,1-2.34-3.92,1.87,1.87,0,0,0-1.88-1.82l.53-.67s-1-1.67-1.63-1.81-1.15-4.16-1.72-4.59-.58-1.91-1-1.62-.86,2.62-1,2.62a5.8,5.8,0,0,0-1.92.77c-.38.33-.81-1.34-1.87-1s-2.44.17-2.44,1.73a10.27,10.27,0,0,0,1.44,4.58c.43.47,2.39,1.67,3.49,1.52a7.2,7.2,0,0,1,3.31.87c.29.19,1.49,2,2.2,1.91s5.13,3,5.13,3Z"/><path class="cls-2" d="M84.05,89.87a17.84,17.84,0,0,1-1.29-3.69c0-.54.57-6.44-.39-6.74s-3.76-1-4.21,0-1.85-1.66-2.92,0-1.18,2.94-1,3.29-1.91,1.15-1.74,2.43a3.57,3.57,0,0,0,1.41,2.52,20.49,20.49,0,0,0,4.37,1.6c.84.11,1.29,2,2.19,2.25s4.15,1.55,4.15,1.55Z"/><path class="cls-2" d="M86.3,115.45s-2.15-.41-2.74-1.66a10.56,10.56,0,0,0-1.13-2.43,9.34,9.34,0,0,0-3.49-2.85c-.24,0-.66-2.43-1.07-2.78s.06-1.25-.65-1.84-1.55-2.37-2.55-1.84-.66,1.07-.48,2.61c.13,1.11-.29,1-1.38.59l-.15,0c-1.19-.33-2.07-2.11-2.54-.88l-.13-.06c-1-.46-1.4-.84-2.08-.42a1,1,0,0,0-.16.14.51.51,0,0,0-.09.16c-.54.63.69,1.37,1,2.13,0,.07.05.13.07.19-.55.69-1.19.31-1.75-.15-.15-.12-.27-.3-.42-.4s-.47-.19-.47-.15a1.88,1.88,0,0,1,0,.24,11,11,0,0,0,.21,2.29l.13.17a3.82,3.82,0,0,0,.73.72l.11.11a9.38,9.38,0,0,0,3.57,2.6,32.22,32.22,0,0,0,6,.66c1.36,0,3.74,2.25,4.15,2.37s3.38,2.13,4.86,2S86.3,115.45,86.3,115.45Z"/><path class="cls-2" d="M80.68,56.68s-1.73-.33-2.21-1.34a8.32,8.32,0,0,0-.9-2,7.41,7.41,0,0,0-2.82-2.29c-.19,0-.53-2-.86-2.25s0-1-.52-1.48-1-1.4-1.83-1S70,45.28,69,45.66s.25,2.09-.47,2.38c-1.75.7-2-1.34-3-.48s-2.1,2.21-.66,3.69.52,4,4.23,3.72c2.47-.18,2.83-.63,3.93-.63s3,1.82,3.34,1.91,2.72,1.72,3.91,1.62S80.68,56.68,80.68,56.68Z"/><path class="cls-2" d="M88.29,116.3a15.39,15.39,0,0,1,1.83-1.14c.23-.19.72-.53.74-.87,0-.54-.45-.66-.16-1.32l1.76-4.08a5.21,5.21,0,0,1,.4-.78c.55-.78,1.45-.93,2.1-1.61a1.41,1.41,0,0,0,.33-.44,1.32,1.32,0,0,0,.11-.4l.27-1.4c.06-.36.15-1.17.5-1.39s.53.23,1,.16.66-.72,1.07-.39.15,1.27.13,1.62a2.27,2.27,0,0,0,.32,1.48c.22.28.55.46.78.74.6.7.77.35,1.55.08a4.24,4.24,0,0,1,2-.35c1.29.22,2.93.62,3.07,1.2s-1,3.38-1.83,3.73-1.73,2.41-3.07,2.36-3.6-.22-4.31.09-2.05.8-2.67,1-1.87,1.56-2.36,1.07-3.55,3.6-3.55,3.6Z"/><path class="cls-2" d="M79,43.23c.26-.44,1.46-2.66,1.46-2.66a1.87,1.87,0,0,1-.26-1.65,7.68,7.68,0,0,1,1.33-2.49c.49-.49.62-3.16,1.47-3.6s2.62-1.43,2.18-.49.62-.54.8,0,.8,1.91.22,3.07a8.43,8.43,0,0,1-2.62,2.8c-.4.14-1.5,2.7-2,2.45S79,43.9,79,43.9Z"/><path class="cls-2" d="M77.66,38.82c-.32-.61-.68-1.19-1-1.78a3.08,3.08,0,0,0-.44-.75c-.66-.52-1.72-.27-2.13-1.17,0-.08-.07-.17-.15-.2a.47.47,0,0,0-.17,0c-.19,0-.33-.29-.55-.69s-.07-.09-.41-.66a6.21,6.21,0,0,0-.36-.58,2.44,2.44,0,0,0-.71-.53,2.74,2.74,0,0,1-1.25-2.6,1.72,1.72,0,0,1,.18-1.11,1.25,1.25,0,0,1,.33-.35s0-.09,0-.13c.1-.52.27-.81.55-.38.57.87-.13-.81.45-.66,1.23.31,2.31.55,3,1.76a8.23,8.23,0,0,1,.67,2.3,7.87,7.87,0,0,0,.66,2.31c.16.32.37.62.5.95.19.52,0,1,.14,1.51s.31.88.49,1.32c.26.6.52,1.2.81,1.79Z"/><path class="cls-2" d="M77.42,31.73c-.07-.51-.57-3-.57-3a1.88,1.88,0,0,1-1.26-1.09A7.54,7.54,0,0,1,75,24.88a1.27,1.27,0,0,0-.09-.45,3.11,3.11,0,0,0-.12-.3c-.06-.11-.13-.21-.18-.32a2.3,2.3,0,0,1-.15-.32,1.82,1.82,0,0,1-.25-2.33,1.88,1.88,0,0,1,.12-.18.58.58,0,0,1,0-.32,1.09,1.09,0,0,1,0-.17c-.25-1,.64-1,1.64-.82l.17,0,.16,0,.16-.07a1.89,1.89,0,0,1,.65-.19.64.64,0,0,1,.49.13.73.73,0,0,1,.19.26c-1,1.42.74,2.31.44,4.15a1.07,1.07,0,0,1-.35.41q0,.21-.09.36a1,1,0,0,1-.08.22c-.23.35.57,3,0,3.13s0,4.14,0,4.14Z"/></g></g></g></g></svg>