<svg xmlns="http://www.w3.org/2000/svg" viewBox="0 0 170.33 170.33"><defs><style>.cls-1{fill:#dddfd4;}.cls-2{fill:#124559;}</style></defs><title>sugar_icon</title><g id="Layer_2" data-name="Layer 2"><g id="GOODS_ICONS"><g id="sugar_icon"><circle class="cls-1" cx="85.16" cy="85.16" r="85.16"/><g id="sugar"><path class="cls-2" d="M44.28,64.09C41.15,69,46,67.53,46,67.53c-4,2.23,0,1.55-1.17,5.5-1.65,5.41-6.08,8.26-6.08,13.33,0,2.83.85,4.17,0,6.92-1.08,3.63-2.94,6.46-4.93,10.11-1.86,3.44-1.57,8.14-.7,11.43.57,2.17,1.13,4,6.89,7.71,9.66,6.15,22.88,6.2,62.59,5.67A57.78,57.78,0,0,0,122.34,125c5.77-2.07,9.3,1.57,14.6-7.07,2.44-4-.51-13.29-5.05-21.29-8-14.19-3-20.42-4.6-23.64-.87-1.76-3.22-2.62-2.92-3.82.22-.92,1.6-1.12,1.55-1.76-.09-.91-2.94-1.33-2.89-1.58s2.5.4,3-.4-1.13-2.61-1.5-3c-3.62-3.71-24.1,2.8-34.1,3.8s-18.47-1.48-24-2.7a48.6,48.6,0,0,0-17.8-.8A11,11,0,0,0,44.28,64.09Z"/><path class="cls-2" d="M66.43,62.49c5.53,1.22,14,3.7,24,2.7,8.67-.87,25.24-5.88,31.83-4.77-1.65-2.32-7.57-5.37-9.43-5.83-2.41-.59-3.07-2.51-5.87-3.46s-5.34,2.79-8.94,1.73-4.39-4-6.39-4.93-3.34-6.13-8.94-6c-1.41,0-4.13,3.4-12.8,6.53-5.65,2-8.53,5.4-10.8,6.33-1.65.68-8.87,4.89-10.26,6.9C56.56,60.46,64.92,62.16,66.43,62.49Z"/></g></g></g></g></svg>