<svg xmlns="http://www.w3.org/2000/svg" viewBox="0 0 170.33 170.33"><defs><style>.cls-1{fill:#b38867;}.cls-2{fill:#124559;}</style></defs><title>tobacco_icon</title><g id="Layer_2" data-name="Layer 2"><g id="GOODS_ICONS"><g id="tobacco_icon"><circle class="cls-1" cx="85.16" cy="85.16" r="85.16"/><g id="tobacco_leafs"><path class="cls-2" d="M79.31,29.4l-.39.2c-2.13,1.31,1.74,3.32.45,4a3.41,3.41,0,0,0,0,.46c0,.26.09.52.15.77.07,4.6.07,7.88,3,10.66a8.72,8.72,0,0,0-.13,1.09c-.15,3.13,1.75,5.22,3,8.38.06.34.11.67.16,1a19.6,19.6,0,0,1,.16,2c.09,4.07-1.3,6.68-3.58,9.4-.23.28-.46.55-.7.82a33.86,33.86,0,0,0-7.58,6.88c-.29.23-.55.46-.8.7-1.73,1.68-2.59,4-3.67,6.56-.22.34-.42.68-.62,1-5.49,2-3.3,7.43-5.44,11.34-.14.34-.27.67-.39,1a25.57,25.57,0,0,0-1.24,5.13l-.15.52c-.62,2.24-1.08,4.31-1.41,6.18l-.09.54c-.05,1.28-2.23,2.37-.6,4.28a2.73,2.73,0,0,1,0,.41c-.15,1.6-.2,2.84-.22,3.66,0,.56,0,1.11,0,1.67v.55a5.42,5.42,0,0,0,.13,3.26l0,.53c.09,1.24.21,2.44.36,3.61,0,.13,0,.26,0,.39-.84,4.77,1.35,8.05,2.8,11.59.07.15.13.31.19.46s.1.25.16.38l.15.36c.23,1.81.23,4,3.51,4-1.09-2.19,2.19-3.28,1.24-5.39,0-.11,0-.22,0-.32.08-1.94,2.1-1.94,3.14-1.94,1.09,1.09-2.18,1.09-1.27,2.63a1.53,1.53,0,0,0,0,.3c.09.4.33.81.46,1.21a2.45,2.45,0,0,1,.08.29,2.87,2.87,0,0,1,0,.31c-.44.72.65,2.91.65,4,1.09,1.09,2.19-1.09,2.75-1l.43-.33c.85-.68,1.59-1.63,2-1.35a1.19,1.19,0,0,0,.42-.21c1-.79,1.17-3.41,2-2.54a8,8,0,0,0,.21,1.81c0,.11,0,.22,0,.33a8.15,8.15,0,0,0,.32,1.64c.49,1.15.83,2.43,1.38,3.54.33.94.63,1.28.92,1.24.14,0,.27-.14.4-.34,2.18-1.67,0-3.85,1.65-5.51l.24-.39c1.49-2.21,2.51-1.19,3.11-.45a5.67,5.67,0,0,1,.6.79,3.79,3.79,0,0,0,1.24,1.36,1.56,1.56,0,0,0,.4.25.85.85,0,0,0,.4.1c.91-.91,1.07-3.34,1.7-4.81a2.87,2.87,0,0,1,.45-.75c1.13-1,1.13-2.09,1.13-4.27,3.28,0-1.09,4.37,2,4.69a1.13,1.13,0,0,0,.57.33,1.19,1.19,0,0,0,.42,0,4.51,4.51,0,0,1,.68-.42,2.06,2.06,0,0,1,.55-.2c2.36,0,1.26,4.32,3.45,3.22v-1.93c0-.24,0-.49,0-.72,0-1.72-1.1-3.9,0-6.09,0,2.19,2.18,3.28,2.86,4.93a1.65,1.65,0,0,0-.12.77c.12,1.24,1.66,2.22,1.82,3.56.05.15.11.31.17.46a3.3,3.3,0,0,0,.73,1.21c3.28,1.09,1.09-4.37,2.75-5.45a2.26,2.26,0,0,1,.11-.43c.55-1.62,2.46-3.36,2-5.18.07-.16.15-.32.23-.48.54-1.13,1-2.29.18-3.29,0-.18,0-.35,0-.52.19-2.06.18-4.11.17-6.48,0-.19,0-.37,0-.55,0-2,0-4,0-5.54,0-.17,0-.35,0-.52,0-1.55-.06-3.16-.11-4.45l0-.53a39.46,39.46,0,0,0-1.69-9.28c0-.19-.09-.38-.13-.56a63.33,63.33,0,0,0-6.11-16,1.12,1.12,0,0,1-.37-.26c-1.09-1.11.51-3.89-2.26-4.29-.06-.09-.11-.18-.17-.26-5.55-8.92-10.89-14.56-10-24,.21-2.22.93-5.43,1.43-9.84,0-.11,0-.21.08-.32-.32-2.25,4-3.35.71-7.06,0-.17,0-.33,0-.5,0-1-.13-2-.26-3.12a2.58,2.58,0,0,1-.06-.56,74.63,74.63,0,0,0-.8-9.1c-.13-.74-.6-.45-1.14.19l-.34.42a.89.89,0,0,0-.38.11,4.25,4.25,0,0,1-.19.71.85.85,0,0,1-.31.37c.14-.05-.06-.08-.31-.12.59-1.08-1.59-2.17-1.59-3.26-.61-.3-.88-.1-1,.31a2.33,2.33,0,0,0-.07.25,5.45,5.45,0,0,1,0,.8c0,.1,0,.19-.06.26,1.21,2.75-3.16-2.71-2.16.38l-.15.07-.3.18-.21-.16c-.77-.64-1.65-1.87-2.53-1,0,2.19-2.18,3.28-1.38,5C79.34,29.23,79.32,29.32,79.31,29.4Z"/><path class="cls-2" d="M77.17,64.44a8.15,8.15,0,0,1,2.1-2A21.41,21.41,0,0,1,81.76,61a37.06,37.06,0,0,1,5.36-2.16A17.69,17.69,0,0,1,90,58.12a2.64,2.64,0,0,1,.4,0,.77.77,0,0,1,.25,0,.47.47,0,0,1,.33.35.45.45,0,0,1-.23.44,1.07,1.07,0,0,1-.23.1,2.85,2.85,0,0,1-.39.11,10.69,10.69,0,0,1-1.47.17,14.67,14.67,0,0,1-2.95-.12,2.34,2.34,0,0,1-.4-.1A1.33,1.33,0,0,1,85,59a.65.65,0,0,1-.17-.19.4.4,0,0,1,0-.35A1,1,0,0,1,85.2,58l.33-.22a13.66,13.66,0,0,1,1.32-.67,15.78,15.78,0,0,1,2.78-1A4.76,4.76,0,0,1,90.4,56a2.5,2.5,0,0,1,.46,0,.68.68,0,0,1,.57.45.72.72,0,0,1-.15.7,1.21,1.21,0,0,1-.42.32,3.3,3.3,0,0,1-.79.23,12.94,12.94,0,0,1-3,0,12.74,12.74,0,0,1-1.47-.22,3.89,3.89,0,0,1-.4-.1A1,1,0,0,1,85,57.3a.4.4,0,0,1-.12-.1.46.46,0,0,1-.11-.36.45.45,0,0,1,.24-.36.55.55,0,0,1,.19-.07,2,2,0,0,1,.49,0l.37.07c1.9.44,3.71,1,5.57,1.45a27,27,0,0,0,2.79.55,8.37,8.37,0,0,0,1.41.06c.44,0,1-.1,1.15-.52l.12,0c-.17.54-.79.68-1.24.76a8,8,0,0,1-1.47,0,25.14,25.14,0,0,1-2.88-.34c-1.9-.32-3.79-.8-5.63-1.21l-.56-.09.1,0a.39.39,0,0,0,.2-.3.38.38,0,0,0-.09-.29s0,0,0,0,0,0,.06,0l.3.09a13.88,13.88,0,0,0,4.13.22,2.23,2.23,0,0,0,.58-.15c.19-.07.17-.18.18-.07s.1.08,0,.07h-.26a3.8,3.8,0,0,0-.65.1,16.19,16.19,0,0,0-2.65.89,12.11,12.11,0,0,0-1.25.62l-.27.18c-.07,0-.17.17-.12.08a.3.3,0,0,0,0-.18c0-.06,0-.05,0-.06l.08,0,.29.08a15.17,15.17,0,0,0,2.79.14A10.43,10.43,0,0,0,90,58.54l.31-.07.1,0s0,0,0,.16.11.14.08.12l-.1,0H90a15.93,15.93,0,0,0-2.75.6,35.12,35.12,0,0,0-5.35,2,12.82,12.82,0,0,0-4.64,3.23Z"/></g></g></g></g></svg>