<svg xmlns="http://www.w3.org/2000/svg" viewBox="0 0 237.68 142.55"><defs><style>.cls-1{fill:#25667f;}.cls-2{fill:#1c8daf;}.cls-3{fill:#5cc8e5;}</style></defs><title>ShipWreck</title><g id="Layer_2" data-name="Layer 2"><g id="SHIPS"><g id="ship"><g id="wreck"><path class="cls-1" d="M248.62,91c-11.72-2.38,11.14-3.85,5.27-5.56s-16.82-3.1-24.9-4.53c-12.37-1.08-16.35,1-14.94-2.22-21.5,2.15-35,4-45.22-1.12-6.5,5.14-23.75,2.62-45.22,1.12-.35,2.64-26.06,1.81-36.92,3.06-10.52,1.29-3.76,2-9.64,3.69s-10.29,2.85-8.35,3.18C83,91,71.18,94.81,77.05,96.52s-.88,4.09,9.64,5.38c10.76,1.25,18-3.93,22.09-4.36,27.89-2.93,46,3.64,56.61,4.7,13.21,1.31,35.09,5.21,35.17-2.5,0-4.89,16.3,2.25,28.43,1.32,8.39-1.59,19-2.83,24.9-4.54S250.55,91.36,248.62,91Z" transform="translate(-43.72)"/><path class="cls-2" d="M234.76,32.49,202.27,38.6a1.8,1.8,0,0,0-1.39.51L195,44.84a5.77,5.77,0,0,1-5.17,1.54l-20.48-4.09-6.27,4.22,5.28,5.11L165.46,57l1.65,6.34-7,11.41,5.67.72-.64,6,3.4.35s15.09,3,26.45,3.16c9.95.14,23.43,0,30.12-7.4,7.13-7.87,2.74-31.77,12.46-30.38,3.83.54,2-11.46,4.93-11.36l22.08-3.4-5.49-1.83-.24-1.48Z" transform="translate(-43.72)"/><path class="cls-2" d="M157.71,42.77l-.72.1s-9.23,2-11.66-3.52c-10.06.8-14.25,1.21-14.25,1.21l-1.3-11.64a1.11,1.11,0,0,0-1.29-1L70.38,38.73s1.43,1.84.63,8.05c-.17,1.36,6.68,3.33,6.53,4.79-.75,7.32-1,15.27.62,19,3.52,7.94,11,21.53,25.86,19.15,28.28-4.5,60.27-8.18,60.27-8.18l-3.23-5.41-4.92.48,5.08-13.18-2.76-4.88.92-6-6.66-3.93Z" transform="translate(-43.72)"/><polygon class="cls-2" points="175.02 24.32 175.02 65.25 170.12 65.25 172.25 24.11 173.53 25.94 175.02 24.32"/><polygon class="cls-2" points="147.61 31.46 76.02 101.44 76.66 98.83 72.57 100.41 72.3 97.62 145.73 29.07 144.74 32 147.61 31.46"/><path class="cls-3" d="M135.51,78.77a.89.89,0,0,0,0,1.33c3.24,2.81,16,13.83,16.51,14.15s-.5-2.9-1.14-5A.8.8,0,0,1,152,88.3s7.63,3.6,8.79,4.59-3.29-13.44-3.29-13.44,7.95,11.63,5.59,5.4-2.42-14.28-2.42-14.28,7.55,17,8.9,17.21,5.62-26.36,5.62-26.36-.13.66,1.22,4.64,3.3-16.48,3.3-16.48,2.55,3.71,1.95,1.33-3.76-10.26-3.76-10.26a.75.75,0,0,0-1.22-.3Z" transform="translate(-43.72)"/><polygon class="cls-2" points="90.7 1.99 46.75 51.98 43.07 48.75 88.76 0 88.51 2.23 90.7 1.99"/><path class="cls-3" d="M118.67,15.47c1.49,2.67,6.21,22.8,6.53,28.36,0,0,6.25-21.74,6.68-17.84.62,5.58-.93,13.41,1,7.06,1.09-4.9,5.63,15,5.63,18.93S150.81,31,149.59,29.45s3.23,4.55,5.12,7.2c-.42-8.42,6.23,3.9,2.81-3.18-3-6.3-22.85-26.65-26.71-30.52a1.12,1.12,0,0,0-1.52-.05L118.88,14.25A1,1,0,0,0,118.67,15.47Z" transform="translate(-43.72)"/></g><path class="cls-1" d="M58.37,123.23a3,3,0,0,0-2.83,1.89c-.83,1.42-1.54,2.69-2.67,5a2.38,2.38,0,0,0-.25,1.22v2.85c0,2,.18,2.07,2.07,2.3v.85H47.42v-.85c1.82-.23,2-.3,2-2.3v-2.65a2,2,0,0,0-.25-1.05c-.67-1.36-1.52-2.9-2.9-5.32-.85-1.49-1.19-1.79-2.53-1.93v-.85h6.74v.85c-1.54.21-1.5.51-1.1,1.31.75,1.5,1.74,3.34,2.62,5,.69-1.29,1.79-3.5,2.43-4.9.44-.92.26-1.22-1.4-1.43v-.85h5.36Z" transform="translate(-43.72)"/><path class="cls-1" d="M61.94,126.84a5.12,5.12,0,0,1,5.29,5.2,5.42,5.42,0,1,1-10.84.25A5.43,5.43,0,0,1,61.94,126.84Zm-.28.92c-1,0-1.95,1-1.95,3.86s.94,5,2.39,5c.87,0,1.81-.6,1.81-3.95S63.09,127.76,61.66,127.76Z" transform="translate(-43.72)"/><path class="cls-1" d="M80.36,136.78c-1.38.18-2.85.48-4.37.82V136a5.1,5.1,0,0,1-3.17,1.56c-1.94,0-3-1.24-3-3.28v-4.76c0-1.06-.14-1.18-.76-1.34l-.48-.14v-.73c1.17,0,3-.21,4.28-.39,0,1-.07,2.16-.07,3.47v3.36c0,1.49.76,2,1.56,2a2.06,2.06,0,0,0,1.66-.67v-5.54c0-1.06-.12-1.24-.76-1.36l-.69-.14v-.73c1.33,0,3.29-.21,4.44-.39v7.49c0,1.2.13,1.45.87,1.52l.51.05Z" transform="translate(-43.72)"/><path class="cls-1" d="M87.51,137.33H81.44v-.78c1.22-.14,1.33-.26,1.33-1.64v-5c0-1.15-.09-1.27-1.17-1.5v-.71a22.45,22.45,0,0,0,4.14-.87v2.48c1-1.59,1.86-2.44,2.81-2.44A1.4,1.4,0,0,1,90,128.22a2.24,2.24,0,0,1-1.17,2,.66.66,0,0,1-.72-.12c-.39-.32-.68-.69-1.08-.69s-.92.3-1.33,1.17v4.37c0,1.38.16,1.45,1.77,1.64Z" transform="translate(-43.72)"/><path class="cls-1" d="M102.35,130.11c-.6-1.61-1.38-2.35-2.46-2.35A1.18,1.18,0,0,0,98.67,129c0,.81.57,1.24,1.77,1.77,1.86.83,3.13,1.61,3.13,3.43,0,2.3-2.19,3.42-4.19,3.42a7.58,7.58,0,0,1-2.92-.69c-.09-.52-.3-2.11-.37-2.92l.76-.13c.48,1.44,1.43,2.8,2.92,2.8a1.16,1.16,0,0,0,1.31-1.19c0-.72-.34-1.25-1.77-1.94s-3-1.54-3-3.45,1.5-3.24,3.93-3.24a10.31,10.31,0,0,1,2.49.35c.07.62.27,2.09.37,2.71Z" transform="translate(-43.72)"/><path class="cls-1" d="M111.22,137.33v-.78c1-.16,1.09-.33,1.09-1.57v-4c0-1.77-.74-2.37-1.64-2.37a2.38,2.38,0,0,0-1.68.66V135c0,1.24.12,1.41,1.18,1.57v.78h-5.48v-.78c1.13-.14,1.34-.21,1.34-1.66V124.24c0-1-.14-1.31-1.43-1.51V122a23.64,23.64,0,0,0,4.39-.78v7.13a4.79,4.79,0,0,1,3.11-1.5c2,0,3.19,1.31,3.19,3.84v4.21c0,1.45.17,1.47,1.27,1.66v.78Z" transform="translate(-43.72)"/><path class="cls-1" d="M117.71,137.33v-.78c1.24-.16,1.38-.26,1.38-1.89v-4.48c0-1.54-.11-1.64-1.19-1.77v-.76a25.11,25.11,0,0,0,4.16-.83v7.84c0,1.56.09,1.73,1.42,1.89v.78Zm2.69-11.91a1.68,1.68,0,0,1-1.65-1.64,1.65,1.65,0,0,1,1.68-1.63,1.61,1.61,0,0,1,1.65,1.63A1.65,1.65,0,0,1,120.4,125.42Z" transform="translate(-43.72)"/><path class="cls-1" d="M124.38,127.65a38.58,38.58,0,0,0,4.23-1v1.66s1.54-.92,1.61-.94a2.94,2.94,0,0,1,1.5-.49c2.53,0,4,2.33,4,4.53,0,3.36-2.67,5.59-5.64,6.23a4.22,4.22,0,0,1-1.45-.2v2.76c0,1.28.12,1.42,1.71,1.63v.76h-6.17v-.76c1.4-.14,1.5-.35,1.5-1.61V129.92c0-1.24-.14-1.38-1.27-1.51Zm4.23,8a3.15,3.15,0,0,0,1.89.85c1.22,0,2.11-1.49,2.11-4,0-2.83-1.4-3.91-2.55-3.91a2.49,2.49,0,0,0-1.45.51Z" transform="translate(-43.72)"/><path class="cls-1" d="M148.51,137.33v-.78c1-.16,1.08-.33,1.08-1.57v-4c0-1.77-.74-2.37-1.63-2.37a2.36,2.36,0,0,0-1.68.66V135c0,1.24.11,1.41,1.17,1.57v.78H142v-.78c1.12-.14,1.33-.21,1.33-1.66V124.24c0-1-.14-1.31-1.42-1.51V122a24,24,0,0,0,4.39-.78v7.13a4.74,4.74,0,0,1,3.1-1.5c2,0,3.2,1.31,3.2,3.84v4.21c0,1.45.16,1.47,1.26,1.66v.78Z" transform="translate(-43.72)"/><path class="cls-1" d="M162.51,137.6a2.08,2.08,0,0,1-1.42-.48,2.38,2.38,0,0,1-.6-.85,8.28,8.28,0,0,1-2.44,1.33,3,3,0,0,1-3.12-3c0-1.22.55-1.77,1.77-2.26a19.15,19.15,0,0,0,3.7-1.51v-1c0-1.19-.44-1.86-1.43-1.86a1.15,1.15,0,0,0-.92.46,4.69,4.69,0,0,0-.55,1.52.91.91,0,0,1-1,.78,1.4,1.4,0,0,1-1.35-1.19c0-.42.27-.72.8-1.09a11.65,11.65,0,0,1,3.68-1.63,4.05,4.05,0,0,1,2.37.67,3.11,3.11,0,0,1,1.26,2.83v4c0,1.1.37,1.38.74,1.38a1.64,1.64,0,0,0,.71-.19l.26.78Zm-2.11-5.79-1.29.71a1.67,1.67,0,0,0-1.13,1.57,1.57,1.57,0,0,0,1.41,1.74,1.31,1.31,0,0,0,1-.36Z" transform="translate(-43.72)"/><path class="cls-1" d="M172.22,130.11c-.6-1.61-1.38-2.35-2.46-2.35a1.19,1.19,0,0,0-1.22,1.22c0,.81.58,1.24,1.77,1.77,1.86.83,3.13,1.61,3.13,3.43,0,2.3-2.19,3.42-4.19,3.42a7.68,7.68,0,0,1-2.92-.69c-.09-.52-.3-2.11-.36-2.92l.75-.13c.49,1.44,1.43,2.8,2.93,2.8a1.17,1.17,0,0,0,1.31-1.19c0-.72-.35-1.25-1.77-1.94s-3-1.54-3-3.45,1.49-3.24,3.93-3.24a10.29,10.29,0,0,1,2.48.35c.07.62.28,2.09.37,2.71Z" transform="translate(-43.72)"/><path class="cls-1" d="M195.33,127.9c-1.1.21-1.26.32-1.77,1.54-.82,2.14-1.81,4.94-2.92,8.14h-1c-.85-2.14-1.82-4.34-2.67-6.35-.87,2.14-1.73,4.19-2.55,6.35h-1c-.92-2.83-1.9-5.68-2.76-8.25-.39-1.11-.5-1.29-1.6-1.43v-.78H185v.78c-1.33.18-1.47.41-1.22,1.15.44,1.49.9,3,1.34,4.44.85-2,1.68-4.26,2.39-6.28h1c.78,2.07,1.7,4.25,2.59,6.37.39-1.13,1.18-3.36,1.38-4.37.21-.85-.07-1.15-1.67-1.31v-.78h4.59Z" transform="translate(-43.72)"/><path class="cls-1" d="M202.24,137.33h-6.08v-.78c1.22-.14,1.34-.26,1.34-1.64v-5c0-1.15-.09-1.27-1.18-1.5v-.71a22.45,22.45,0,0,0,4.14-.87v2.48c1-1.59,1.87-2.44,2.81-2.44a1.4,1.4,0,0,1,1.49,1.38,2.24,2.24,0,0,1-1.17,2,.64.64,0,0,1-.71-.12c-.39-.32-.69-.69-1.08-.69s-.92.3-1.34,1.17v4.37c0,1.38.16,1.45,1.78,1.64Z" transform="translate(-43.72)"/><path class="cls-1" d="M214.59,135.07a5.27,5.27,0,0,1-4.21,2.53,4.69,4.69,0,0,1-4.83-5,6.06,6.06,0,0,1,1.72-4.14,5.2,5.2,0,0,1,3.59-1.61,3.77,3.77,0,0,1,3.79,3.75c0,.39,0,.78-.29.85-.44.12-3.68.28-5.91.37.09,2.44,1.44,3.68,3.1,3.68a3.93,3.93,0,0,0,2.62-1Zm-4.19-7.28c-.92,0-1.7,1.08-1.84,2.89l2.78-.07c.32,0,.46-.07.46-.46C211.83,129,211.3,127.79,210.4,127.79Z" transform="translate(-43.72)"/><path class="cls-1" d="M225.35,135.1a5.29,5.29,0,0,1-4,2.5,4.86,4.86,0,0,1-5-4.94,5.5,5.5,0,0,1,2.35-4.39,6.7,6.7,0,0,1,4-1.43,3.66,3.66,0,0,1,2,.55,1,1,0,0,1,.44.86,1.46,1.46,0,0,1-1,1.28.7.7,0,0,1-.51-.25,4.1,4.1,0,0,0-2.39-1.2c-.9,0-2,.88-2,3.36,0,3.06,2.23,4.05,3.22,4.05a3.41,3.41,0,0,0,2.46-1Z" transform="translate(-43.72)"/><path class="cls-1" d="M238.11,137.33c-1.79,0-3.35,0-4.2,0-.07-.11-2.88-4.41-3-4.57s-.34-.39-.46-.42a.82.82,0,0,0-.21,0v2.46c0,1.5.12,1.54,1.36,1.73v.78H226v-.78c1.22-.19,1.34-.23,1.34-1.73V124.34c0-1.25-.12-1.36-1.34-1.64V122a20.81,20.81,0,0,0,4.3-.78v10.48a2.89,2.89,0,0,0,1.29-.89,13,13,0,0,0,1.68-2.05c.28-.5-.09-.73-.94-.87v-.76l4.92-.19v.74a4.48,4.48,0,0,0-3,1.38c-.37.37-.87,1-1.52,1.72.58.9,2.74,3.82,3.38,4.6a2.58,2.58,0,0,0,2,1.18Z" transform="translate(-43.72)"/><path class="cls-1" d="M247.31,135.07a5.25,5.25,0,0,1-4.2,2.53,4.69,4.69,0,0,1-4.83-5,6.06,6.06,0,0,1,1.72-4.14,5.18,5.18,0,0,1,3.59-1.61,3.77,3.77,0,0,1,3.79,3.75c0,.39,0,.78-.3.85-.43.12-3.68.28-5.91.37.1,2.44,1.45,3.68,3.11,3.68a3.93,3.93,0,0,0,2.62-1Zm-4.18-7.28c-.92,0-1.7,1.08-1.84,2.89l2.78-.07c.32,0,.46-.07.46-.46C244.55,129,244,127.79,243.13,127.79Z" transform="translate(-43.72)"/><path class="cls-1" d="M260.84,136.73a37.5,37.5,0,0,0-4.51.9v-1.34c-.41.28-1,.62-1.4.9a2.09,2.09,0,0,1-1.15.41,4.94,4.94,0,0,1-4.74-5.1c0-3.15,2.78-5.66,6.37-5.66a5.12,5.12,0,0,1,.92.07v-2.64c0-1.22-.11-1.34-1.54-1.52V122a31.89,31.89,0,0,0,4.53-.78v13.22c0,1.24.14,1.36,1,1.47l.51.07Zm-4.51-7.7a1.77,1.77,0,0,0-1.72-1.15c-.72,0-2.26.48-2.26,3.81,0,3,1.68,4.12,2.72,4.14a2.13,2.13,0,0,0,1.26-.39Z" transform="translate(-43.72)"/><path class="cls-1" d="M269.83,131.19a1.88,1.88,0,1,1,1.84-1.89A1.78,1.78,0,0,1,269.83,131.19Zm0,6.41a1.87,1.87,0,1,1,1.84-1.88A1.78,1.78,0,0,1,269.83,137.6Z" transform="translate(-43.72)"/><path class="cls-1" d="M280.76,141.7a12.8,12.8,0,0,1-5.5-10.63,12.93,12.93,0,0,1,5.5-10.57l.64.71c-2.14,2.18-3.45,5.77-3.45,9.89s1.43,8,3.45,9.91Z" transform="translate(-43.72)"/></g></g></g></svg>