<svg xmlns="http://www.w3.org/2000/svg" viewBox="0 0 722.48 768"><defs><style>.cls-1{fill:#dcddce;}.cls-2{fill:#58bcb0;}.cls-3{fill:#338980;}.cls-4{fill:#297568;}</style></defs><title>PlayersideBg</title><g id="Layer_2" data-name="Layer 2"><g id="UI"><g id="PlayersideBg"><rect id="playerside_BG" class="cls-1" width="721.6" height="768"/><path class="cls-2" d="M160,65.92c14-4.12,37-19.32,40.31-16.92S213.2,72.2,226.8,72.2s21.6-6.28,21.6-6.28l60.8,42.28s84.21-28,90.91-24,16.16,6.4,16.16,6.4l24.05-12.13,78.85,41.73,45.89-16.8,33.51,16.8L645,71l18.18-15.6L683.09,59l38.64,39.6L721.2,221,0,214.61V59l84.4,45.6Z"/><path class="cls-3" d="M0,97S71.2,57.4,87.6,67.6s72,45.4,89.6,45.4,75.6-31.2,80-31.2,30.4,16.8,30.4,16.8,34.13-32.3,45.33-32.3S351.2,79.46,366,98.6C382.57,120,408.26,137,410.8,137c4.8,0,72-44.8,89.6-43.2s59.2,22.4,67.2,25.6c7.5,3,51.23-24.91,66.67-28.27,1-.22,48.13,19.57,49.06,19.74,14.94,2.66,38.27,16.53,38.27,16.53V768H0V97Z"/><path class="cls-4" d="M.34,186.2S58.8,149.27,94,150.87c27.2,13.6,36,8.07,53.58,8.07s82.82,4,98.82,0,66.45.47,78.8,4.46,61.87-10.94,66.4-12.53c40.8-14.4,64-1.07,81.6.53s82.9,5.52,91.2,3.2c14.72-4.12,57.6-7.2,57.6-7.2l99.6,15.2V768H0Z"/><path class="cls-3" d="M.23,410.6s89.69,3.56,122.65.8c47.72-4-56.88-24,94.72-27.4,16.83-.38,125.59,3,88.13-5.46C254.8,367,501.2,366.6,467.21,384c-12.7,6.5,26.24,6.93,36,12.2,29.89,16.15,75.05,24,117.73,16,15.15-2.85,68.27-13.87,49.34-1.6-35.3,22.88,52.21,30,52.21,30L721.6,768H0Z"/><path class="cls-2" d="M313.6,440.6c-9.11,3-45.57,17-31.59,17.69,97.19,4.71-113.47,40.5-57.21,48.31,73.61,10.21,188.06,34.43-20.19,21-65-4.19,93.39,41.58-39.44,46.66C-116.12,585,296.69,613.39,118,636.2c-37.6,4.8,117.6,45.6,7.47,50.13C246,705,38.6,768,38.6,768H643.28s-461.32-45.6-40-76.45c78.5-5.75-191.9-.95-34.65-65,28.08-11.45-129-42.58-31.78-57.34,4.07-.62,24-13-7.57-12.5-194.43,2.92-94.43-48.47-40.48-60.59,25.86-5.81-162.35-28.68-35.95-40,13.35-1.19-99.6-9.12-73.2-15.52C395.64,436.71,329.26,435.42,313.6,440.6Z"/></g></g></g></svg>