<svg xmlns="http://www.w3.org/2000/svg" viewBox="0 0 92 92"><defs><style>.cls-1{fill:#664848;}.cls-2{fill:none;stroke:#124559;stroke-miterlimit:10;}.cls-3,.cls-4{fill:#124559;}.cls-4{font-size:12px;font-family:CalifornianFB-Bold, Californian FB;font-weight:700;}</style></defs><title>coffee_plantation</title><g id="Layer_2" data-name="Layer 2"><g id="PLANTATIONS"><g id="coffee_plantation"><rect class="cls-1" width="92" height="92"/><g id="rings"><circle class="cls-2" cx="21.79" cy="70.42" r="15.3"/></g><g id="coffee_beans"><path class="cls-3" d="M35.66,42.06a6.61,6.61,0,0,0-1.07.67c-2.67,2.15-3.43,5.17-3.2,8.3a13.83,13.83,0,0,0,.19,1.56c.14.52.28,1,.44,1.52s.31,1,.47,1.46.45.83.68,1.23.52.78.77,1.18.49.81.74,1.22c3.14,4,4.84,10.35,11.2,9a7.29,7.29,0,0,0,1.24-.2,6.3,6.3,0,0,0,1.19-.44A6.53,6.53,0,0,0,51,65a8,8,0,0,0,.6-1.21,11.73,11.73,0,0,0,.85-3.87,10.9,10.9,0,0,0,0-1.28C51.6,55,50.76,50.4,48.3,47.2q-.45-.66-.93-1.29c-2.3-2.94-5.46-5.24-9.48-4.47a6.18,6.18,0,0,0-1.14.2A6.29,6.29,0,0,0,35.66,42.06Zm7.71,10.22a9.06,9.06,0,0,1,.48,2.53c.06.42.11.85.16,1.27.13,1.12.25,2.24.44,3.35.06.37.14.74.22,1.1a23.33,23.33,0,0,0,1.74,4.17c-2-1.15-3.71-3.16-3.68-5.47,0-.29-.06-.58-.11-.87a5.5,5.5,0,0,0-.21-.87c0-.45-.09-.91-.13-1.36s-.09-.9-.14-1.35-.13-.89-.22-1.33c-.61-3.38-4.05-4.53-5.66-7.56a5.22,5.22,0,0,0-.95-.71c.28.1.58.21.87.34A15.33,15.33,0,0,1,43,51.37C43.12,51.64,43.24,52,43.37,52.28Z"/><path class="cls-3" d="M83.57,49.87a8.43,8.43,0,0,0,2.6-4.93,5.82,5.82,0,0,0,.07-.93,4.9,4.9,0,0,0-.06-.94c-.06-.34-.14-.69-.23-1a14.23,14.23,0,0,0-.43-1.36q-.31-.66-.63-1.29l-.66-1.23c-.26-.35-.53-.68-.79-1s-.58-.63-.87-.95l-.84-1c-2.37-2.23-4.33-5.53-7.08-6.64a5.28,5.28,0,0,0-1.24-.33c-4.32.08-7.6,4.41-7.11,8.54.06.38.14.76.23,1.14.3.67.61,1.39.93,2.13q.24.55.51,1.11a54.47,54.47,0,0,0,4.24,5.54A21.75,21.75,0,0,0,74.62,49c.71.57,1.51,1,2.26,1.5a4.23,4.23,0,0,0,2.48.92,7,7,0,0,0,1.89-.52,10.37,10.37,0,0,0,2-.77A3.75,3.75,0,0,0,83.57,49.87ZM75.44,42.4c-.18-.41-.35-.74-.5-1.07a4.14,4.14,0,0,1-.34-1.11q-.19-.55-.36-1.11c-.31-1-.6-2-.95-2.91-.12-.32-.24-.64-.38-1-.49-.78-1.32-2.32-1.88-3.34,1.26,0,2.09,1.55,3,2.38a5.25,5.25,0,0,1,.51.89,4.62,4.62,0,0,1,.29,1c.08.26.15.51.24.76a6.12,6.12,0,0,0,.33.75c.12.39.24.79.35,1.18s.23.79.35,1.18.26.78.41,1.16a5.13,5.13,0,0,0,.51,1,8.55,8.55,0,0,0,2.17,2.2L80,45c1,.78,2,1.55,3.08,2.33a32,32,0,0,1-3.73-1.44c-.3-.19-.59-.4-.88-.61l-.65-.49-.63-.52a3.51,3.51,0,0,0-1.29-1.12C75.76,42.93,75.6,42.65,75.44,42.4Z"/><path class="cls-3" d="M70.93,65.81a6.46,6.46,0,0,0-.41-1.06,8,8,0,0,0-6.22-4.4c-.42-.07-.85-.11-1.28-.14l-1.26.09-1.22.14c-.37.11-.72.23-1.07.35s-.69.31-1,.45l-1.06.41c-3.61,2-8.85,2.25-8.57,8.07a6.09,6.09,0,0,0,0,1.13A5.39,5.39,0,0,0,49,72a6.46,6.46,0,0,0,1.74,2.9,8.19,8.19,0,0,0,.89.75,9.43,9.43,0,0,0,3,1.48,9.58,9.58,0,0,0,1,.24c3-.07,6.76.08,9.62-1.46q.57-.25,1.14-.57c2.62-1.44,4.85-3.77,4.73-7.43a7.2,7.2,0,0,0,0-1A7.49,7.49,0,0,0,70.93,65.81Zm-9.1,4.78a6.62,6.62,0,0,1-2.08-.07l-1-.1c-.9-.1-1.82-.21-2.72-.26l-.91,0a16.59,16.59,0,0,0-3.54.72c1.17-1.53,3-2.64,4.82-2.17l.7.08a4.48,4.48,0,0,0,.73,0l1.1.14L60,69c.37,0,.73.06,1.09.07,2.77.11,4.11-2.67,6.73-3.5a5,5,0,0,0,.68-.7c-.11.23-.24.47-.38.7a11.6,11.6,0,0,1-5.5,4.82C62.37,70.49,62.09,70.53,61.83,70.59Z"/><path class="cls-3" d="M69.61,45a4.93,4.93,0,0,0-.8-.47,6.73,6.73,0,0,0-6.48.7c-.32.2-.64.42-.95.65l-.85.79-.79.8c-.2.29-.39.57-.57.86s-.33.6-.51.9l-.55.89C56.54,53.54,53,56.77,56,60.46a5.17,5.17,0,0,0,.55.75,4.08,4.08,0,0,0,.69.62,4.78,4.78,0,0,0,2.61.91,6.57,6.57,0,0,0,1,0A8.57,8.57,0,0,0,63.65,62c.28-.13.56-.28.83-.44,2.07-1.79,4.77-3.88,6-6.55.18-.34.36-.69.52-1,1.14-2.48,1.58-5.32-.27-7.68a3.76,3.76,0,0,0-.52-.67A4.27,4.27,0,0,0,69.61,45Zm-4.43,8.14c-.24.24-.49.48-.76.72a9,9,0,0,1-1.28,1c-.4.24-.83.42-1.21.68a6.16,6.16,0,0,0-1.81,2.15,8.88,8.88,0,0,1-.67,1c-.17.22-1,.75-1,1a12.27,12.27,0,0,1,2.71-4.9,7.14,7.14,0,0,1,.54-.56,7.05,7.05,0,0,1,.61-.47c2.23-1.64,3.31-3.82,4.5-6.25.07-.15.15-.3.23-.45s.18-.29.28-.43a4.37,4.37,0,0,0,.13-.86c0,.22.06.45.08.68s0,.39,0,.58a5.24,5.24,0,0,1,0,.56,9.5,9.5,0,0,1-.8,3.36A7.3,7.3,0,0,1,65.18,53.16Z"/><path class="cls-3" d="M80.68,71.58a3.39,3.39,0,0,0,.66-.33c3.37-2.24,2.3-3.42,2.32-4.67a7.07,7.07,0,0,0,0-.92c0-.31-.11-.62-.17-.92s-.13-.59-.2-.87l-.33-.75c-.13-.24-.26-.49-.38-.74s-.25-.5-.37-.75c-1.62-2.53-2.27-6.3-6.05-5.86a3.91,3.91,0,0,0-1.46.24,3.86,3.86,0,0,0-1.73,1.37,5.16,5.16,0,0,0-.42.68,7,7,0,0,0-.7,2.21q0,.38-.06.75c.31,2.16.56,4.89,1.82,6.89.15.27.31.54.48.8,1.18,1.83,2.9,3.35,5.29,3.12a3.82,3.82,0,0,0,.68-.06A3,3,0,0,0,80.68,71.58Zm-4-6.37a5.45,5.45,0,0,1-.14-1.51l0-.75c0-.66,0-1.32-.07-2,0-.22,0-.43-.07-.65a14,14,0,0,0-.79-2.53,3.92,3.92,0,0,1,1.85,3.39c0,.17,0,.34,0,.51a3.21,3.21,0,0,0,.07.53c0,.26,0,.53,0,.79s0,.54,0,.8,0,.53,0,.79c.18,2,2.12,2.86,2.9,4.72a3.23,3.23,0,0,0,.52.46l-.5-.24a9,9,0,0,1-3.64-3.78C76.85,65.59,76.79,65.39,76.73,65.21Z"/><path class="cls-3" d="M39.46,38.22a3.64,3.64,0,0,0,.71.22c4,.74,4-.86,4.92-1.74.21-.21.42-.44.62-.68s.35-.52.51-.78l.47-.76c.1-.26.2-.52.29-.77s.15-.53.23-.8.17-.53.26-.79c.6-2.94,2.76-6.1-.26-8.42a4.37,4.37,0,0,0-.56-.49,3.13,3.13,0,0,0-.65-.35,3.83,3.83,0,0,0-2.2-.23,5.46,5.46,0,0,0-.77.2,7.14,7.14,0,0,0-2.61,1.59c-1.28,1.77-3,3.9-3.49,6.21-.08.3-.15.6-.22.91-.43,2.14-.25,4.43,1.63,5.93a3.62,3.62,0,0,0,.53.42A3.08,3.08,0,0,0,39.46,38.22Zm1.61-7.33a5.41,5.41,0,0,1,1-1.18c.16-.19.33-.37.5-.56.45-.48.91-1,1.33-1.47.14-.17.27-.34.4-.52a14.17,14.17,0,0,0,1.2-2.36,3.89,3.89,0,0,1-1,3.72l-.34.38a2.78,2.78,0,0,0-.31.43c-.18.19-.37.38-.55.58l-.55.57c-.18.2-.35.4-.51.61-1.27,1.56-.48,3.53-1.21,5.4a3.25,3.25,0,0,0,.05.7,4.56,4.56,0,0,1-.18-.52,9,9,0,0,1,0-5.26C40.89,31.24,41,31.06,41.07,30.89Z"/><path class="cls-3" d="M49.63,24.74a3.42,3.42,0,0,0,.06.78c.8,4.2,2.4,3.63,3.61,4.16a9,9,0,0,0,.91.35l1,.2c.32.06.63.12.94.16s.58,0,.87,0l.87-.08.88-.05c3.12-.55,7.07.35,8.18-3.52a3.82,3.82,0,0,0,.26-.74,4,4,0,0,0,.1-.77A4.07,4.07,0,0,0,66.64,23a5.3,5.3,0,0,0-.5-.67,7,7,0,0,0-1.87-1.59,6.7,6.7,0,0,0-.7-.37c-2.24-.57-5-1.44-7.46-1-.33,0-.65.08-1,.14-2.27.4-4.45,1.47-5.2,3.89a4.11,4.11,0,0,0-.21.68A3,3,0,0,0,49.63,24.74Zm7.83-1.26A5.71,5.71,0,0,1,59,24l.75.28c.65.26,1.3.52,2,.73.22.08.44.14.67.2a13.87,13.87,0,0,0,2.79.26,4.13,4.13,0,0,1-4.07.43l-.5-.19a3.41,3.41,0,0,0-.55-.14l-.78-.32-.78-.32c-.26-.09-.52-.19-.79-.27-2-.64-3.66.91-5.78.91a3.76,3.76,0,0,0-.67.32l.44-.38a9.56,9.56,0,0,1,5.18-2C57,23.44,57.26,23.47,57.46,23.48Z"/><path class="cls-3" d="M67.27,33.4a5.38,5.38,0,0,0-.4-.84,6.73,6.73,0,0,0-5.74-3.07,11.22,11.22,0,0,0-1.16,0q-.59.07-1.14.18t-1.11.21l-.95.38c-.3.16-.62.31-.93.46l-1,.43c-3.21,1.92-8,2.59-7.55,7.33a4.82,4.82,0,0,0,0,.93,4.88,4.88,0,0,0,.21.9,4.8,4.8,0,0,0,1.65,2.22,5.92,5.92,0,0,0,.83.54,8.41,8.41,0,0,0,2.74,1,7.34,7.34,0,0,0,.93.1c2.72-.31,6.13-.51,8.67-2,.35-.17.69-.36,1-.56,2.34-1.41,4.3-3.5,4.1-6.5a4.8,4.8,0,0,0-.25-1.67Zm-8.13,4.69a6.6,6.6,0,0,1-1.88.12h-.94c-.83,0-1.66,0-2.48,0l-.82.06a17.14,17.14,0,0,0-3.19.9A4.87,4.87,0,0,1,54.14,37h.64a4.93,4.93,0,0,0,.66-.07l1,0,1,0c.33,0,.66,0,1,0,2.51-.14,3.66-2.54,6-3.44a4,4,0,0,0,.6-.63c-.1.2-.21.4-.33.61a11.26,11.26,0,0,1-4.86,4.41C59.63,38,59.37,38,59.14,38.09Z"/></g><text class="cls-4" transform="translate(29.24 14.55)">Coffee</text></g></g></g></svg>