<svg xmlns="http://www.w3.org/2000/svg" viewBox="0 0 92 92"><defs><style>.cls-1{fill:#f2bf5e;}.cls-2{fill:none;stroke:#124559;stroke-miterlimit:10;}.cls-3,.cls-4{fill:#124559;}.cls-4{font-size:12px;font-family:CalifornianFB-Bold, Californian FB;font-weight:700;}</style></defs><title>corn_plantation</title><g id="Layer_2" data-name="Layer 2"><g id="PLANTATIONS"><g id="corn_plantation"><rect class="cls-1" width="92" height="92"/><g id="rings"><circle class="cls-2" cx="21.79" cy="70.42" r="15.3"/></g><g id="corn"><path class="cls-3" d="M74.66,51.44l-.28.53a7.85,7.85,0,0,0-.57,1.41c-.11.38-.07.76-.16,1.14s-.27.79-.34,1.2a9.37,9.37,0,0,0,0,1.3c0,.44-.14.86-.2,1.3a22.19,22.19,0,0,0-.16,2.94c0,5.33,1.36,10.65.45,16a7.59,7.59,0,0,1-.6,2.09,1.87,1.87,0,0,1-.77.9s-2.92,1.51-3.57,3.16a1.93,1.93,0,0,0-.16.33,1.15,1.15,0,0,1-.49.65l-.59.37a1.28,1.28,0,0,1-.52.17c-.79,0-2.33.06-3.08,0a3.43,3.43,0,0,1-.87-.14,5.65,5.65,0,0,1-1-.54,1.14,1.14,0,0,1-.32-.84c-.15-1.14-2.54-2.2-3.2-2.58-3.15-1.85-2.66-9.38-2.26-15.55a28.76,28.76,0,0,0,.18-3.11c-.1-3.76-1.36-6.17-2.87-9.1-1.06-2.07-1.1-1.57-1.78.12a1.67,1.67,0,0,1-.08.2c-1,.81-1,2.42-2.11,3.29a1.49,1.49,0,0,0-.14.24,1.82,1.82,0,0,0,0,.91c0,.12-.24.1-.32.06A2.14,2.14,0,0,1,48,55.71a1.3,1.3,0,0,0-.06-.68.24.24,0,0,1,0-.08V54.9c0-.27,0-.55,0-.82v-.31c0-.1,0-.2,0-.29a2.71,2.71,0,0,0,0-.29c0-.46,0-1,.09-1.62,0-.1,0-.21,0-.31s0-.22,0-.32,0-.2.05-.29,0-.2.07-.29a17.14,17.14,0,0,1,3.26-5.15c.89-1.05,2.78-2,3.49-.8a18.92,18.92,0,0,1,1.28,2.44,23.61,23.61,0,0,0,1.61,2.38c3.12,3.93,1.89,3.24,2.82,5.37,1.29,2.9,1.77,8.2,2.17,8.65a7.22,7.22,0,0,1,.59,1.92c.28,1.08.66-.57.82-.86.33-.59.15-1.59.86-4.2.17-.62,1.14-4.79,1.45-5.35s.13-1,.35-1.59a13.71,13.71,0,0,1,.6-1.43,6.82,6.82,0,0,1,1.78-2.29c1.46-1.15,3-2.29,4.51-3.37a13.43,13.43,0,0,0,1.83-1.34,6.57,6.57,0,0,1,3.36-1.56,8.25,8.25,0,0,1,2.42-.32,9.44,9.44,0,0,1-1.42,2.41c-.31.38-.79,1.53-1.13,1.88s-.53.73-.84,1.05-.6.48-.88.74-.53.67-.84,1a12.62,12.62,0,0,0-1.06.84A3.87,3.87,0,0,0,74.66,51.44Z"/><path class="cls-3" d="M57.77,48.46c3.12,3.93,2.29,3.24,3.23,5.37,1.28,2.9,1.81,7.8,1.93,8.39a5.2,5.2,0,0,1,.48,2.07c.34,1.62.52-.42.62-.76a20.44,20.44,0,0,1,.6-4.19c.17-.62,1.14-4.79,1.45-5.35s.13-1,.35-1.59A14.74,14.74,0,0,1,67,51a10.85,10.85,0,0,1,2.19-2.29c1-.77,2-1.52,3-2.26v-.54c0-.12,0-.25,0-.4,0-1.07.58-2.11,0-3.16l0-.36,0-.38,0-.26a13.36,13.36,0,0,0-.07-3v-.28a12.08,12.08,0,0,0,0-3.5c0-.11,0-.22,0-.33A9.08,9.08,0,0,0,72,31.17l.06-.28A7,7,0,0,0,72,28c0-.11,0-.22.07-.33a2.87,2.87,0,0,0-.75-2.57c0-.12,0-.25,0-.37a3.34,3.34,0,0,0-.85-2.39l-.09-.2c-.85-2-2-3.42-3.16-3.42a10.48,10.48,0,0,0-2.65-.4,5.64,5.64,0,0,0-2.19.4,2.55,2.55,0,0,0-1.86,1.13l-.25.32c-.49,1.32-1.7,1.37-1.56,3.45,0,.11,0,.25-.14.33a1.89,1.89,0,0,0-.57,1.42s.21.82,0,1.06a1.15,1.15,0,0,0-.19.26c-.49.85-.08,2.21-.22,3.06l-.09.39c0,.14-.08.28-.12.44a2.79,2.79,0,0,0-.12.34c-.2.91.43,1.74.2,2.55,0,.1-.05.2-.07.3a7,7,0,0,0,0,2.67c0,.1,0,.21-.07.31a6.44,6.44,0,0,0,.1,2.54l-.06.3a7.92,7.92,0,0,0,0,3v.55a6.68,6.68,0,0,0,0,2.75v.4l0,1.66A5.57,5.57,0,0,1,57.77,48.46Z"/><path class="cls-3" d="M56.79,43.08a2.81,2.81,0,0,0,0-.29v-.26a8.15,8.15,0,0,1,0-3c0-.1,0-.2.07-.3a6.44,6.44,0,0,1-.1-2.54l.06-.31a7.2,7.2,0,0,1,0-2.67c0-.1.05-.2.07-.3a1.51,1.51,0,0,0,0-.52,3.74,3.74,0,0,1-.77-.47,3.51,3.51,0,0,1-.25-.26,4.23,4.23,0,0,0-.89-.81c-1.17-.47-1.86-1.59-2.27-1.19.41,0,1.06,2.88,1.62,3.33,0,0,.87,1.36.95,1.52A31.84,31.84,0,0,1,56,39.14l0,.25c.79,1.08-.25,2.12.4,2.91l0,.21c0,.14,0,.28,0,.41l0,.22.2.29Z"/></g><text class="cls-4" transform="translate(32.93 14.55)">Corn</text></g></g></g></svg>