<svg xmlns="http://www.w3.org/2000/svg" viewBox="0 0 92 92"><defs><style>.cls-1{fill:#68829e;}.cls-2{fill:none;stroke:#124559;stroke-miterlimit:10;}.cls-3,.cls-4{fill:#124559;}.cls-4{font-size:12px;font-family:CalifornianFB-Bold, Californian FB;font-weight:700;}</style></defs><title>indigo_plantation</title><g id="Layer_2" data-name="Layer 2"><g id="PLANTATIONS"><g id="indigo_plantation"><rect class="cls-1" width="92" height="92"/><g id="rings"><circle class="cls-2" cx="21.79" cy="70.42" r="15.3"/></g><g id="indigos"><g id="indigo_flower"><path class="cls-3" d="M65.19,85.6s-1.52-5.4-8.86-6.74C57.33,84,65.19,85.6,65.19,85.6Z"/><path class="cls-3" d="M64.24,83.7s1.9-5.74-5.44-7.08A10.2,10.2,0,0,0,64.24,83.7Z"/><path class="cls-3" d="M65.17,85.21s4-.59,8.93-6.07C68.89,78.75,65.17,85.21,65.17,85.21Z"/><path class="cls-3" d="M64.59,81.77S65.92,75.61,60,69.46C58.21,74.59,64.59,81.77,64.59,81.77Z"/><path class="cls-3" d="M70.61,72.38s-7.78,3.39-5,13C71.57,82.63,70.61,72.38,70.61,72.38Z"/><path class="cls-3" d="M67.23,68.83s-4.2,4-2.65,11.38C68.65,77.24,67.23,68.83,67.23,68.83Z"/><path class="cls-3" d="M64.15,84.58c0-.26-.05-.58-.08-.9l-.11-1-.22-2c-.15-1.3-.3-2.6-.42-3.91-.06-.66-.13-1.32-.17-2a9.89,9.89,0,0,1,0-1.11c0-.31,0-.61,0-.92,0-1.25,0-2.53-.14-3.82l-.34-3.92c-.06-.66-.11-1.33-.12-2l-.06-2c-.09-2.61-.23-5.21-.47-7.81s-.59-5.18-1-7.76c-.2-1.28-.44-2.59-.6-3.9L60,37.75c-.17-1.3-.38-2.53-.58-3.87S59.08,31.26,59,30c-.19-2.63-.3-5.25-.31-7.88a.13.13,0,0,1,.25,0c.35,2.6.65,5.2,1,7.79.18,1.29.37,2.58.59,3.85l.37,1.93c.12.65.22,1.31.29,2,.15,1.31.24,2.62.38,3.91s.35,2.56.59,3.86c.44,2.59.83,5.2,1.12,7.82s.54,5.24.71,7.86l.12,2c.05.63.12,1.26.2,1.9.16,1.29.38,2.58.56,3.89a33,33,0,0,1,.36,4c0,.35,0,.7,0,1s0,.53,0,.85c0,.62.11,1.27.17,1.92l.43,3.89.2,2,.09,1c0,.33.05.66.06,1.06a1,1,0,0,1-2,.07Z"/><path class="cls-3" d="M61.74,47.38s1.37-1.14,1.33-1.31-.27-.2-.11-.57a1.91,1.91,0,0,1,.74-.66,5.47,5.47,0,0,1,.18-1.67,11.79,11.79,0,0,1,.83-1c.17-.18,1-1.83,1.26-1.74.56.21.3,1.9.34,2.21s.68-.84,1.19-.8,1.74-.19,1.73.6a5.17,5.17,0,0,1-1,2.6,6.55,6.55,0,0,1-2.61.64c-.43,0-.5.31-.77.46s-1.23.58-1.41.44S62,47.89,62,47.89Z"/><path class="cls-3" d="M63.34,58.45l.9-1.17s.12-1,.32-1.1-.74-2.08-.44-2.7a5.45,5.45,0,0,1,2.06-2,1,1,0,0,1,1,.52c.14.3.3-.27.38-.25s.75.43.67.91.46-.38.76-.29,1.58.83,1.6,1.27A2.74,2.74,0,0,1,70,55.21a2.65,2.65,0,0,1-1.24.8c-.3,0-.88.8-1.67.7-.62-.07-1.9,1.19-2.2,1.14s-1.54,1.43-1.54,1.43Z"/><path class="cls-3" d="M60.76,36.51l.86-1s.12-1.18.31-1.29-.71-1.73-.42-2.25,1.6-1.78,2-1.64c.69.27.49,1,.63,1.25s0-.39.38-.45c.16,0,1-.21.92.18s.44-.32.73-.24,1.52.69,1.53,1.06a2.08,2.08,0,0,1-.53,1.28c-.29.28-.79.81-1.08.81S65,35.43,64.22,35.35c-.59-.06-1.91.83-2.2.78s-1.26.69-1.26.69Z"/><path class="cls-3" d="M61.86,46.49a3.38,3.38,0,0,1-1.19-2,1,1,0,0,0-1-.92l.27-.34s-.49-.86-.83-.93-.59-2.12-.88-2.34-.3-1-.51-.83-.44,1.34-.54,1.34a3.05,3.05,0,0,0-1,.39c-.19.17-.41-.68-1-.53s-1.25.09-1.25.88a5.22,5.22,0,0,0,.74,2.33,3,3,0,0,0,1.78.78,3.67,3.67,0,0,1,1.68.44c.15.1.76,1,1.13,1A14.06,14.06,0,0,1,62,47.25Z"/><path class="cls-3" d="M62.33,54.5a8.91,8.91,0,0,1-.66-1.88c0-.28.29-3.28-.2-3.44s-1.92-.52-2.15,0-.94-.85-1.48,0a2.34,2.34,0,0,0-.52,1.67c.09.18-1,.59-.88,1.25a1.79,1.79,0,0,0,.71,1.28,11.07,11.07,0,0,0,2.23.82c.43.05.66,1,1.12,1.14s2.11.79,2.11.79Z"/><path class="cls-3" d="M63.48,67.54s-1.1-.21-1.4-.85a5.74,5.74,0,0,0-.58-1.24A4.74,4.74,0,0,0,59.72,64c-.12,0-.33-1.24-.54-1.42s0-.63-.34-.94-.78-1.2-1.3-.93-.33.54-.24,1.33c.07.56-.15.5-.7.3l-.08,0c-.6-.16-1.06-1.07-1.29-.45l-.07,0c-.51-.23-.71-.42-1.06-.21a.27.27,0,0,0-.08.07.35.35,0,0,0-.05.08c-.27.32.35.7.54,1.09l0,.1c-.28.35-.61.16-.89-.08-.07-.06-.14-.15-.21-.21s-.24-.09-.24-.07a.94.94,0,0,1,0,.12,5.43,5.43,0,0,0,.11,1.17l.06.09a1.79,1.79,0,0,0,.37.36l.06.06a5,5,0,0,0,1.82,1.33,16.66,16.66,0,0,0,3,.33c.7,0,1.91,1.15,2.12,1.21s1.72,1.09,2.48,1S63.48,67.54,63.48,67.54Z"/><path class="cls-3" d="M60.61,37.58s-.88-.17-1.13-.68a4.25,4.25,0,0,0-.46-1,3.84,3.84,0,0,0-1.43-1.17c-.1,0-.27-1-.44-1.14s0-.51-.27-.75-.52-.72-.93-.5-.76-.57-1.29-.38.13,1.07-.24,1.22c-.89.35-1-.69-1.51-.25s-1.07,1.13-.34,1.88.27,2,2.16,1.9c1.26-.09,1.44-.32,2-.32s1.54.92,1.71,1,1.38.88,2,.83S60.61,37.58,60.61,37.58Z"/><path class="cls-3" d="M64.49,68a8.39,8.39,0,0,1,.93-.58c.12-.1.37-.27.38-.44s-.23-.34-.08-.68l.89-2.08a2.1,2.1,0,0,1,.21-.39c.28-.4.74-.48,1.07-.82a1,1,0,0,0,.17-.23.65.65,0,0,0,0-.2l.14-.72c0-.18.08-.59.26-.71s.26.12.51.09.33-.37.54-.2.08.65.07.83a1.15,1.15,0,0,0,.17.75c.11.14.28.23.39.37.31.36.4.18.79,0a2.09,2.09,0,0,1,1-.18c.66.11,1.5.31,1.56.61a3.2,3.2,0,0,1-.93,1.9c-.4.19-.88,1.23-1.56,1.21a8.18,8.18,0,0,0-2.2,0,13.48,13.48,0,0,1-1.36.5c-.32.09-1,.79-1.2.54s-1.81,1.84-1.81,1.84Z"/><path class="cls-3" d="M59.77,30.73c.14-.23.75-1.36.75-1.36a1,1,0,0,1-.14-.84,3.89,3.89,0,0,1,.68-1.27c.25-.25.32-1.61.75-1.84s1.34-.72,1.11-.25.32-.27.41,0a2.06,2.06,0,0,1,.11,1.57,4.34,4.34,0,0,1-1.33,1.43c-.21.06-.77,1.37-1,1.24s-1.34,1.64-1.34,1.64Z"/><path class="cls-3" d="M59.07,28.48c-.16-.31-.35-.61-.52-.91a1.57,1.57,0,0,0-.22-.38c-.34-.27-.88-.14-1.09-.6,0,0,0-.09-.08-.1h-.08c-.1,0-.17-.15-.28-.35s0-.05-.21-.34-.15-.24-.19-.29a1.22,1.22,0,0,0-.36-.27,1.71,1.71,0,0,1-.44-.46,1.65,1.65,0,0,1-.19-.87.83.83,0,0,1,.09-.56.59.59,0,0,1,.16-.18s0-.05,0-.07c0-.26.13-.41.27-.19.29.44-.06-.41.24-.34.62.16,1.17.28,1.5.9A3.94,3.94,0,0,1,58,24.63a4.23,4.23,0,0,0,.34,1.18,3.75,3.75,0,0,1,.25.49c.1.26,0,.5.08.76s.16.45.25.67.26.62.41.92Z"/><path class="cls-3" d="M59,24.86c0-.26-.29-1.52-.29-1.52a1,1,0,0,1-.64-.56,3.94,3.94,0,0,1-.29-1.41.56.56,0,0,0,0-.23.47.47,0,0,0-.06-.15l-.09-.17c0-.05-.05-.1-.08-.16a1,1,0,0,1-.13-1.19l.07-.09a.45.45,0,0,1,0-.25c-.12-.51.33-.51.84-.41h.08l.09,0,.08,0a1.09,1.09,0,0,1,.33-.1.33.33,0,0,1,.25.07.45.45,0,0,1,.1.13c-.53.73.37,1.18.22,2.12a.6.6,0,0,1-.18.21c0,.07,0,.13,0,.18a.38.38,0,0,1-.05.11c-.11.18.3,1.54,0,1.6s0,2.11,0,2.11Z"/></g></g><text class="cls-4" transform="translate(29.15 14.55)">Indigo</text></g></g></g></svg>