<svg xmlns="http://www.w3.org/2000/svg" viewBox="0 0 92 92"><defs><style>.cls-1{fill:#6d6d6d;}.cls-2{fill:none;stroke:#124559;}.cls-2,.cls-4{stroke-miterlimit:10;}.cls-3,.cls-4,.cls-5{fill:#124559;}.cls-4{stroke:#6d6d6d;}.cls-5{font-size:12px;font-family:CalifornianFB-Bold, Californian FB;font-weight:700;}</style></defs><title>quarry</title><g id="Layer_2" data-name="Layer 2"><g id="PLANTATIONS"><g id="quarry"><rect class="cls-1" width="92" height="92"/><g id="rings"><circle class="cls-2" cx="21.79" cy="70.42" r="15.3"/></g><g id="rocks"><polygon class="cls-3" points="31.15 55.45 32.6 46.76 37.7 42.08 41.34 36.73 56.8 28.93 73.9 36.06 75.54 42.19 76.45 45.87 80.09 45.2 84.82 48.76 84.82 55.45 78.81 58.79 66.08 65.47 57.98 65.47 55.34 61.68 54.98 58.12 49.16 60.79 36.39 60.35 31.15 55.45"/><path class="cls-4" d="M39,68.25l4.46-6.94,3.87-4.16,11.59-5.71s12.78,2.93,12.93,3.39,8.47-1.69,8.47-1.69l6.09,7.4L89,69.79,76.33,73.33h-16L50.22,74.69,46.16,72.1Z"/></g><g id="pickaxe"><path class="cls-3" d="M50.89,24.33c-.41,2.63-1.14,9-3.77,13.94-2.86,5.32-.64-2.2-.64-2.2S50,24.65,50.25,20.21,51.3,21.7,50.89,24.33Z"/><path class="cls-3" d="M23.21,26.24a.49.49,0,0,1,.56-.42q2.93.46,5.85.87l6.36.9c2.12.28,4.23.6,6.36.84l3.18.37,1.6.19a1.75,1.75,0,0,0,.4,0c.14,0,.28-.13.42-.16a1.17,1.17,0,0,1,.78.21l-.19,1.52a1.13,1.13,0,0,1-.81,0c-.13-.07-.25-.19-.37-.26a1.89,1.89,0,0,0-.4-.08L45.36,30l-3.17-.45c-2.12-.32-4.24-.55-6.36-.83L29.45,28c-1.95-.23-3.91-.46-5.87-.66a.5.5,0,0,1-.44-.55Z"/></g><text class="cls-5" transform="translate(27.64 14.55)">Quarry</text></g></g></g></svg>