<svg xmlns="http://www.w3.org/2000/svg" viewBox="0 0 92 92"><defs><style>.cls-1,.cls-3{fill:#dddfd4;}.cls-2,.cls-4{fill:#124559;}.cls-3{stroke:#124559;stroke-miterlimit:10;}.cls-4{font-size:12px;font-family:CalifornianFB-Bold, Californian FB;font-weight:700;}</style></defs><title>sugar_plantation</title><g id="Layer_2" data-name="Layer 2"><g id="PLANTATIONS"><g id="sugar_plantation"><rect class="cls-1" width="92" height="92"/><g id="sugar"><path class="cls-2" d="M35,37.51c-1.68,2.61.94,1.84.94,1.84-2.17,1.2,0,.83-.62,3-.89,2.9-3.27,4.43-3.27,7.15,0,1.53.46,2.24,0,3.72a28.5,28.5,0,0,1-2.64,5.43,8.84,8.84,0,0,0-.38,6.14c.3,1.16.6,2.16,3.7,4.13,5.18,3.31,12.28,3.33,33.6,3.05a31,31,0,0,0,10.56-1.75c3.1-1.11,5,.85,7.84-3.79,1.31-2.14-.27-7.14-2.71-11.43-4.32-7.62-1.6-11-2.46-12.7-.47-.94-1.73-1.4-1.58-2,.12-.49.87-.6.84-.94,0-.49-1.58-.72-1.56-.85s1.35.21,1.61-.21-.6-1.41-.8-1.62c-1.94-2-12.94,1.51-18.31,2s-9.92-.8-12.89-1.45a25.74,25.74,0,0,0-9.55-.43A5.66,5.66,0,0,0,35,37.51Z"/><path class="cls-2" d="M46.91,36.65c3,.65,7.52,2,12.89,1.45,4.66-.47,13.55-3.16,17.09-2.56-.88-1.25-4.06-2.89-5.06-3.13-1.3-.32-1.65-1.35-3.15-1.86s-2.87,1.5-4.8.92-2.36-2.14-3.44-2.64-1.79-3.29-4.79-3.22c-.76,0-2.22,1.82-6.88,3.5-3,1.1-4.58,2.9-5.79,3.4-.89.37-4.77,2.63-5.52,3.71A28.21,28.21,0,0,1,46.91,36.65Z"/></g><g id="rings"><circle class="cls-3" cx="21.79" cy="70.42" r="15.3"/></g><text class="cls-4" transform="translate(31.52 14.55)">Sugar</text></g></g></g></svg>