<svg xmlns="http://www.w3.org/2000/svg" viewBox="0 0 92 92"><defs><style>.cls-1{fill:#b38867;}.cls-2{fill:none;stroke:#124559;stroke-miterlimit:10;}.cls-3,.cls-4{fill:#124559;}.cls-4{font-size:12px;font-family:CalifornianFB-Bold, Californian FB;font-weight:700;}</style></defs><title>tobacco_plantation</title><g id="Layer_2" data-name="Layer 2"><g id="PLANTATIONS"><g id="tobacco_plantation"><rect class="cls-1" width="92" height="92"/><g id="rings"><circle class="cls-2" cx="21.79" cy="70.42" r="15.3"/></g><g id="tobacco_leafs"><path class="cls-3" d="M61.32,22.59l-.21.11c-1.14.7.94,1.77.24,2.14l0,.25c0,.14,0,.28.08.41,0,2.46,0,4.21,1.58,5.7,0,.21,0,.4-.06.59-.08,1.67.93,2.79,1.58,4.48l.09.54a7.85,7.85,0,0,1,.08,1.08,6.94,6.94,0,0,1-1.91,5l-.37.44A18,18,0,0,0,58.39,47a5.08,5.08,0,0,0-.43.38,10.37,10.37,0,0,0-2,3.5l-.33.54c-2.94,1-1.77,4-2.91,6.06-.08.18-.14.36-.21.54a13.84,13.84,0,0,0-.66,2.74c0,.09-.06.19-.08.28-.33,1.2-.58,2.31-.76,3.3a2.5,2.5,0,0,1,0,.29c0,.69-1.19,1.27-.31,2.29,0,.08,0,.15,0,.23-.08.85-.11,1.51-.12,2s0,.6,0,.89v.3a3,3,0,0,0,.07,1.74,2.83,2.83,0,0,0,0,.29c0,.66.11,1.3.19,1.93l0,.21c-.45,2.55.71,4.3,1.49,6.19,0,.09.07.17.1.25l.09.2.08.2c.12,1,.12,2.14,1.88,2.14-.59-1.17,1.17-1.76.66-2.89a.48.48,0,0,1,0-.17c0-1,1.12-1,1.67-1,.59.59-1.16.59-.67,1.41a.42.42,0,0,0,0,.16c.05.22.18.43.25.65,0,.05,0,.1,0,.15l0,.17c-.24.39.34,1.56.34,2.14.59.58,1.17-.58,1.48-.55l.23-.18c.45-.36.85-.87,1.06-.72a.61.61,0,0,0,.23-.11c.53-.43.63-1.83,1.09-1.36a4.06,4.06,0,0,0,.12,1l0,.17a4,4,0,0,0,.18.88c.26.61.44,1.3.74,1.89s.33.69.48.67a.4.4,0,0,0,.22-.18c1.17-.9,0-2.06.88-3l.13-.21c.8-1.18,1.34-.64,1.66-.24a2.12,2.12,0,0,1,.32.42,2.05,2.05,0,0,0,.67.73,1.2,1.2,0,0,0,.21.13.46.46,0,0,0,.22.06c.49-.49.57-1.79.91-2.58a1.33,1.33,0,0,1,.24-.4c.6-.53.6-1.12.6-2.28,1.75,0-.58,2.33,1.06,2.51a.56.56,0,0,0,.3.17.6.6,0,0,0,.23,0,2.5,2.5,0,0,1,.36-.22,1.6,1.6,0,0,1,.3-.11c1.26,0,.67,2.31,1.84,1.73v-1c0-.13,0-.26,0-.39,0-.91-.59-2.08,0-3.25,0,1.17,1.17,1.75,1.53,2.64a.86.86,0,0,0-.06.41c.06.66.89,1.19,1,1.9l.09.25a2.12,2.12,0,0,0,.39.65c1.76.58.59-2.34,1.47-2.92a2,2,0,0,1,.06-.23c.3-.87,1.32-1.8,1-2.77,0-.09.09-.17.13-.26.29-.6.51-1.22.09-1.76l0-.28c.1-1.09.1-2.19.09-3.46,0-.1,0-.2,0-.29,0-1.07,0-2.15,0-3a2.53,2.53,0,0,1,0-.28c0-.83,0-1.68-.06-2.38a2.64,2.64,0,0,0,0-.28,20.7,20.7,0,0,0-.9-5c0-.11,0-.2-.07-.3a33.57,33.57,0,0,0-3.27-8.55,1,1,0,0,1-.2-.14c-.58-.6.28-2.09-1.2-2.3l-.09-.14c-3-4.77-5.83-7.79-5.36-12.86.11-1.19.5-2.9.77-5.26a1,1,0,0,1,0-.17c-.17-1.21,2.16-1.79.38-3.78,0-.09,0-.18,0-.27,0-.53-.07-1.07-.14-1.66a1.21,1.21,0,0,1,0-.3A41.16,41.16,0,0,0,67.87,20c-.07-.4-.32-.24-.61.1l-.18.23a.41.41,0,0,0-.2.06,1.89,1.89,0,0,1-.11.37.35.35,0,0,1-.16.2c.07,0,0,0-.17-.06.32-.58-.85-1.16-.85-1.75-.33-.16-.47-.05-.55.17l0,.13c0,.18,0,.32,0,.43a.47.47,0,0,1,0,.14c.65,1.47-1.69-1.45-1.15.2l-.08,0-.16.1-.11-.09c-.42-.34-.89-1-1.36-.53,0,1.17-1.17,1.75-.74,2.67A.59.59,0,0,1,61.32,22.59Z"/><path class="cls-3" d="M60.15,41.31a6.6,6.6,0,0,1,2.45-1.9,19.53,19.53,0,0,1,2.87-1.2A9.38,9.38,0,0,1,67,37.82h.24l.16,0a.38.38,0,0,1,.27.29.36.36,0,0,1-.18.37.48.48,0,0,1-.15.07l-.23.07a5.78,5.78,0,0,1-.81.1,7.31,7.31,0,0,1-1.61-.05.77.77,0,0,1-.24-.06.51.51,0,0,1-.17-.08.39.39,0,0,1-.15-.16.43.43,0,0,1,0-.33c.12-.26.19-.24.26-.32l.19-.13a6.25,6.25,0,0,1,.72-.38,9.12,9.12,0,0,1,1.52-.55,2.89,2.89,0,0,1,.44-.07,1.1,1.1,0,0,1,.3,0A.56.56,0,0,1,68,37a.61.61,0,0,1-.11.58.79.79,0,0,1-.3.22,2.1,2.1,0,0,1-.48.14,7,7,0,0,1-1.64,0,8.11,8.11,0,0,1-.82-.12l-.23-.07a.7.7,0,0,1-.19-.09l-.09-.08a.42.42,0,0,1-.12-.33.43.43,0,0,1,.19-.34.72.72,0,0,1,.2-.09,1.2,1.2,0,0,1,.33,0l.21,0c1,.24,2,.57,3,.83a13,13,0,0,0,1.47.34,4.74,4.74,0,0,0,.74.07c.23,0,.5,0,.6-.23l.11,0c-.09.32-.43.41-.68.46a4.35,4.35,0,0,1-.8.05c-.53,0-1-.07-1.56-.13-1-.15-2.06-.37-3-.59l-.17,0s-.13,0,0,0a.37.37,0,0,0,.16-.07.44.44,0,0,0,.16-.3.42.42,0,0,0-.11-.3l0-.05h0l.14,0c.22,0,.47.08.71.11a5.62,5.62,0,0,0,1.42,0,1,1,0,0,0,.26-.06c.09,0-.06,0,0,.22s.2.18.16.17h-.09a1.24,1.24,0,0,0-.31.05,8,8,0,0,0-1.39.44,5.61,5.61,0,0,0-.65.32l-.13.08s-.08.1,0,0a.4.4,0,0,0,0-.23c0-.07,0-.07-.08-.09h0l.13,0a7,7,0,0,0,1.46.09A5.69,5.69,0,0,0,67,38l.14,0h0s-.09,0-.08.22a.2.2,0,0,0,.13.17h-.17a8.7,8.7,0,0,0-1.45.3,19.94,19.94,0,0,0-2.86,1,7,7,0,0,0-2.48,1.67Z"/></g><text class="cls-4" transform="translate(24.27 14.55)">Tobacco</text></g></g></g></svg>